<svg width="71" height="24" viewBox="0 0 71 24" fill="none" xmlns="http://www.w3.org/2000/svg">
<path d="M23.2939 17.3295V20.2298C23.2939 21.922 21.922 23.2939 20.2298 23.2939H6C2.68629 23.2939 0 20.6076 0 17.2939V6C0 2.68629 2.68629 0 6 0H20.5098C22.0474 0 23.2939 1.24647 23.2939 2.78406V6.72531C23.2939 7.31448 22.5504 7.81994 21.9652 7.75241C21.3554 7.68206 20.7966 7.78281 20.2998 7.87238L20.274 7.87703C19.3002 8.05323 18.5397 8.68552 17.9517 9.48148C17.3637 10.2774 17.1019 11.2679 17.2197 12.2505C17.3375 13.233 17.8261 14.1336 18.5856 14.768C19.3451 15.4024 20.5466 15.9945 21.5345 15.9355C22.3901 15.8824 23.2939 16.4722 23.2939 17.3295Z" fill="#7B2CBF" fill-opacity="0.74"/>
<path d="M23.961 7.1125V2.91696C23.961 1.30597 25.2669 0 26.8779 0H43.7771C45.3253 0 46.5764 1.26241 46.5625 2.81054L46.5267 6.80911C46.5216 7.38655 45.7857 7.87941 45.2224 7.75241C44.675 7.68739 44.1728 7.7807 43.6965 7.86919L43.6543 7.87703C42.7084 8.05323 41.9697 8.68552 41.3985 9.48148C40.8274 10.2774 40.5731 11.2679 40.6875 12.2505C40.802 13.233 41.2765 14.1336 42.0143 14.768C42.752 15.4024 43.7352 15.8354 44.6947 15.7764C45.6101 15.7179 46.5877 16.3536 46.5877 17.2708V20.1751C46.5877 21.8976 45.1914 23.2939 43.469 23.2939H26.7788C25.2226 23.2939 23.961 22.0323 23.961 20.476V17.0477C23.961 16.18 22.896 15.6084 22.03 15.6637C21.0705 15.7227 20.1253 15.4024 19.3875 14.768C18.6498 14.1336 18.1752 13.233 18.0608 12.2505C17.9463 11.2679 18.2007 10.2774 18.7718 9.48148C19.3429 8.68552 20.1878 8.14404 21.1336 7.96784C21.6225 7.87717 22.1239 7.88679 22.609 7.99617C23.2174 8.13333 23.961 7.73615 23.961 7.1125Z" fill="#7B2CBF" fill-opacity="0.74"/>
<path d="M47.4109 7.08012V2.94601C47.4109 1.31897 48.7299 0 50.3569 0H64.6331C67.9468 0 70.6331 2.68629 70.6331 6V17.2939C70.6331 20.6076 67.9468 23.2939 64.6331 23.2939H50.2569C48.6851 23.2939 47.4109 22.0197 47.4109 20.4479V17.0951C47.4109 16.2004 46.3222 15.6082 45.4291 15.6637C44.4443 15.7227 43.4743 15.4024 42.7171 14.768C41.9599 14.1336 41.4729 13.233 41.3554 12.2505C41.238 11.2679 41.499 10.2774 42.0852 9.48148C42.6713 8.68552 43.5384 8.14404 44.5092 7.96784C45.0108 7.87717 45.5254 7.88679 46.0234 7.99617C46.6508 8.13399 47.4109 7.7225 47.4109 7.08012Z" fill="#7B2CBF" fill-opacity="0.74"/>
</svg>
