<svg width="1284" height="202" viewBox="0 0 1284 202" fill="none" xmlns="http://www.w3.org/2000/svg">
<path fill-rule="evenodd" clip-rule="evenodd" d="M50 202C22.3858 202 0 179.614 0 152V50C0 22.3858 22.3857 3.05176e-05 50 3.05176e-05L1147 0C1148.81 0.0897369 1150.86 1.15373 1152.74 3.73466C1160.05 39.5201 1189.63 66.2925 1225 66.2925C1248.1 66.2925 1268.72 54.8783 1282.29 36.9938C1283.41 41.141 1284 45.5011 1284 50V152C1284 179.614 1261.61 202 1234 202H50Z" fill="url(#paint0_linear)"/>
<path d="M1157.84 43.9997C1166.16 75.0141 1224.53 95.5507 1255 69.8638" stroke="#752CB4" stroke-width="3" stroke-linecap="round"/>
<path d="M107.953 70.6836C107.707 72.7891 106.928 74.416 105.615 75.5645C104.312 76.7038 102.576 77.2734 100.406 77.2734C98.0547 77.2734 96.168 76.4303 94.7461 74.7441C93.3333 73.0579 92.627 70.8021 92.627 67.9766V66.0625C92.627 64.2122 92.9551 62.5853 93.6113 61.1816C94.2767 59.778 95.2155 58.7025 96.4277 57.9551C97.64 57.1986 99.0436 56.8203 100.639 56.8203C102.753 56.8203 104.449 57.4128 105.725 58.5977C107.001 59.7734 107.743 61.4049 107.953 63.4922H105.314C105.087 61.9062 104.59 60.7578 103.824 60.0469C103.068 59.3359 102.006 58.9805 100.639 58.9805C98.9616 58.9805 97.6445 59.6003 96.6875 60.8398C95.7396 62.0794 95.2656 63.8431 95.2656 66.1309V68.0586C95.2656 70.2188 95.7168 71.9368 96.6191 73.2129C97.5215 74.4889 98.7839 75.127 100.406 75.127C101.865 75.127 102.981 74.7988 103.756 74.1426C104.54 73.4772 105.059 72.3242 105.314 70.6836H107.953ZM118.103 64.4766C117.72 64.4128 117.305 64.3809 116.859 64.3809C115.2 64.3809 114.074 65.0872 113.482 66.5V77H110.952V62.207H113.413L113.454 63.916C114.284 62.5944 115.46 61.9336 116.982 61.9336C117.474 61.9336 117.848 61.9974 118.103 62.125V64.4766ZM126.106 77.2734C124.101 77.2734 122.469 76.6172 121.211 75.3047C119.954 73.9831 119.325 72.2194 119.325 70.0137V69.5488C119.325 68.0814 119.603 66.7734 120.159 65.625C120.724 64.4674 121.508 63.5651 122.51 62.918C123.522 62.2617 124.616 61.9336 125.791 61.9336C127.715 61.9336 129.209 62.5671 130.276 63.834C131.342 65.1009 131.875 66.9147 131.875 69.2754V70.3281H121.854C121.89 71.7865 122.314 72.9668 123.125 73.8691C123.946 74.7624 124.985 75.209 126.243 75.209C127.136 75.209 127.892 75.0267 128.512 74.6621C129.132 74.2975 129.674 73.8145 130.139 73.2129L131.684 74.416C130.444 76.321 128.585 77.2734 126.106 77.2734ZM125.791 64.0117C124.771 64.0117 123.914 64.3854 123.221 65.1328C122.528 65.8711 122.1 66.9102 121.936 68.25H129.346V68.0586C129.273 66.7734 128.927 65.7799 128.307 65.0781C127.687 64.3672 126.849 64.0117 125.791 64.0117ZM143.748 77C143.602 76.7083 143.483 76.1888 143.392 75.4414C142.216 76.6628 140.813 77.2734 139.181 77.2734C137.723 77.2734 136.524 76.8633 135.586 76.043C134.656 75.2135 134.191 74.1654 134.191 72.8984C134.191 71.3581 134.774 70.1641 135.941 69.3164C137.117 68.4596 138.767 68.0312 140.89 68.0312H143.351V66.8691C143.351 65.985 143.087 65.2832 142.558 64.7637C142.03 64.235 141.25 63.9707 140.22 63.9707C139.318 63.9707 138.561 64.1986 137.951 64.6543C137.34 65.11 137.035 65.6615 137.035 66.3086H134.492C134.492 65.5703 134.752 64.8594 135.271 64.1758C135.8 63.4831 136.511 62.9362 137.404 62.5352C138.306 62.1341 139.295 61.9336 140.371 61.9336C142.075 61.9336 143.41 62.362 144.377 63.2188C145.343 64.0664 145.844 65.2376 145.88 66.7324V73.541C145.88 74.8991 146.054 75.9792 146.4 76.7812V77H143.748ZM139.55 75.0723C140.343 75.0723 141.095 74.8672 141.806 74.457C142.517 74.0469 143.032 73.5137 143.351 72.8574V69.8223H141.369C138.27 69.8223 136.72 70.7292 136.72 72.543C136.72 73.3359 136.985 73.9557 137.513 74.4023C138.042 74.849 138.721 75.0723 139.55 75.0723ZM153.077 58.625V62.207H155.839V64.1621H153.077V73.3359C153.077 73.9284 153.2 74.375 153.446 74.6758C153.692 74.9674 154.111 75.1133 154.704 75.1133C154.996 75.1133 155.397 75.0586 155.907 74.9492V77C155.242 77.1823 154.595 77.2734 153.966 77.2734C152.835 77.2734 151.983 76.9316 151.409 76.248C150.835 75.5645 150.548 74.5938 150.548 73.3359V64.1621H147.854V62.207H150.548V58.625H153.077ZM164.744 77.2734C162.739 77.2734 161.107 76.6172 159.85 75.3047C158.592 73.9831 157.963 72.2194 157.963 70.0137V69.5488C157.963 68.0814 158.241 66.7734 158.797 65.625C159.362 64.4674 160.146 63.5651 161.148 62.918C162.16 62.2617 163.254 61.9336 164.43 61.9336C166.353 61.9336 167.848 62.5671 168.914 63.834C169.98 65.1009 170.514 66.9147 170.514 69.2754V70.3281H160.492C160.529 71.7865 160.952 72.9668 161.764 73.8691C162.584 74.7624 163.623 75.209 164.881 75.209C165.774 75.209 166.531 75.0267 167.15 74.6621C167.77 74.2975 168.312 73.8145 168.777 73.2129L170.322 74.416C169.083 76.321 167.223 77.2734 164.744 77.2734ZM164.43 64.0117C163.409 64.0117 162.552 64.3854 161.859 65.1328C161.167 65.8711 160.738 66.9102 160.574 68.25H167.984V68.0586C167.911 66.7734 167.565 65.7799 166.945 65.0781C166.326 64.3672 165.487 64.0117 164.43 64.0117ZM187.149 64.4766C186.766 64.4128 186.351 64.3809 185.905 64.3809C184.246 64.3809 183.12 65.0872 182.528 66.5V77H179.998V62.207H182.459L182.5 63.916C183.33 62.5944 184.506 61.9336 186.028 61.9336C186.52 61.9336 186.894 61.9974 187.149 62.125V64.4766ZM188.343 69.4668C188.343 68.0176 188.626 66.7142 189.191 65.5566C189.765 64.3991 190.558 63.5059 191.57 62.877C192.591 62.248 193.753 61.9336 195.056 61.9336C197.071 61.9336 198.698 62.6309 199.937 64.0254C201.186 65.4199 201.81 67.2747 201.81 69.5898V69.7676C201.81 71.2077 201.532 72.502 200.976 73.6504C200.429 74.7897 199.641 75.6784 198.611 76.3164C197.59 76.9544 196.414 77.2734 195.084 77.2734C193.078 77.2734 191.451 76.5762 190.203 75.1816C188.963 73.7871 188.343 71.9414 188.343 69.6445V69.4668ZM190.886 69.7676C190.886 71.4082 191.265 72.7253 192.021 73.7188C192.787 74.7122 193.808 75.209 195.084 75.209C196.369 75.209 197.39 74.7077 198.146 73.7051C198.903 72.6934 199.281 71.2806 199.281 69.4668C199.281 67.8444 198.893 66.5319 198.119 65.5293C197.353 64.5176 196.332 64.0117 195.056 64.0117C193.808 64.0117 192.8 64.5085 192.035 65.502C191.269 66.4954 190.886 67.9173 190.886 69.7676ZM213.915 77C213.769 76.7083 213.651 76.1888 213.559 75.4414C212.384 76.6628 210.98 77.2734 209.348 77.2734C207.89 77.2734 206.692 76.8633 205.753 76.043C204.823 75.2135 204.358 74.1654 204.358 72.8984C204.358 71.3581 204.942 70.1641 206.108 69.3164C207.284 68.4596 208.934 68.0312 211.057 68.0312H213.518V66.8691C213.518 65.985 213.254 65.2832 212.725 64.7637C212.197 64.235 211.417 63.9707 210.387 63.9707C209.485 63.9707 208.729 64.1986 208.118 64.6543C207.507 65.11 207.202 65.6615 207.202 66.3086H204.659C204.659 65.5703 204.919 64.8594 205.438 64.1758C205.967 63.4831 206.678 62.9362 207.571 62.5352C208.473 62.1341 209.462 61.9336 210.538 61.9336C212.242 61.9336 213.578 62.362 214.544 63.2188C215.51 64.0664 216.011 65.2376 216.048 66.7324V73.541C216.048 74.8991 216.221 75.9792 216.567 76.7812V77H213.915ZM209.718 75.0723C210.511 75.0723 211.262 74.8672 211.973 74.457C212.684 74.0469 213.199 73.5137 213.518 72.8574V69.8223H211.536C208.437 69.8223 206.887 70.7292 206.887 72.543C206.887 73.3359 207.152 73.9557 207.68 74.4023C208.209 74.849 208.888 75.0723 209.718 75.0723ZM219.197 69.4805C219.197 67.2109 219.735 65.388 220.811 64.0117C221.886 62.6263 223.294 61.9336 225.035 61.9336C226.767 61.9336 228.139 62.526 229.15 63.7109V56H231.68V77H229.355L229.232 75.4141C228.221 76.6536 226.812 77.2734 225.008 77.2734C223.294 77.2734 221.895 76.5716 220.811 75.168C219.735 73.7643 219.197 71.9323 219.197 69.6719V69.4805ZM221.727 69.7676C221.727 71.4447 222.073 72.7572 222.766 73.7051C223.458 74.653 224.415 75.127 225.637 75.127C227.241 75.127 228.412 74.4069 229.15 72.9668V66.1719C228.394 64.7773 227.232 64.0801 225.664 64.0801C224.424 64.0801 223.458 64.5586 222.766 65.5156C222.073 66.4727 221.727 67.89 221.727 69.7676ZM237.796 62.207L237.864 63.8477C238.949 62.5716 240.412 61.9336 242.253 61.9336C244.322 61.9336 245.73 62.7266 246.478 64.3125C246.97 63.6016 247.608 63.0273 248.392 62.5898C249.185 62.1523 250.119 61.9336 251.195 61.9336C254.439 61.9336 256.089 63.6517 256.144 67.0879V77H253.614V67.2383C253.614 66.181 253.373 65.3926 252.89 64.873C252.407 64.3444 251.596 64.0801 250.456 64.0801C249.517 64.0801 248.738 64.3626 248.118 64.9277C247.499 65.4837 247.139 66.2357 247.038 67.1836V77H244.495V67.3066C244.495 65.1556 243.443 64.0801 241.337 64.0801C239.678 64.0801 238.543 64.7865 237.933 66.1992V77H235.404V62.207H237.796ZM268.905 77C268.759 76.7083 268.64 76.1888 268.549 75.4414C267.373 76.6628 265.97 77.2734 264.338 77.2734C262.88 77.2734 261.681 76.8633 260.743 76.043C259.813 75.2135 259.348 74.1654 259.348 72.8984C259.348 71.3581 259.931 70.1641 261.098 69.3164C262.274 68.4596 263.924 68.0312 266.047 68.0312H268.508V66.8691C268.508 65.985 268.244 65.2832 267.715 64.7637C267.187 64.235 266.407 63.9707 265.377 63.9707C264.475 63.9707 263.718 64.1986 263.108 64.6543C262.497 65.11 262.192 65.6615 262.192 66.3086H259.649C259.649 65.5703 259.909 64.8594 260.428 64.1758C260.957 63.4831 261.668 62.9362 262.561 62.5352C263.463 62.1341 264.452 61.9336 265.528 61.9336C267.232 61.9336 268.567 62.362 269.534 63.2188C270.5 64.0664 271.001 65.2376 271.038 66.7324V73.541C271.038 74.8991 271.211 75.9792 271.557 76.7812V77H268.905ZM264.707 75.0723C265.5 75.0723 266.252 74.8672 266.963 74.457C267.674 74.0469 268.189 73.5137 268.508 72.8574V69.8223H266.526C263.427 69.8223 261.877 70.7292 261.877 72.543C261.877 73.3359 262.142 73.9557 262.67 74.4023C263.199 74.849 263.878 75.0723 264.707 75.0723ZM287.298 69.7676C287.298 72.0189 286.783 73.8327 285.754 75.209C284.724 76.5853 283.329 77.2734 281.57 77.2734C279.774 77.2734 278.362 76.7038 277.332 75.5645V82.6875H274.802V62.207H277.113L277.236 63.8477C278.266 62.5716 279.697 61.9336 281.529 61.9336C283.306 61.9336 284.71 62.6035 285.74 63.9434C286.779 65.2832 287.298 67.1471 287.298 69.5352V69.7676ZM284.769 69.4805C284.769 67.8125 284.414 66.4954 283.703 65.5293C282.992 64.5632 282.017 64.0801 280.777 64.0801C279.246 64.0801 278.097 64.7591 277.332 66.1172V73.1855C278.088 74.5345 279.246 75.209 280.804 75.209C282.017 75.209 282.978 74.7305 283.689 73.7734C284.409 72.8073 284.769 71.3763 284.769 69.4805ZM298.938 73.0762C298.938 72.3926 298.679 71.8639 298.159 71.4902C297.649 71.1074 296.751 70.7793 295.466 70.5059C294.19 70.2324 293.173 69.9043 292.417 69.5215C291.669 69.1387 291.113 68.6829 290.749 68.1543C290.393 67.6257 290.216 66.9967 290.216 66.2676C290.216 65.0553 290.726 64.0299 291.747 63.1914C292.777 62.3529 294.089 61.9336 295.684 61.9336C297.361 61.9336 298.72 62.3665 299.759 63.2324C300.807 64.0983 301.331 65.2057 301.331 66.5547H298.788C298.788 65.862 298.492 65.265 297.899 64.7637C297.316 64.2624 296.578 64.0117 295.684 64.0117C294.764 64.0117 294.044 64.2122 293.524 64.6133C293.005 65.0143 292.745 65.5384 292.745 66.1855C292.745 66.7962 292.986 67.2565 293.47 67.5664C293.953 67.8763 294.823 68.1725 296.081 68.4551C297.348 68.7376 298.373 69.0749 299.157 69.4668C299.941 69.8587 300.52 70.3327 300.893 70.8887C301.276 71.4355 301.468 72.1055 301.468 72.8984C301.468 74.2201 300.939 75.2819 299.882 76.084C298.824 76.877 297.453 77.2734 295.766 77.2734C294.582 77.2734 293.533 77.0638 292.622 76.6445C291.71 76.2253 290.995 75.6419 290.475 74.8945C289.965 74.138 289.71 73.3223 289.71 72.4473H292.239C292.285 73.2949 292.622 73.9694 293.251 74.4707C293.889 74.9629 294.727 75.209 295.766 75.209C296.723 75.209 297.489 75.0176 298.063 74.6348C298.647 74.2428 298.938 73.7233 298.938 73.0762ZM314.056 77H311.527V62.207H314.056V77ZM311.321 58.2832C311.321 57.873 311.445 57.5267 311.691 57.2441C311.946 56.9616 312.32 56.8203 312.812 56.8203C313.304 56.8203 313.678 56.9616 313.933 57.2441C314.188 57.5267 314.316 57.873 314.316 58.2832C314.316 58.6934 314.188 59.0352 313.933 59.3086C313.678 59.582 313.304 59.7188 312.812 59.7188C312.32 59.7188 311.946 59.582 311.691 59.3086C311.445 59.0352 311.321 58.6934 311.321 58.2832ZM319.161 77V64.1621H316.823V62.207H319.161V60.6895C319.161 59.1035 319.584 57.8776 320.432 57.0117C321.28 56.1458 322.478 55.7129 324.028 55.7129C324.611 55.7129 325.19 55.7904 325.764 55.9453L325.627 57.9961C325.199 57.9141 324.743 57.873 324.26 57.873C323.44 57.873 322.806 58.1146 322.36 58.5977C321.913 59.0716 321.69 59.7552 321.69 60.6484V62.207H324.848V64.1621H321.69V77H319.161ZM339.036 73.2949L342.481 62.207H345.188L339.241 79.2832C338.32 81.7441 336.858 82.9746 334.852 82.9746L334.374 82.9336L333.43 82.7559V80.7051L334.114 80.7598C334.971 80.7598 335.636 80.5866 336.11 80.2402C336.593 79.8939 336.99 79.2604 337.3 78.3398L337.86 76.8359L332.583 62.207H335.345L339.036 73.2949ZM346.369 69.4668C346.369 68.0176 346.652 66.7142 347.217 65.5566C347.791 64.3991 348.584 63.5059 349.596 62.877C350.617 62.248 351.779 61.9336 353.082 61.9336C355.096 61.9336 356.723 62.6309 357.963 64.0254C359.212 65.4199 359.836 67.2747 359.836 69.5898V69.7676C359.836 71.2077 359.558 72.502 359.002 73.6504C358.455 74.7897 357.667 75.6784 356.637 76.3164C355.616 76.9544 354.44 77.2734 353.109 77.2734C351.104 77.2734 349.477 76.5762 348.229 75.1816C346.989 73.7871 346.369 71.9414 346.369 69.6445V69.4668ZM348.912 69.7676C348.912 71.4082 349.29 72.7253 350.047 73.7188C350.812 74.7122 351.833 75.209 353.109 75.209C354.395 75.209 355.415 74.7077 356.172 73.7051C356.928 72.6934 357.307 71.2806 357.307 69.4668C357.307 67.8444 356.919 66.5319 356.145 65.5293C355.379 64.5176 354.358 64.0117 353.082 64.0117C351.833 64.0117 350.826 64.5085 350.061 65.502C349.295 66.4954 348.912 67.9173 348.912 69.7676ZM371.941 75.5371C370.956 76.6947 369.512 77.2734 367.607 77.2734C366.03 77.2734 364.827 76.8177 363.997 75.9062C363.177 74.9857 362.762 73.6276 362.753 71.832V62.207H365.282V71.7637C365.282 74.0059 366.194 75.127 368.017 75.127C369.949 75.127 371.234 74.4069 371.872 72.9668V62.207H374.402V77H371.995L371.941 75.5371ZM393.935 77C393.789 76.7083 393.671 76.1888 393.58 75.4414C392.404 76.6628 391 77.2734 389.369 77.2734C387.91 77.2734 386.712 76.8633 385.773 76.043C384.843 75.2135 384.379 74.1654 384.379 72.8984C384.379 71.3581 384.962 70.1641 386.129 69.3164C387.304 68.4596 388.954 68.0312 391.078 68.0312H393.539V66.8691C393.539 65.985 393.274 65.2832 392.746 64.7637C392.217 64.235 391.438 63.9707 390.408 63.9707C389.505 63.9707 388.749 64.1986 388.138 64.6543C387.528 65.11 387.222 65.6615 387.222 66.3086H384.679C384.679 65.5703 384.939 64.8594 385.459 64.1758C385.987 63.4831 386.698 62.9362 387.591 62.5352C388.494 62.1341 389.483 61.9336 390.558 61.9336C392.263 61.9336 393.598 62.362 394.564 63.2188C395.53 64.0664 396.032 65.2376 396.068 66.7324V73.541C396.068 74.8991 396.241 75.9792 396.587 76.7812V77H393.935ZM389.738 75.0723C390.531 75.0723 391.283 74.8672 391.994 74.457C392.705 74.0469 393.22 73.5137 393.539 72.8574V69.8223H391.556C388.457 69.8223 386.908 70.7292 386.908 72.543C386.908 73.3359 387.172 73.9557 387.701 74.4023C388.229 74.849 388.908 75.0723 389.738 75.0723ZM406.983 64.4766C406.6 64.4128 406.186 64.3809 405.739 64.3809C404.08 64.3809 402.955 65.0872 402.362 66.5V77H399.833V62.207H402.294L402.335 63.916C403.164 62.5944 404.34 61.9336 405.862 61.9336C406.354 61.9336 406.728 61.9974 406.983 62.125V64.4766ZM414.986 77.2734C412.981 77.2734 411.35 76.6172 410.092 75.3047C408.834 73.9831 408.205 72.2194 408.205 70.0137V69.5488C408.205 68.0814 408.483 66.7734 409.039 65.625C409.604 64.4674 410.388 63.5651 411.391 62.918C412.402 62.2617 413.496 61.9336 414.672 61.9336C416.595 61.9336 418.09 62.5671 419.156 63.834C420.223 65.1009 420.756 66.9147 420.756 69.2754V70.3281H410.734C410.771 71.7865 411.195 72.9668 412.006 73.8691C412.826 74.7624 413.865 75.209 415.123 75.209C416.016 75.209 416.773 75.0267 417.393 74.6621C418.012 74.2975 418.555 73.8145 419.02 73.2129L420.564 74.416C419.325 76.321 417.465 77.2734 414.986 77.2734ZM414.672 64.0117C413.651 64.0117 412.794 64.3854 412.102 65.1328C411.409 65.8711 410.98 66.9102 410.816 68.25H418.227V68.0586C418.154 66.7734 417.807 65.7799 417.188 65.0781C416.568 64.3672 415.729 64.0117 414.672 64.0117ZM432.62 62.207L432.688 63.8477C433.773 62.5716 435.235 61.9336 437.077 61.9336C439.146 61.9336 440.554 62.7266 441.301 64.3125C441.793 63.6016 442.431 63.0273 443.215 62.5898C444.008 62.1523 444.942 61.9336 446.018 61.9336C449.263 61.9336 450.913 63.6517 450.967 67.0879V77H448.438V67.2383C448.438 66.181 448.196 65.3926 447.713 64.873C447.23 64.3444 446.419 64.0801 445.28 64.0801C444.341 64.0801 443.562 64.3626 442.942 64.9277C442.322 65.4837 441.962 66.2357 441.862 67.1836V77H439.319V67.3066C439.319 65.1556 438.266 64.0801 436.161 64.0801C434.502 64.0801 433.367 64.7865 432.756 66.1992V77H430.227V62.207H432.62ZM463.728 77C463.582 76.7083 463.464 76.1888 463.373 75.4414C462.197 76.6628 460.793 77.2734 459.162 77.2734C457.703 77.2734 456.505 76.8633 455.566 76.043C454.636 75.2135 454.171 74.1654 454.171 72.8984C454.171 71.3581 454.755 70.1641 455.921 69.3164C457.097 68.4596 458.747 68.0312 460.871 68.0312H463.332V66.8691C463.332 65.985 463.067 65.2832 462.539 64.7637C462.01 64.235 461.231 63.9707 460.201 63.9707C459.298 63.9707 458.542 64.1986 457.931 64.6543C457.321 65.11 457.015 65.6615 457.015 66.3086H454.472C454.472 65.5703 454.732 64.8594 455.252 64.1758C455.78 63.4831 456.491 62.9362 457.384 62.5352C458.287 62.1341 459.276 61.9336 460.351 61.9336C462.056 61.9336 463.391 62.362 464.357 63.2188C465.323 64.0664 465.824 65.2376 465.861 66.7324V73.541C465.861 74.8991 466.034 75.9792 466.38 76.7812V77H463.728ZM459.531 75.0723C460.324 75.0723 461.076 74.8672 461.787 74.457C462.498 74.0469 463.013 73.5137 463.332 72.8574V69.8223H461.349C458.25 69.8223 456.701 70.7292 456.701 72.543C456.701 73.3359 456.965 73.9557 457.494 74.4023C458.022 74.849 458.701 75.0723 459.531 75.0723ZM473.755 70.1504L472.169 71.8047V77H469.639V56H472.169V68.7012L473.522 67.0742L478.13 62.207H481.206L475.45 68.3867L481.876 77H478.909L473.755 70.1504ZM486.365 77H483.836V62.207H486.365V77ZM483.631 58.2832C483.631 57.873 483.754 57.5267 484 57.2441C484.255 56.9616 484.629 56.8203 485.121 56.8203C485.613 56.8203 485.987 56.9616 486.242 57.2441C486.497 57.5267 486.625 57.873 486.625 58.2832C486.625 58.6934 486.497 59.0352 486.242 59.3086C485.987 59.582 485.613 59.7188 485.121 59.7188C484.629 59.7188 484.255 59.582 484 59.3086C483.754 59.0352 483.631 58.6934 483.631 58.2832ZM492.618 62.207L492.7 64.0664C493.831 62.6445 495.307 61.9336 497.13 61.9336C500.256 61.9336 501.833 63.6973 501.861 67.2246V77H499.331V67.2109C499.322 66.1445 499.076 65.3561 498.593 64.8457C498.119 64.3353 497.376 64.0801 496.364 64.0801C495.544 64.0801 494.824 64.2988 494.204 64.7363C493.584 65.1738 493.101 65.748 492.755 66.459V77H490.226V62.207H492.618ZM504.873 69.4805C504.873 67.1745 505.407 65.3424 506.473 63.9844C507.539 62.6172 508.952 61.9336 510.711 61.9336C512.516 61.9336 513.924 62.5716 514.936 63.8477L515.059 62.207H517.37V76.6445C517.37 78.5586 516.8 80.0671 515.661 81.1699C514.53 82.2728 513.008 82.8242 511.094 82.8242C510.028 82.8242 508.984 82.5964 507.963 82.1406C506.942 81.6849 506.163 81.0605 505.625 80.2676L506.938 78.75C508.023 80.0898 509.349 80.7598 510.916 80.7598C512.147 80.7598 513.104 80.4134 513.788 79.7207C514.48 79.028 514.827 78.0527 514.827 76.7949V75.5234C513.815 76.6901 512.434 77.2734 510.684 77.2734C508.952 77.2734 507.549 76.5762 506.473 75.1816C505.407 73.7871 504.873 71.8867 504.873 69.4805ZM507.416 69.7676C507.416 71.4355 507.758 72.748 508.442 73.7051C509.125 74.653 510.082 75.127 511.313 75.127C512.908 75.127 514.079 74.4023 514.827 72.9531V66.1992C514.052 64.7865 512.89 64.0801 511.34 64.0801C510.11 64.0801 509.148 64.5586 508.455 65.5156C507.763 66.4727 507.416 67.89 507.416 69.7676ZM536.876 77C536.73 76.7083 536.611 76.1888 536.52 75.4414C535.345 76.6628 533.941 77.2734 532.309 77.2734C530.851 77.2734 529.652 76.8633 528.714 76.043C527.784 75.2135 527.319 74.1654 527.319 72.8984C527.319 71.3581 527.902 70.1641 529.069 69.3164C530.245 68.4596 531.895 68.0312 534.018 68.0312H536.479V66.8691C536.479 65.985 536.215 65.2832 535.686 64.7637C535.158 64.235 534.378 63.9707 533.348 63.9707C532.446 63.9707 531.69 64.1986 531.079 64.6543C530.468 65.11 530.163 65.6615 530.163 66.3086H527.62C527.62 65.5703 527.88 64.8594 528.399 64.1758C528.928 63.4831 529.639 62.9362 530.532 62.5352C531.434 62.1341 532.423 61.9336 533.499 61.9336C535.203 61.9336 536.539 62.362 537.505 63.2188C538.471 64.0664 538.972 65.2376 539.009 66.7324V73.541C539.009 74.8991 539.182 75.9792 539.528 76.7812V77H536.876ZM532.679 75.0723C533.471 75.0723 534.223 74.8672 534.934 74.457C535.645 74.0469 536.16 73.5137 536.479 72.8574V69.8223H534.497C531.398 69.8223 529.848 70.7292 529.848 72.543C529.848 73.3359 530.113 73.9557 530.641 74.4023C531.17 74.849 531.849 75.0723 532.679 75.0723ZM555.452 75.209C556.355 75.209 557.143 74.9355 557.818 74.3887C558.492 73.8418 558.866 73.1582 558.939 72.3379H561.331C561.286 73.1855 560.994 73.9922 560.456 74.7578C559.918 75.5234 559.198 76.1341 558.296 76.5898C557.403 77.0456 556.455 77.2734 555.452 77.2734C553.438 77.2734 551.834 76.6035 550.64 75.2637C549.455 73.9147 548.862 72.0736 548.862 69.7402V69.3164C548.862 67.8763 549.127 66.5957 549.655 65.4746C550.184 64.3535 550.941 63.4831 551.925 62.8633C552.918 62.2435 554.09 61.9336 555.439 61.9336C557.098 61.9336 558.474 62.4303 559.568 63.4238C560.67 64.4173 561.258 65.707 561.331 67.293H558.939C558.866 66.3359 558.501 65.5521 557.845 64.9414C557.198 64.3216 556.396 64.0117 555.439 64.0117C554.154 64.0117 553.155 64.4766 552.445 65.4062C551.743 66.3268 551.392 67.6621 551.392 69.4121V69.8906C551.392 71.5951 551.743 72.9076 552.445 73.8281C553.146 74.7487 554.149 75.209 555.452 75.209ZM563.305 69.4668C563.305 68.0176 563.588 66.7142 564.153 65.5566C564.727 64.3991 565.52 63.5059 566.532 62.877C567.552 62.248 568.715 61.9336 570.018 61.9336C572.032 61.9336 573.659 62.6309 574.899 64.0254C576.148 65.4199 576.772 67.2747 576.772 69.5898V69.7676C576.772 71.2077 576.494 72.502 575.938 73.6504C575.391 74.7897 574.603 75.6784 573.573 76.3164C572.552 76.9544 571.376 77.2734 570.045 77.2734C568.04 77.2734 566.413 76.5762 565.164 75.1816C563.925 73.7871 563.305 71.9414 563.305 69.6445V69.4668ZM565.848 69.7676C565.848 71.4082 566.226 72.7253 566.983 73.7188C567.748 74.7122 568.769 75.209 570.045 75.209C571.33 75.209 572.351 74.7077 573.108 73.7051C573.864 72.6934 574.243 71.2806 574.243 69.4668C574.243 67.8444 573.855 66.5319 573.08 65.5293C572.315 64.5176 571.294 64.0117 570.018 64.0117C568.769 64.0117 567.762 64.5085 566.996 65.502C566.231 66.4954 565.848 67.9173 565.848 69.7676ZM588.877 75.5371C587.892 76.6947 586.448 77.2734 584.543 77.2734C582.966 77.2734 581.763 76.8177 580.933 75.9062C580.113 74.9857 579.698 73.6276 579.689 71.832V62.207H582.218V71.7637C582.218 74.0059 583.13 75.127 584.953 75.127C586.885 75.127 588.17 74.4069 588.808 72.9668V62.207H591.337V77H588.931L588.877 75.5371ZM602.143 64.4766C601.761 64.4128 601.346 64.3809 600.899 64.3809C599.24 64.3809 598.115 65.0872 597.522 66.5V77H594.993V62.207H597.454L597.495 63.916C598.324 62.5944 599.5 61.9336 601.022 61.9336C601.514 61.9336 601.888 61.9974 602.143 62.125V64.4766ZM612.895 73.0762C612.895 72.3926 612.635 71.8639 612.115 71.4902C611.605 71.1074 610.707 70.7793 609.422 70.5059C608.146 70.2324 607.13 69.9043 606.373 69.5215C605.626 69.1387 605.07 68.6829 604.705 68.1543C604.35 67.6257 604.172 66.9967 604.172 66.2676C604.172 65.0553 604.682 64.0299 605.703 63.1914C606.733 62.3529 608.046 61.9336 609.641 61.9336C611.318 61.9336 612.676 62.3665 613.715 63.2324C614.763 64.0983 615.287 65.2057 615.287 66.5547H612.744C612.744 65.862 612.448 65.265 611.855 64.7637C611.272 64.2624 610.534 64.0117 609.641 64.0117C608.72 64.0117 608 64.2122 607.48 64.6133C606.961 65.0143 606.701 65.5384 606.701 66.1855C606.701 66.7962 606.943 67.2565 607.426 67.5664C607.909 67.8763 608.779 68.1725 610.037 68.4551C611.304 68.7376 612.329 69.0749 613.113 69.4668C613.897 69.8587 614.476 70.3327 614.85 70.8887C615.232 71.4355 615.424 72.1055 615.424 72.8984C615.424 74.2201 614.895 75.2819 613.838 76.084C612.781 76.877 611.409 77.2734 609.723 77.2734C608.538 77.2734 607.49 77.0638 606.578 76.6445C605.667 76.2253 604.951 75.6419 604.432 74.8945C603.921 74.138 603.666 73.3223 603.666 72.4473H606.195C606.241 73.2949 606.578 73.9694 607.207 74.4707C607.845 74.9629 608.684 75.209 609.723 75.209C610.68 75.209 611.445 75.0176 612.02 74.6348C612.603 74.2428 612.895 73.7233 612.895 73.0762ZM624.657 77.2734C622.652 77.2734 621.021 76.6172 619.763 75.3047C618.505 73.9831 617.876 72.2194 617.876 70.0137V69.5488C617.876 68.0814 618.154 66.7734 618.71 65.625C619.275 64.4674 620.059 63.5651 621.062 62.918C622.073 62.2617 623.167 61.9336 624.343 61.9336C626.266 61.9336 627.761 62.5671 628.827 63.834C629.894 65.1009 630.427 66.9147 630.427 69.2754V70.3281H620.405C620.442 71.7865 620.866 72.9668 621.677 73.8691C622.497 74.7624 623.536 75.209 624.794 75.209C625.687 75.209 626.444 75.0267 627.064 74.6621C627.683 74.2975 628.226 73.8145 628.691 73.2129L630.236 74.416C628.996 76.321 627.137 77.2734 624.657 77.2734ZM624.343 64.0117C623.322 64.0117 622.465 64.3854 621.773 65.1328C621.08 65.8711 620.652 66.9102 620.487 68.25H627.898V68.0586C627.825 66.7734 627.478 65.7799 626.859 65.0781C626.239 64.3672 625.4 64.0117 624.343 64.0117ZM633.084 80.9648L631.649 79.9805C632.506 78.7865 632.952 77.556 632.989 76.2891V74.0059H635.463V75.9883C635.463 76.9089 635.235 77.8294 634.78 78.75C634.333 79.6706 633.768 80.4089 633.084 80.9648ZM644.538 69.4668C644.538 68.0176 644.82 66.7142 645.386 65.5566C645.96 64.3991 646.753 63.5059 647.764 62.877C648.785 62.248 649.947 61.9336 651.251 61.9336C653.265 61.9336 654.892 62.6309 656.132 64.0254C657.38 65.4199 658.005 67.2747 658.005 69.5898V69.7676C658.005 71.2077 657.727 72.502 657.171 73.6504C656.624 74.7897 655.835 75.6784 654.805 76.3164C653.785 76.9544 652.609 77.2734 651.278 77.2734C649.273 77.2734 647.646 76.5762 646.397 75.1816C645.158 73.7871 644.538 71.9414 644.538 69.6445V69.4668ZM647.081 69.7676C647.081 71.4082 647.459 72.7253 648.216 73.7188C648.981 74.7122 650.002 75.209 651.278 75.209C652.563 75.209 653.584 74.7077 654.341 73.7051C655.097 72.6934 655.475 71.2806 655.475 69.4668C655.475 67.8444 655.088 66.5319 654.313 65.5293C653.548 64.5176 652.527 64.0117 651.251 64.0117C650.002 64.0117 648.995 64.5085 648.229 65.502C647.464 66.4954 647.081 67.9173 647.081 69.7676ZM668.127 64.4766C667.744 64.4128 667.329 64.3809 666.883 64.3809C665.224 64.3809 664.098 65.0872 663.506 66.5V77H660.977V62.207H663.438L663.479 63.916C664.308 62.5944 665.484 61.9336 667.006 61.9336C667.498 61.9336 667.872 61.9974 668.127 62.125V64.4766ZM676.409 69.4805C676.409 67.1745 676.942 65.3424 678.008 63.9844C679.075 62.6172 680.487 61.9336 682.246 61.9336C684.051 61.9336 685.459 62.5716 686.471 63.8477L686.594 62.207H688.905V76.6445C688.905 78.5586 688.335 80.0671 687.196 81.1699C686.065 82.2728 684.543 82.8242 682.629 82.8242C681.563 82.8242 680.519 82.5964 679.498 82.1406C678.478 81.6849 677.698 81.0605 677.161 80.2676L678.473 78.75C679.558 80.0898 680.884 80.7598 682.452 80.7598C683.682 80.7598 684.639 80.4134 685.323 79.7207C686.015 79.028 686.362 78.0527 686.362 76.7949V75.5234C685.35 76.6901 683.969 77.2734 682.219 77.2734C680.487 77.2734 679.084 76.5762 678.008 75.1816C676.942 73.7871 676.409 71.8867 676.409 69.4805ZM678.952 69.7676C678.952 71.4355 679.293 72.748 679.977 73.7051C680.661 74.653 681.618 75.127 682.848 75.127C684.443 75.127 685.614 74.4023 686.362 72.9531V66.1992C685.587 64.7865 684.425 64.0801 682.875 64.0801C681.645 64.0801 680.683 64.5586 679.991 65.5156C679.298 66.4727 678.952 67.89 678.952 69.7676ZM701.666 75.5371C700.681 76.6947 699.237 77.2734 697.332 77.2734C695.755 77.2734 694.552 76.8177 693.722 75.9062C692.902 74.9857 692.487 73.6276 692.478 71.832V62.207H695.007V71.7637C695.007 74.0059 695.919 75.127 697.742 75.127C699.674 75.127 700.959 74.4069 701.597 72.9668V62.207H704.127V77H701.72L701.666 75.5371ZM710.53 77H708.001V62.207H710.53V77ZM707.796 58.2832C707.796 57.873 707.919 57.5267 708.165 57.2441C708.42 56.9616 708.794 56.8203 709.286 56.8203C709.778 56.8203 710.152 56.9616 710.407 57.2441C710.662 57.5267 710.79 57.873 710.79 58.2832C710.79 58.6934 710.662 59.0352 710.407 59.3086C710.152 59.582 709.778 59.7188 709.286 59.7188C708.794 59.7188 708.42 59.582 708.165 59.3086C707.919 59.0352 707.796 58.6934 707.796 58.2832ZM713.775 69.4805C713.775 67.2109 714.313 65.388 715.389 64.0117C716.464 62.6263 717.872 61.9336 719.613 61.9336C721.345 61.9336 722.717 62.526 723.729 63.7109V56H726.258V77H723.934L723.811 75.4141C722.799 76.6536 721.391 77.2734 719.586 77.2734C717.872 77.2734 716.473 76.5716 715.389 75.168C714.313 73.7643 713.775 71.9323 713.775 69.6719V69.4805ZM716.305 69.7676C716.305 71.4447 716.651 72.7572 717.344 73.7051C718.036 74.653 718.993 75.127 720.215 75.127C721.819 75.127 722.99 74.4069 723.729 72.9668V66.1719C722.972 64.7773 721.81 64.0801 720.242 64.0801C719.003 64.0801 718.036 64.5586 717.344 65.5156C716.651 66.4727 716.305 67.89 716.305 69.7676ZM732.743 77H730.214V62.207H732.743V77ZM730.009 58.2832C730.009 57.873 730.132 57.5267 730.378 57.2441C730.633 56.9616 731.007 56.8203 731.499 56.8203C731.991 56.8203 732.365 56.9616 732.62 57.2441C732.876 57.5267 733.003 57.873 733.003 58.2832C733.003 58.6934 732.876 59.0352 732.62 59.3086C732.365 59.582 731.991 59.7188 731.499 59.7188C731.007 59.7188 730.633 59.582 730.378 59.3086C730.132 59.0352 730.009 58.6934 730.009 58.2832ZM738.996 62.207L739.078 64.0664C740.209 62.6445 741.685 61.9336 743.508 61.9336C746.634 61.9336 748.211 63.6973 748.239 67.2246V77H745.709V67.2109C745.7 66.1445 745.454 65.3561 744.971 64.8457C744.497 64.3353 743.754 64.0801 742.743 64.0801C741.922 64.0801 741.202 64.2988 740.582 64.7363C739.963 65.1738 739.48 65.748 739.133 66.459V77H736.604V62.207H738.996ZM751.252 69.4805C751.252 67.1745 751.785 65.3424 752.851 63.9844C753.918 62.6172 755.33 61.9336 757.089 61.9336C758.894 61.9336 760.302 62.5716 761.314 63.8477L761.437 62.207H763.748V76.6445C763.748 78.5586 763.178 80.0671 762.039 81.1699C760.908 82.2728 759.386 82.8242 757.472 82.8242C756.406 82.8242 755.362 82.5964 754.341 82.1406C753.321 81.6849 752.541 81.0605 752.004 80.2676L753.316 78.75C754.401 80.0898 755.727 80.7598 757.295 80.7598C758.525 80.7598 759.482 80.4134 760.166 79.7207C760.858 79.028 761.205 78.0527 761.205 76.7949V75.5234C760.193 76.6901 758.812 77.2734 757.062 77.2734C755.33 77.2734 753.927 76.5762 752.851 75.1816C751.785 73.7871 751.252 71.8867 751.252 69.4805ZM753.795 69.7676C753.795 71.4355 754.136 72.748 754.82 73.7051C755.504 74.653 756.461 75.127 757.691 75.127C759.286 75.127 760.457 74.4023 761.205 72.9531V66.1992C760.43 64.7865 759.268 64.0801 757.718 64.0801C756.488 64.0801 755.526 64.5586 754.834 65.5156C754.141 66.4727 753.795 67.89 753.795 69.7676ZM778.961 73.2949L782.406 62.207H785.113L779.166 79.2832C778.245 81.7441 776.783 82.9746 774.777 82.9746L774.299 82.9336L773.355 82.7559V80.7051L774.039 80.7598C774.896 80.7598 775.561 80.5866 776.035 80.2402C776.518 79.8939 776.915 79.2604 777.225 78.3398L777.785 76.8359L772.508 62.207H775.27L778.961 73.2949ZM786.294 69.4668C786.294 68.0176 786.577 66.7142 787.142 65.5566C787.716 64.3991 788.509 63.5059 789.521 62.877C790.542 62.248 791.704 61.9336 793.007 61.9336C795.021 61.9336 796.648 62.6309 797.888 64.0254C799.137 65.4199 799.761 67.2747 799.761 69.5898V69.7676C799.761 71.2077 799.483 72.502 798.927 73.6504C798.38 74.7897 797.592 75.6784 796.562 76.3164C795.541 76.9544 794.365 77.2734 793.034 77.2734C791.029 77.2734 789.402 76.5762 788.154 75.1816C786.914 73.7871 786.294 71.9414 786.294 69.6445V69.4668ZM788.837 69.7676C788.837 71.4082 789.215 72.7253 789.972 73.7188C790.737 74.7122 791.758 75.209 793.034 75.209C794.32 75.209 795.34 74.7077 796.097 73.7051C796.853 72.6934 797.232 71.2806 797.232 69.4668C797.232 67.8444 796.844 66.5319 796.07 65.5293C795.304 64.5176 794.283 64.0117 793.007 64.0117C791.758 64.0117 790.751 64.5085 789.986 65.502C789.22 66.4954 788.837 67.9173 788.837 69.7676ZM811.866 75.5371C810.881 76.6947 809.437 77.2734 807.532 77.2734C805.955 77.2734 804.752 76.8177 803.922 75.9062C803.102 74.9857 802.687 73.6276 802.678 71.832V62.207H805.207V71.7637C805.207 74.0059 806.119 75.127 807.942 75.127C809.874 75.127 811.159 74.4069 811.797 72.9668V62.207H814.327V77H811.92L811.866 75.5371ZM825.132 64.4766C824.75 64.4128 824.335 64.3809 823.888 64.3809C822.229 64.3809 821.104 65.0872 820.511 66.5V77H817.982V62.207H820.443L820.484 63.916C821.313 62.5944 822.489 61.9336 824.011 61.9336C824.504 61.9336 824.877 61.9974 825.132 62.125V64.4766ZM835.26 77V64.1621H832.922V62.207H835.26V60.6895C835.26 59.1035 835.684 57.8776 836.531 57.0117C837.379 56.1458 838.577 55.7129 840.127 55.7129C840.71 55.7129 841.289 55.7904 841.863 55.9453L841.727 57.9961C841.298 57.9141 840.842 57.873 840.359 57.873C839.539 57.873 838.906 58.1146 838.459 58.5977C838.012 59.0716 837.789 59.7552 837.789 60.6484V62.207H840.947V64.1621H837.789V77H835.26ZM850.7 64.4766C850.318 64.4128 849.903 64.3809 849.456 64.3809C847.797 64.3809 846.672 65.0872 846.079 66.5V77H843.55V62.207H846.011L846.052 63.916C846.881 62.5944 848.057 61.9336 849.579 61.9336C850.071 61.9336 850.445 61.9974 850.7 62.125V64.4766ZM855.586 77H853.057V62.207H855.586V77ZM852.852 58.2832C852.852 57.873 852.975 57.5267 853.221 57.2441C853.476 56.9616 853.85 56.8203 854.342 56.8203C854.834 56.8203 855.208 56.9616 855.463 57.2441C855.718 57.5267 855.846 57.873 855.846 58.2832C855.846 58.6934 855.718 59.0352 855.463 59.3086C855.208 59.582 854.834 59.7188 854.342 59.7188C853.85 59.7188 853.476 59.582 853.221 59.3086C852.975 59.0352 852.852 58.6934 852.852 58.2832ZM865.586 77.2734C863.58 77.2734 861.949 76.6172 860.691 75.3047C859.433 73.9831 858.804 72.2194 858.804 70.0137V69.5488C858.804 68.0814 859.082 66.7734 859.638 65.625C860.203 64.4674 860.987 63.5651 861.99 62.918C863.002 62.2617 864.095 61.9336 865.271 61.9336C867.194 61.9336 868.689 62.5671 869.755 63.834C870.822 65.1009 871.355 66.9147 871.355 69.2754V70.3281H861.334C861.37 71.7865 861.794 72.9668 862.605 73.8691C863.425 74.7624 864.464 75.209 865.722 75.209C866.616 75.209 867.372 75.0267 867.992 74.6621C868.612 74.2975 869.154 73.8145 869.619 73.2129L871.164 74.416C869.924 76.321 868.065 77.2734 865.586 77.2734ZM865.271 64.0117C864.25 64.0117 863.394 64.3854 862.701 65.1328C862.008 65.8711 861.58 66.9102 861.416 68.25H868.826V68.0586C868.753 66.7734 868.407 65.7799 867.787 65.0781C867.167 64.3672 866.328 64.0117 865.271 64.0117ZM876.487 62.207L876.569 64.0664C877.699 62.6445 879.176 61.9336 880.999 61.9336C884.125 61.9336 885.702 63.6973 885.729 67.2246V77H883.2V67.2109C883.191 66.1445 882.945 65.3561 882.462 64.8457C881.988 64.3353 881.245 64.0801 880.233 64.0801C879.413 64.0801 878.693 64.2988 878.073 64.7363C877.453 65.1738 876.97 65.748 876.624 66.459V77H874.095V62.207H876.487ZM888.729 69.4805C888.729 67.2109 889.266 65.388 890.342 64.0117C891.417 62.6263 892.826 61.9336 894.566 61.9336C896.298 61.9336 897.67 62.526 898.682 63.7109V56H901.211V77H898.887L898.764 75.4141C897.752 76.6536 896.344 77.2734 894.539 77.2734C892.826 77.2734 891.426 76.5716 890.342 75.168C889.266 73.7643 888.729 71.9323 888.729 69.6719V69.4805ZM891.258 69.7676C891.258 71.4447 891.604 72.7572 892.297 73.7051C892.99 74.653 893.947 75.127 895.168 75.127C896.772 75.127 897.943 74.4069 898.682 72.9668V66.1719C897.925 64.7773 896.763 64.0801 895.195 64.0801C893.956 64.0801 892.99 64.5586 892.297 65.5156C891.604 66.4727 891.258 67.89 891.258 69.7676ZM904.866 80.9648L903.431 79.9805C904.288 78.7865 904.734 77.556 904.771 76.2891V74.0059H907.245V75.9883C907.245 76.9089 907.017 77.8294 906.562 78.75C906.115 79.6706 905.55 80.4089 904.866 80.9648ZM916.32 69.4668C916.32 68.0176 916.602 66.7142 917.168 65.5566C917.742 64.3991 918.535 63.5059 919.547 62.877C920.567 62.248 921.729 61.9336 923.033 61.9336C925.047 61.9336 926.674 62.6309 927.914 64.0254C929.162 65.4199 929.787 67.2747 929.787 69.5898V69.7676C929.787 71.2077 929.509 72.502 928.953 73.6504C928.406 74.7897 927.617 75.6784 926.588 76.3164C925.567 76.9544 924.391 77.2734 923.06 77.2734C921.055 77.2734 919.428 76.5762 918.179 75.1816C916.94 73.7871 916.32 71.9414 916.32 69.6445V69.4668ZM918.863 69.7676C918.863 71.4082 919.241 72.7253 919.998 73.7188C920.763 74.7122 921.784 75.209 923.06 75.209C924.345 75.209 925.366 74.7077 926.123 73.7051C926.879 72.6934 927.257 71.2806 927.257 69.4668C927.257 67.8444 926.87 66.5319 926.095 65.5293C925.33 64.5176 924.309 64.0117 923.033 64.0117C921.784 64.0117 920.777 64.5085 920.011 65.502C919.246 66.4954 918.863 67.9173 918.863 69.7676ZM939.909 64.4766C939.526 64.4128 939.111 64.3809 938.665 64.3809C937.006 64.3809 935.88 65.0872 935.288 66.5V77H932.759V62.207H935.22L935.261 63.916C936.09 62.5944 937.266 61.9336 938.788 61.9336C939.28 61.9336 939.654 61.9974 939.909 62.125V64.4766ZM954.931 77.2734C952.926 77.2734 951.294 76.6172 950.036 75.3047C948.779 73.9831 948.15 72.2194 948.15 70.0137V69.5488C948.15 68.0814 948.428 66.7734 948.984 65.625C949.549 64.4674 950.333 63.5651 951.335 62.918C952.347 62.2617 953.441 61.9336 954.616 61.9336C956.54 61.9336 958.034 62.5671 959.101 63.834C960.167 65.1009 960.7 66.9147 960.7 69.2754V70.3281H950.679C950.715 71.7865 951.139 72.9668 951.95 73.8691C952.771 74.7624 953.81 75.209 955.068 75.209C955.961 75.209 956.717 75.0267 957.337 74.6621C957.957 74.2975 958.499 73.8145 958.964 73.2129L960.509 74.416C959.269 76.321 957.41 77.2734 954.931 77.2734ZM954.616 64.0117C953.596 64.0117 952.739 64.3854 952.046 65.1328C951.353 65.8711 950.925 66.9102 950.761 68.25H958.171V68.0586C958.098 66.7734 957.752 65.7799 957.132 65.0781C956.512 64.3672 955.674 64.0117 954.616 64.0117ZM968.129 73.5684L971.793 62.207H974.377L969.073 77H967.145L961.786 62.207H964.37L968.129 73.5684ZM982.558 77.2734C980.553 77.2734 978.922 76.6172 977.664 75.3047C976.406 73.9831 975.777 72.2194 975.777 70.0137V69.5488C975.777 68.0814 976.055 66.7734 976.611 65.625C977.176 64.4674 977.96 63.5651 978.963 62.918C979.974 62.2617 981.068 61.9336 982.244 61.9336C984.167 61.9336 985.662 62.5671 986.728 63.834C987.795 65.1009 988.328 66.9147 988.328 69.2754V70.3281H978.306C978.343 71.7865 978.767 72.9668 979.578 73.8691C980.398 74.7624 981.437 75.209 982.695 75.209C983.588 75.209 984.345 75.0267 984.964 74.6621C985.584 74.2975 986.127 73.8145 986.591 73.2129L988.136 74.416C986.897 76.321 985.037 77.2734 982.558 77.2734ZM982.244 64.0117C981.223 64.0117 980.366 64.3854 979.673 65.1328C978.981 65.8711 978.552 66.9102 978.388 68.25H985.798V68.0586C985.726 66.7734 985.379 65.7799 984.759 65.0781C984.14 64.3672 983.301 64.0117 982.244 64.0117ZM993.46 62.207L993.542 64.0664C994.672 62.6445 996.149 61.9336 997.971 61.9336C1001.1 61.9336 1002.67 63.6973 1002.7 67.2246V77H1000.17V67.2109C1000.16 66.1445 999.917 65.3561 999.434 64.8457C998.96 64.3353 998.218 64.0801 997.206 64.0801C996.386 64.0801 995.666 64.2988 995.046 64.7363C994.426 65.1738 993.943 65.748 993.596 66.459V77H991.067V62.207H993.46ZM105.41 102.768C105.41 105.019 104.895 106.833 103.865 108.209C102.835 109.585 101.441 110.273 99.6816 110.273C97.8861 110.273 96.4733 109.704 95.4434 108.564V115.688H92.9141V95.207H95.2246L95.3477 96.8477C96.3776 95.5716 97.8086 94.9336 99.6406 94.9336C101.418 94.9336 102.822 95.6035 103.852 96.9434C104.891 98.2832 105.41 100.147 105.41 102.535V102.768ZM102.881 102.48C102.881 100.812 102.525 99.4954 101.814 98.5293C101.104 97.5632 100.128 97.0801 98.8887 97.0801C97.3574 97.0801 96.209 97.7591 95.4434 99.1172V106.186C96.1999 107.535 97.3574 108.209 98.916 108.209C100.128 108.209 101.09 107.73 101.801 106.773C102.521 105.807 102.881 104.376 102.881 102.48ZM117.57 108.537C116.585 109.695 115.14 110.273 113.236 110.273C111.659 110.273 110.456 109.818 109.626 108.906C108.806 107.986 108.391 106.628 108.382 104.832V95.207H110.911V104.764C110.911 107.006 111.823 108.127 113.646 108.127C115.578 108.127 116.863 107.407 117.501 105.967V95.207H120.03V110H117.624L117.57 108.537ZM136.209 102.768C136.209 105.028 135.69 106.846 134.651 108.223C133.612 109.59 132.217 110.273 130.467 110.273C128.599 110.273 127.154 109.613 126.133 108.291L126.01 110H123.686V89H126.215V96.834C127.236 95.5671 128.644 94.9336 130.44 94.9336C132.235 94.9336 133.644 95.6126 134.664 96.9707C135.694 98.3288 136.209 100.188 136.209 102.549V102.768ZM133.68 102.48C133.68 100.758 133.347 99.4271 132.682 98.4883C132.017 97.5495 131.06 97.0801 129.811 97.0801C128.143 97.0801 126.944 97.8548 126.215 99.4043V105.803C126.99 107.352 128.198 108.127 129.838 108.127C131.051 108.127 131.994 107.658 132.668 106.719C133.343 105.78 133.68 104.367 133.68 102.48ZM141.957 110H139.427V89H141.957V110ZM148.565 110H146.036V95.207H148.565V110ZM145.831 91.2832C145.831 90.873 145.954 90.5267 146.2 90.2441C146.455 89.9616 146.829 89.8203 147.321 89.8203C147.813 89.8203 148.187 89.9616 148.442 90.2441C148.697 90.5267 148.825 90.873 148.825 91.2832C148.825 91.6934 148.697 92.0352 148.442 92.3086C148.187 92.582 147.813 92.7188 147.321 92.7188C146.829 92.7188 146.455 92.582 146.2 92.3086C145.954 92.0352 145.831 91.6934 145.831 91.2832ZM161.039 106.076C161.039 105.393 160.779 104.864 160.26 104.49C159.749 104.107 158.852 103.779 157.566 103.506C156.29 103.232 155.274 102.904 154.518 102.521C153.77 102.139 153.214 101.683 152.85 101.154C152.494 100.626 152.316 99.9967 152.316 99.2676C152.316 98.0553 152.827 97.0299 153.848 96.1914C154.878 95.3529 156.19 94.9336 157.785 94.9336C159.462 94.9336 160.82 95.3665 161.859 96.2324C162.908 97.0983 163.432 98.2057 163.432 99.5547H160.889C160.889 98.862 160.592 98.265 160 97.7637C159.417 97.2624 158.678 97.0117 157.785 97.0117C156.865 97.0117 156.145 97.2122 155.625 97.6133C155.105 98.0143 154.846 98.5384 154.846 99.1855C154.846 99.7962 155.087 100.257 155.57 100.566C156.053 100.876 156.924 101.173 158.182 101.455C159.449 101.738 160.474 102.075 161.258 102.467C162.042 102.859 162.62 103.333 162.994 103.889C163.377 104.436 163.568 105.105 163.568 105.898C163.568 107.22 163.04 108.282 161.982 109.084C160.925 109.877 159.553 110.273 157.867 110.273C156.682 110.273 155.634 110.064 154.723 109.645C153.811 109.225 153.096 108.642 152.576 107.895C152.066 107.138 151.811 106.322 151.811 105.447H154.34C154.385 106.295 154.723 106.969 155.352 107.471C155.99 107.963 156.828 108.209 157.867 108.209C158.824 108.209 159.59 108.018 160.164 107.635C160.747 107.243 161.039 106.723 161.039 106.076ZM169.193 96.998C170.314 95.6217 171.772 94.9336 173.568 94.9336C176.694 94.9336 178.271 96.6973 178.298 100.225V110H175.769V100.211C175.76 99.1445 175.514 98.3561 175.03 97.8457C174.557 97.3353 173.814 97.0801 172.802 97.0801C171.982 97.0801 171.262 97.2988 170.642 97.7363C170.022 98.1738 169.539 98.748 169.193 99.459V110H166.663V89H169.193V96.998ZM184.633 110H182.104V95.207H184.633V110ZM181.899 91.2832C181.899 90.873 182.022 90.5267 182.268 90.2441C182.523 89.9616 182.897 89.8203 183.389 89.8203C183.881 89.8203 184.255 89.9616 184.51 90.2441C184.765 90.5267 184.893 90.873 184.893 91.2832C184.893 91.6934 184.765 92.0352 184.51 92.3086C184.255 92.582 183.881 92.7188 183.389 92.7188C182.897 92.7188 182.523 92.582 182.268 92.3086C182.022 92.0352 181.899 91.6934 181.899 91.2832ZM190.886 95.207L190.968 97.0664C192.099 95.6445 193.575 94.9336 195.398 94.9336C198.524 94.9336 200.101 96.6973 200.129 100.225V110H197.599V100.211C197.59 99.1445 197.344 98.3561 196.861 97.8457C196.387 97.3353 195.644 97.0801 194.632 97.0801C193.812 97.0801 193.092 97.2988 192.472 97.7363C191.852 98.1738 191.369 98.748 191.023 99.459V110H188.494V95.207H190.886ZM203.141 102.48C203.141 100.174 203.675 98.3424 204.741 96.9844C205.807 95.6172 207.22 94.9336 208.979 94.9336C210.784 94.9336 212.192 95.5716 213.204 96.8477L213.327 95.207H215.637V109.645C215.637 111.559 215.068 113.067 213.929 114.17C212.798 115.273 211.276 115.824 209.362 115.824C208.296 115.824 207.252 115.596 206.231 115.141C205.21 114.685 204.431 114.061 203.893 113.268L205.206 111.75C206.29 113.09 207.617 113.76 209.184 113.76C210.415 113.76 211.372 113.413 212.055 112.721C212.748 112.028 213.095 111.053 213.095 109.795V108.523C212.083 109.69 210.702 110.273 208.952 110.273C207.22 110.273 205.817 109.576 204.741 108.182C203.675 106.787 203.141 104.887 203.141 102.48ZM205.684 102.768C205.684 104.436 206.026 105.748 206.71 106.705C207.393 107.653 208.35 108.127 209.581 108.127C211.176 108.127 212.347 107.402 213.095 105.953V99.1992C212.32 97.7865 211.158 97.0801 209.608 97.0801C208.378 97.0801 207.416 97.5586 206.723 98.5156C206.031 99.4727 205.684 100.89 205.684 102.768ZM235.144 110C234.998 109.708 234.879 109.189 234.788 108.441C233.613 109.663 232.209 110.273 230.577 110.273C229.119 110.273 227.92 109.863 226.982 109.043C226.052 108.214 225.587 107.165 225.587 105.898C225.587 104.358 226.17 103.164 227.337 102.316C228.513 101.46 230.163 101.031 232.286 101.031H234.747V99.8691C234.747 98.985 234.483 98.2832 233.954 97.7637C233.426 97.235 232.646 96.9707 231.616 96.9707C230.714 96.9707 229.958 97.1986 229.347 97.6543C228.736 98.11 228.431 98.6615 228.431 99.3086H225.888C225.888 98.5703 226.148 97.8594 226.667 97.1758C227.196 96.4831 227.907 95.9362 228.8 95.5352C229.702 95.1341 230.691 94.9336 231.767 94.9336C233.471 94.9336 234.807 95.362 235.773 96.2188C236.739 97.0664 237.24 98.2376 237.277 99.7324V106.541C237.277 107.899 237.45 108.979 237.796 109.781V110H235.144ZM230.946 108.072C231.739 108.072 232.491 107.867 233.202 107.457C233.913 107.047 234.428 106.514 234.747 105.857V102.822H232.765C229.666 102.822 228.116 103.729 228.116 105.543C228.116 106.336 228.381 106.956 228.909 107.402C229.438 107.849 230.117 108.072 230.946 108.072ZM254.937 97.4766C254.554 97.4128 254.14 97.3809 253.693 97.3809C252.034 97.3809 250.908 98.0872 250.316 99.5V110H247.787V95.207H250.248L250.289 96.916C251.118 95.5944 252.294 94.9336 253.816 94.9336C254.308 94.9336 254.682 94.9974 254.937 95.125V97.4766ZM262.94 110.273C260.935 110.273 259.304 109.617 258.046 108.305C256.788 106.983 256.159 105.219 256.159 103.014V102.549C256.159 101.081 256.437 99.7734 256.993 98.625C257.558 97.4674 258.342 96.5651 259.345 95.918C260.356 95.2617 261.45 94.9336 262.626 94.9336C264.549 94.9336 266.044 95.5671 267.11 96.834C268.177 98.1009 268.71 99.9147 268.71 102.275V103.328H258.688C258.725 104.786 259.149 105.967 259.96 106.869C260.78 107.762 261.819 108.209 263.077 108.209C263.97 108.209 264.727 108.027 265.346 107.662C265.966 107.298 266.509 106.814 266.973 106.213L268.518 107.416C267.279 109.321 265.419 110.273 262.94 110.273ZM262.626 97.0117C261.605 97.0117 260.748 97.3854 260.055 98.1328C259.363 98.8711 258.934 99.9102 258.77 101.25H266.18V101.059C266.108 99.7734 265.761 98.7799 265.141 98.0781C264.522 97.3672 263.683 97.0117 262.626 97.0117ZM277.383 108.209C278.285 108.209 279.074 107.936 279.748 107.389C280.423 106.842 280.796 106.158 280.869 105.338H283.262C283.216 106.186 282.924 106.992 282.387 107.758C281.849 108.523 281.129 109.134 280.227 109.59C279.333 110.046 278.385 110.273 277.383 110.273C275.368 110.273 273.764 109.604 272.57 108.264C271.385 106.915 270.793 105.074 270.793 102.74V102.316C270.793 100.876 271.057 99.5957 271.586 98.4746C272.115 97.3535 272.871 96.4831 273.855 95.8633C274.849 95.2435 276.02 94.9336 277.369 94.9336C279.028 94.9336 280.404 95.4303 281.498 96.4238C282.601 97.4173 283.189 98.707 283.262 100.293H280.869C280.796 99.3359 280.432 98.5521 279.775 97.9414C279.128 97.3216 278.326 97.0117 277.369 97.0117C276.084 97.0117 275.086 97.4766 274.375 98.4062C273.673 99.3268 273.322 100.662 273.322 102.412V102.891C273.322 104.595 273.673 105.908 274.375 106.828C275.077 107.749 276.079 108.209 277.383 108.209ZM288.654 110H286.124V95.207H288.654V110ZM285.919 91.2832C285.919 90.873 286.042 90.5267 286.288 90.2441C286.543 89.9616 286.917 89.8203 287.409 89.8203C287.902 89.8203 288.275 89.9616 288.53 90.2441C288.786 90.5267 288.913 90.873 288.913 91.2832C288.913 91.6934 288.786 92.0352 288.53 92.3086C288.275 92.582 287.902 92.7188 287.409 92.7188C286.917 92.7188 286.543 92.582 286.288 92.3086C286.042 92.0352 285.919 91.6934 285.919 91.2832ZM305.01 102.768C305.01 105.019 304.495 106.833 303.465 108.209C302.435 109.585 301.041 110.273 299.282 110.273C297.486 110.273 296.073 109.704 295.043 108.564V115.688H292.514V95.207H294.825L294.948 96.8477C295.978 95.5716 297.409 94.9336 299.241 94.9336C301.018 94.9336 302.422 95.6035 303.452 96.9434C304.491 98.2832 305.01 100.147 305.01 102.535V102.768ZM302.481 102.48C302.481 100.812 302.125 99.4954 301.414 98.5293C300.704 97.5632 299.728 97.0801 298.489 97.0801C296.957 97.0801 295.809 97.7591 295.043 99.1172V106.186C295.8 107.535 296.957 108.209 298.516 108.209C299.728 108.209 300.69 107.73 301.401 106.773C302.121 105.807 302.481 104.376 302.481 102.48ZM314.175 110.273C312.17 110.273 310.539 109.617 309.281 108.305C308.023 106.983 307.394 105.219 307.394 103.014V102.549C307.394 101.081 307.672 99.7734 308.228 98.625C308.793 97.4674 309.577 96.5651 310.58 95.918C311.591 95.2617 312.685 94.9336 313.861 94.9336C315.784 94.9336 317.279 95.5671 318.345 96.834C319.412 98.1009 319.945 99.9147 319.945 102.275V103.328H309.923C309.96 104.786 310.384 105.967 311.195 106.869C312.015 107.762 313.054 108.209 314.312 108.209C315.205 108.209 315.962 108.027 316.582 107.662C317.201 107.298 317.744 106.814 318.209 106.213L319.754 107.416C318.514 109.321 316.655 110.273 314.175 110.273ZM313.861 97.0117C312.84 97.0117 311.983 97.3854 311.291 98.1328C310.598 98.8711 310.17 99.9102 310.005 101.25H317.416V101.059C317.343 99.7734 316.996 98.7799 316.377 98.0781C315.757 97.3672 314.918 97.0117 313.861 97.0117ZM330.674 110V97.1621H328.336V95.207H330.674V93.6895C330.674 92.1035 331.098 90.8776 331.945 90.0117C332.793 89.1458 333.992 88.7129 335.541 88.7129C336.124 88.7129 336.703 88.7904 337.277 88.9453L337.141 90.9961C336.712 90.9141 336.257 90.873 335.773 90.873C334.953 90.873 334.32 91.1146 333.873 91.5977C333.426 92.0716 333.203 92.7552 333.203 93.6484V95.207H336.361V97.1621H333.203V110H330.674ZM338.294 102.467C338.294 101.018 338.577 99.7142 339.142 98.5566C339.716 97.3991 340.509 96.5059 341.521 95.877C342.542 95.248 343.704 94.9336 345.007 94.9336C347.021 94.9336 348.648 95.6309 349.888 97.0254C351.137 98.4199 351.761 100.275 351.761 102.59V102.768C351.761 104.208 351.483 105.502 350.927 106.65C350.38 107.79 349.592 108.678 348.562 109.316C347.541 109.954 346.365 110.273 345.034 110.273C343.029 110.273 341.402 109.576 340.154 108.182C338.914 106.787 338.294 104.941 338.294 102.645V102.467ZM340.837 102.768C340.837 104.408 341.215 105.725 341.972 106.719C342.738 107.712 343.758 108.209 345.034 108.209C346.32 108.209 347.34 107.708 348.097 106.705C348.853 105.693 349.232 104.281 349.232 102.467C349.232 100.844 348.844 99.5319 348.07 98.5293C347.304 97.5176 346.283 97.0117 345.007 97.0117C343.758 97.0117 342.751 97.5085 341.986 98.502C341.22 99.4954 340.837 100.917 340.837 102.768ZM361.883 97.4766C361.5 97.4128 361.086 97.3809 360.639 97.3809C358.98 97.3809 357.855 98.0872 357.262 99.5V110H354.733V95.207H357.194L357.235 96.916C358.064 95.5944 359.24 94.9336 360.762 94.9336C361.254 94.9336 361.628 94.9974 361.883 95.125V97.4766ZM375.606 106.295L379.052 95.207H381.759L375.811 112.283C374.891 114.744 373.428 115.975 371.423 115.975L370.944 115.934L370.001 115.756V113.705L370.684 113.76C371.541 113.76 372.207 113.587 372.68 113.24C373.164 112.894 373.56 112.26 373.87 111.34L374.43 109.836L369.153 95.207H371.915L375.606 106.295ZM382.939 102.467C382.939 101.018 383.222 99.7142 383.787 98.5566C384.361 97.3991 385.154 96.5059 386.166 95.877C387.187 95.248 388.349 94.9336 389.652 94.9336C391.667 94.9336 393.294 95.6309 394.533 97.0254C395.782 98.4199 396.406 100.275 396.406 102.59V102.768C396.406 104.208 396.128 105.502 395.572 106.65C395.025 107.79 394.237 108.678 393.207 109.316C392.186 109.954 391.01 110.273 389.68 110.273C387.674 110.273 386.048 109.576 384.799 108.182C383.559 106.787 382.939 104.941 382.939 102.645V102.467ZM385.482 102.768C385.482 104.408 385.861 105.725 386.617 106.719C387.383 107.712 388.404 108.209 389.68 108.209C390.965 108.209 391.986 107.708 392.742 106.705C393.499 105.693 393.877 104.281 393.877 102.467C393.877 100.844 393.49 99.5319 392.715 98.5293C391.949 97.5176 390.928 97.0117 389.652 97.0117C388.404 97.0117 387.396 97.5085 386.631 98.502C385.865 99.4954 385.482 100.917 385.482 102.768ZM408.511 108.537C407.527 109.695 406.082 110.273 404.177 110.273C402.6 110.273 401.397 109.818 400.568 108.906C399.747 107.986 399.333 106.628 399.323 104.832V95.207H401.853V104.764C401.853 107.006 402.764 108.127 404.587 108.127C406.519 108.127 407.805 107.407 408.443 105.967V95.207H410.972V110H408.566L408.511 108.537ZM421.778 97.4766C421.395 97.4128 420.98 97.3809 420.534 97.3809C418.875 97.3809 417.749 98.0872 417.157 99.5V110H414.627V95.207H417.088L417.129 96.916C417.959 95.5944 419.135 94.9336 420.657 94.9336C421.149 94.9336 421.523 94.9974 421.778 95.125V97.4766ZM433.054 95.207L433.136 97.0664C434.266 95.6445 435.742 94.9336 437.565 94.9336C440.692 94.9336 442.268 96.6973 442.296 100.225V110H439.766V100.211C439.757 99.1445 439.511 98.3561 439.028 97.8457C438.554 97.3353 437.811 97.0801 436.8 97.0801C435.979 97.0801 435.259 97.2988 434.639 97.7363C434.02 98.1738 433.537 98.748 433.19 99.459V110H430.661V95.207H433.054ZM452.049 110.273C450.044 110.273 448.412 109.617 447.154 108.305C445.896 106.983 445.268 105.219 445.268 103.014V102.549C445.268 101.081 445.546 99.7734 446.102 98.625C446.667 97.4674 447.451 96.5651 448.453 95.918C449.465 95.2617 450.559 94.9336 451.734 94.9336C453.658 94.9336 455.152 95.5671 456.219 96.834C457.285 98.1009 457.818 99.9147 457.818 102.275V103.328H447.797C447.833 104.786 448.257 105.967 449.068 106.869C449.889 107.762 450.928 108.209 452.186 108.209C453.079 108.209 453.835 108.027 454.455 107.662C455.075 107.298 455.617 106.814 456.082 106.213L457.627 107.416C456.387 109.321 454.528 110.273 452.049 110.273ZM451.734 97.0117C450.714 97.0117 449.857 97.3854 449.164 98.1328C448.471 98.8711 448.043 99.9102 447.879 101.25H455.289V101.059C455.216 99.7734 454.87 98.7799 454.25 98.0781C453.63 97.3672 452.792 97.0117 451.734 97.0117ZM473.655 106.514L476.499 95.207H479.029L474.722 110H472.671L469.075 98.7891L465.575 110H463.525L459.232 95.207H461.747L464.659 106.281L468.105 95.207H470.142L473.655 106.514ZM487.543 102.48C487.543 100.211 488.08 98.388 489.156 97.0117C490.231 95.6263 491.64 94.9336 493.38 94.9336C495.112 94.9336 496.484 95.526 497.496 96.7109V89H500.025V110H497.701L497.578 108.414C496.566 109.654 495.158 110.273 493.353 110.273C491.64 110.273 490.24 109.572 489.156 108.168C488.08 106.764 487.543 104.932 487.543 102.672V102.48ZM490.072 102.768C490.072 104.445 490.418 105.757 491.111 106.705C491.804 107.653 492.761 108.127 493.982 108.127C495.586 108.127 496.757 107.407 497.496 105.967V99.1719C496.739 97.7773 495.577 97.0801 494.009 97.0801C492.77 97.0801 491.804 97.5586 491.111 98.5156C490.418 99.4727 490.072 100.89 490.072 102.768ZM506.511 110H503.981V95.207H506.511V110ZM503.776 91.2832C503.776 90.873 503.899 90.5267 504.145 90.2441C504.401 89.9616 504.774 89.8203 505.266 89.8203C505.759 89.8203 506.132 89.9616 506.388 90.2441C506.643 90.5267 506.77 90.873 506.77 91.2832C506.77 91.6934 506.643 92.0352 506.388 92.3086C506.132 92.582 505.759 92.7188 505.266 92.7188C504.774 92.7188 504.401 92.582 504.145 92.3086C503.899 92.0352 503.776 91.6934 503.776 91.2832ZM518.984 106.076C518.984 105.393 518.725 104.864 518.205 104.49C517.695 104.107 516.797 103.779 515.512 103.506C514.236 103.232 513.219 102.904 512.463 102.521C511.715 102.139 511.16 101.683 510.795 101.154C510.439 100.626 510.262 99.9967 510.262 99.2676C510.262 98.0553 510.772 97.0299 511.793 96.1914C512.823 95.3529 514.135 94.9336 515.73 94.9336C517.408 94.9336 518.766 95.3665 519.805 96.2324C520.853 97.0983 521.377 98.2057 521.377 99.5547H518.834C518.834 98.862 518.538 98.265 517.945 97.7637C517.362 97.2624 516.624 97.0117 515.73 97.0117C514.81 97.0117 514.09 97.2122 513.57 97.6133C513.051 98.0143 512.791 98.5384 512.791 99.1855C512.791 99.7962 513.033 100.257 513.516 100.566C513.999 100.876 514.869 101.173 516.127 101.455C517.394 101.738 518.419 102.075 519.203 102.467C519.987 102.859 520.566 103.333 520.939 103.889C521.322 104.436 521.514 105.105 521.514 105.898C521.514 107.22 520.985 108.282 519.928 109.084C518.87 109.877 517.499 110.273 515.812 110.273C514.628 110.273 513.579 110.064 512.668 109.645C511.757 109.225 511.041 108.642 510.521 107.895C510.011 107.138 509.756 106.322 509.756 105.447H512.285C512.331 106.295 512.668 106.969 513.297 107.471C513.935 107.963 514.773 108.209 515.812 108.209C516.77 108.209 517.535 108.018 518.109 107.635C518.693 107.243 518.984 106.723 518.984 106.076ZM527.138 96.998C528.259 95.6217 529.717 94.9336 531.513 94.9336C534.639 94.9336 536.216 96.6973 536.243 100.225V110H533.714V100.211C533.705 99.1445 533.459 98.3561 532.976 97.8457C532.502 97.3353 531.759 97.0801 530.747 97.0801C529.927 97.0801 529.207 97.2988 528.587 97.7363C527.967 98.1738 527.484 98.748 527.138 99.459V110H524.609V89H527.138V96.998ZM539.885 108.674C539.885 108.236 540.013 107.872 540.268 107.58C540.532 107.288 540.924 107.143 541.444 107.143C541.963 107.143 542.355 107.288 542.62 107.58C542.893 107.872 543.03 108.236 543.03 108.674C543.03 109.093 542.893 109.444 542.62 109.727C542.355 110.009 541.963 110.15 541.444 110.15C540.924 110.15 540.532 110.009 540.268 109.727C540.013 109.444 539.885 109.093 539.885 108.674ZM561.456 101.947H556.78V110H554.141V90.0938H560.731C562.973 90.0938 564.696 90.6042 565.899 91.625C567.111 92.6458 567.718 94.1315 567.718 96.082C567.718 97.3216 567.38 98.4017 566.706 99.3223C566.041 100.243 565.111 100.931 563.917 101.387L568.593 109.836V110H565.776L561.456 101.947ZM556.78 99.8008H560.813C562.117 99.8008 563.151 99.4635 563.917 98.7891C564.692 98.1146 565.079 97.2122 565.079 96.082C565.079 94.8516 564.71 93.9082 563.971 93.252C563.242 92.5957 562.185 92.263 560.8 92.2539H556.78V99.8008ZM570.143 102.467C570.143 101.018 570.425 99.7142 570.99 98.5566C571.564 97.3991 572.357 96.5059 573.369 95.877C574.39 95.248 575.552 94.9336 576.855 94.9336C578.87 94.9336 580.497 95.6309 581.736 97.0254C582.985 98.4199 583.609 100.275 583.609 102.59V102.768C583.609 104.208 583.331 105.502 582.775 106.65C582.229 107.79 581.44 108.678 580.41 109.316C579.389 109.954 578.214 110.273 576.883 110.273C574.878 110.273 573.251 109.576 572.002 108.182C570.762 106.787 570.143 104.941 570.143 102.645V102.467ZM572.686 102.768C572.686 104.408 573.064 105.725 573.82 106.719C574.586 107.712 575.607 108.209 576.883 108.209C578.168 108.209 579.189 107.708 579.945 106.705C580.702 105.693 581.08 104.281 581.08 102.467C581.08 100.844 580.693 99.5319 579.918 98.5293C579.152 97.5176 578.132 97.0117 576.855 97.0117C575.607 97.0117 574.6 97.5085 573.834 98.502C573.068 99.4954 572.686 100.917 572.686 102.768ZM595.714 110C595.568 109.708 595.45 109.189 595.359 108.441C594.183 109.663 592.779 110.273 591.148 110.273C589.689 110.273 588.491 109.863 587.552 109.043C586.622 108.214 586.157 107.165 586.157 105.898C586.157 104.358 586.741 103.164 587.907 102.316C589.083 101.46 590.733 101.031 592.857 101.031H595.318V99.8691C595.318 98.985 595.053 98.2832 594.525 97.7637C593.996 97.235 593.217 96.9707 592.187 96.9707C591.284 96.9707 590.528 97.1986 589.917 97.6543C589.306 98.11 589.001 98.6615 589.001 99.3086H586.458C586.458 98.5703 586.718 97.8594 587.237 97.1758C587.766 96.4831 588.477 95.9362 589.37 95.5352C590.273 95.1341 591.262 94.9336 592.337 94.9336C594.042 94.9336 595.377 95.362 596.343 96.2188C597.309 97.0664 597.81 98.2376 597.847 99.7324V106.541C597.847 107.899 598.02 108.979 598.366 109.781V110H595.714ZM591.517 108.072C592.31 108.072 593.062 107.867 593.773 107.457C594.484 107.047 594.999 106.514 595.318 105.857V102.822H593.335C590.236 102.822 588.687 103.729 588.687 105.543C588.687 106.336 588.951 106.956 589.48 107.402C590.008 107.849 590.687 108.072 591.517 108.072ZM600.996 102.48C600.996 100.211 601.534 98.388 602.61 97.0117C603.685 95.6263 605.093 94.9336 606.834 94.9336C608.566 94.9336 609.938 95.526 610.95 96.7109V89H613.479V110H611.155L611.032 108.414C610.02 109.654 608.612 110.273 606.807 110.273C605.093 110.273 603.694 109.572 602.61 108.168C601.534 106.764 600.996 104.932 600.996 102.672V102.48ZM603.526 102.768C603.526 104.445 603.872 105.757 604.565 106.705C605.258 107.653 606.215 108.127 607.436 108.127C609.04 108.127 610.211 107.407 610.95 105.967V99.1719C610.193 97.7773 609.031 97.0801 607.463 97.0801C606.224 97.0801 605.258 97.5586 604.565 98.5156C603.872 99.4727 603.526 100.89 603.526 102.768ZM619.595 95.207L619.664 96.8477C620.748 95.5716 622.211 94.9336 624.052 94.9336C626.121 94.9336 627.53 95.7266 628.277 97.3125C628.769 96.6016 629.407 96.0273 630.191 95.5898C630.984 95.1523 631.918 94.9336 632.994 94.9336C636.239 94.9336 637.888 96.6517 637.943 100.088V110H635.414V100.238C635.414 99.181 635.172 98.3926 634.689 97.873C634.206 97.3444 633.395 97.0801 632.255 97.0801C631.317 97.0801 630.537 97.3626 629.918 97.9277C629.298 98.4837 628.938 99.2357 628.838 100.184V110H626.295V100.307C626.295 98.1556 625.242 97.0801 623.136 97.0801C621.477 97.0801 620.343 97.7865 619.732 99.1992V110H617.203V95.207H619.595ZM650.704 110C650.558 109.708 650.44 109.189 650.348 108.441C649.173 109.663 647.769 110.273 646.138 110.273C644.679 110.273 643.481 109.863 642.542 109.043C641.612 108.214 641.147 107.165 641.147 105.898C641.147 104.358 641.731 103.164 642.897 102.316C644.073 101.46 645.723 101.031 647.846 101.031H650.307V99.8691C650.307 98.985 650.043 98.2832 649.514 97.7637C648.986 97.235 648.207 96.9707 647.177 96.9707C646.274 96.9707 645.518 97.1986 644.907 97.6543C644.296 98.11 643.991 98.6615 643.991 99.3086H641.448C641.448 98.5703 641.708 97.8594 642.227 97.1758C642.756 96.4831 643.467 95.9362 644.36 95.5352C645.263 95.1341 646.251 94.9336 647.327 94.9336C649.031 94.9336 650.367 95.362 651.333 96.2188C652.299 97.0664 652.8 98.2376 652.837 99.7324V106.541C652.837 107.899 653.01 108.979 653.356 109.781V110H650.704ZM646.507 108.072C647.3 108.072 648.052 107.867 648.763 107.457C649.473 107.047 649.988 106.514 650.307 105.857V102.822H648.325C645.226 102.822 643.677 103.729 643.677 105.543C643.677 106.336 643.941 106.956 644.47 107.402C644.998 107.849 645.677 108.072 646.507 108.072ZM669.098 102.768C669.098 105.019 668.583 106.833 667.553 108.209C666.523 109.585 665.128 110.273 663.369 110.273C661.574 110.273 660.161 109.704 659.131 108.564V115.688H656.602V95.207H658.912L659.035 96.8477C660.065 95.5716 661.496 94.9336 663.328 94.9336C665.105 94.9336 666.509 95.6035 667.539 96.9434C668.578 98.2832 669.098 100.147 669.098 102.535V102.768ZM666.568 102.48C666.568 100.812 666.213 99.4954 665.502 98.5293C664.791 97.5632 663.816 97.0801 662.576 97.0801C661.045 97.0801 659.896 97.7591 659.131 99.1172V106.186C659.887 107.535 661.045 108.209 662.604 108.209C663.816 108.209 664.777 107.73 665.488 106.773C666.208 105.807 666.568 104.376 666.568 102.48ZM680.737 106.076C680.737 105.393 680.478 104.864 679.958 104.49C679.448 104.107 678.55 103.779 677.265 103.506C675.989 103.232 674.973 102.904 674.216 102.521C673.469 102.139 672.913 101.683 672.548 101.154C672.193 100.626 672.015 99.9967 672.015 99.2676C672.015 98.0553 672.525 97.0299 673.546 96.1914C674.576 95.3529 675.889 94.9336 677.484 94.9336C679.161 94.9336 680.519 95.3665 681.558 96.2324C682.606 97.0983 683.13 98.2057 683.13 99.5547H680.587C680.587 98.862 680.291 98.265 679.698 97.7637C679.115 97.2624 678.377 97.0117 677.484 97.0117C676.563 97.0117 675.843 97.2122 675.323 97.6133C674.804 98.0143 674.544 98.5384 674.544 99.1855C674.544 99.7962 674.786 100.257 675.269 100.566C675.752 100.876 676.622 101.173 677.88 101.455C679.147 101.738 680.172 102.075 680.956 102.467C681.74 102.859 682.319 103.333 682.693 103.889C683.075 104.436 683.267 105.105 683.267 105.898C683.267 107.22 682.738 108.282 681.681 109.084C680.624 109.877 679.252 110.273 677.566 110.273C676.381 110.273 675.333 110.064 674.421 109.645C673.51 109.225 672.794 108.642 672.275 107.895C671.764 107.138 671.509 106.322 671.509 105.447H674.038C674.084 106.295 674.421 106.969 675.05 107.471C675.688 107.963 676.527 108.209 677.566 108.209C678.523 108.209 679.288 108.018 679.862 107.635C680.446 107.243 680.737 106.723 680.737 106.076ZM699.041 108.209C699.943 108.209 700.731 107.936 701.406 107.389C702.08 106.842 702.454 106.158 702.527 105.338H704.92C704.874 106.186 704.582 106.992 704.045 107.758C703.507 108.523 702.787 109.134 701.884 109.59C700.991 110.046 700.043 110.273 699.041 110.273C697.026 110.273 695.422 109.604 694.228 108.264C693.043 106.915 692.451 105.074 692.451 102.74V102.316C692.451 100.876 692.715 99.5957 693.244 98.4746C693.772 97.3535 694.529 96.4831 695.513 95.8633C696.507 95.2435 697.678 94.9336 699.027 94.9336C700.686 94.9336 702.062 95.4303 703.156 96.4238C704.259 97.4173 704.847 98.707 704.92 100.293H702.527C702.454 99.3359 702.089 98.5521 701.433 97.9414C700.786 97.3216 699.984 97.0117 699.027 97.0117C697.742 97.0117 696.744 97.4766 696.033 98.4062C695.331 99.3268 694.98 100.662 694.98 102.412V102.891C694.98 104.595 695.331 105.908 696.033 106.828C696.735 107.749 697.737 108.209 699.041 108.209ZM716.696 110C716.55 109.708 716.432 109.189 716.341 108.441C715.165 109.663 713.761 110.273 712.13 110.273C710.671 110.273 709.473 109.863 708.534 109.043C707.604 108.214 707.139 107.165 707.139 105.898C707.139 104.358 707.723 103.164 708.889 102.316C710.065 101.46 711.715 101.031 713.839 101.031H716.3V99.8691C716.3 98.985 716.035 98.2832 715.507 97.7637C714.978 97.235 714.199 96.9707 713.169 96.9707C712.266 96.9707 711.51 97.1986 710.899 97.6543C710.289 98.11 709.983 98.6615 709.983 99.3086H707.44C707.44 98.5703 707.7 97.8594 708.22 97.1758C708.748 96.4831 709.459 95.9362 710.352 95.5352C711.255 95.1341 712.244 94.9336 713.319 94.9336C715.024 94.9336 716.359 95.362 717.325 96.2188C718.291 97.0664 718.792 98.2376 718.829 99.7324V106.541C718.829 107.899 719.002 108.979 719.348 109.781V110H716.696ZM712.499 108.072C713.292 108.072 714.044 107.867 714.755 107.457C715.466 107.047 715.981 106.514 716.3 105.857V102.822H714.317C711.218 102.822 709.669 103.729 709.669 105.543C709.669 106.336 709.933 106.956 710.462 107.402C710.99 107.849 711.669 108.072 712.499 108.072ZM724.986 95.207L725.068 97.0664C726.199 95.6445 727.675 94.9336 729.498 94.9336C732.624 94.9336 734.201 96.6973 734.229 100.225V110H731.699V100.211C731.69 99.1445 731.444 98.3561 730.961 97.8457C730.487 97.3353 729.744 97.0801 728.732 97.0801C727.912 97.0801 727.192 97.2988 726.572 97.7363C725.952 98.1738 725.469 98.748 725.123 99.459V110H722.594V95.207H724.986ZM747.118 96.998C748.239 95.6217 749.697 94.9336 751.493 94.9336C754.619 94.9336 756.196 96.6973 756.223 100.225V110H753.694V100.211C753.685 99.1445 753.439 98.3561 752.955 97.8457C752.481 97.3353 751.739 97.0801 750.727 97.0801C749.907 97.0801 749.187 97.2988 748.567 97.7363C747.947 98.1738 747.464 98.748 747.118 99.459V110H744.588V89H747.118V96.998ZM765.949 110.273C763.944 110.273 762.312 109.617 761.054 108.305C759.797 106.983 759.168 105.219 759.168 103.014V102.549C759.168 101.081 759.446 99.7734 760.002 98.625C760.567 97.4674 761.351 96.5651 762.353 95.918C763.365 95.2617 764.459 94.9336 765.634 94.9336C767.558 94.9336 769.052 95.5671 770.119 96.834C771.185 98.1009 771.718 99.9147 771.718 102.275V103.328H761.697C761.733 104.786 762.157 105.967 762.968 106.869C763.789 107.762 764.828 108.209 766.086 108.209C766.979 108.209 767.735 108.027 768.355 107.662C768.975 107.298 769.517 106.814 769.982 106.213L771.527 107.416C770.287 109.321 768.428 110.273 765.949 110.273ZM765.634 97.0117C764.614 97.0117 763.757 97.3854 763.064 98.1328C762.371 98.8711 761.943 99.9102 761.779 101.25H769.189V101.059C769.116 99.7734 768.77 98.7799 768.15 98.0781C767.53 97.3672 766.692 97.0117 765.634 97.0117ZM777.206 110H774.677V89H777.206V110ZM793.562 102.768C793.562 105.019 793.048 106.833 792.018 108.209C790.988 109.585 789.593 110.273 787.834 110.273C786.038 110.273 784.626 109.704 783.596 108.564V115.688H781.066V95.207H783.377L783.5 96.8477C784.53 95.5716 785.961 94.9336 787.793 94.9336C789.57 94.9336 790.974 95.6035 792.004 96.9434C793.043 98.2832 793.562 100.147 793.562 102.535V102.768ZM791.033 102.48C791.033 100.812 790.678 99.4954 789.967 98.5293C789.256 97.5632 788.281 97.0801 787.041 97.0801C785.51 97.0801 784.361 97.7591 783.596 99.1172V106.186C784.352 107.535 785.51 108.209 787.068 108.209C788.281 108.209 789.242 107.73 789.953 106.773C790.673 105.807 791.033 104.376 791.033 102.48ZM808.174 106.295L811.62 95.207H814.327L808.379 112.283C807.459 114.744 805.996 115.975 803.991 115.975L803.512 115.934L802.569 115.756V113.705L803.252 113.76C804.109 113.76 804.774 113.587 805.248 113.24C805.731 112.894 806.128 112.26 806.438 111.34L806.998 109.836L801.721 95.207H804.483L808.174 106.295ZM815.507 102.467C815.507 101.018 815.79 99.7142 816.355 98.5566C816.929 97.3991 817.722 96.5059 818.734 95.877C819.755 95.248 820.917 94.9336 822.22 94.9336C824.235 94.9336 825.862 95.6309 827.101 97.0254C828.35 98.4199 828.974 100.275 828.974 102.59V102.768C828.974 104.208 828.696 105.502 828.14 106.65C827.593 107.79 826.805 108.678 825.775 109.316C824.754 109.954 823.578 110.273 822.248 110.273C820.242 110.273 818.616 109.576 817.367 108.182C816.127 106.787 815.507 104.941 815.507 102.645V102.467ZM818.05 102.768C818.05 104.408 818.429 105.725 819.185 106.719C819.951 107.712 820.972 108.209 822.248 108.209C823.533 108.209 824.554 107.708 825.31 106.705C826.067 105.693 826.445 104.281 826.445 102.467C826.445 100.844 826.058 99.5319 825.283 98.5293C824.517 97.5176 823.496 97.0117 822.22 97.0117C820.972 97.0117 819.964 97.5085 819.199 98.502C818.433 99.4954 818.05 100.917 818.05 102.768ZM841.079 108.537C840.095 109.695 838.65 110.273 836.745 110.273C835.168 110.273 833.965 109.818 833.136 108.906C832.315 107.986 831.901 106.628 831.891 104.832V95.207H834.421V104.764C834.421 107.006 835.332 108.127 837.155 108.127C839.087 108.127 840.373 107.407 841.011 105.967V95.207H843.54V110H841.134L841.079 108.537ZM847.25 108.674C847.25 108.236 847.378 107.872 847.633 107.58C847.897 107.288 848.289 107.143 848.809 107.143C849.328 107.143 849.72 107.288 849.984 107.58C850.258 107.872 850.395 108.236 850.395 108.674C850.395 109.093 850.258 109.444 849.984 109.727C849.72 110.009 849.328 110.15 848.809 110.15C848.289 110.15 847.897 110.009 847.633 109.727C847.378 109.444 847.25 109.093 847.25 108.674Z" fill="white"/>
<path d="M64 65C64 68.6097 64 76.0062 64 76.715C64 77.601 64.9674 77.5518 65.4765 77.3549C69.0405 76.1244 71.8408 77.0104 73.6228 78.6839C75.8764 80.8005 77.5941 85.5751 73.6228 89.3161C72.1462 90.7069 69.1831 92.0627 65.4765 90.842C64.9843 90.7435 64 90.7731 64 91.6788C64 92.5845 64 99.6036 64 103" stroke="white" stroke-width="2" stroke-linecap="round"/>
<defs>
<linearGradient id="paint0_linear" x1="931" y1="554.567" x2="568.339" y2="-69.2918" gradientUnits="userSpaceOnUse">
<stop stop-color="#582D7D" stop-opacity="0.52"/>
<stop offset="0.696338" stop-color="#6700BF" stop-opacity="0.55"/>
</linearGradient>
</defs>
</svg>
