<svg width="1284" height="252" viewBox="0 0 1284 252" fill="none" xmlns="http://www.w3.org/2000/svg">
<path fill-rule="evenodd" clip-rule="evenodd" d="M50 202C22.3858 202 0 179.614 0 152V50.0001C0 22.3858 22.3857 6.10352e-05 50 6.10352e-05L1147 3.05176e-05C1148.81 0.0897675 1150.86 1.15376 1152.74 3.7347C1160.05 39.5201 1189.63 66.2925 1225 66.2925C1248.1 66.2925 1268.72 54.8783 1282.29 36.9938C1283.41 41.141 1284 45.5011 1284 50V152C1284 179.614 1261.61 202 1234 202H50Z" fill="url(#paint0_linear)"/>
<path d="M1157.84 44C1166.16 75.0143 1224.53 95.5509 1255 69.864" stroke="#752CB4" stroke-width="3" stroke-linecap="round"/>
<g filter="url(#filter0_d)">
<rect x="169" y="151" width="921" height="86" rx="15" fill="white"/>
</g>
<path d="M231.175 201.99L234.003 199.163L246.022 211.182L243.194 214.009L231.175 201.99Z" fill="#888888"/>
<path d="M222 206C230.837 206 238 198.837 238 190C238 181.163 230.837 174 222 174C213.163 174 206 181.163 206 190C206 198.837 213.163 206 222 206Z" fill="#888888"/>
<path d="M234.45 205.34L237.277 202.512L245.973 211.208L243.145 214.036L234.45 205.34Z" fill="#888888"/>
<path d="M222 203C229.18 203 235 197.18 235 190C235 182.82 229.18 177 222 177C214.82 177 209 182.82 209 190C209 197.18 214.82 203 222 203Z" fill="white"/>
<path d="M228.9 184.2C227.2 182.2 224.7 181 222 181C219.3 181 216.8 182.2 215.1 184.2C214.7 184.6 214.8 185.3 215.2 185.6C215.6 186 216.3 185.9 216.6 185.5C218 183.9 219.9 183 222 183C224.1 183 226 183.9 227.4 185.5C227.6 185.7 227.9 185.9 228.2 185.9C228.4 185.9 228.7 185.8 228.8 185.7C229.2 185.3 229.2 184.6 228.9 184.2Z" fill="#888888"/>
<path d="M104.562 84.7988H95.9355V91.8535H105.957V94H93.3105V74.0938H105.82V76.2539H95.9355V82.6523H104.562V84.7988ZM113.591 84.6074L116.872 79.207H119.825L114.986 86.5215L119.976 94H117.05L113.632 88.4629L110.214 94H107.275L112.265 86.5215L107.425 79.207H110.351L113.591 84.6074ZM134.815 86.7676C134.815 89.0189 134.3 90.8327 133.27 92.209C132.24 93.5853 130.845 94.2734 129.086 94.2734C127.291 94.2734 125.878 93.7038 124.848 92.5645V99.6875H122.319V79.207H124.629L124.752 80.8477C125.782 79.5716 127.213 78.9336 129.045 78.9336C130.823 78.9336 132.226 79.6035 133.256 80.9434C134.295 82.2832 134.815 84.1471 134.815 86.5352V86.7676ZM132.286 86.4805C132.286 84.8125 131.93 83.4954 131.219 82.5293C130.508 81.5632 129.533 81.0801 128.293 81.0801C126.762 81.0801 125.614 81.7591 124.848 83.1172V90.1855C125.605 91.5345 126.762 92.209 128.321 92.209C129.533 92.209 130.495 91.7305 131.205 90.7734C131.926 89.8073 132.286 88.3763 132.286 86.4805ZM140.589 94H138.06V73H140.589V94ZM143.78 86.4668C143.78 85.0176 144.063 83.7142 144.628 82.5566C145.202 81.3991 145.995 80.5059 147.007 79.877C148.027 79.248 149.19 78.9336 150.493 78.9336C152.507 78.9336 154.134 79.6309 155.374 81.0254C156.623 82.4199 157.247 84.2747 157.247 86.5898V86.7676C157.247 88.2077 156.969 89.502 156.413 90.6504C155.866 91.7897 155.078 92.6784 154.048 93.3164C153.027 93.9544 151.851 94.2734 150.52 94.2734C148.515 94.2734 146.888 93.5762 145.639 92.1816C144.4 90.7871 143.78 88.9414 143.78 86.6445V86.4668ZM146.323 86.7676C146.323 88.4082 146.701 89.7253 147.458 90.7188C148.223 91.7122 149.244 92.209 150.52 92.209C151.805 92.209 152.826 91.7077 153.583 90.7051C154.339 89.6934 154.718 88.2806 154.718 86.4668C154.718 84.8444 154.33 83.5319 153.555 82.5293C152.79 81.5176 151.769 81.0117 150.493 81.0117C149.244 81.0117 148.237 81.5085 147.471 82.502C146.706 83.4954 146.323 84.9173 146.323 86.7676ZM167.369 81.4766C166.986 81.4128 166.572 81.3809 166.125 81.3809C164.466 81.3809 163.34 82.0872 162.748 83.5V94H160.219V79.207H162.68L162.721 80.916C163.55 79.5944 164.726 78.9336 166.248 78.9336C166.74 78.9336 167.114 78.9974 167.369 79.125V81.4766ZM175.372 94.2734C173.367 94.2734 171.736 93.6172 170.478 92.3047C169.22 90.9831 168.591 89.2194 168.591 87.0137V86.5488C168.591 85.0814 168.869 83.7734 169.425 82.625C169.99 81.4674 170.774 80.5651 171.777 79.918C172.788 79.2617 173.882 78.9336 175.058 78.9336C176.981 78.9336 178.476 79.5671 179.542 80.834C180.609 82.1009 181.142 83.9147 181.142 86.2754V87.3281H171.12C171.157 88.7865 171.581 89.9668 172.392 90.8691C173.212 91.7624 174.251 92.209 175.509 92.209C176.402 92.209 177.159 92.0267 177.779 91.6621C178.398 91.2975 178.941 90.8145 179.405 90.2129L180.95 91.416C179.711 93.321 177.851 94.2734 175.372 94.2734ZM175.058 81.0117C174.037 81.0117 173.18 81.3854 172.488 82.1328C171.795 82.8711 171.366 83.9102 171.202 85.25H178.613V85.0586C178.54 83.7734 178.193 82.7799 177.573 82.0781C176.954 81.3672 176.115 81.0117 175.058 81.0117ZM193.005 79.207L193.074 80.8477C194.158 79.5716 195.621 78.9336 197.463 78.9336C199.532 78.9336 200.94 79.7266 201.687 81.3125C202.179 80.6016 202.817 80.0273 203.601 79.5898C204.394 79.1523 205.328 78.9336 206.404 78.9336C209.649 78.9336 211.298 80.6517 211.353 84.0879V94H208.824V84.2383C208.824 83.181 208.582 82.3926 208.099 81.873C207.616 81.3444 206.805 81.0801 205.666 81.0801C204.727 81.0801 203.948 81.3626 203.328 81.9277C202.708 82.4837 202.348 83.2357 202.248 84.1836V94H199.705V84.3066C199.705 82.1556 198.652 81.0801 196.546 81.0801C194.888 81.0801 193.753 81.7865 193.142 83.1992V94H190.613V79.207H193.005ZM214.311 86.4668C214.311 85.0176 214.594 83.7142 215.159 82.5566C215.733 81.3991 216.526 80.5059 217.538 79.877C218.559 79.248 219.721 78.9336 221.024 78.9336C223.039 78.9336 224.665 79.6309 225.905 81.0254C227.154 82.4199 227.778 84.2747 227.778 86.5898V86.7676C227.778 88.2077 227.5 89.502 226.944 90.6504C226.397 91.7897 225.609 92.6784 224.579 93.3164C223.558 93.9544 222.382 94.2734 221.052 94.2734C219.046 94.2734 217.419 93.5762 216.171 92.1816C214.931 90.7871 214.311 88.9414 214.311 86.6445V86.4668ZM216.854 86.7676C216.854 88.4082 217.233 89.7253 217.989 90.7188C218.755 91.7122 219.776 92.209 221.052 92.209C222.337 92.209 223.358 91.7077 224.114 90.7051C224.871 89.6934 225.249 88.2806 225.249 86.4668C225.249 84.8444 224.861 83.5319 224.087 82.5293C223.321 81.5176 222.3 81.0117 221.024 81.0117C219.776 81.0117 218.768 81.5085 218.003 82.502C217.237 83.4954 216.854 84.9173 216.854 86.7676ZM237.9 81.4766C237.518 81.4128 237.103 81.3809 236.656 81.3809C234.997 81.3809 233.872 82.0872 233.279 83.5V94H230.75V79.207H233.211L233.252 80.916C234.081 79.5944 235.257 78.9336 236.779 78.9336C237.271 78.9336 237.645 78.9974 237.9 79.125V81.4766ZM245.904 94.2734C243.898 94.2734 242.267 93.6172 241.009 92.3047C239.751 90.9831 239.122 89.2194 239.122 87.0137V86.5488C239.122 85.0814 239.4 83.7734 239.956 82.625C240.521 81.4674 241.305 80.5651 242.308 79.918C243.32 79.2617 244.413 78.9336 245.589 78.9336C247.512 78.9336 249.007 79.5671 250.073 80.834C251.14 82.1009 251.673 83.9147 251.673 86.2754V87.3281H241.652C241.688 88.7865 242.112 89.9668 242.923 90.8691C243.743 91.7624 244.782 92.209 246.04 92.209C246.933 92.209 247.69 92.0267 248.31 91.6621C248.93 91.2975 249.472 90.8145 249.937 90.2129L251.482 91.416C250.242 93.321 248.383 94.2734 245.904 94.2734ZM245.589 81.0117C244.568 81.0117 243.711 81.3854 243.019 82.1328C242.326 82.8711 241.898 83.9102 241.734 85.25H249.144V85.0586C249.071 83.7734 248.724 82.7799 248.105 82.0781C247.485 81.3672 246.646 81.0117 245.589 81.0117ZM264.589 75.625V79.207H267.351V81.1621H264.589V90.3359C264.589 90.9284 264.712 91.375 264.959 91.6758C265.205 91.9674 265.624 92.1133 266.216 92.1133C266.508 92.1133 266.909 92.0586 267.42 91.9492V94C266.754 94.1823 266.107 94.2734 265.478 94.2734C264.348 94.2734 263.496 93.9316 262.921 93.248C262.347 92.5645 262.06 91.5938 262.06 90.3359V81.1621H259.367V79.207H262.06V75.625H264.589ZM272.647 80.998C273.768 79.6217 275.227 78.9336 277.022 78.9336C280.149 78.9336 281.725 80.6973 281.753 84.2246V94H279.223V84.2109C279.214 83.1445 278.968 82.3561 278.485 81.8457C278.011 81.3353 277.268 81.0801 276.257 81.0801C275.436 81.0801 274.716 81.2988 274.096 81.7363C273.477 82.1738 272.994 82.748 272.647 83.459V94H270.118V73H272.647V80.998ZM294.473 94C294.327 93.7083 294.208 93.1888 294.117 92.4414C292.941 93.6628 291.538 94.2734 289.906 94.2734C288.448 94.2734 287.249 93.8633 286.311 93.043C285.381 92.2135 284.916 91.1654 284.916 89.8984C284.916 88.3581 285.499 87.1641 286.666 86.3164C287.842 85.4596 289.492 85.0312 291.615 85.0312H294.076V83.8691C294.076 82.985 293.812 82.2832 293.283 81.7637C292.755 81.235 291.975 80.9707 290.945 80.9707C290.043 80.9707 289.286 81.1986 288.676 81.6543C288.065 82.11 287.76 82.6615 287.76 83.3086H285.217C285.217 82.5703 285.477 81.8594 285.996 81.1758C286.525 80.4831 287.236 79.9362 288.129 79.5352C289.031 79.1341 290.02 78.9336 291.096 78.9336C292.8 78.9336 294.135 79.362 295.102 80.2188C296.068 81.0664 296.569 82.2376 296.605 83.7324V90.541C296.605 91.8991 296.779 92.9792 297.125 93.7812V94H294.473ZM290.275 92.0723C291.068 92.0723 291.82 91.8672 292.531 91.457C293.242 91.0469 293.757 90.5137 294.076 89.8574V86.8223H292.094C288.995 86.8223 287.445 87.7292 287.445 89.543C287.445 90.3359 287.71 90.9557 288.238 91.4023C288.767 91.849 289.446 92.0723 290.275 92.0723ZM302.763 79.207L302.845 81.0664C303.975 79.6445 305.452 78.9336 307.275 78.9336C310.401 78.9336 311.978 80.6973 312.005 84.2246V94H309.476V84.2109C309.467 83.1445 309.221 82.3561 308.738 81.8457C308.264 81.3353 307.521 81.0801 306.509 81.0801C305.689 81.0801 304.969 81.2988 304.349 81.7363C303.729 82.1738 303.246 82.748 302.9 83.459V94H300.37V79.207H302.763ZM330.418 94H327.875V77.1426L322.775 79.0156V76.7188L330.021 73.998H330.418V94ZM350.11 85.5098C350.11 88.472 349.604 90.6732 348.593 92.1133C347.581 93.5534 345.999 94.2734 343.848 94.2734C341.725 94.2734 340.152 93.5716 339.132 92.168C338.111 90.7552 337.582 88.6497 337.546 85.8516V82.4746C337.546 79.5488 338.052 77.375 339.063 75.9531C340.075 74.5312 341.661 73.8203 343.821 73.8203C345.963 73.8203 347.54 74.5085 348.552 75.8848C349.563 77.252 350.083 79.3665 350.11 82.2285V85.5098ZM347.581 82.0508C347.581 79.9089 347.28 78.3503 346.679 77.375C346.077 76.3906 345.124 75.8984 343.821 75.8984C342.527 75.8984 341.583 76.3861 340.991 77.3613C340.399 78.3366 340.093 79.8359 340.075 81.8594V85.9062C340.075 88.0573 340.385 89.6478 341.005 90.6777C341.634 91.6986 342.582 92.209 343.848 92.209C345.097 92.209 346.022 91.7259 346.624 90.7598C347.235 89.7936 347.554 88.2715 347.581 86.1934V82.0508ZM365.633 85.5098C365.633 88.472 365.127 90.6732 364.115 92.1133C363.104 93.5534 361.522 94.2734 359.371 94.2734C357.247 94.2734 355.675 93.5716 354.654 92.168C353.633 90.7552 353.105 88.6497 353.068 85.8516V82.4746C353.068 79.5488 353.574 77.375 354.586 75.9531C355.598 74.5312 357.184 73.8203 359.344 73.8203C361.486 73.8203 363.062 74.5085 364.074 75.8848C365.086 77.252 365.605 79.3665 365.633 82.2285V85.5098ZM363.104 82.0508C363.104 79.9089 362.803 78.3503 362.201 77.375C361.6 76.3906 360.647 75.8984 359.344 75.8984C358.049 75.8984 357.106 76.3861 356.514 77.3613C355.921 78.3366 355.616 79.8359 355.598 81.8594V85.9062C355.598 88.0573 355.908 89.6478 356.527 90.6777C357.156 91.6986 358.104 92.209 359.371 92.209C360.62 92.209 361.545 91.7259 362.146 90.7598C362.757 89.7936 363.076 88.2715 363.104 86.1934V82.0508ZM372.72 74.0938L379.228 90.3359L385.736 74.0938H389.14V94H386.515V86.248L386.761 77.8809L380.226 94H378.216L371.695 77.9219L371.954 86.248V94H369.329V74.0938H372.72ZM407.074 81.4766C406.691 81.4128 406.276 81.3809 405.83 81.3809C404.171 81.3809 403.045 82.0872 402.453 83.5V94H399.923V79.207H402.384L402.425 80.916C403.255 79.5944 404.431 78.9336 405.953 78.9336C406.445 78.9336 406.819 78.9974 407.074 79.125V81.4766ZM408.268 86.4668C408.268 85.0176 408.551 83.7142 409.116 82.5566C409.69 81.3991 410.483 80.5059 411.495 79.877C412.516 79.248 413.678 78.9336 414.981 78.9336C416.996 78.9336 418.623 79.6309 419.862 81.0254C421.111 82.4199 421.735 84.2747 421.735 86.5898V86.7676C421.735 88.2077 421.457 89.502 420.901 90.6504C420.354 91.7897 419.566 92.6784 418.536 93.3164C417.515 93.9544 416.339 94.2734 415.009 94.2734C413.003 94.2734 411.376 93.5762 410.128 92.1816C408.888 90.7871 408.268 88.9414 408.268 86.6445V86.4668ZM410.811 86.7676C410.811 88.4082 411.19 89.7253 411.946 90.7188C412.712 91.7122 413.733 92.209 415.009 92.209C416.294 92.209 417.315 91.7077 418.071 90.7051C418.828 89.6934 419.206 88.2806 419.206 86.4668C419.206 84.8444 418.819 83.5319 418.044 82.5293C417.278 81.5176 416.257 81.0117 414.981 81.0117C413.733 81.0117 412.725 81.5085 411.96 82.502C411.194 83.4954 410.811 84.9173 410.811 86.7676ZM433.84 94C433.694 93.7083 433.576 93.1888 433.484 92.4414C432.309 93.6628 430.905 94.2734 429.273 94.2734C427.815 94.2734 426.617 93.8633 425.678 93.043C424.748 92.2135 424.283 91.1654 424.283 89.8984C424.283 88.3581 424.867 87.1641 426.033 86.3164C427.209 85.4596 428.859 85.0312 430.982 85.0312H433.443V83.8691C433.443 82.985 433.179 82.2832 432.65 81.7637C432.122 81.235 431.342 80.9707 430.312 80.9707C429.41 80.9707 428.654 81.1986 428.043 81.6543C427.432 82.11 427.127 82.6615 427.127 83.3086H424.584C424.584 82.5703 424.844 81.8594 425.363 81.1758C425.892 80.4831 426.603 79.9362 427.496 79.5352C428.398 79.1341 429.387 78.9336 430.463 78.9336C432.167 78.9336 433.503 79.362 434.469 80.2188C435.435 81.0664 435.936 82.2376 435.973 83.7324V90.541C435.973 91.8991 436.146 92.9792 436.492 93.7812V94H433.84ZM429.643 92.0723C430.436 92.0723 431.188 91.8672 431.898 91.457C432.609 91.0469 433.124 90.5137 433.443 89.8574V86.8223H431.461C428.362 86.8223 426.812 87.7292 426.812 89.543C426.812 90.3359 427.077 90.9557 427.605 91.4023C428.134 91.849 428.813 92.0723 429.643 92.0723ZM439.122 86.4805C439.122 84.2109 439.66 82.388 440.736 81.0117C441.811 79.6263 443.219 78.9336 444.96 78.9336C446.692 78.9336 448.064 79.526 449.075 80.7109V73H451.605V94H449.28L449.157 92.4141C448.146 93.6536 446.737 94.2734 444.933 94.2734C443.219 94.2734 441.82 93.5716 440.736 92.168C439.66 90.7643 439.122 88.9323 439.122 86.6719V86.4805ZM441.652 86.7676C441.652 88.4447 441.998 89.7572 442.691 90.7051C443.383 91.653 444.34 92.127 445.562 92.127C447.166 92.127 448.337 91.4069 449.075 89.9668V83.1719C448.319 81.7773 447.157 81.0801 445.589 81.0801C444.349 81.0801 443.383 81.5586 442.691 82.5156C441.998 83.4727 441.652 84.89 441.652 86.7676ZM457.721 79.207L457.789 80.8477C458.874 79.5716 460.337 78.9336 462.178 78.9336C464.247 78.9336 465.655 79.7266 466.403 81.3125C466.895 80.6016 467.533 80.0273 468.317 79.5898C469.11 79.1523 470.044 78.9336 471.12 78.9336C474.364 78.9336 476.014 80.6517 476.069 84.0879V94H473.539V84.2383C473.539 83.181 473.298 82.3926 472.815 81.873C472.332 81.3444 471.521 81.0801 470.381 81.0801C469.442 81.0801 468.663 81.3626 468.043 81.9277C467.424 82.4837 467.064 83.2357 466.963 84.1836V94H464.42V84.3066C464.42 82.1556 463.368 81.0801 461.262 81.0801C459.603 81.0801 458.468 81.7865 457.858 83.1992V94H455.329V79.207H457.721ZM488.83 94C488.684 93.7083 488.565 93.1888 488.474 92.4414C487.298 93.6628 485.895 94.2734 484.263 94.2734C482.805 94.2734 481.606 93.8633 480.668 93.043C479.738 92.2135 479.273 91.1654 479.273 89.8984C479.273 88.3581 479.856 87.1641 481.023 86.3164C482.199 85.4596 483.849 85.0312 485.972 85.0312H488.433V83.8691C488.433 82.985 488.169 82.2832 487.64 81.7637C487.112 81.235 486.332 80.9707 485.302 80.9707C484.4 80.9707 483.643 81.1986 483.033 81.6543C482.422 82.11 482.117 82.6615 482.117 83.3086H479.574C479.574 82.5703 479.834 81.8594 480.353 81.1758C480.882 80.4831 481.593 79.9362 482.486 79.5352C483.388 79.1341 484.377 78.9336 485.453 78.9336C487.157 78.9336 488.492 79.362 489.459 80.2188C490.425 81.0664 490.926 82.2376 490.962 83.7324V90.541C490.962 91.8991 491.136 92.9792 491.482 93.7812V94H488.83ZM484.632 92.0723C485.425 92.0723 486.177 91.8672 486.888 91.457C487.599 91.0469 488.114 90.5137 488.433 89.8574V86.8223H486.451C483.352 86.8223 481.802 87.7292 481.802 89.543C481.802 90.3359 482.067 90.9557 482.595 91.4023C483.124 91.849 483.803 92.0723 484.632 92.0723ZM507.223 86.7676C507.223 89.0189 506.708 90.8327 505.679 92.209C504.649 93.5853 503.254 94.2734 501.495 94.2734C499.699 94.2734 498.287 93.7038 497.257 92.5645V99.6875H494.727V79.207H497.038L497.161 80.8477C498.191 79.5716 499.622 78.9336 501.454 78.9336C503.231 78.9336 504.635 79.6035 505.665 80.9434C506.704 82.2832 507.223 84.1471 507.223 86.5352V86.7676ZM504.694 86.4805C504.694 84.8125 504.339 83.4954 503.628 82.5293C502.917 81.5632 501.942 81.0801 500.702 81.0801C499.171 81.0801 498.022 81.7591 497.257 83.1172V90.1855C498.013 91.5345 499.171 92.209 500.729 92.209C501.942 92.209 502.903 91.7305 503.614 90.7734C504.334 89.8073 504.694 88.3763 504.694 86.4805ZM518.863 90.0762C518.863 89.3926 518.604 88.8639 518.084 88.4902C517.574 88.1074 516.676 87.7793 515.391 87.5059C514.115 87.2324 513.098 86.9043 512.342 86.5215C511.594 86.1387 511.038 85.6829 510.674 85.1543C510.318 84.6257 510.141 83.9967 510.141 83.2676C510.141 82.0553 510.651 81.0299 511.672 80.1914C512.702 79.3529 514.014 78.9336 515.609 78.9336C517.286 78.9336 518.645 79.3665 519.684 80.2324C520.732 81.0983 521.256 82.2057 521.256 83.5547H518.713C518.713 82.862 518.417 82.265 517.824 81.7637C517.241 81.2624 516.503 81.0117 515.609 81.0117C514.689 81.0117 513.969 81.2122 513.449 81.6133C512.93 82.0143 512.67 82.5384 512.67 83.1855C512.67 83.7962 512.911 84.2565 513.395 84.5664C513.878 84.8763 514.748 85.1725 516.006 85.4551C517.273 85.7376 518.298 86.0749 519.082 86.4668C519.866 86.8587 520.445 87.3327 520.818 87.8887C521.201 88.4355 521.393 89.1055 521.393 89.8984C521.393 91.2201 520.864 92.2819 519.807 93.084C518.749 93.877 517.378 94.2734 515.691 94.2734C514.507 94.2734 513.458 94.0638 512.547 93.6445C511.635 93.2253 510.92 92.6419 510.4 91.8945C509.89 91.138 509.635 90.3223 509.635 89.4473H512.164C512.21 90.2949 512.547 90.9694 513.176 91.4707C513.814 91.9629 514.652 92.209 515.691 92.209C516.648 92.209 517.414 92.0176 517.988 91.6348C518.572 91.2428 518.863 90.7233 518.863 90.0762Z" fill="white"/>
<path d="M64 65C64 68.6097 64 76.0062 64 76.715C64 77.601 64.9674 77.5518 65.4765 77.3549C69.0405 76.1244 71.8408 77.0104 73.6228 78.6839C75.8764 80.8005 77.5941 85.5751 73.6228 89.3161C72.1462 90.7069 69.1831 92.0627 65.4765 90.842C64.9843 90.7435 64 90.7731 64 91.6788C64 92.5845 64 99.6036 64 103" stroke="white" stroke-width="2" stroke-linecap="round"/>
<path d="M295.176 194.127C292.924 193.48 291.284 192.687 290.254 191.748C289.233 190.8 288.723 189.633 288.723 188.248C288.723 186.68 289.347 185.386 290.596 184.365C291.854 183.335 293.485 182.82 295.49 182.82C296.857 182.82 298.074 183.085 299.141 183.613C300.216 184.142 301.046 184.871 301.629 185.801C302.221 186.73 302.518 187.747 302.518 188.85H299.879C299.879 187.646 299.496 186.703 298.73 186.02C297.965 185.327 296.885 184.98 295.49 184.98C294.196 184.98 293.184 185.268 292.455 185.842C291.735 186.407 291.375 187.195 291.375 188.207C291.375 189.018 291.717 189.706 292.4 190.271C293.093 190.827 294.264 191.338 295.914 191.803C297.573 192.268 298.867 192.783 299.797 193.348C300.736 193.904 301.428 194.555 301.875 195.303C302.331 196.05 302.559 196.93 302.559 197.941C302.559 199.555 301.93 200.849 300.672 201.824C299.414 202.79 297.732 203.273 295.627 203.273C294.26 203.273 292.984 203.014 291.799 202.494C290.614 201.965 289.698 201.245 289.051 200.334C288.413 199.423 288.094 198.388 288.094 197.23H290.732C290.732 198.434 291.174 199.386 292.059 200.088C292.952 200.781 294.141 201.127 295.627 201.127C297.012 201.127 298.074 200.844 298.812 200.279C299.551 199.714 299.92 198.944 299.92 197.969C299.92 196.993 299.578 196.242 298.895 195.713C298.211 195.175 296.971 194.646 295.176 194.127ZM311.478 203.273C309.473 203.273 307.841 202.617 306.583 201.305C305.325 199.983 304.696 198.219 304.696 196.014V195.549C304.696 194.081 304.974 192.773 305.53 191.625C306.096 190.467 306.879 189.565 307.882 188.918C308.894 188.262 309.987 187.934 311.163 187.934C313.086 187.934 314.581 188.567 315.648 189.834C316.714 191.101 317.247 192.915 317.247 195.275V196.328H307.226C307.262 197.786 307.686 198.967 308.497 199.869C309.318 200.762 310.357 201.209 311.614 201.209C312.508 201.209 313.264 201.027 313.884 200.662C314.504 200.298 315.046 199.814 315.511 199.213L317.056 200.416C315.816 202.321 313.957 203.273 311.478 203.273ZM311.163 190.012C310.142 190.012 309.286 190.385 308.593 191.133C307.9 191.871 307.472 192.91 307.308 194.25H314.718V194.059C314.645 192.773 314.299 191.78 313.679 191.078C313.059 190.367 312.221 190.012 311.163 190.012ZM329.12 203C328.974 202.708 328.855 202.189 328.764 201.441C327.588 202.663 326.185 203.273 324.553 203.273C323.095 203.273 321.896 202.863 320.957 202.043C320.028 201.214 319.563 200.165 319.563 198.898C319.563 197.358 320.146 196.164 321.313 195.316C322.489 194.46 324.138 194.031 326.262 194.031H328.723V192.869C328.723 191.985 328.459 191.283 327.93 190.764C327.401 190.235 326.622 189.971 325.592 189.971C324.69 189.971 323.933 190.199 323.323 190.654C322.712 191.11 322.407 191.661 322.407 192.309H319.864C319.864 191.57 320.123 190.859 320.643 190.176C321.172 189.483 321.883 188.936 322.776 188.535C323.678 188.134 324.667 187.934 325.743 187.934C327.447 187.934 328.782 188.362 329.748 189.219C330.715 190.066 331.216 191.238 331.252 192.732V199.541C331.252 200.899 331.426 201.979 331.772 202.781V203H329.12ZM324.922 201.072C325.715 201.072 326.467 200.867 327.178 200.457C327.889 200.047 328.404 199.514 328.723 198.857V195.822H326.741C323.642 195.822 322.092 196.729 322.092 198.543C322.092 199.336 322.357 199.956 322.885 200.402C323.414 200.849 324.093 201.072 324.922 201.072ZM342.168 190.477C341.785 190.413 341.37 190.381 340.923 190.381C339.265 190.381 338.139 191.087 337.546 192.5V203H335.017V188.207H337.478L337.519 189.916C338.349 188.594 339.524 187.934 341.046 187.934C341.539 187.934 341.912 187.997 342.168 188.125V190.477ZM349.966 201.209C350.868 201.209 351.656 200.936 352.331 200.389C353.005 199.842 353.379 199.158 353.452 198.338H355.845C355.799 199.186 355.507 199.992 354.97 200.758C354.432 201.523 353.712 202.134 352.809 202.59C351.916 203.046 350.968 203.273 349.966 203.273C347.951 203.273 346.347 202.604 345.153 201.264C343.968 199.915 343.376 198.074 343.376 195.74V195.316C343.376 193.876 343.64 192.596 344.169 191.475C344.697 190.354 345.454 189.483 346.438 188.863C347.432 188.243 348.603 187.934 349.952 187.934C351.611 187.934 352.987 188.43 354.081 189.424C355.184 190.417 355.772 191.707 355.845 193.293H353.452C353.379 192.336 353.014 191.552 352.358 190.941C351.711 190.322 350.909 190.012 349.952 190.012C348.667 190.012 347.669 190.477 346.958 191.406C346.256 192.327 345.905 193.662 345.905 195.412V195.891C345.905 197.595 346.256 198.908 346.958 199.828C347.66 200.749 348.662 201.209 349.966 201.209ZM361.018 189.998C362.139 188.622 363.597 187.934 365.393 187.934C368.519 187.934 370.096 189.697 370.123 193.225V203H367.594V193.211C367.585 192.145 367.339 191.356 366.855 190.846C366.382 190.335 365.639 190.08 364.627 190.08C363.807 190.08 363.087 190.299 362.467 190.736C361.847 191.174 361.364 191.748 361.018 192.459V203H358.488V182H361.018V189.998ZM389.588 203C389.442 202.708 389.324 202.189 389.233 201.441C388.057 202.663 386.653 203.273 385.022 203.273C383.564 203.273 382.365 202.863 381.426 202.043C380.496 201.214 380.032 200.165 380.032 198.898C380.032 197.358 380.615 196.164 381.782 195.316C382.957 194.46 384.607 194.031 386.731 194.031H389.192V192.869C389.192 191.985 388.927 191.283 388.399 190.764C387.87 190.235 387.091 189.971 386.061 189.971C385.159 189.971 384.402 190.199 383.791 190.654C383.181 191.11 382.875 191.661 382.875 192.309H380.332C380.332 191.57 380.592 190.859 381.112 190.176C381.64 189.483 382.351 188.936 383.245 188.535C384.147 188.134 385.136 187.934 386.211 187.934C387.916 187.934 389.251 188.362 390.217 189.219C391.183 190.066 391.685 191.238 391.721 192.732V199.541C391.721 200.899 391.894 201.979 392.241 202.781V203H389.588ZM385.391 201.072C386.184 201.072 386.936 200.867 387.647 200.457C388.358 200.047 388.873 199.514 389.192 198.857V195.822H387.209C384.11 195.822 382.561 196.729 382.561 198.543C382.561 199.336 382.825 199.956 383.354 200.402C383.883 200.849 384.562 201.072 385.391 201.072ZM398.234 203H395.705V182H398.234V203ZM404.843 203H402.313V182H404.843V203ZM418.88 184.625V188.207H421.642V190.162H418.88V199.336C418.88 199.928 419.003 200.375 419.249 200.676C419.495 200.967 419.915 201.113 420.507 201.113C420.799 201.113 421.2 201.059 421.71 200.949V203C421.045 203.182 420.398 203.273 419.769 203.273C418.639 203.273 417.786 202.932 417.212 202.248C416.638 201.564 416.351 200.594 416.351 199.336V190.162H413.657V188.207H416.351V184.625H418.88ZM426.938 189.998C428.059 188.622 429.517 187.934 431.313 187.934C434.439 187.934 436.016 189.697 436.043 193.225V203H433.514V193.211C433.505 192.145 433.259 191.356 432.776 190.846C432.302 190.335 431.559 190.08 430.547 190.08C429.727 190.08 429.007 190.299 428.387 190.736C427.767 191.174 427.284 191.748 426.938 192.459V203H424.409V182H426.938V189.998ZM445.769 203.273C443.764 203.273 442.132 202.617 440.875 201.305C439.617 199.983 438.988 198.219 438.988 196.014V195.549C438.988 194.081 439.266 192.773 439.822 191.625C440.387 190.467 441.171 189.565 442.173 188.918C443.185 188.262 444.279 187.934 445.455 187.934C447.378 187.934 448.873 188.567 449.939 189.834C451.005 191.101 451.539 192.915 451.539 195.275V196.328H441.517C441.554 197.786 441.977 198.967 442.789 199.869C443.609 200.762 444.648 201.209 445.906 201.209C446.799 201.209 447.556 201.027 448.175 200.662C448.795 200.298 449.337 199.814 449.802 199.213L451.347 200.416C450.108 202.321 448.248 203.273 445.769 203.273ZM445.455 190.012C444.434 190.012 443.577 190.385 442.884 191.133C442.192 191.871 441.763 192.91 441.599 194.25H449.009V194.059C448.936 192.773 448.59 191.78 447.97 191.078C447.351 190.367 446.512 190.012 445.455 190.012ZM468.174 190.477C467.791 190.413 467.376 190.381 466.93 190.381C465.271 190.381 464.145 191.087 463.553 192.5V203H461.023V188.207H463.484L463.525 189.916C464.355 188.594 465.531 187.934 467.053 187.934C467.545 187.934 467.919 187.997 468.174 188.125V190.477ZM469.368 195.467C469.368 194.018 469.651 192.714 470.216 191.557C470.79 190.399 471.583 189.506 472.595 188.877C473.616 188.248 474.778 187.934 476.081 187.934C478.096 187.934 479.723 188.631 480.962 190.025C482.211 191.42 482.835 193.275 482.835 195.59V195.768C482.835 197.208 482.557 198.502 482.001 199.65C481.454 200.79 480.666 201.678 479.636 202.316C478.615 202.954 477.439 203.273 476.109 203.273C474.103 203.273 472.476 202.576 471.228 201.182C469.988 199.787 469.368 197.941 469.368 195.645V195.467ZM471.911 195.768C471.911 197.408 472.29 198.725 473.046 199.719C473.812 200.712 474.833 201.209 476.109 201.209C477.394 201.209 478.415 200.708 479.171 199.705C479.928 198.693 480.306 197.281 480.306 195.467C480.306 193.844 479.918 192.532 479.144 191.529C478.378 190.518 477.357 190.012 476.081 190.012C474.833 190.012 473.825 190.508 473.06 191.502C472.294 192.495 471.911 193.917 471.911 195.768ZM494.94 203C494.794 202.708 494.676 202.189 494.584 201.441C493.409 202.663 492.005 203.273 490.373 203.273C488.915 203.273 487.717 202.863 486.778 202.043C485.848 201.214 485.383 200.165 485.383 198.898C485.383 197.358 485.967 196.164 487.133 195.316C488.309 194.46 489.959 194.031 492.082 194.031H494.543V192.869C494.543 191.985 494.279 191.283 493.75 190.764C493.222 190.235 492.442 189.971 491.413 189.971C490.51 189.971 489.754 190.199 489.143 190.654C488.532 191.11 488.227 191.661 488.227 192.309H485.684C485.684 191.57 485.944 190.859 486.463 190.176C486.992 189.483 487.703 188.936 488.596 188.535C489.498 188.134 490.487 187.934 491.563 187.934C493.267 187.934 494.603 188.362 495.569 189.219C496.535 190.066 497.036 191.238 497.073 192.732V199.541C497.073 200.899 497.246 201.979 497.592 202.781V203H494.94ZM490.743 201.072C491.536 201.072 492.288 200.867 492.998 200.457C493.709 200.047 494.224 199.514 494.543 198.857V195.822H492.561C489.462 195.822 487.913 196.729 487.913 198.543C487.913 199.336 488.177 199.956 488.705 200.402C489.234 200.849 489.913 201.072 490.743 201.072ZM500.222 195.48C500.222 193.211 500.76 191.388 501.836 190.012C502.911 188.626 504.319 187.934 506.06 187.934C507.792 187.934 509.164 188.526 510.175 189.711V182H512.705V203H510.38L510.257 201.414C509.246 202.654 507.837 203.273 506.033 203.273C504.319 203.273 502.92 202.572 501.836 201.168C500.76 199.764 500.222 197.932 500.222 195.672V195.48ZM502.752 195.768C502.752 197.445 503.098 198.757 503.791 199.705C504.483 200.653 505.44 201.127 506.662 201.127C508.266 201.127 509.437 200.407 510.175 198.967V192.172C509.419 190.777 508.257 190.08 506.689 190.08C505.449 190.08 504.483 190.559 503.791 191.516C503.098 192.473 502.752 193.89 502.752 195.768ZM518.821 188.207L518.889 189.848C519.974 188.572 521.437 187.934 523.278 187.934C525.347 187.934 526.755 188.727 527.503 190.312C527.995 189.602 528.633 189.027 529.417 188.59C530.21 188.152 531.144 187.934 532.22 187.934C535.464 187.934 537.114 189.652 537.169 193.088V203H534.639V193.238C534.639 192.181 534.398 191.393 533.915 190.873C533.432 190.344 532.621 190.08 531.481 190.08C530.542 190.08 529.763 190.363 529.143 190.928C528.524 191.484 528.164 192.236 528.063 193.184V203H525.52V193.307C525.52 191.156 524.468 190.08 522.362 190.08C520.703 190.08 519.568 190.786 518.958 192.199V203H516.429V188.207H518.821ZM549.93 203C549.784 202.708 549.665 202.189 549.574 201.441C548.398 202.663 546.995 203.273 545.363 203.273C543.905 203.273 542.706 202.863 541.768 202.043C540.838 201.214 540.373 200.165 540.373 198.898C540.373 197.358 540.956 196.164 542.123 195.316C543.299 194.46 544.949 194.031 547.072 194.031H549.533V192.869C549.533 191.985 549.269 191.283 548.74 190.764C548.212 190.235 547.432 189.971 546.402 189.971C545.5 189.971 544.743 190.199 544.133 190.654C543.522 191.11 543.217 191.661 543.217 192.309H540.674C540.674 191.57 540.934 190.859 541.453 190.176C541.982 189.483 542.693 188.936 543.586 188.535C544.488 188.134 545.477 187.934 546.553 187.934C548.257 187.934 549.592 188.362 550.559 189.219C551.525 190.066 552.026 191.238 552.062 192.732V199.541C552.062 200.899 552.236 201.979 552.582 202.781V203H549.93ZM545.732 201.072C546.525 201.072 547.277 200.867 547.988 200.457C548.699 200.047 549.214 199.514 549.533 198.857V195.822H547.551C544.452 195.822 542.902 196.729 542.902 198.543C542.902 199.336 543.167 199.956 543.695 200.402C544.224 200.849 544.903 201.072 545.732 201.072ZM568.323 195.768C568.323 198.019 567.808 199.833 566.779 201.209C565.749 202.585 564.354 203.273 562.595 203.273C560.799 203.273 559.387 202.704 558.357 201.564V208.688H555.827V188.207H558.138L558.261 189.848C559.291 188.572 560.722 187.934 562.554 187.934C564.331 187.934 565.735 188.604 566.765 189.943C567.804 191.283 568.323 193.147 568.323 195.535V195.768ZM565.794 195.48C565.794 193.812 565.439 192.495 564.728 191.529C564.017 190.563 563.042 190.08 561.802 190.08C560.271 190.08 559.122 190.759 558.357 192.117V199.186C559.113 200.535 560.271 201.209 561.829 201.209C563.042 201.209 564.003 200.73 564.714 199.773C565.434 198.807 565.794 197.376 565.794 195.48ZM579.963 199.076C579.963 198.393 579.704 197.864 579.184 197.49C578.674 197.107 577.776 196.779 576.491 196.506C575.215 196.232 574.198 195.904 573.442 195.521C572.694 195.139 572.138 194.683 571.774 194.154C571.418 193.626 571.241 192.997 571.241 192.268C571.241 191.055 571.751 190.03 572.772 189.191C573.802 188.353 575.114 187.934 576.709 187.934C578.386 187.934 579.745 188.367 580.784 189.232C581.832 190.098 582.356 191.206 582.356 192.555H579.813C579.813 191.862 579.517 191.265 578.924 190.764C578.341 190.262 577.603 190.012 576.709 190.012C575.789 190.012 575.069 190.212 574.549 190.613C574.03 191.014 573.77 191.538 573.77 192.186C573.77 192.796 574.011 193.257 574.495 193.566C574.978 193.876 575.848 194.173 577.106 194.455C578.373 194.738 579.398 195.075 580.182 195.467C580.966 195.859 581.545 196.333 581.918 196.889C582.301 197.436 582.493 198.105 582.493 198.898C582.493 200.22 581.964 201.282 580.907 202.084C579.849 202.877 578.478 203.273 576.791 203.273C575.607 203.273 574.558 203.064 573.647 202.645C572.735 202.225 572.02 201.642 571.5 200.895C570.99 200.138 570.735 199.322 570.735 198.447H573.264C573.31 199.295 573.647 199.969 574.276 200.471C574.914 200.963 575.752 201.209 576.791 201.209C577.748 201.209 578.514 201.018 579.088 200.635C579.672 200.243 579.963 199.723 579.963 199.076ZM585.642 201.674C585.642 201.236 585.77 200.872 586.025 200.58C586.289 200.288 586.681 200.143 587.201 200.143C587.72 200.143 588.112 200.288 588.377 200.58C588.65 200.872 588.787 201.236 588.787 201.674C588.787 202.093 588.65 202.444 588.377 202.727C588.112 203.009 587.72 203.15 587.201 203.15C586.681 203.15 586.289 203.009 586.025 202.727C585.77 202.444 585.642 202.093 585.642 201.674ZM592.825 201.674C592.825 201.236 592.953 200.872 593.208 200.58C593.472 200.288 593.864 200.143 594.384 200.143C594.903 200.143 595.295 200.288 595.559 200.58C595.833 200.872 595.97 201.236 595.97 201.674C595.97 202.093 595.833 202.444 595.559 202.727C595.295 203.009 594.903 203.15 594.384 203.15C593.864 203.15 593.472 203.009 593.208 202.727C592.953 202.444 592.825 202.093 592.825 201.674ZM600.008 201.674C600.008 201.236 600.135 200.872 600.391 200.58C600.655 200.288 601.047 200.143 601.566 200.143C602.086 200.143 602.478 200.288 602.742 200.58C603.016 200.872 603.152 201.236 603.152 201.674C603.152 202.093 603.016 202.444 602.742 202.727C602.478 203.009 602.086 203.15 601.566 203.15C601.047 203.15 600.655 203.009 600.391 202.727C600.135 202.444 600.008 202.093 600.008 201.674Z" fill="#888888"/>
<defs>
<filter id="filter0_d" x="154" y="136" width="951" height="116" filterUnits="userSpaceOnUse" color-interpolation-filters="sRGB">
<feFlood flood-opacity="0" result="BackgroundImageFix"/>
<feColorMatrix in="SourceAlpha" type="matrix" values="0 0 0 0 0 0 0 0 0 0 0 0 0 0 0 0 0 0 127 0"/>
<feOffset/>
<feGaussianBlur stdDeviation="7.5"/>
<feColorMatrix type="matrix" values="0 0 0 0 0 0 0 0 0 0 0 0 0 0 0 0 0 0 0.25 0"/>
<feBlend mode="normal" in2="BackgroundImageFix" result="effect1_dropShadow"/>
<feBlend mode="normal" in="SourceGraphic" in2="effect1_dropShadow" result="shape"/>
</filter>
<linearGradient id="paint0_linear" x1="931" y1="554.567" x2="568.339" y2="-69.2917" gradientUnits="userSpaceOnUse">
<stop stop-color="#582D7D" stop-opacity="0.52"/>
<stop offset="0.696338" stop-color="#6700BF" stop-opacity="0.55"/>
</linearGradient>
</defs>
</svg>
