<svg width="942" height="397" viewBox="0 0 942 397" fill="none" xmlns="http://www.w3.org/2000/svg">
<g filter="url(#filter0_d)">
<rect x="10" y="10" width="921" height="86" rx="15" fill="white"/>
<circle cx="824.5" cy="98.5" r="27.5" fill="white"/>
</g>
<path d="M69.0078 59.3887C68.3333 60.3548 67.39 61.0794 66.1777 61.5625C64.9746 62.0365 63.571 62.2734 61.9668 62.2734C60.3444 62.2734 58.9043 61.8952 57.6465 61.1387C56.3887 60.373 55.4134 59.2884 54.7207 57.8848C54.0371 56.4811 53.6862 54.8542 53.668 53.0039V51.2676C53.668 48.2689 54.3652 45.9447 55.7598 44.2949C57.1634 42.6452 59.1322 41.8203 61.666 41.8203C63.7441 41.8203 65.4167 42.3535 66.6836 43.4199C67.9505 44.4772 68.7253 45.9811 69.0078 47.9316H66.3828C65.8906 45.2975 64.3229 43.9805 61.6797 43.9805C59.9206 43.9805 58.5853 44.6003 57.6738 45.8398C56.7715 47.0703 56.3158 48.8568 56.3066 51.1992V52.8262C56.3066 55.0592 56.8171 56.8366 57.8379 58.1582C58.8587 59.4707 60.2396 60.127 61.9805 60.127C62.9648 60.127 63.8262 60.0176 64.5645 59.7988C65.3027 59.5801 65.9134 59.2109 66.3965 58.6914V54.2207H61.7891V52.0879H69.0078V59.3887ZM78.9387 62.2734C76.9335 62.2734 75.302 61.6172 74.0441 60.3047C72.7863 58.9831 72.1574 57.2194 72.1574 55.0137V54.5488C72.1574 53.0814 72.4354 51.7734 72.9914 50.625C73.5565 49.4674 74.3404 48.5651 75.343 47.918C76.3547 47.2617 77.4484 46.9336 78.6242 46.9336C80.5474 46.9336 82.0422 47.5671 83.1086 48.834C84.175 50.1009 84.7082 51.9147 84.7082 54.2754V55.3281H74.6867C74.7232 56.7865 75.147 57.9668 75.9582 58.8691C76.7785 59.7624 77.8176 60.209 79.0754 60.209C79.9686 60.209 80.7251 60.0267 81.3449 59.6621C81.9647 59.2975 82.507 58.8145 82.9719 58.2129L84.5168 59.416C83.2772 61.321 81.4178 62.2734 78.9387 62.2734ZM78.6242 49.0117C77.6034 49.0117 76.7466 49.3854 76.0539 50.1328C75.3612 50.8711 74.9328 51.9102 74.7687 53.25H82.1789V53.0586C82.106 51.7734 81.7596 50.7799 81.1398 50.0781C80.5201 49.3672 79.6815 49.0117 78.6242 49.0117ZM90.8793 43.625V47.207H93.641V49.1621H90.8793V58.3359C90.8793 58.9284 91.0023 59.375 91.2484 59.6758C91.4945 59.9674 91.9138 60.1133 92.5062 60.1133C92.7979 60.1133 93.199 60.0586 93.7094 59.9492V62C93.044 62.1823 92.3969 62.2734 91.768 62.2734C90.6378 62.2734 89.7855 61.9316 89.2113 61.248C88.6371 60.5645 88.35 59.5938 88.35 58.3359V49.1621H85.6566V47.207H88.35V43.625H90.8793ZM115.649 54.7676C115.649 57.0189 115.134 58.8327 114.104 60.209C113.074 61.5853 111.68 62.2734 109.921 62.2734C108.125 62.2734 106.712 61.7038 105.682 60.5645V67.6875H103.153V47.207H105.464L105.587 48.8477C106.617 47.5716 108.048 46.9336 109.88 46.9336C111.657 46.9336 113.061 47.6035 114.091 48.9434C115.13 50.2832 115.649 52.1471 115.649 54.5352V54.7676ZM113.12 54.4805C113.12 52.8125 112.764 51.4954 112.054 50.5293C111.343 49.5632 110.367 49.0801 109.128 49.0801C107.596 49.0801 106.448 49.7591 105.682 51.1172V58.1855C106.439 59.5345 107.596 60.209 109.155 60.209C110.367 60.209 111.329 59.7305 112.04 58.7734C112.76 57.8073 113.12 56.3763 113.12 54.4805ZM127.809 62C127.663 61.7083 127.544 61.1888 127.453 60.4414C126.277 61.6628 124.874 62.2734 123.242 62.2734C121.784 62.2734 120.585 61.8633 119.646 61.043C118.717 60.2135 118.252 59.1654 118.252 57.8984C118.252 56.3581 118.835 55.1641 120.002 54.3164C121.178 53.4596 122.827 53.0312 124.951 53.0312H127.412V51.8691C127.412 50.985 127.148 50.2832 126.619 49.7637C126.09 49.235 125.311 48.9707 124.281 48.9707C123.379 48.9707 122.622 49.1986 122.012 49.6543C121.401 50.11 121.096 50.6615 121.096 51.3086H118.553C118.553 50.5703 118.812 49.8594 119.332 49.1758C119.861 48.4831 120.572 47.9362 121.465 47.5352C122.367 47.1341 123.356 46.9336 124.432 46.9336C126.136 46.9336 127.471 47.362 128.438 48.2188C129.404 49.0664 129.905 50.2376 129.941 51.7324V58.541C129.941 59.8991 130.115 60.9792 130.461 61.7812V62H127.809ZM123.611 60.0723C124.404 60.0723 125.156 59.8672 125.867 59.457C126.578 59.0469 127.093 58.5137 127.412 57.8574V54.8223H125.43C122.331 54.8223 120.781 55.7292 120.781 57.543C120.781 58.3359 121.046 58.9557 121.574 59.4023C122.103 59.849 122.782 60.0723 123.611 60.0723ZM136.454 62H133.925V47.207H136.454V62ZM133.72 43.2832C133.72 42.873 133.843 42.5267 134.089 42.2441C134.344 41.9616 134.718 41.8203 135.21 41.8203C135.702 41.8203 136.076 41.9616 136.331 42.2441C136.586 42.5267 136.714 42.873 136.714 43.2832C136.714 43.6934 136.586 44.0352 136.331 44.3086C136.076 44.582 135.702 44.7188 135.21 44.7188C134.718 44.7188 134.344 44.582 134.089 44.3086C133.843 44.0352 133.72 43.6934 133.72 43.2832ZM139.7 54.4805C139.7 52.2109 140.237 50.388 141.313 49.0117C142.388 47.6263 143.797 46.9336 145.537 46.9336C147.269 46.9336 148.641 47.526 149.653 48.7109V41H152.182V62H149.858L149.735 60.4141C148.723 61.6536 147.315 62.2734 145.51 62.2734C143.797 62.2734 142.398 61.5716 141.313 60.168C140.237 58.7643 139.7 56.9323 139.7 54.6719V54.4805ZM142.229 54.7676C142.229 56.4447 142.575 57.7572 143.268 58.7051C143.961 59.653 144.918 60.127 146.139 60.127C147.743 60.127 148.914 59.4069 149.653 57.9668V51.1719C148.896 49.7773 147.734 49.0801 146.166 49.0801C144.927 49.0801 143.961 49.5586 143.268 50.5156C142.575 51.4727 142.229 52.89 142.229 54.7676ZM175.188 54.7676C175.188 57.028 174.669 58.8464 173.63 60.2227C172.591 61.5898 171.196 62.2734 169.446 62.2734C167.578 62.2734 166.133 61.6126 165.112 60.291L164.989 62H162.665V41H165.194V48.834C166.215 47.5671 167.623 46.9336 169.419 46.9336C171.214 46.9336 172.623 47.6126 173.643 48.9707C174.673 50.3288 175.188 52.1882 175.188 54.5488V54.7676ZM172.659 54.4805C172.659 52.7578 172.326 51.4271 171.661 50.4883C170.996 49.5495 170.039 49.0801 168.79 49.0801C167.122 49.0801 165.923 49.8548 165.194 51.4043V57.8027C165.969 59.3522 167.177 60.127 168.817 60.127C170.029 60.127 170.973 59.6576 171.647 58.7188C172.322 57.7799 172.659 56.3672 172.659 54.4805ZM182.863 58.2949L186.309 47.207H189.016L183.068 64.2832C182.148 66.7441 180.685 67.9746 178.68 67.9746L178.201 67.9336L177.258 67.7559V65.7051L177.941 65.7598C178.798 65.7598 179.464 65.5866 179.938 65.2402C180.421 64.8939 180.817 64.2604 181.127 63.3398L181.688 61.8359L176.41 47.207H179.172L182.863 58.2949ZM200.209 47.207L200.278 48.8477C201.362 47.5716 202.825 46.9336 204.666 46.9336C206.735 46.9336 208.144 47.7266 208.891 49.3125C209.383 48.6016 210.021 48.0273 210.805 47.5898C211.598 47.1523 212.532 46.9336 213.608 46.9336C216.853 46.9336 218.502 48.6517 218.557 52.0879V62H216.028V52.2383C216.028 51.181 215.786 50.3926 215.303 49.873C214.82 49.3444 214.009 49.0801 212.87 49.0801C211.931 49.0801 211.151 49.3626 210.532 49.9277C209.912 50.4837 209.552 51.2357 209.452 52.1836V62H206.909V52.3066C206.909 50.1556 205.856 49.0801 203.75 49.0801C202.092 49.0801 200.957 49.7865 200.346 51.1992V62H197.817V47.207H200.209ZM231.318 62C231.172 61.7083 231.054 61.1888 230.962 60.4414C229.787 61.6628 228.383 62.2734 226.752 62.2734C225.293 62.2734 224.095 61.8633 223.156 61.043C222.226 60.2135 221.761 59.1654 221.761 57.8984C221.761 56.3581 222.345 55.1641 223.511 54.3164C224.687 53.4596 226.337 53.0312 228.461 53.0312H230.921V51.8691C230.921 50.985 230.657 50.2832 230.129 49.7637C229.6 49.235 228.821 48.9707 227.791 48.9707C226.888 48.9707 226.132 49.1986 225.521 49.6543C224.91 50.11 224.605 50.6615 224.605 51.3086H222.062C222.062 50.5703 222.322 49.8594 222.841 49.1758C223.37 48.4831 224.081 47.9362 224.974 47.5352C225.877 47.1341 226.865 46.9336 227.941 46.9336C229.645 46.9336 230.981 47.362 231.947 48.2188C232.913 49.0664 233.414 50.2376 233.451 51.7324V58.541C233.451 59.8991 233.624 60.9792 233.97 61.7812V62H231.318ZM227.121 60.0723C227.914 60.0723 228.666 59.8672 229.377 59.457C230.087 59.0469 230.602 58.5137 230.921 57.8574V54.8223H228.939C225.84 54.8223 224.291 55.7292 224.291 57.543C224.291 58.3359 224.555 58.9557 225.084 59.4023C225.612 59.849 226.291 60.0723 227.121 60.0723ZM241.345 55.1504L239.759 56.8047V62H237.229V41H239.759V53.7012L241.112 52.0742L245.72 47.207H248.796L243.04 53.3867L249.466 62H246.499L241.345 55.1504ZM253.955 62H251.426V47.207H253.955V62ZM251.221 43.2832C251.221 42.873 251.344 42.5267 251.59 42.2441C251.845 41.9616 252.219 41.8203 252.711 41.8203C253.203 41.8203 253.577 41.9616 253.832 42.2441C254.087 42.5267 254.215 42.873 254.215 43.2832C254.215 43.6934 254.087 44.0352 253.832 44.3086C253.577 44.582 253.203 44.7188 252.711 44.7188C252.219 44.7188 251.845 44.582 251.59 44.3086C251.344 44.0352 251.221 43.6934 251.221 43.2832ZM260.208 47.207L260.29 49.0664C261.42 47.6445 262.897 46.9336 264.72 46.9336C267.846 46.9336 269.423 48.6973 269.45 52.2246V62H266.921V52.2109C266.912 51.1445 266.666 50.3561 266.183 49.8457C265.709 49.3353 264.966 49.0801 263.954 49.0801C263.134 49.0801 262.414 49.2988 261.794 49.7363C261.174 50.1738 260.691 50.748 260.345 51.459V62H257.816V47.207H260.208ZM272.463 54.4805C272.463 52.1745 272.996 50.3424 274.063 48.9844C275.129 47.6172 276.542 46.9336 278.301 46.9336C280.106 46.9336 281.514 47.5716 282.526 48.8477L282.649 47.207H284.959V61.6445C284.959 63.5586 284.39 65.0671 283.25 66.1699C282.12 67.2728 280.598 67.8242 278.684 67.8242C277.618 67.8242 276.574 67.5964 275.553 67.1406C274.532 66.6849 273.753 66.0605 273.215 65.2676L274.528 63.75C275.612 65.0898 276.939 65.7598 278.506 65.7598C279.737 65.7598 280.694 65.4134 281.377 64.7207C282.07 64.028 282.416 63.0527 282.416 61.7949V60.5234C281.405 61.6901 280.024 62.2734 278.274 62.2734C276.542 62.2734 275.138 61.5762 274.063 60.1816C272.996 58.7871 272.463 56.8867 272.463 54.4805ZM275.006 54.7676C275.006 56.4355 275.348 57.748 276.032 58.7051C276.715 59.653 277.672 60.127 278.903 60.127C280.498 60.127 281.669 59.4023 282.416 57.9531V51.1992C281.642 49.7865 280.48 49.0801 278.93 49.0801C277.7 49.0801 276.738 49.5586 276.045 50.5156C275.353 51.4727 275.006 52.89 275.006 54.7676ZM302.483 49.4766C302.1 49.4128 301.686 49.3809 301.239 49.3809C299.58 49.3809 298.455 50.0872 297.862 51.5V62H295.333V47.207H297.794L297.835 48.916C298.664 47.5944 299.84 46.9336 301.362 46.9336C301.854 46.9336 302.228 46.9974 302.483 47.125V49.4766ZM303.678 54.4668C303.678 53.0176 303.96 51.7142 304.525 50.5566C305.1 49.3991 305.893 48.5059 306.904 47.877C307.925 47.248 309.087 46.9336 310.391 46.9336C312.405 46.9336 314.032 47.6309 315.271 49.0254C316.52 50.4199 317.145 52.2747 317.145 54.5898V54.7676C317.145 56.2077 316.867 57.502 316.311 58.6504C315.764 59.7897 314.975 60.6784 313.945 61.3164C312.924 61.9544 311.749 62.2734 310.418 62.2734C308.413 62.2734 306.786 61.5762 305.537 60.1816C304.298 58.7871 303.678 56.9414 303.678 54.6445V54.4668ZM306.221 54.7676C306.221 56.4082 306.599 57.7253 307.355 58.7188C308.121 59.7122 309.142 60.209 310.418 60.209C311.703 60.209 312.724 59.7077 313.48 58.7051C314.237 57.6934 314.615 56.2806 314.615 54.4668C314.615 52.8444 314.228 51.5319 313.453 50.5293C312.688 49.5176 311.667 49.0117 310.391 49.0117C309.142 49.0117 308.135 49.5085 307.369 50.502C306.604 51.4954 306.221 52.9173 306.221 54.7676ZM329.249 62C329.103 61.7083 328.985 61.1888 328.894 60.4414C327.718 61.6628 326.314 62.2734 324.683 62.2734C323.224 62.2734 322.026 61.8633 321.087 61.043C320.157 60.2135 319.693 59.1654 319.693 57.8984C319.693 56.3581 320.276 55.1641 321.443 54.3164C322.618 53.4596 324.268 53.0312 326.392 53.0312H328.853V51.8691C328.853 50.985 328.588 50.2832 328.06 49.7637C327.531 49.235 326.752 48.9707 325.722 48.9707C324.82 48.9707 324.063 49.1986 323.452 49.6543C322.842 50.11 322.536 50.6615 322.536 51.3086H319.993C319.993 50.5703 320.253 49.8594 320.773 49.1758C321.301 48.4831 322.012 47.9362 322.905 47.5352C323.808 47.1341 324.797 46.9336 325.872 46.9336C327.577 46.9336 328.912 47.362 329.878 48.2188C330.844 49.0664 331.346 50.2376 331.382 51.7324V58.541C331.382 59.8991 331.555 60.9792 331.902 61.7812V62H329.249ZM325.052 60.0723C325.845 60.0723 326.597 59.8672 327.308 59.457C328.019 59.0469 328.534 58.5137 328.853 57.8574V54.8223H326.87C323.771 54.8223 322.222 55.7292 322.222 57.543C322.222 58.3359 322.486 58.9557 323.015 59.4023C323.543 59.849 324.223 60.0723 325.052 60.0723ZM334.532 54.4805C334.532 52.2109 335.069 50.388 336.145 49.0117C337.22 47.6263 338.629 46.9336 340.37 46.9336C342.101 46.9336 343.473 47.526 344.485 48.7109V41H347.014V62H344.69L344.567 60.4141C343.555 61.6536 342.147 62.2734 340.342 62.2734C338.629 62.2734 337.23 61.5716 336.145 60.168C335.069 58.7643 334.532 56.9323 334.532 54.6719V54.4805ZM337.061 54.7676C337.061 56.4447 337.407 57.7572 338.1 58.7051C338.793 59.653 339.75 60.127 340.971 60.127C342.575 60.127 343.746 59.4069 344.485 57.9668V51.1719C343.728 49.7773 342.566 49.0801 340.998 49.0801C339.759 49.0801 338.793 49.5586 338.1 50.5156C337.407 51.4727 337.061 52.89 337.061 54.7676ZM353.13 47.207L353.199 48.8477C354.283 47.5716 355.746 46.9336 357.587 46.9336C359.657 46.9336 361.065 47.7266 361.812 49.3125C362.304 48.6016 362.942 48.0273 363.726 47.5898C364.519 47.1523 365.453 46.9336 366.529 46.9336C369.774 46.9336 371.423 48.6517 371.478 52.0879V62H368.949V52.2383C368.949 51.181 368.707 50.3926 368.224 49.873C367.741 49.3444 366.93 49.0801 365.791 49.0801C364.852 49.0801 364.073 49.3626 363.453 49.9277C362.833 50.4837 362.473 51.2357 362.373 52.1836V62H359.83V52.3066C359.83 50.1556 358.777 49.0801 356.671 49.0801C355.013 49.0801 353.878 49.7865 353.267 51.1992V62H350.738V47.207H353.13ZM384.239 62C384.093 61.7083 383.975 61.1888 383.884 60.4414C382.708 61.6628 381.304 62.2734 379.673 62.2734C378.214 62.2734 377.016 61.8633 376.077 61.043C375.147 60.2135 374.682 59.1654 374.682 57.8984C374.682 56.3581 375.266 55.1641 376.432 54.3164C377.608 53.4596 379.258 53.0312 381.382 53.0312H383.843V51.8691C383.843 50.985 383.578 50.2832 383.05 49.7637C382.521 49.235 381.742 48.9707 380.712 48.9707C379.809 48.9707 379.053 49.1986 378.442 49.6543C377.832 50.11 377.526 50.6615 377.526 51.3086H374.983C374.983 50.5703 375.243 49.8594 375.763 49.1758C376.291 48.4831 377.002 47.9362 377.895 47.5352C378.798 47.1341 379.787 46.9336 380.862 46.9336C382.567 46.9336 383.902 47.362 384.868 48.2188C385.834 49.0664 386.335 50.2376 386.372 51.7324V58.541C386.372 59.8991 386.545 60.9792 386.891 61.7812V62H384.239ZM380.042 60.0723C380.835 60.0723 381.587 59.8672 382.298 59.457C383.009 59.0469 383.524 58.5137 383.843 57.8574V54.8223H381.86C378.761 54.8223 377.212 55.7292 377.212 57.543C377.212 58.3359 377.476 58.9557 378.005 59.4023C378.533 59.849 379.212 60.0723 380.042 60.0723ZM402.633 54.7676C402.633 57.0189 402.118 58.8327 401.088 60.209C400.058 61.5853 398.663 62.2734 396.904 62.2734C395.109 62.2734 393.696 61.7038 392.666 60.5645V67.6875H390.137V47.207H392.447L392.57 48.8477C393.6 47.5716 395.031 46.9336 396.863 46.9336C398.641 46.9336 400.044 47.6035 401.074 48.9434C402.113 50.2832 402.633 52.1471 402.633 54.5352V54.7676ZM400.104 54.4805C400.104 52.8125 399.748 51.4954 399.037 50.5293C398.326 49.5632 397.351 49.0801 396.111 49.0801C394.58 49.0801 393.432 49.7591 392.666 51.1172V58.1855C393.423 59.5345 394.58 60.209 396.139 60.209C397.351 60.209 398.312 59.7305 399.023 58.7734C399.743 57.8073 400.104 56.3763 400.104 54.4805ZM414.273 58.0762C414.273 57.3926 414.013 56.8639 413.493 56.4902C412.983 56.1074 412.085 55.7793 410.8 55.5059C409.524 55.2324 408.508 54.9043 407.751 54.5215C407.004 54.1387 406.448 53.6829 406.083 53.1543C405.728 52.6257 405.55 51.9967 405.55 51.2676C405.55 50.0553 406.06 49.0299 407.081 48.1914C408.111 47.3529 409.424 46.9336 411.019 46.9336C412.696 46.9336 414.054 47.3665 415.093 48.2324C416.141 49.0983 416.665 50.2057 416.665 51.5547H414.122C414.122 50.862 413.826 50.265 413.234 49.7637C412.65 49.2624 411.912 49.0117 411.019 49.0117C410.098 49.0117 409.378 49.2122 408.859 49.6133C408.339 50.0143 408.079 50.5384 408.079 51.1855C408.079 51.7962 408.321 52.2565 408.804 52.5664C409.287 52.8763 410.157 53.1725 411.415 53.4551C412.682 53.7376 413.708 54.0749 414.491 54.4668C415.275 54.8587 415.854 55.3327 416.228 55.8887C416.611 56.4355 416.802 57.1055 416.802 57.8984C416.802 59.2201 416.273 60.2819 415.216 61.084C414.159 61.877 412.787 62.2734 411.101 62.2734C409.916 62.2734 408.868 62.0638 407.956 61.6445C407.045 61.2253 406.329 60.6419 405.81 59.8945C405.299 59.138 405.044 58.3223 405.044 57.4473H407.573C407.619 58.2949 407.956 58.9694 408.585 59.4707C409.223 59.9629 410.062 60.209 411.101 60.209C412.058 60.209 412.823 60.0176 413.398 59.6348C413.981 59.2428 414.273 58.7233 414.273 58.0762Z" fill="#888888"/>
<path d="M811 95.5L823.5 108L836 95.5" stroke="#888888" stroke-width="3" stroke-linecap="round"/>
<g filter="url(#filter1_d)">
<circle cx="825.5" cy="195.5" r="27.5" fill="white"/>
<path fill-rule="evenodd" clip-rule="evenodd" d="M824.5 141C844.658 141 861 126.897 861 109.5C861 108.659 860.962 107.825 860.887 107H917C925.284 107 932 113.716 932 122V178C932 186.284 925.284 193 917 193H26C17.7158 193 11 186.284 11 178V122C11 113.716 17.7157 107 26 107H788.113C788.038 107.825 788 108.659 788 109.5C788 126.897 804.342 141 824.5 141Z" fill="white"/>
</g>
<path d="M63.6504 139.094H66.2891V153.189C66.2891 155.094 65.7148 156.585 64.5664 157.66C63.4271 158.736 61.9049 159.273 60 159.273C58.0221 159.273 56.4818 158.768 55.3789 157.756C54.276 156.744 53.7246 155.327 53.7246 153.504H56.3496C56.3496 154.643 56.6595 155.532 57.2793 156.17C57.9082 156.808 58.8151 157.127 60 157.127C61.0846 157.127 61.9596 156.785 62.625 156.102C63.2995 155.418 63.6413 154.461 63.6504 153.23V139.094ZM69.4934 151.467C69.4934 150.018 69.7759 148.714 70.341 147.557C70.9152 146.399 71.7082 145.506 72.7199 144.877C73.7408 144.248 74.9029 143.934 76.2063 143.934C78.2206 143.934 79.8475 144.631 81.0871 146.025C82.3358 147.42 82.9602 149.275 82.9602 151.59V151.768C82.9602 153.208 82.6822 154.502 82.1262 155.65C81.5793 156.79 80.7909 157.678 79.7609 158.316C78.7401 158.954 77.5643 159.273 76.2336 159.273C74.2284 159.273 72.6014 158.576 71.3527 157.182C70.1132 155.787 69.4934 153.941 69.4934 151.645V151.467ZM72.0363 151.768C72.0363 153.408 72.4146 154.725 73.1711 155.719C73.9367 156.712 74.9576 157.209 76.2336 157.209C77.5188 157.209 78.5396 156.708 79.2961 155.705C80.0526 154.693 80.4309 153.281 80.4309 151.467C80.4309 149.844 80.0435 148.532 79.2688 147.529C78.5031 146.518 77.4823 146.012 76.2063 146.012C74.9576 146.012 73.9504 146.508 73.1848 147.502C72.4191 148.495 72.0363 149.917 72.0363 151.768ZM88.6801 159H86.1508V144.207H88.6801V159ZM85.9457 140.283C85.9457 139.873 86.0688 139.527 86.3148 139.244C86.5701 138.962 86.9438 138.82 87.4359 138.82C87.9281 138.82 88.3018 138.962 88.557 139.244C88.8122 139.527 88.9398 139.873 88.9398 140.283C88.9398 140.693 88.8122 141.035 88.557 141.309C88.3018 141.582 87.9281 141.719 87.4359 141.719C86.9438 141.719 86.5701 141.582 86.3148 141.309C86.0688 141.035 85.9457 140.693 85.9457 140.283ZM94.9332 144.207L95.0152 146.066C96.1454 144.645 97.622 143.934 99.4449 143.934C102.571 143.934 104.148 145.697 104.175 149.225V159H101.646V149.211C101.637 148.145 101.391 147.356 100.908 146.846C100.434 146.335 99.691 146.08 98.6793 146.08C97.859 146.08 97.1389 146.299 96.5191 146.736C95.8994 147.174 95.4163 147.748 95.0699 148.459V159H92.5406V144.207H94.9332ZM117.967 140.625V144.207H120.729V146.162H117.967V155.336C117.967 155.928 118.09 156.375 118.336 156.676C118.582 156.967 119.001 157.113 119.594 157.113C119.885 157.113 120.286 157.059 120.797 156.949V159C120.132 159.182 119.484 159.273 118.855 159.273C117.725 159.273 116.873 158.932 116.299 158.248C115.725 157.564 115.438 156.594 115.438 155.336V146.162H112.744V144.207H115.438V140.625H117.967ZM126.025 145.998C127.146 144.622 128.604 143.934 130.4 143.934C133.526 143.934 135.103 145.697 135.13 149.225V159H132.601V149.211C132.592 148.145 132.346 147.356 131.863 146.846C131.389 146.335 130.646 146.08 129.634 146.08C128.814 146.08 128.094 146.299 127.474 146.736C126.854 147.174 126.371 147.748 126.025 148.459V159H123.495V138H126.025V145.998ZM144.856 159.273C142.851 159.273 141.219 158.617 139.961 157.305C138.704 155.983 138.075 154.219 138.075 152.014V151.549C138.075 150.081 138.353 148.773 138.909 147.625C139.474 146.467 140.258 145.565 141.26 144.918C142.272 144.262 143.366 143.934 144.541 143.934C146.465 143.934 147.959 144.567 149.026 145.834C150.092 147.101 150.625 148.915 150.625 151.275V152.328H140.604C140.64 153.786 141.064 154.967 141.875 155.869C142.696 156.762 143.735 157.209 144.993 157.209C145.886 157.209 146.642 157.027 147.262 156.662C147.882 156.298 148.424 155.814 148.889 155.213L150.434 156.416C149.194 158.321 147.335 159.273 144.856 159.273ZM144.541 146.012C143.521 146.012 142.664 146.385 141.971 147.133C141.278 147.871 140.85 148.91 140.686 150.25H148.096V150.059C148.023 148.773 147.677 147.78 147.057 147.078C146.437 146.367 145.599 146.012 144.541 146.012ZM159.44 151.467C159.44 150.018 159.723 148.714 160.288 147.557C160.862 146.399 161.655 145.506 162.667 144.877C163.688 144.248 164.85 143.934 166.153 143.934C168.167 143.934 169.794 144.631 171.034 146.025C172.283 147.42 172.907 149.275 172.907 151.59V151.768C172.907 153.208 172.629 154.502 172.073 155.65C171.526 156.79 170.738 157.678 169.708 158.316C168.687 158.954 167.511 159.273 166.18 159.273C164.175 159.273 162.548 158.576 161.3 157.182C160.06 155.787 159.44 153.941 159.44 151.645V151.467ZM161.983 151.768C161.983 153.408 162.361 154.725 163.118 155.719C163.884 156.712 164.904 157.209 166.18 157.209C167.466 157.209 168.486 156.708 169.243 155.705C169.999 154.693 170.378 153.281 170.378 151.467C170.378 149.844 169.99 148.532 169.216 147.529C168.45 146.518 167.429 146.012 166.153 146.012C164.904 146.012 163.897 146.508 163.132 147.502C162.366 148.495 161.983 149.917 161.983 151.768ZM188.375 151.768C188.375 154.019 187.86 155.833 186.83 157.209C185.8 158.585 184.406 159.273 182.646 159.273C180.851 159.273 179.438 158.704 178.408 157.564V164.688H175.879V144.207H178.189L178.312 145.848C179.342 144.572 180.773 143.934 182.605 143.934C184.383 143.934 185.786 144.604 186.816 145.943C187.855 147.283 188.375 149.147 188.375 151.535V151.768ZM185.846 151.48C185.846 149.812 185.49 148.495 184.779 147.529C184.068 146.563 183.093 146.08 181.854 146.08C180.322 146.08 179.174 146.759 178.408 148.117V155.186C179.165 156.535 180.322 157.209 181.881 157.209C183.093 157.209 184.055 156.73 184.766 155.773C185.486 154.807 185.846 153.376 185.846 151.48ZM197.54 159.273C195.535 159.273 193.904 158.617 192.646 157.305C191.388 155.983 190.759 154.219 190.759 152.014V151.549C190.759 150.081 191.037 148.773 191.593 147.625C192.158 146.467 192.942 145.565 193.945 144.918C194.956 144.262 196.05 143.934 197.226 143.934C199.149 143.934 200.644 144.567 201.71 145.834C202.777 147.101 203.31 148.915 203.31 151.275V152.328H193.288C193.325 153.786 193.749 154.967 194.56 155.869C195.38 156.762 196.419 157.209 197.677 157.209C198.57 157.209 199.327 157.027 199.946 156.662C200.566 156.298 201.109 155.814 201.573 155.213L203.118 156.416C201.879 158.321 200.019 159.273 197.54 159.273ZM197.226 146.012C196.205 146.012 195.348 146.385 194.655 147.133C193.963 147.871 193.534 148.91 193.37 150.25H200.78V150.059C200.708 148.773 200.361 147.78 199.741 147.078C199.122 146.367 198.283 146.012 197.226 146.012ZM208.442 144.207L208.524 146.066C209.654 144.645 211.131 143.934 212.954 143.934C216.08 143.934 217.657 145.697 217.684 149.225V159H215.155V149.211C215.146 148.145 214.899 147.356 214.416 146.846C213.942 146.335 213.2 146.08 212.188 146.08C211.368 146.08 210.648 146.299 210.028 146.736C209.408 147.174 208.925 147.748 208.579 148.459V159H206.049V144.207H208.442ZM236.657 155.076C236.657 154.393 236.397 153.864 235.878 153.49C235.367 153.107 234.47 152.779 233.184 152.506C231.908 152.232 230.892 151.904 230.136 151.521C229.388 151.139 228.832 150.683 228.468 150.154C228.112 149.626 227.934 148.997 227.934 148.268C227.934 147.055 228.445 146.03 229.466 145.191C230.496 144.353 231.808 143.934 233.403 143.934C235.08 143.934 236.438 144.367 237.477 145.232C238.526 146.098 239.05 147.206 239.05 148.555H236.507C236.507 147.862 236.21 147.265 235.618 146.764C235.035 146.262 234.296 146.012 233.403 146.012C232.483 146.012 231.762 146.212 231.243 146.613C230.723 147.014 230.464 147.538 230.464 148.186C230.464 148.796 230.705 149.257 231.188 149.566C231.671 149.876 232.542 150.173 233.8 150.455C235.067 150.738 236.092 151.075 236.876 151.467C237.66 151.859 238.238 152.333 238.612 152.889C238.995 153.436 239.186 154.105 239.186 154.898C239.186 156.22 238.658 157.282 237.6 158.084C236.543 158.877 235.171 159.273 233.485 159.273C232.3 159.273 231.252 159.064 230.341 158.645C229.429 158.225 228.714 157.642 228.194 156.895C227.684 156.138 227.429 155.322 227.429 154.447H229.958C230.003 155.295 230.341 155.969 230.97 156.471C231.608 156.963 232.446 157.209 233.485 157.209C234.442 157.209 235.208 157.018 235.782 156.635C236.365 156.243 236.657 155.723 236.657 155.076ZM241.611 151.467C241.611 150.018 241.894 148.714 242.459 147.557C243.033 146.399 243.826 145.506 244.838 144.877C245.859 144.248 247.021 143.934 248.324 143.934C250.339 143.934 251.965 144.631 253.205 146.025C254.454 147.42 255.078 149.275 255.078 151.59V151.768C255.078 153.208 254.8 154.502 254.244 155.65C253.697 156.79 252.909 157.678 251.879 158.316C250.858 158.954 249.682 159.273 248.352 159.273C246.346 159.273 244.719 158.576 243.471 157.182C242.231 155.787 241.611 153.941 241.611 151.645V151.467ZM244.154 151.768C244.154 153.408 244.533 154.725 245.289 155.719C246.055 156.712 247.076 157.209 248.352 157.209C249.637 157.209 250.658 156.708 251.414 155.705C252.171 154.693 252.549 153.281 252.549 151.467C252.549 149.844 252.161 148.532 251.387 147.529C250.621 146.518 249.6 146.012 248.324 146.012C247.076 146.012 246.068 146.508 245.303 147.502C244.537 148.495 244.154 149.917 244.154 151.768ZM267.183 157.537C266.198 158.695 264.754 159.273 262.849 159.273C261.272 159.273 260.069 158.818 259.239 157.906C258.419 156.986 258.004 155.628 257.995 153.832V144.207H260.525V153.764C260.525 156.006 261.436 157.127 263.259 157.127C265.191 157.127 266.476 156.407 267.114 154.967V144.207H269.644V159H267.238L267.183 157.537ZM280.45 146.477C280.067 146.413 279.652 146.381 279.205 146.381C277.547 146.381 276.421 147.087 275.829 148.5V159H273.299V144.207H275.76L275.801 145.916C276.631 144.594 277.806 143.934 279.329 143.934C279.821 143.934 280.194 143.997 280.45 144.125V146.477ZM288.248 157.209C289.15 157.209 289.938 156.936 290.613 156.389C291.287 155.842 291.661 155.158 291.734 154.338H294.127C294.081 155.186 293.789 155.992 293.252 156.758C292.714 157.523 291.994 158.134 291.091 158.59C290.198 159.046 289.25 159.273 288.248 159.273C286.233 159.273 284.629 158.604 283.435 157.264C282.25 155.915 281.658 154.074 281.658 151.74V151.316C281.658 149.876 281.922 148.596 282.451 147.475C282.979 146.354 283.736 145.483 284.72 144.863C285.714 144.243 286.885 143.934 288.234 143.934C289.893 143.934 291.269 144.43 292.363 145.424C293.466 146.417 294.054 147.707 294.127 149.293H291.734C291.661 148.336 291.296 147.552 290.64 146.941C289.993 146.322 289.191 146.012 288.234 146.012C286.949 146.012 285.951 146.477 285.24 147.406C284.538 148.327 284.187 149.662 284.187 151.412V151.891C284.187 153.595 284.538 154.908 285.24 155.828C285.942 156.749 286.944 157.209 288.248 157.209ZM302.909 159.273C300.904 159.273 299.272 158.617 298.014 157.305C296.757 155.983 296.128 154.219 296.128 152.014V151.549C296.128 150.081 296.406 148.773 296.962 147.625C297.527 146.467 298.311 145.565 299.313 144.918C300.325 144.262 301.419 143.934 302.595 143.934C304.518 143.934 306.012 144.567 307.079 145.834C308.145 147.101 308.679 148.915 308.679 151.275V152.328H298.657C298.693 153.786 299.117 154.967 299.929 155.869C300.749 156.762 301.788 157.209 303.046 157.209C303.939 157.209 304.695 157.027 305.315 156.662C305.935 156.298 306.477 155.814 306.942 155.213L308.487 156.416C307.248 158.321 305.388 159.273 302.909 159.273ZM302.595 146.012C301.574 146.012 300.717 146.385 300.024 147.133C299.332 147.871 298.903 148.91 298.739 150.25H306.149V150.059C306.076 148.773 305.73 147.78 305.11 147.078C304.49 146.367 303.652 146.012 302.595 146.012ZM324.097 157.209C324.999 157.209 325.788 156.936 326.462 156.389C327.137 155.842 327.51 155.158 327.583 154.338H329.976C329.93 155.186 329.639 155.992 329.101 156.758C328.563 157.523 327.843 158.134 326.941 158.59C326.047 159.046 325.099 159.273 324.097 159.273C322.083 159.273 320.478 158.604 319.284 157.264C318.099 155.915 317.507 154.074 317.507 151.74V151.316C317.507 149.876 317.771 148.596 318.3 147.475C318.829 146.354 319.585 145.483 320.57 144.863C321.563 144.243 322.734 143.934 324.083 143.934C325.742 143.934 327.118 144.43 328.212 145.424C329.315 146.417 329.903 147.707 329.976 149.293H327.583C327.51 148.336 327.146 147.552 326.489 146.941C325.842 146.322 325.04 146.012 324.083 146.012C322.798 146.012 321.8 146.477 321.089 147.406C320.387 148.327 320.036 149.662 320.036 151.412V151.891C320.036 153.595 320.387 154.908 321.089 155.828C321.791 156.749 322.793 157.209 324.097 157.209ZM331.95 151.467C331.95 150.018 332.232 148.714 332.797 147.557C333.371 146.399 334.164 145.506 335.176 144.877C336.197 144.248 337.359 143.934 338.663 143.934C340.677 143.934 342.304 144.631 343.543 146.025C344.792 147.42 345.416 149.275 345.416 151.59V151.768C345.416 153.208 345.138 154.502 344.582 155.65C344.036 156.79 343.247 157.678 342.217 158.316C341.196 158.954 340.021 159.273 338.69 159.273C336.685 159.273 335.058 158.576 333.809 157.182C332.569 155.787 331.95 153.941 331.95 151.645V151.467ZM334.493 151.768C334.493 153.408 334.871 154.725 335.627 155.719C336.393 156.712 337.414 157.209 338.69 157.209C339.975 157.209 340.996 156.708 341.752 155.705C342.509 154.693 342.887 153.281 342.887 151.467C342.887 149.844 342.5 148.532 341.725 147.529C340.959 146.518 339.939 146.012 338.663 146.012C337.414 146.012 336.407 146.508 335.641 147.502C334.875 148.495 334.493 149.917 334.493 151.768ZM350.767 144.207L350.836 145.848C351.92 144.572 353.383 143.934 355.224 143.934C357.293 143.934 358.701 144.727 359.449 146.312C359.941 145.602 360.579 145.027 361.363 144.59C362.156 144.152 363.09 143.934 364.166 143.934C367.41 143.934 369.06 145.652 369.115 149.088V159H366.586V149.238C366.586 148.181 366.344 147.393 365.861 146.873C365.378 146.344 364.567 146.08 363.427 146.08C362.489 146.08 361.709 146.363 361.089 146.928C360.47 147.484 360.11 148.236 360.009 149.184V159H357.466V149.307C357.466 147.156 356.414 146.08 354.308 146.08C352.649 146.08 351.515 146.786 350.904 148.199V159H348.375V144.207H350.767ZM375.122 144.207L375.19 145.848C376.275 144.572 377.738 143.934 379.579 143.934C381.648 143.934 383.056 144.727 383.804 146.312C384.296 145.602 384.934 145.027 385.718 144.59C386.511 144.152 387.445 143.934 388.52 143.934C391.765 143.934 393.415 145.652 393.47 149.088V159H390.94V149.238C390.94 148.181 390.699 147.393 390.216 146.873C389.733 146.344 388.921 146.08 387.782 146.08C386.843 146.08 386.064 146.363 385.444 146.928C384.824 147.484 384.464 148.236 384.364 149.184V159H381.821V149.307C381.821 147.156 380.768 146.08 378.663 146.08C377.004 146.08 375.869 146.786 375.259 148.199V159H372.729V144.207H375.122ZM406.23 157.537C405.246 158.695 403.801 159.273 401.896 159.273C400.32 159.273 399.117 158.818 398.287 157.906C397.467 156.986 397.052 155.628 397.043 153.832V144.207H399.572V153.764C399.572 156.006 400.484 157.127 402.307 157.127C404.239 157.127 405.524 156.407 406.162 154.967V144.207H408.691V159H406.285L406.23 157.537ZM414.739 144.207L414.821 146.066C415.952 144.645 417.428 143.934 419.251 143.934C422.377 143.934 423.954 145.697 423.982 149.225V159H421.452V149.211C421.443 148.145 421.197 147.356 420.714 146.846C420.24 146.335 419.497 146.08 418.486 146.08C417.665 146.08 416.945 146.299 416.325 146.736C415.706 147.174 415.223 147.748 414.876 148.459V159H412.347V144.207H414.739ZM430.344 159H427.815V144.207H430.344V159ZM427.61 140.283C427.61 139.873 427.733 139.527 427.979 139.244C428.234 138.962 428.608 138.82 429.1 138.82C429.592 138.82 429.966 138.962 430.221 139.244C430.476 139.527 430.604 139.873 430.604 140.283C430.604 140.693 430.476 141.035 430.221 141.309C429.966 141.582 429.592 141.719 429.1 141.719C428.608 141.719 428.234 141.582 427.979 141.309C427.733 141.035 427.61 140.693 427.61 140.283ZM437.636 140.625V144.207H440.398V146.162H437.636V155.336C437.636 155.928 437.759 156.375 438.005 156.676C438.252 156.967 438.671 157.113 439.263 157.113C439.555 157.113 439.956 157.059 440.466 156.949V159C439.801 159.182 439.154 159.273 438.525 159.273C437.395 159.273 436.543 158.932 435.968 158.248C435.394 157.564 435.107 156.594 435.107 155.336V146.162H432.414V144.207H435.107V140.625H437.636ZM448.005 155.295L451.45 144.207H454.157L448.21 161.283C447.289 163.744 445.826 164.975 443.821 164.975L443.343 164.934L442.399 164.756V162.705L443.083 162.76C443.94 162.76 444.605 162.587 445.079 162.24C445.562 161.894 445.958 161.26 446.268 160.34L446.829 158.836L441.552 144.207H444.313L448.005 155.295Z" fill="#888888"/>
<path d="M812 192.5L824.5 205L837 192.5" stroke="#888888" stroke-width="3" stroke-linecap="round"/>
<g filter="url(#filter2_d)">
<circle cx="824.5" cy="292.5" r="27.5" fill="white"/>
<path fill-rule="evenodd" clip-rule="evenodd" d="M823.5 238C843.658 238 860 223.897 860 206.5C860 205.659 859.962 204.825 859.887 204H916C924.284 204 931 210.716 931 219V275C931 283.284 924.284 290 916 290H25C16.7158 290 10 283.284 10 275V219C10 210.716 16.7157 204 25 204H787.113C787.038 204.825 787 205.659 787 206.5C787 223.897 803.342 238 823.5 238Z" fill="white"/>
</g>
<path d="M56.9492 253.854H66.3828V256H54.3105V236.094H56.9492V253.854ZM74.9191 256.273C72.9139 256.273 71.2824 255.617 70.0246 254.305C68.7668 252.983 68.1379 251.219 68.1379 249.014V248.549C68.1379 247.081 68.4159 245.773 68.9719 244.625C69.537 243.467 70.3208 242.565 71.3234 241.918C72.3352 241.262 73.4289 240.934 74.6047 240.934C76.5279 240.934 78.0227 241.567 79.0891 242.834C80.1555 244.101 80.6887 245.915 80.6887 248.275V249.328H70.6672C70.7036 250.786 71.1275 251.967 71.9387 252.869C72.759 253.762 73.798 254.209 75.0559 254.209C75.9491 254.209 76.7056 254.027 77.3254 253.662C77.9452 253.298 78.4875 252.814 78.9523 252.213L80.4973 253.416C79.2577 255.321 77.3983 256.273 74.9191 256.273ZM74.6047 243.012C73.5839 243.012 72.7271 243.385 72.0344 244.133C71.3417 244.871 70.9133 245.91 70.7492 247.25H78.1594V247.059C78.0865 245.773 77.7401 244.78 77.1203 244.078C76.5005 243.367 75.662 243.012 74.6047 243.012ZM92.5609 256C92.4151 255.708 92.2966 255.189 92.2055 254.441C91.0297 255.663 89.626 256.273 87.9945 256.273C86.5362 256.273 85.3376 255.863 84.3988 255.043C83.4691 254.214 83.0043 253.165 83.0043 251.898C83.0043 250.358 83.5876 249.164 84.7543 248.316C85.9301 247.46 87.5798 247.031 89.7035 247.031H92.1645V245.869C92.1645 244.985 91.9001 244.283 91.3715 243.764C90.8428 243.235 90.0635 242.971 89.0336 242.971C88.1313 242.971 87.3747 243.199 86.7641 243.654C86.1534 244.11 85.848 244.661 85.848 245.309H83.3051C83.3051 244.57 83.5648 243.859 84.0844 243.176C84.613 242.483 85.324 241.936 86.2172 241.535C87.1195 241.134 88.1085 240.934 89.184 240.934C90.8884 240.934 92.2237 241.362 93.1898 242.219C94.156 243.066 94.6573 244.238 94.6938 245.732V252.541C94.6938 253.899 94.8669 254.979 95.2133 255.781V256H92.5609ZM88.3637 254.072C89.1566 254.072 89.9086 253.867 90.6195 253.457C91.3305 253.047 91.8454 252.514 92.1645 251.857V248.822H90.182C87.0831 248.822 85.5336 249.729 85.5336 251.543C85.5336 252.336 85.7979 252.956 86.3266 253.402C86.8552 253.849 87.5342 254.072 88.3637 254.072ZM105.609 243.477C105.226 243.413 104.811 243.381 104.365 243.381C102.706 243.381 101.58 244.087 100.988 245.5V256H98.4586V241.207H100.92L100.961 242.916C101.79 241.594 102.966 240.934 104.488 240.934C104.98 240.934 105.354 240.997 105.609 241.125V243.477ZM110.139 241.207L110.221 243.066C111.352 241.645 112.828 240.934 114.651 240.934C117.777 240.934 119.354 242.697 119.382 246.225V256H116.852V246.211C116.843 245.145 116.597 244.356 116.114 243.846C115.64 243.335 114.897 243.08 113.886 243.08C113.065 243.08 112.345 243.299 111.725 243.736C111.106 244.174 110.623 244.748 110.276 245.459V256H107.747V241.207H110.139ZM130.986 256V243.162H128.648V241.207H130.986V239.689C130.986 238.104 131.409 236.878 132.257 236.012C133.105 235.146 134.303 234.713 135.853 234.713C136.436 234.713 137.015 234.79 137.589 234.945L137.452 236.996C137.024 236.914 136.568 236.873 136.085 236.873C135.265 236.873 134.631 237.115 134.185 237.598C133.738 238.072 133.515 238.755 133.515 239.648V241.207H136.673V243.162H133.515V256H130.986ZM138.606 248.467C138.606 247.018 138.888 245.714 139.454 244.557C140.028 243.399 140.821 242.506 141.832 241.877C142.853 241.248 144.015 240.934 145.319 240.934C147.333 240.934 148.96 241.631 150.2 243.025C151.448 244.42 152.073 246.275 152.073 248.59V248.768C152.073 250.208 151.795 251.502 151.239 252.65C150.692 253.79 149.903 254.678 148.873 255.316C147.853 255.954 146.677 256.273 145.346 256.273C143.341 256.273 141.714 255.576 140.465 254.182C139.226 252.787 138.606 250.941 138.606 248.645V248.467ZM141.149 248.768C141.149 250.408 141.527 251.725 142.284 252.719C143.049 253.712 144.07 254.209 145.346 254.209C146.631 254.209 147.652 253.708 148.409 252.705C149.165 251.693 149.543 250.281 149.543 248.467C149.543 246.844 149.156 245.532 148.381 244.529C147.616 243.518 146.595 243.012 145.319 243.012C144.07 243.012 143.063 243.508 142.297 244.502C141.532 245.495 141.149 246.917 141.149 248.768ZM162.195 243.477C161.812 243.413 161.397 243.381 160.951 243.381C159.292 243.381 158.166 244.087 157.574 245.5V256H155.045V241.207H157.505L157.546 242.916C158.376 241.594 159.552 240.934 161.074 240.934C161.566 240.934 161.94 240.997 162.195 241.125V243.477ZM172.322 256V243.162H169.984V241.207H172.322V239.689C172.322 238.104 172.746 236.878 173.594 236.012C174.441 235.146 175.64 234.713 177.189 234.713C177.773 234.713 178.352 234.79 178.926 234.945L178.789 236.996C178.361 236.914 177.905 236.873 177.422 236.873C176.602 236.873 175.968 237.115 175.521 237.598C175.075 238.072 174.852 238.755 174.852 239.648V241.207H178.01V243.162H174.852V256H172.322ZM187.763 243.477C187.38 243.413 186.965 243.381 186.519 243.381C184.86 243.381 183.734 244.087 183.142 245.5V256H180.613V241.207H183.073L183.114 242.916C183.944 241.594 185.12 240.934 186.642 240.934C187.134 240.934 187.508 240.997 187.763 241.125V243.477ZM195.766 256.273C193.761 256.273 192.129 255.617 190.871 254.305C189.614 252.983 188.985 251.219 188.985 249.014V248.549C188.985 247.081 189.263 245.773 189.819 244.625C190.384 243.467 191.168 242.565 192.17 241.918C193.182 241.262 194.276 240.934 195.452 240.934C197.375 240.934 198.87 241.567 199.936 242.834C201.002 244.101 201.536 245.915 201.536 248.275V249.328H191.514C191.551 250.786 191.974 251.967 192.786 252.869C193.606 253.762 194.645 254.209 195.903 254.209C196.796 254.209 197.552 254.027 198.172 253.662C198.792 253.298 199.334 252.814 199.799 252.213L201.344 253.416C200.105 255.321 198.245 256.273 195.766 256.273ZM195.452 243.012C194.431 243.012 193.574 243.385 192.881 244.133C192.189 244.871 191.76 245.91 191.596 247.25H199.006V247.059C198.933 245.773 198.587 244.78 197.967 244.078C197.347 243.367 196.509 243.012 195.452 243.012ZM210.414 256.273C208.408 256.273 206.777 255.617 205.519 254.305C204.261 252.983 203.632 251.219 203.632 249.014V248.549C203.632 247.081 203.91 245.773 204.466 244.625C205.032 243.467 205.815 242.565 206.818 241.918C207.83 241.262 208.923 240.934 210.099 240.934C212.022 240.934 213.517 241.567 214.584 242.834C215.65 244.101 216.183 245.915 216.183 248.275V249.328H206.162C206.198 250.786 206.622 251.967 207.433 252.869C208.254 253.762 209.293 254.209 210.55 254.209C211.444 254.209 212.2 254.027 212.82 253.662C213.44 253.298 213.982 252.814 214.447 252.213L215.992 253.416C214.752 255.321 212.893 256.273 210.414 256.273ZM210.099 243.012C209.078 243.012 208.222 243.385 207.529 244.133C206.836 244.871 206.408 245.91 206.244 247.25H213.654V247.059C213.581 245.773 213.235 244.78 212.615 244.078C211.995 243.367 211.157 243.012 210.099 243.012ZM229.1 237.625V241.207H231.861V243.162H229.1V252.336C229.1 252.928 229.223 253.375 229.469 253.676C229.715 253.967 230.134 254.113 230.727 254.113C231.018 254.113 231.419 254.059 231.93 253.949V256C231.264 256.182 230.617 256.273 229.988 256.273C228.858 256.273 228.006 255.932 227.432 255.248C226.857 254.564 226.57 253.594 226.57 252.336V243.162H223.877V241.207H226.57V237.625H229.1ZM237.157 242.998C238.279 241.622 239.737 240.934 241.532 240.934C244.659 240.934 246.236 242.697 246.263 246.225V256H243.734V246.211C243.724 245.145 243.478 244.356 242.995 243.846C242.521 243.335 241.779 243.08 240.767 243.08C239.946 243.08 239.226 243.299 238.607 243.736C237.987 244.174 237.504 244.748 237.157 245.459V256H234.628V235H237.157V242.998ZM257 243.477C256.618 243.413 256.203 243.381 255.756 243.381C254.097 243.381 252.972 244.087 252.379 245.5V256H249.85V241.207H252.311L252.352 242.916C253.181 241.594 254.357 240.934 255.879 240.934C256.371 240.934 256.745 240.997 257 241.125V243.477ZM258.195 248.467C258.195 247.018 258.477 245.714 259.043 244.557C259.617 243.399 260.41 242.506 261.421 241.877C262.442 241.248 263.604 240.934 264.908 240.934C266.922 240.934 268.549 241.631 269.789 243.025C271.037 244.42 271.662 246.275 271.662 248.59V248.768C271.662 250.208 271.384 251.502 270.828 252.65C270.281 253.79 269.492 254.678 268.462 255.316C267.442 255.954 266.266 256.273 264.935 256.273C262.93 256.273 261.303 255.576 260.054 254.182C258.815 252.787 258.195 250.941 258.195 248.645V248.467ZM260.738 248.768C260.738 250.408 261.116 251.725 261.873 252.719C262.638 253.712 263.659 254.209 264.935 254.209C266.22 254.209 267.241 253.708 267.998 252.705C268.754 251.693 269.132 250.281 269.132 248.467C269.132 246.844 268.745 245.532 267.97 244.529C267.205 243.518 266.184 243.012 264.908 243.012C263.659 243.012 262.652 243.508 261.886 244.502C261.121 245.495 260.738 246.917 260.738 248.768ZM283.766 254.537C282.782 255.695 281.337 256.273 279.432 256.273C277.856 256.273 276.652 255.818 275.823 254.906C275.003 253.986 274.588 252.628 274.579 250.832V241.207H277.108V250.764C277.108 253.006 278.02 254.127 279.843 254.127C281.775 254.127 283.06 253.407 283.698 251.967V241.207H286.227V256H283.821L283.766 254.537ZM289.281 248.48C289.281 246.174 289.814 244.342 290.881 242.984C291.947 241.617 293.36 240.934 295.119 240.934C296.924 240.934 298.332 241.572 299.344 242.848L299.467 241.207H301.777V255.645C301.777 257.559 301.208 259.067 300.068 260.17C298.938 261.273 297.416 261.824 295.502 261.824C294.436 261.824 293.392 261.596 292.371 261.141C291.35 260.685 290.571 260.061 290.033 259.268L291.346 257.75C292.43 259.09 293.757 259.76 295.324 259.76C296.555 259.76 297.512 259.413 298.195 258.721C298.888 258.028 299.234 257.053 299.234 255.795V254.523C298.223 255.69 296.842 256.273 295.092 256.273C293.36 256.273 291.956 255.576 290.881 254.182C289.814 252.787 289.281 250.887 289.281 248.48ZM291.824 248.768C291.824 250.436 292.166 251.748 292.85 252.705C293.533 253.653 294.49 254.127 295.721 254.127C297.316 254.127 298.487 253.402 299.234 251.953V245.199C298.46 243.786 297.298 243.08 295.748 243.08C294.518 243.08 293.556 243.559 292.863 244.516C292.171 245.473 291.824 246.89 291.824 248.768ZM307.935 242.998C309.056 241.622 310.514 240.934 312.31 240.934C315.436 240.934 317.013 242.697 317.04 246.225V256H314.511V246.211C314.502 245.145 314.256 244.356 313.773 243.846C313.299 243.335 312.556 243.08 311.544 243.08C310.724 243.08 310.004 243.299 309.384 243.736C308.764 244.174 308.281 244.748 307.935 245.459V256H305.405V235H307.935V242.998ZM336.505 256C336.36 255.708 336.241 255.189 336.15 254.441C334.974 255.663 333.571 256.273 331.939 256.273C330.481 256.273 329.282 255.863 328.343 255.043C327.414 254.214 326.949 253.165 326.949 251.898C326.949 250.358 327.532 249.164 328.699 248.316C329.875 247.46 331.524 247.031 333.648 247.031H336.109V245.869C336.109 244.985 335.845 244.283 335.316 243.764C334.787 243.235 334.008 242.971 332.978 242.971C332.076 242.971 331.319 243.199 330.709 243.654C330.098 244.11 329.793 244.661 329.793 245.309H327.25C327.25 244.57 327.509 243.859 328.029 243.176C328.558 242.483 329.268 241.936 330.162 241.535C331.064 241.134 332.053 240.934 333.129 240.934C334.833 240.934 336.168 241.362 337.134 242.219C338.101 243.066 338.602 244.238 338.638 245.732V252.541C338.638 253.899 338.811 254.979 339.158 255.781V256H336.505ZM332.308 254.072C333.101 254.072 333.853 253.867 334.564 253.457C335.275 253.047 335.79 252.514 336.109 251.857V248.822H334.127C331.028 248.822 329.478 249.729 329.478 251.543C329.478 252.336 329.742 252.956 330.271 253.402C330.8 253.849 331.479 254.072 332.308 254.072ZM345.151 256H342.622V235H345.151V256ZM351.76 256H349.23V235H351.76V256ZM361.696 248.467C361.696 247.018 361.978 245.714 362.543 244.557C363.118 243.399 363.911 242.506 364.922 241.877C365.943 241.248 367.105 240.934 368.409 240.934C370.423 240.934 372.05 241.631 373.289 243.025C374.538 244.42 375.163 246.275 375.163 248.59V248.768C375.163 250.208 374.885 251.502 374.329 252.65C373.782 253.79 372.993 254.678 371.963 255.316C370.942 255.954 369.767 256.273 368.436 256.273C366.431 256.273 364.804 255.576 363.555 254.182C362.316 252.787 361.696 250.941 361.696 248.645V248.467ZM364.239 248.768C364.239 250.408 364.617 251.725 365.373 252.719C366.139 253.712 367.16 254.209 368.436 254.209C369.721 254.209 370.742 253.708 371.498 252.705C372.255 251.693 372.633 250.281 372.633 248.467C372.633 246.844 372.246 245.532 371.471 244.529C370.705 243.518 369.685 243.012 368.409 243.012C367.16 243.012 366.153 243.508 365.387 244.502C364.621 245.495 364.239 246.917 364.239 248.768ZM379.379 256V243.162H377.041V241.207H379.379V239.689C379.379 238.104 379.802 236.878 380.65 236.012C381.498 235.146 382.696 234.713 384.246 234.713C384.829 234.713 385.408 234.79 385.982 234.945L385.845 236.996C385.417 236.914 384.961 236.873 384.478 236.873C383.658 236.873 383.024 237.115 382.578 237.598C382.131 238.072 381.908 238.755 381.908 239.648V241.207H385.066V243.162H381.908V256H379.379ZM397.846 237.625V241.207H400.607V243.162H397.846V252.336C397.846 252.928 397.969 253.375 398.215 253.676C398.461 253.967 398.88 254.113 399.473 254.113C399.764 254.113 400.165 254.059 400.676 253.949V256C400.01 256.182 399.363 256.273 398.734 256.273C397.604 256.273 396.752 255.932 396.178 255.248C395.604 254.564 395.316 253.594 395.316 252.336V243.162H392.623V241.207H395.316V237.625H397.846ZM405.904 242.998C407.025 241.622 408.483 240.934 410.279 240.934C413.405 240.934 414.982 242.697 415.009 246.225V256H412.48V246.211C412.471 245.145 412.224 244.356 411.741 243.846C411.267 243.335 410.525 243.08 409.513 243.08C408.693 243.08 407.973 243.299 407.353 243.736C406.733 244.174 406.25 244.748 405.904 245.459V256H403.374V235H405.904V242.998ZM424.735 256.273C422.73 256.273 421.098 255.617 419.84 254.305C418.582 252.983 417.954 251.219 417.954 249.014V248.549C417.954 247.081 418.232 245.773 418.788 244.625C419.353 243.467 420.136 242.565 421.139 241.918C422.151 241.262 423.245 240.934 424.42 240.934C426.343 240.934 427.838 241.567 428.905 242.834C429.971 244.101 430.504 245.915 430.504 248.275V249.328H420.483C420.519 250.786 420.943 251.967 421.754 252.869C422.575 253.762 423.614 254.209 424.871 254.209C425.765 254.209 426.521 254.027 427.141 253.662C427.761 253.298 428.303 252.814 428.768 252.213L430.313 253.416C429.073 255.321 427.214 256.273 424.735 256.273ZM424.42 243.012C423.399 243.012 422.543 243.385 421.85 244.133C421.157 244.871 420.729 245.91 420.565 247.25H427.975V247.059C427.902 245.773 427.556 244.78 426.936 244.078C426.316 243.367 425.478 243.012 424.42 243.012ZM447.139 243.477C446.757 243.413 446.342 243.381 445.895 243.381C444.236 243.381 443.111 244.087 442.518 245.5V256H439.989V241.207H442.45L442.491 242.916C443.32 241.594 444.496 240.934 446.018 240.934C446.511 240.934 446.884 240.997 447.139 241.125V243.477ZM448.334 248.467C448.334 247.018 448.617 245.714 449.182 244.557C449.756 243.399 450.549 242.506 451.561 241.877C452.581 241.248 453.743 240.934 455.047 240.934C457.061 240.934 458.688 241.631 459.928 243.025C461.176 244.42 461.801 246.275 461.801 248.59V248.768C461.801 250.208 461.523 251.502 460.967 252.65C460.42 253.79 459.632 254.678 458.602 255.316C457.581 255.954 456.405 256.273 455.074 256.273C453.069 256.273 451.442 255.576 450.193 254.182C448.954 252.787 448.334 250.941 448.334 248.645V248.467ZM450.877 248.768C450.877 250.408 451.255 251.725 452.012 252.719C452.777 253.712 453.798 254.209 455.074 254.209C456.359 254.209 457.38 253.708 458.137 252.705C458.893 251.693 459.271 250.281 459.271 248.467C459.271 246.844 458.884 245.532 458.109 244.529C457.344 243.518 456.323 243.012 455.047 243.012C453.798 243.012 452.791 243.508 452.025 244.502C451.26 245.495 450.877 246.917 450.877 248.768ZM473.905 256C473.76 255.708 473.641 255.189 473.55 254.441C472.374 255.663 470.971 256.273 469.339 256.273C467.881 256.273 466.682 255.863 465.743 255.043C464.814 254.214 464.349 253.165 464.349 251.898C464.349 250.358 464.932 249.164 466.099 248.316C467.275 247.46 468.924 247.031 471.048 247.031H473.509V245.869C473.509 244.985 473.245 244.283 472.716 243.764C472.187 243.235 471.408 242.971 470.378 242.971C469.476 242.971 468.719 243.199 468.109 243.654C467.498 244.11 467.193 244.661 467.193 245.309H464.65C464.65 244.57 464.909 243.859 465.429 243.176C465.958 242.483 466.668 241.936 467.562 241.535C468.464 241.134 469.453 240.934 470.529 240.934C472.233 240.934 473.568 241.362 474.534 242.219C475.501 243.066 476.002 244.238 476.038 245.732V252.541C476.038 253.899 476.211 254.979 476.558 255.781V256H473.905ZM469.708 254.072C470.501 254.072 471.253 253.867 471.964 253.457C472.675 253.047 473.19 252.514 473.509 251.857V248.822H471.527C468.428 248.822 466.878 249.729 466.878 251.543C466.878 252.336 467.142 252.956 467.671 253.402C468.2 253.849 468.879 254.072 469.708 254.072ZM479.188 248.48C479.188 246.211 479.726 244.388 480.801 243.012C481.877 241.626 483.285 240.934 485.026 240.934C486.758 240.934 488.129 241.526 489.141 242.711V235H491.67V256H489.346L489.223 254.414C488.211 255.654 486.803 256.273 484.998 256.273C483.285 256.273 481.886 255.572 480.801 254.168C479.726 252.764 479.188 250.932 479.188 248.672V248.48ZM481.717 248.768C481.717 250.445 482.064 251.757 482.756 252.705C483.449 253.653 484.406 254.127 485.627 254.127C487.232 254.127 488.403 253.407 489.141 251.967V245.172C488.385 243.777 487.222 243.08 485.655 243.08C484.415 243.08 483.449 243.559 482.756 244.516C482.064 245.473 481.717 246.89 481.717 248.768ZM497.787 241.207L497.855 242.848C498.94 241.572 500.403 240.934 502.244 240.934C504.313 240.934 505.721 241.727 506.468 243.312C506.961 242.602 507.599 242.027 508.382 241.59C509.175 241.152 510.11 240.934 511.185 240.934C514.43 240.934 516.08 242.652 516.134 246.088V256H513.605V246.238C513.605 245.181 513.364 244.393 512.88 243.873C512.397 243.344 511.586 243.08 510.447 243.08C509.508 243.08 508.729 243.363 508.109 243.928C507.489 244.484 507.129 245.236 507.029 246.184V256H504.486V246.307C504.486 244.156 503.433 243.08 501.328 243.08C499.669 243.08 498.534 243.786 497.923 245.199V256H495.394V241.207H497.787ZM528.895 256C528.749 255.708 528.631 255.189 528.54 254.441C527.364 255.663 525.96 256.273 524.329 256.273C522.871 256.273 521.672 255.863 520.733 255.043C519.804 254.214 519.339 253.165 519.339 251.898C519.339 250.358 519.922 249.164 521.089 248.316C522.264 247.46 523.914 247.031 526.038 247.031H528.499V245.869C528.499 244.985 528.235 244.283 527.706 243.764C527.177 243.235 526.398 242.971 525.368 242.971C524.466 242.971 523.709 243.199 523.098 243.654C522.488 244.11 522.182 244.661 522.182 245.309H519.639C519.639 244.57 519.899 243.859 520.419 243.176C520.947 242.483 521.658 241.936 522.552 241.535C523.454 241.134 524.443 240.934 525.518 240.934C527.223 240.934 528.558 241.362 529.524 242.219C530.49 243.066 530.992 244.238 531.028 245.732V252.541C531.028 253.899 531.201 254.979 531.548 255.781V256H528.895ZM524.698 254.072C525.491 254.072 526.243 253.867 526.954 253.457C527.665 253.047 528.18 252.514 528.499 251.857V248.822H526.516C523.417 248.822 521.868 249.729 521.868 251.543C521.868 252.336 522.132 252.956 522.661 253.402C523.19 253.849 523.869 254.072 524.698 254.072ZM547.289 248.768C547.289 251.019 546.774 252.833 545.744 254.209C544.714 255.585 543.32 256.273 541.561 256.273C539.765 256.273 538.352 255.704 537.322 254.564V261.688H534.793V241.207H537.104L537.227 242.848C538.257 241.572 539.688 240.934 541.52 240.934C543.297 240.934 544.701 241.604 545.73 242.943C546.77 244.283 547.289 246.147 547.289 248.535V248.768ZM544.76 248.48C544.76 246.812 544.404 245.495 543.693 244.529C542.982 243.563 542.007 243.08 540.768 243.08C539.236 243.08 538.088 243.759 537.322 245.117V252.186C538.079 253.535 539.236 254.209 540.795 254.209C542.007 254.209 542.969 253.73 543.68 252.773C544.4 251.807 544.76 250.376 544.76 248.48ZM558.929 252.076C558.929 251.393 558.669 250.864 558.15 250.49C557.639 250.107 556.741 249.779 555.456 249.506C554.18 249.232 553.164 248.904 552.407 248.521C551.66 248.139 551.104 247.683 550.739 247.154C550.384 246.626 550.206 245.997 550.206 245.268C550.206 244.055 550.717 243.03 551.737 242.191C552.767 241.353 554.08 240.934 555.675 240.934C557.352 240.934 558.71 241.367 559.749 242.232C560.797 243.098 561.321 244.206 561.321 245.555H558.779C558.779 244.862 558.482 244.265 557.89 243.764C557.306 243.262 556.568 243.012 555.675 243.012C554.754 243.012 554.034 243.212 553.515 243.613C552.995 244.014 552.736 244.538 552.736 245.186C552.736 245.796 552.977 246.257 553.46 246.566C553.943 246.876 554.814 247.173 556.071 247.455C557.338 247.738 558.364 248.075 559.148 248.467C559.931 248.859 560.51 249.333 560.884 249.889C561.267 250.436 561.458 251.105 561.458 251.898C561.458 253.22 560.93 254.282 559.872 255.084C558.815 255.877 557.443 256.273 555.757 256.273C554.572 256.273 553.524 256.064 552.612 255.645C551.701 255.225 550.986 254.642 550.466 253.895C549.956 253.138 549.7 252.322 549.7 251.447H552.23C552.275 252.295 552.612 252.969 553.241 253.471C553.879 253.963 554.718 254.209 555.757 254.209C556.714 254.209 557.48 254.018 558.054 253.635C558.637 253.243 558.929 252.723 558.929 252.076Z" fill="#888888"/>
<path d="M811 289.5L823.5 302L836 289.5" stroke="#888888" stroke-width="3" stroke-linecap="round"/>
<g filter="url(#filter3_d)">
<path fill-rule="evenodd" clip-rule="evenodd" d="M823.5 335C843.658 335 860 320.897 860 303.5C860 302.659 859.962 301.825 859.887 301H916C924.284 301 931 307.716 931 316V372C931 380.284 924.284 387 916 387H25C16.7158 387 10 380.284 10 372V316C10 307.716 16.7157 301 25 301H787.113C787.038 301.825 787 302.659 787 303.5C787 320.897 803.342 335 823.5 335Z" fill="white"/>
</g>
<path d="M69.0078 350.389C68.3333 351.355 67.39 352.079 66.1777 352.562C64.9746 353.036 63.571 353.273 61.9668 353.273C60.3444 353.273 58.9043 352.895 57.6465 352.139C56.3887 351.373 55.4134 350.288 54.7207 348.885C54.0371 347.481 53.6862 345.854 53.668 344.004V342.268C53.668 339.269 54.3652 336.945 55.7598 335.295C57.1634 333.645 59.1322 332.82 61.666 332.82C63.7441 332.82 65.4167 333.354 66.6836 334.42C67.9505 335.477 68.7253 336.981 69.0078 338.932H66.3828C65.8906 336.298 64.3229 334.98 61.6797 334.98C59.9206 334.98 58.5853 335.6 57.6738 336.84C56.7715 338.07 56.3158 339.857 56.3066 342.199V343.826C56.3066 346.059 56.8171 347.837 57.8379 349.158C58.8587 350.471 60.2396 351.127 61.9805 351.127C62.9648 351.127 63.8262 351.018 64.5645 350.799C65.3027 350.58 65.9134 350.211 66.3965 349.691V345.221H61.7891V343.088H69.0078V350.389ZM78.9387 353.273C76.9335 353.273 75.302 352.617 74.0441 351.305C72.7863 349.983 72.1574 348.219 72.1574 346.014V345.549C72.1574 344.081 72.4354 342.773 72.9914 341.625C73.5565 340.467 74.3404 339.565 75.343 338.918C76.3547 338.262 77.4484 337.934 78.6242 337.934C80.5474 337.934 82.0422 338.567 83.1086 339.834C84.175 341.101 84.7082 342.915 84.7082 345.275V346.328H74.6867C74.7232 347.786 75.147 348.967 75.9582 349.869C76.7785 350.762 77.8176 351.209 79.0754 351.209C79.9686 351.209 80.7251 351.027 81.3449 350.662C81.9647 350.298 82.507 349.814 82.9719 349.213L84.5168 350.416C83.2772 352.321 81.4178 353.273 78.9387 353.273ZM78.6242 340.012C77.6034 340.012 76.7466 340.385 76.0539 341.133C75.3612 341.871 74.9328 342.91 74.7687 344.25H82.1789V344.059C82.106 342.773 81.7596 341.78 81.1398 341.078C80.5201 340.367 79.6815 340.012 78.6242 340.012ZM90.8793 334.625V338.207H93.641V340.162H90.8793V349.336C90.8793 349.928 91.0023 350.375 91.2484 350.676C91.4945 350.967 91.9138 351.113 92.5062 351.113C92.7979 351.113 93.199 351.059 93.7094 350.949V353C93.044 353.182 92.3969 353.273 91.768 353.273C90.6378 353.273 89.7855 352.932 89.2113 352.248C88.6371 351.564 88.35 350.594 88.35 349.336V340.162H85.6566V338.207H88.35V334.625H90.8793ZM112.286 351.537C111.302 352.695 109.857 353.273 107.952 353.273C106.375 353.273 105.172 352.818 104.343 351.906C103.522 350.986 103.108 349.628 103.098 347.832V338.207H105.628V347.764C105.628 350.006 106.539 351.127 108.362 351.127C110.294 351.127 111.58 350.407 112.218 348.967V338.207H114.747V353H112.341L112.286 351.537ZM130.898 345.768C130.898 348.019 130.383 349.833 129.354 351.209C128.324 352.585 126.929 353.273 125.17 353.273C123.374 353.273 121.962 352.704 120.932 351.564V358.688H118.402V338.207H120.713L120.836 339.848C121.866 338.572 123.297 337.934 125.129 337.934C126.906 337.934 128.31 338.604 129.34 339.943C130.379 341.283 130.898 343.147 130.898 345.535V345.768ZM128.369 345.48C128.369 343.812 128.014 342.495 127.303 341.529C126.592 340.563 125.617 340.08 124.377 340.08C122.846 340.08 121.697 340.759 120.932 342.117V349.186C121.688 350.535 122.846 351.209 124.404 351.209C125.617 351.209 126.578 350.73 127.289 349.773C128.009 348.807 128.369 347.376 128.369 345.48ZM133.31 345.48C133.31 343.211 133.848 341.388 134.923 340.012C135.999 338.626 137.407 337.934 139.148 337.934C140.879 337.934 142.251 338.526 143.263 339.711V332H145.792V353H143.468L143.345 351.414C142.333 352.654 140.925 353.273 139.12 353.273C137.407 353.273 136.008 352.572 134.923 351.168C133.848 349.764 133.31 347.932 133.31 345.672V345.48ZM135.839 345.768C135.839 347.445 136.185 348.757 136.878 349.705C137.571 350.653 138.528 351.127 139.749 351.127C141.353 351.127 142.525 350.407 143.263 348.967V342.172C142.506 340.777 141.344 340.08 139.777 340.08C138.537 340.08 137.571 340.559 136.878 341.516C136.185 342.473 135.839 343.89 135.839 345.768ZM158.662 353C158.517 352.708 158.398 352.189 158.307 351.441C157.131 352.663 155.728 353.273 154.096 353.273C152.638 353.273 151.439 352.863 150.5 352.043C149.571 351.214 149.106 350.165 149.106 348.898C149.106 347.358 149.689 346.164 150.856 345.316C152.032 344.46 153.681 344.031 155.805 344.031H158.266V342.869C158.266 341.985 158.002 341.283 157.473 340.764C156.944 340.235 156.165 339.971 155.135 339.971C154.233 339.971 153.476 340.199 152.866 340.654C152.255 341.11 151.95 341.661 151.95 342.309H149.407C149.407 341.57 149.666 340.859 150.186 340.176C150.715 339.483 151.426 338.936 152.319 338.535C153.221 338.134 154.21 337.934 155.286 337.934C156.99 337.934 158.325 338.362 159.291 339.219C160.258 340.066 160.759 341.238 160.795 342.732V349.541C160.795 350.899 160.968 351.979 161.315 352.781V353H158.662ZM154.465 351.072C155.258 351.072 156.01 350.867 156.721 350.457C157.432 350.047 157.947 349.514 158.266 348.857V345.822H156.284C153.185 345.822 151.635 346.729 151.635 348.543C151.635 349.336 151.899 349.956 152.428 350.402C152.957 350.849 153.636 351.072 154.465 351.072ZM167.992 334.625V338.207H170.754V340.162H167.992V349.336C167.992 349.928 168.115 350.375 168.361 350.676C168.607 350.967 169.026 351.113 169.619 351.113C169.91 351.113 170.311 351.059 170.822 350.949V353C170.157 353.182 169.509 353.273 168.88 353.273C167.75 353.273 166.898 352.932 166.324 352.248C165.75 351.564 165.463 350.594 165.463 349.336V340.162H162.769V338.207H165.463V334.625H167.992ZM179.659 353.273C177.654 353.273 176.022 352.617 174.764 351.305C173.507 349.983 172.878 348.219 172.878 346.014V345.549C172.878 344.081 173.156 342.773 173.712 341.625C174.277 340.467 175.061 339.565 176.063 338.918C177.075 338.262 178.169 337.934 179.345 337.934C181.268 337.934 182.762 338.567 183.829 339.834C184.895 341.101 185.429 342.915 185.429 345.275V346.328H175.407C175.443 347.786 175.867 348.967 176.679 349.869C177.499 350.762 178.538 351.209 179.796 351.209C180.689 351.209 181.445 351.027 182.065 350.662C182.685 350.298 183.227 349.814 183.692 349.213L185.237 350.416C183.998 352.321 182.138 353.273 179.659 353.273ZM179.345 340.012C178.324 340.012 177.467 340.385 176.774 341.133C176.082 341.871 175.653 342.91 175.489 344.25H182.899V344.059C182.826 342.773 182.48 341.78 181.86 341.078C181.24 340.367 180.402 340.012 179.345 340.012ZM196.781 349.076C196.781 348.393 196.521 347.864 196.002 347.49C195.492 347.107 194.594 346.779 193.309 346.506C192.033 346.232 191.016 345.904 190.26 345.521C189.512 345.139 188.956 344.683 188.592 344.154C188.236 343.626 188.059 342.997 188.059 342.268C188.059 341.055 188.569 340.03 189.59 339.191C190.62 338.353 191.932 337.934 193.527 337.934C195.204 337.934 196.562 338.367 197.602 339.232C198.65 340.098 199.174 341.206 199.174 342.555H196.631C196.631 341.862 196.335 341.265 195.742 340.764C195.159 340.262 194.421 340.012 193.527 340.012C192.607 340.012 191.887 340.212 191.367 340.613C190.848 341.014 190.588 341.538 190.588 342.186C190.588 342.796 190.829 343.257 191.312 343.566C191.796 343.876 192.666 344.173 193.924 344.455C195.191 344.738 196.216 345.075 197 345.467C197.784 345.859 198.363 346.333 198.736 346.889C199.119 347.436 199.311 348.105 199.311 348.898C199.311 350.22 198.782 351.282 197.725 352.084C196.667 352.877 195.296 353.273 193.609 353.273C192.424 353.273 191.376 353.064 190.465 352.645C189.553 352.225 188.838 351.642 188.318 350.895C187.808 350.138 187.553 349.322 187.553 348.447H190.082C190.128 349.295 190.465 349.969 191.094 350.471C191.732 350.963 192.57 351.209 193.609 351.209C194.566 351.209 195.332 351.018 195.906 350.635C196.49 350.243 196.781 349.723 196.781 349.076ZM208.481 345.467C208.481 344.018 208.763 342.714 209.329 341.557C209.903 340.399 210.696 339.506 211.707 338.877C212.728 338.248 213.89 337.934 215.194 337.934C217.208 337.934 218.835 338.631 220.075 340.025C221.323 341.42 221.948 343.275 221.948 345.59V345.768C221.948 347.208 221.67 348.502 221.114 349.65C220.567 350.79 219.778 351.678 218.748 352.316C217.728 352.954 216.552 353.273 215.221 353.273C213.216 353.273 211.589 352.576 210.34 351.182C209.101 349.787 208.481 347.941 208.481 345.645V345.467ZM211.024 345.768C211.024 347.408 211.402 348.725 212.159 349.719C212.924 350.712 213.945 351.209 215.221 351.209C216.506 351.209 217.527 350.708 218.284 349.705C219.04 348.693 219.418 347.281 219.418 345.467C219.418 343.844 219.031 342.532 218.256 341.529C217.491 340.518 216.47 340.012 215.194 340.012C213.945 340.012 212.938 340.508 212.172 341.502C211.407 342.495 211.024 343.917 211.024 345.768ZM227.312 338.207L227.394 340.066C228.524 338.645 230.001 337.934 231.824 337.934C234.95 337.934 236.527 339.697 236.554 343.225V353H234.025V343.211C234.016 342.145 233.77 341.356 233.287 340.846C232.813 340.335 232.07 340.08 231.058 340.08C230.238 340.08 229.518 340.299 228.898 340.736C228.278 341.174 227.795 341.748 227.449 342.459V353H224.92V338.207H227.312ZM250.346 334.625V338.207H253.107V340.162H250.346V349.336C250.346 349.928 250.469 350.375 250.715 350.676C250.961 350.967 251.38 351.113 251.973 351.113C252.264 351.113 252.665 351.059 253.176 350.949V353C252.51 353.182 251.863 353.273 251.234 353.273C250.104 353.273 249.252 352.932 248.678 352.248C248.104 351.564 247.816 350.594 247.816 349.336V340.162H245.123V338.207H247.816V334.625H250.346ZM258.404 339.998C259.525 338.622 260.983 337.934 262.779 337.934C265.905 337.934 267.482 339.697 267.509 343.225V353H264.98V343.211C264.971 342.145 264.724 341.356 264.241 340.846C263.767 340.335 263.025 340.08 262.013 340.08C261.193 340.08 260.473 340.299 259.853 340.736C259.233 341.174 258.75 341.748 258.404 342.459V353H255.874V332H258.404V339.998ZM277.235 353.273C275.23 353.273 273.598 352.617 272.34 351.305C271.082 349.983 270.454 348.219 270.454 346.014V345.549C270.454 344.081 270.732 342.773 271.288 341.625C271.853 340.467 272.636 339.565 273.639 338.918C274.651 338.262 275.745 337.934 276.92 337.934C278.843 337.934 280.338 338.567 281.405 339.834C282.471 341.101 283.004 342.915 283.004 345.275V346.328H272.983C273.019 347.786 273.443 348.967 274.254 349.869C275.075 350.762 276.114 351.209 277.371 351.209C278.265 351.209 279.021 351.027 279.641 350.662C280.261 350.298 280.803 349.814 281.268 349.213L282.813 350.416C281.573 352.321 279.714 353.273 277.235 353.273ZM276.92 340.012C275.899 340.012 275.043 340.385 274.35 341.133C273.657 341.871 273.229 342.91 273.065 344.25H280.475V344.059C280.402 342.773 280.056 341.78 279.436 341.078C278.816 340.367 277.978 340.012 276.92 340.012ZM293.733 353V340.162H291.395V338.207H293.733V336.689C293.733 335.104 294.157 333.878 295.005 333.012C295.852 332.146 297.051 331.713 298.6 331.713C299.184 331.713 299.762 331.79 300.337 331.945L300.2 333.996C299.772 333.914 299.316 333.873 298.833 333.873C298.012 333.873 297.379 334.115 296.932 334.598C296.486 335.072 296.262 335.755 296.262 336.648V338.207H299.421V340.162H296.262V353H293.733ZM301.354 345.467C301.354 344.018 301.636 342.714 302.201 341.557C302.775 340.399 303.568 339.506 304.58 338.877C305.601 338.248 306.763 337.934 308.066 337.934C310.081 337.934 311.708 338.631 312.947 340.025C314.196 341.42 314.82 343.275 314.82 345.59V345.768C314.82 347.208 314.542 348.502 313.986 349.65C313.439 350.79 312.651 351.678 311.621 352.316C310.6 352.954 309.424 353.273 308.094 353.273C306.089 353.273 304.462 352.576 303.213 351.182C301.973 349.787 301.354 347.941 301.354 345.645V345.467ZM303.896 345.768C303.896 347.408 304.275 348.725 305.031 349.719C305.797 350.712 306.818 351.209 308.094 351.209C309.379 351.209 310.4 350.708 311.156 349.705C311.913 348.693 312.291 347.281 312.291 345.467C312.291 343.844 311.904 342.532 311.129 341.529C310.363 340.518 309.342 340.012 308.066 340.012C306.818 340.012 305.811 340.508 305.045 341.502C304.279 342.495 303.896 343.917 303.896 345.768ZM320.54 353H318.011V332H320.54V353ZM327.149 353H324.62V332H327.149V353ZM330.339 345.467C330.339 344.018 330.622 342.714 331.187 341.557C331.761 340.399 332.554 339.506 333.566 338.877C334.587 338.248 335.749 337.934 337.052 337.934C339.067 337.934 340.694 338.631 341.933 340.025C343.182 341.42 343.806 343.275 343.806 345.59V345.768C343.806 347.208 343.528 348.502 342.972 349.65C342.425 350.79 341.637 351.678 340.607 352.316C339.586 352.954 338.41 353.273 337.08 353.273C335.074 353.273 333.448 352.576 332.199 351.182C330.959 349.787 330.339 347.941 330.339 345.645V345.467ZM332.882 345.768C332.882 347.408 333.261 348.725 334.017 349.719C334.783 350.712 335.804 351.209 337.08 351.209C338.365 351.209 339.386 350.708 340.142 349.705C340.899 348.693 341.277 347.281 341.277 345.467C341.277 343.844 340.89 342.532 340.115 341.529C339.349 340.518 338.328 340.012 337.052 340.012C335.804 340.012 334.796 340.508 334.031 341.502C333.265 342.495 332.882 343.917 332.882 345.768ZM359.876 349.514L362.72 338.207H365.249L360.942 353H358.891L355.296 341.789L351.796 353H349.745L345.452 338.207H347.968L350.88 349.281L354.325 338.207H356.362L359.876 349.514ZM370.381 353H367.852V338.207H370.381V353ZM367.646 334.283C367.646 333.873 367.77 333.527 368.016 333.244C368.271 332.962 368.645 332.82 369.137 332.82C369.629 332.82 370.003 332.962 370.258 333.244C370.513 333.527 370.641 333.873 370.641 334.283C370.641 334.693 370.513 335.035 370.258 335.309C370.003 335.582 369.629 335.719 369.137 335.719C368.645 335.719 368.271 335.582 368.016 335.309C367.77 335.035 367.646 334.693 367.646 334.283ZM376.634 338.207L376.716 340.066C377.846 338.645 379.323 337.934 381.146 337.934C384.272 337.934 385.849 339.697 385.876 343.225V353H383.347V343.211C383.338 342.145 383.092 341.356 382.609 340.846C382.135 340.335 381.392 340.08 380.38 340.08C379.56 340.08 378.84 340.299 378.22 340.736C377.6 341.174 377.117 341.748 376.771 342.459V353H374.241V338.207H376.634ZM388.889 345.48C388.889 343.174 389.422 341.342 390.489 339.984C391.555 338.617 392.968 337.934 394.727 337.934C396.532 337.934 397.94 338.572 398.952 339.848L399.075 338.207H401.385V352.645C401.385 354.559 400.816 356.067 399.676 357.17C398.546 358.273 397.024 358.824 395.11 358.824C394.043 358.824 393 358.596 391.979 358.141C390.958 357.685 390.179 357.061 389.641 356.268L390.954 354.75C392.038 356.09 393.364 356.76 394.932 356.76C396.163 356.76 397.12 356.413 397.803 355.721C398.496 355.028 398.842 354.053 398.842 352.795V351.523C397.83 352.69 396.45 353.273 394.7 353.273C392.968 353.273 391.564 352.576 390.489 351.182C389.422 349.787 388.889 347.887 388.889 345.48ZM391.432 345.768C391.432 347.436 391.774 348.748 392.457 349.705C393.141 350.653 394.098 351.127 395.329 351.127C396.924 351.127 398.095 350.402 398.842 348.953V342.199C398.067 340.786 396.905 340.08 395.356 340.08C394.125 340.08 393.164 340.559 392.471 341.516C391.778 342.473 391.432 343.89 391.432 345.768ZM418.909 340.477C418.526 340.413 418.111 340.381 417.665 340.381C416.006 340.381 414.88 341.087 414.288 342.5V353H411.759V338.207H414.22L414.261 339.916C415.09 338.594 416.266 337.934 417.788 337.934C418.28 337.934 418.654 337.997 418.909 338.125V340.477ZM420.104 345.467C420.104 344.018 420.386 342.714 420.951 341.557C421.525 340.399 422.318 339.506 423.33 338.877C424.351 338.248 425.513 337.934 426.816 337.934C428.831 337.934 430.458 338.631 431.697 340.025C432.946 341.42 433.57 343.275 433.57 345.59V345.768C433.57 347.208 433.292 348.502 432.736 349.65C432.189 350.79 431.401 351.678 430.371 352.316C429.35 352.954 428.174 353.273 426.844 353.273C424.839 353.273 423.212 352.576 421.963 351.182C420.723 349.787 420.104 347.941 420.104 345.645V345.467ZM422.646 345.768C422.646 347.408 423.025 348.725 423.781 349.719C424.547 350.712 425.568 351.209 426.844 351.209C428.129 351.209 429.15 350.708 429.906 349.705C430.663 348.693 431.041 347.281 431.041 345.467C431.041 343.844 430.654 342.532 429.879 341.529C429.113 340.518 428.092 340.012 426.816 340.012C425.568 340.012 424.561 340.508 423.795 341.502C423.029 342.495 422.646 343.917 422.646 345.768ZM445.675 353C445.529 352.708 445.411 352.189 445.32 351.441C444.144 352.663 442.74 353.273 441.109 353.273C439.65 353.273 438.452 352.863 437.513 352.043C436.583 351.214 436.118 350.165 436.118 348.898C436.118 347.358 436.702 346.164 437.868 345.316C439.044 344.46 440.694 344.031 442.818 344.031H445.279V342.869C445.279 341.985 445.014 341.283 444.486 340.764C443.957 340.235 443.178 339.971 442.148 339.971C441.245 339.971 440.489 340.199 439.878 340.654C439.267 341.11 438.962 341.661 438.962 342.309H436.419C436.419 341.57 436.679 340.859 437.198 340.176C437.727 339.483 438.438 338.936 439.331 338.535C440.234 338.134 441.223 337.934 442.298 337.934C444.002 337.934 445.338 338.362 446.304 339.219C447.27 340.066 447.771 341.238 447.808 342.732V349.541C447.808 350.899 447.981 351.979 448.327 352.781V353H445.675ZM441.478 351.072C442.271 351.072 443.023 350.867 443.734 350.457C444.445 350.047 444.959 349.514 445.279 348.857V345.822H443.296C440.197 345.822 438.648 346.729 438.648 348.543C438.648 349.336 438.912 349.956 439.441 350.402C439.969 350.849 440.648 351.072 441.478 351.072ZM450.957 345.48C450.957 343.211 451.495 341.388 452.571 340.012C453.646 338.626 455.054 337.934 456.795 337.934C458.527 337.934 459.899 338.526 460.911 339.711V332H463.44V353H461.116L460.993 351.414C459.981 352.654 458.573 353.273 456.768 353.273C455.054 353.273 453.655 352.572 452.571 351.168C451.495 349.764 450.957 347.932 450.957 345.672V345.48ZM453.487 345.768C453.487 347.445 453.833 348.757 454.526 349.705C455.218 350.653 456.176 351.127 457.397 351.127C459.001 351.127 460.172 350.407 460.911 348.967V342.172C460.154 340.777 458.992 340.08 457.424 340.08C456.185 340.08 455.218 340.559 454.526 341.516C453.833 342.473 453.487 343.89 453.487 345.768ZM469.556 338.207L469.625 339.848C470.709 338.572 472.172 337.934 474.013 337.934C476.082 337.934 477.49 338.727 478.238 340.312C478.73 339.602 479.368 339.027 480.152 338.59C480.945 338.152 481.879 337.934 482.955 337.934C486.199 337.934 487.849 339.652 487.904 343.088V353H485.375V343.238C485.375 342.181 485.133 341.393 484.65 340.873C484.167 340.344 483.356 340.08 482.216 340.08C481.278 340.08 480.498 340.363 479.879 340.928C479.259 341.484 478.899 342.236 478.798 343.184V353H476.255V343.307C476.255 341.156 475.203 340.08 473.097 340.08C471.438 340.08 470.304 340.786 469.693 342.199V353H467.164V338.207H469.556ZM500.665 353C500.519 352.708 500.401 352.189 500.309 351.441C499.134 352.663 497.73 353.273 496.098 353.273C494.64 353.273 493.442 352.863 492.503 352.043C491.573 351.214 491.108 350.165 491.108 348.898C491.108 347.358 491.692 346.164 492.858 345.316C494.034 344.46 495.684 344.031 497.807 344.031H500.268V342.869C500.268 341.985 500.004 341.283 499.475 340.764C498.947 340.235 498.167 339.971 497.138 339.971C496.235 339.971 495.479 340.199 494.868 340.654C494.257 341.11 493.952 341.661 493.952 342.309H491.409C491.409 341.57 491.669 340.859 492.188 340.176C492.717 339.483 493.428 338.936 494.321 338.535C495.223 338.134 496.212 337.934 497.288 337.934C498.992 337.934 500.328 338.362 501.294 339.219C502.26 340.066 502.761 341.238 502.798 342.732V349.541C502.798 350.899 502.971 351.979 503.317 352.781V353H500.665ZM496.468 351.072C497.261 351.072 498.013 350.867 498.723 350.457C499.434 350.047 499.949 349.514 500.268 348.857V345.822H498.286C495.187 345.822 493.638 346.729 493.638 348.543C493.638 349.336 493.902 349.956 494.43 350.402C494.959 350.849 495.638 351.072 496.468 351.072ZM519.059 345.768C519.059 348.019 518.544 349.833 517.514 351.209C516.484 352.585 515.089 353.273 513.33 353.273C511.535 353.273 510.122 352.704 509.092 351.564V358.688H506.562V338.207H508.873L508.996 339.848C510.026 338.572 511.457 337.934 513.289 337.934C515.066 337.934 516.47 338.604 517.5 339.943C518.539 341.283 519.059 343.147 519.059 345.535V345.768ZM516.529 345.48C516.529 343.812 516.174 342.495 515.463 341.529C514.752 340.563 513.777 340.08 512.537 340.08C511.006 340.08 509.857 340.759 509.092 342.117V349.186C509.848 350.535 511.006 351.209 512.564 351.209C513.777 351.209 514.738 350.73 515.449 349.773C516.169 348.807 516.529 347.376 516.529 345.48ZM530.698 349.076C530.698 348.393 530.439 347.864 529.919 347.49C529.409 347.107 528.511 346.779 527.226 346.506C525.95 346.232 524.933 345.904 524.177 345.521C523.43 345.139 522.874 344.683 522.509 344.154C522.154 343.626 521.976 342.997 521.976 342.268C521.976 341.055 522.486 340.03 523.507 339.191C524.537 338.353 525.849 337.934 527.445 337.934C529.122 337.934 530.48 338.367 531.519 339.232C532.567 340.098 533.091 341.206 533.091 342.555H530.548C530.548 341.862 530.252 341.265 529.659 340.764C529.076 340.262 528.338 340.012 527.445 340.012C526.524 340.012 525.804 340.212 525.284 340.613C524.765 341.014 524.505 341.538 524.505 342.186C524.505 342.796 524.747 343.257 525.23 343.566C525.713 343.876 526.583 344.173 527.841 344.455C529.108 344.738 530.133 345.075 530.917 345.467C531.701 345.859 532.28 346.333 532.654 346.889C533.036 347.436 533.228 348.105 533.228 348.898C533.228 350.22 532.699 351.282 531.642 352.084C530.584 352.877 529.213 353.273 527.527 353.273C526.342 353.273 525.293 353.064 524.382 352.645C523.471 352.225 522.755 351.642 522.236 350.895C521.725 350.138 521.47 349.322 521.47 348.447H523.999C524.045 349.295 524.382 349.969 525.011 350.471C525.649 350.963 526.487 351.209 527.527 351.209C528.484 351.209 529.249 351.018 529.823 350.635C530.407 350.243 530.698 349.723 530.698 349.076Z" fill="#888888"/>
<defs>
<filter id="filter0_d" x="0" y="0" width="941" height="136" filterUnits="userSpaceOnUse" color-interpolation-filters="sRGB">
<feFlood flood-opacity="0" result="BackgroundImageFix"/>
<feColorMatrix in="SourceAlpha" type="matrix" values="0 0 0 0 0 0 0 0 0 0 0 0 0 0 0 0 0 0 127 0"/>
<feOffset/>
<feGaussianBlur stdDeviation="5"/>
<feColorMatrix type="matrix" values="0 0 0 0 0 0 0 0 0 0 0 0 0 0 0 0 0 0 0.25 0"/>
<feBlend mode="normal" in2="BackgroundImageFix" result="effect1_dropShadow"/>
<feBlend mode="normal" in="SourceGraphic" in2="effect1_dropShadow" result="shape"/>
</filter>
<filter id="filter1_d" x="1" y="97" width="941" height="136" filterUnits="userSpaceOnUse" color-interpolation-filters="sRGB">
<feFlood flood-opacity="0" result="BackgroundImageFix"/>
<feColorMatrix in="SourceAlpha" type="matrix" values="0 0 0 0 0 0 0 0 0 0 0 0 0 0 0 0 0 0 127 0"/>
<feOffset/>
<feGaussianBlur stdDeviation="5"/>
<feColorMatrix type="matrix" values="0 0 0 0 0 0 0 0 0 0 0 0 0 0 0 0 0 0 0.25 0"/>
<feBlend mode="normal" in2="BackgroundImageFix" result="effect1_dropShadow"/>
<feBlend mode="normal" in="SourceGraphic" in2="effect1_dropShadow" result="shape"/>
</filter>
<filter id="filter2_d" x="0" y="194" width="941" height="136" filterUnits="userSpaceOnUse" color-interpolation-filters="sRGB">
<feFlood flood-opacity="0" result="BackgroundImageFix"/>
<feColorMatrix in="SourceAlpha" type="matrix" values="0 0 0 0 0 0 0 0 0 0 0 0 0 0 0 0 0 0 127 0"/>
<feOffset/>
<feGaussianBlur stdDeviation="5"/>
<feColorMatrix type="matrix" values="0 0 0 0 0 0 0 0 0 0 0 0 0 0 0 0 0 0 0.25 0"/>
<feBlend mode="normal" in2="BackgroundImageFix" result="effect1_dropShadow"/>
<feBlend mode="normal" in="SourceGraphic" in2="effect1_dropShadow" result="shape"/>
</filter>
<filter id="filter3_d" x="0" y="291" width="941" height="106" filterUnits="userSpaceOnUse" color-interpolation-filters="sRGB">
<feFlood flood-opacity="0" result="BackgroundImageFix"/>
<feColorMatrix in="SourceAlpha" type="matrix" values="0 0 0 0 0 0 0 0 0 0 0 0 0 0 0 0 0 0 127 0"/>
<feOffset/>
<feGaussianBlur stdDeviation="5"/>
<feColorMatrix type="matrix" values="0 0 0 0 0 0 0 0 0 0 0 0 0 0 0 0 0 0 0.25 0"/>
<feBlend mode="normal" in2="BackgroundImageFix" result="effect1_dropShadow"/>
<feBlend mode="normal" in="SourceGraphic" in2="effect1_dropShadow" result="shape"/>
</filter>
</defs>
</svg>
