<svg width="150" height="32" viewBox="0 0 150 32" fill="none" xmlns="http://www.w3.org/2000/svg">
<path d="M15.4742 18.9692C15.4742 20.6349 15.1593 22.2026 14.5294 23.6724C13.8995 25.1281 13.0387 26.4019 11.9469 27.4937C10.8691 28.5715 9.59534 29.4253 8.12561 30.0552C6.66988 30.6851 5.10917 31 3.44348 31C2.43567 31 1.42786 30.874 0.420044 30.6221V24.1553C0.867961 24.4212 1.35087 24.6242 1.86877 24.7642C2.38668 24.9041 2.91158 24.9741 3.44348 24.9741C4.26933 24.9741 5.04618 24.8201 5.77405 24.5122C6.51591 24.1903 7.15979 23.7563 7.70569 23.2104C8.25159 22.6646 8.67851 22.0277 8.98645 21.2998C9.30839 20.5719 9.46936 19.7951 9.46936 18.9692V0.891602H15.4742V18.9692ZM26.7491 31H20.7233V0.891602H26.7491V31ZM56.3116 27.9556C54.9119 29.1453 53.3512 30.0622 51.6295 30.7061C49.9078 31.3359 48.1162 31.6509 46.2545 31.6509C44.8268 31.6509 43.448 31.4619 42.1183 31.084C40.8025 30.7201 39.5708 30.2021 38.423 29.5303C37.2752 28.8444 36.2254 28.0326 35.2736 27.0947C34.3217 26.1429 33.5099 25.0931 32.838 23.9453C32.1661 22.7835 31.6412 21.5378 31.2633 20.208C30.8994 18.8783 30.7174 17.4995 30.7174 16.0718C30.7174 14.644 30.8994 13.2723 31.2633 11.9565C31.6412 10.6408 32.1661 9.40902 32.838 8.26123C33.5099 7.09945 34.3217 6.04964 35.2736 5.11182C36.2254 4.15999 37.2752 3.34814 38.423 2.67627C39.5708 2.00439 40.8025 1.48649 42.1183 1.12256C43.448 0.744629 44.8268 0.555664 46.2545 0.555664C48.1162 0.555664 49.9078 0.877604 51.6295 1.52148C53.3512 2.15137 54.9119 3.0612 56.3116 4.25098L53.1622 9.5C52.2524 8.57617 51.2026 7.85531 50.0128 7.3374C48.823 6.8055 47.5703 6.53955 46.2545 6.53955C44.9388 6.53955 43.7 6.7915 42.5382 7.29541C41.3904 7.79932 40.3826 8.48519 39.5148 9.35303C38.6469 10.2069 37.9611 11.2147 37.4572 12.3765C36.9532 13.5243 36.7013 14.756 36.7013 16.0718C36.7013 17.4015 36.9532 18.6473 37.4572 19.8091C37.9611 20.9709 38.6469 21.9857 39.5148 22.8535C40.3826 23.7214 41.3904 24.4072 42.5382 24.9111C43.7 25.415 44.9388 25.667 46.2545 25.667C47.0104 25.667 47.7452 25.576 48.4591 25.394C49.173 25.2121 49.8518 24.9601 50.4957 24.6382V16.0718H56.3116V27.9556ZM113.946 18.9692V12.9434C113.946 12.1175 113.785 11.3407 113.463 10.6128C113.155 9.87093 112.728 9.22705 112.182 8.68115C111.636 8.13525 110.992 7.70833 110.251 7.40039C109.523 7.07845 108.746 6.91748 107.92 6.91748C107.094 6.91748 106.31 7.07845 105.568 7.40039C104.841 7.70833 104.204 8.13525 103.658 8.68115C103.112 9.22705 102.678 9.87093 102.356 10.6128C102.048 11.3407 101.894 12.1175 101.894 12.9434V18.9692H113.946ZM119.972 31H113.946V24.9741H101.894V31H95.8893V12.9434C95.8893 11.2777 96.2042 9.71696 96.8341 8.26123C97.464 6.7915 98.3178 5.51074 99.3956 4.41895C100.487 3.32715 101.761 2.46631 103.217 1.83643C104.687 1.20654 106.254 0.891602 107.92 0.891602C109.586 0.891602 111.146 1.20654 112.602 1.83643C114.072 2.46631 115.353 3.32715 116.444 4.41895C117.536 5.51074 118.397 6.7915 119.027 8.26123C119.657 9.71696 119.972 11.2777 119.972 12.9434V31ZM131.226 6.91748V18.9692H137.252C138.077 18.9692 138.854 18.8153 139.582 18.5073C140.31 18.1854 140.947 17.7515 141.493 17.2056C142.039 16.6597 142.466 16.0228 142.774 15.2949C143.095 14.5531 143.256 13.7692 143.256 12.9434C143.256 12.1175 143.095 11.3407 142.774 10.6128C142.466 9.87093 142.039 9.22705 141.493 8.68115C140.947 8.13525 140.31 7.70833 139.582 7.40039C138.854 7.07845 138.077 6.91748 137.252 6.91748H131.226ZM131.226 31H125.2V0.891602H137.252C138.357 0.891602 139.421 1.03857 140.443 1.33252C141.465 1.61247 142.417 2.01839 143.298 2.55029C144.194 3.0682 145.006 3.69808 145.734 4.43994C146.476 5.16781 147.106 5.97965 147.624 6.87549C148.156 7.77132 148.561 8.73014 148.841 9.75195C149.135 10.7738 149.282 11.8376 149.282 12.9434C149.282 14.5951 148.967 16.1558 148.338 17.6255C147.708 19.0812 146.847 20.355 145.755 21.4468C144.663 22.5386 143.382 23.3994 141.913 24.0293C140.457 24.6592 138.903 24.9741 137.252 24.9741H131.226V31Z" fill="white"/>
<path d="M90.8292 31H84.8243V9.5C84.8243 9.08008 84.7404 8.68815 84.5724 8.32422C84.4184 7.96029 84.2015 7.64535 83.9215 7.37939C83.6556 7.09945 83.3406 6.88249 82.9767 6.72852C82.6128 6.57454 82.2208 6.49756 81.8009 6.49756C81.381 6.49756 80.9891 6.57454 80.6251 6.72852C80.2612 6.88249 79.9392 7.09945 79.6593 7.37939C79.3934 7.64535 79.1834 7.96029 79.0294 8.32422C78.8754 8.68815 78.7985 9.08008 78.7985 9.5V31H72.7726V9.5C72.7726 9.08008 72.6956 8.68815 72.5416 8.32422C72.3877 7.96029 72.1707 7.64535 71.8907 7.37939C71.6248 7.09945 71.3099 6.88249 70.9459 6.72852C70.582 6.57454 70.1901 6.49756 69.7701 6.49756C69.3502 6.49756 68.9583 6.57454 68.5944 6.72852C68.2304 6.88249 67.9085 7.09945 67.6285 7.37939C67.3626 7.64535 67.1526 7.96029 66.9987 8.32422C66.8447 8.68815 66.7677 9.08008 66.7677 9.5V31H60.7418V9.5C60.7418 8.25423 60.9728 7.08545 61.4347 5.99365C61.9106 4.88786 62.5545 3.92904 63.3663 3.11719C64.1922 2.29134 65.151 1.64746 66.2428 1.18555C67.3486 0.709635 68.5244 0.47168 69.7701 0.47168C70.8899 0.47168 71.9677 0.674642 73.0035 1.08057C74.0393 1.47249 74.9702 2.04639 75.796 2.80225C76.6219 2.04639 77.5457 1.47249 78.5675 1.08057C79.6033 0.674642 80.6811 0.47168 81.8009 0.47168C83.0467 0.47168 84.2155 0.709635 85.3073 1.18555C86.413 1.64746 87.3719 2.29134 88.1837 3.11719C89.0096 3.92904 89.6534 4.88786 90.1154 5.99365C90.5913 7.08545 90.8292 8.25423 90.8292 9.5V31Z" fill="#CCABE9"/>
</svg>
