<svg width="1352" height="863" viewBox="0 0 1352 863" fill="none" xmlns="http://www.w3.org/2000/svg">
<circle cx="589" cy="400" r="67" fill="#7B2CBF"/>
<path fill-rule="evenodd" clip-rule="evenodd" d="M1352 0H632V813C632 840.614 654.386 863 682 863H917C920.936 862.805 929 860.843 922.5 843.043L922.532 843.106C919.601 834.513 918 825.226 918 815.535C918 771.448 951.131 735.708 992 735.708C1032.87 735.708 1066 771.448 1066 815.535C1066 824.831 1064.53 833.756 1061.82 842.052C1058.16 855.154 1063.16 862.803 1067.03 863H1352V0Z" fill="url(#paint0_linear)"/>
<path d="M632 449.03C630.5 448.387 622.122 458 617.5 460.5C630 456.5 631.814 461.952 632 465.887C632 458.553 633.579 449.706 632 449.03Z" fill="#7B2CBF"/>
<path d="M633.5 351.858C632 352.5 623.622 342.887 619 340.387C631.5 344.387 633.314 338.936 633.5 335C633.5 342.335 635.079 351.181 633.5 351.858Z" fill="#7B2CBF"/>
<path d="M282.377 414.835C282.377 421.227 281.169 427.243 278.752 432.882C276.335 438.468 273.032 443.356 268.842 447.545C264.707 451.681 259.819 454.958 254.179 457.375C248.593 459.792 242.604 461 236.213 461C232.346 461 228.479 460.517 224.611 459.55V434.735C226.33 435.756 228.183 436.535 230.17 437.072C232.158 437.609 234.172 437.877 236.213 437.877C239.382 437.877 242.363 437.287 245.156 436.105C248.002 434.87 250.473 433.205 252.568 431.11C254.663 429.015 256.301 426.571 257.482 423.778C258.718 420.985 259.335 418.004 259.335 414.835V345.468H282.377V414.835ZM418.132 461H395.009V345.468H418.132V461Z" fill="#7B2CBF"/>
<path d="M823.361 461H800.319V378.5C800.319 376.889 799.997 375.385 799.353 373.988C798.762 372.592 797.929 371.383 796.855 370.363C795.834 369.289 794.626 368.456 793.229 367.865C791.833 367.274 790.329 366.979 788.718 366.979C787.106 366.979 785.603 367.274 784.206 367.865C782.81 368.456 781.574 369.289 780.5 370.363C779.479 371.383 778.674 372.592 778.083 373.988C777.492 375.385 777.197 376.889 777.197 378.5V461H754.074V378.5C754.074 376.889 753.779 375.385 753.188 373.988C752.597 372.592 751.765 371.383 750.69 370.363C749.67 369.289 748.461 368.456 747.065 367.865C745.668 367.274 744.165 366.979 742.553 366.979C740.942 366.979 739.438 367.274 738.042 367.865C736.645 368.456 735.41 369.289 734.335 370.363C733.315 371.383 732.509 372.592 731.918 373.988C731.328 375.385 731.032 376.889 731.032 378.5V461H707.91V378.5C707.91 373.72 708.796 369.235 710.568 365.045C712.395 360.802 714.865 357.123 717.98 354.008C721.149 350.839 724.829 348.368 729.018 346.596C733.261 344.77 737.773 343.856 742.553 343.856C746.85 343.856 750.986 344.635 754.96 346.193C758.935 347.697 762.507 349.899 765.676 352.799C768.845 349.899 772.39 347.697 776.311 346.193C780.285 344.635 784.421 343.856 788.718 343.856C793.498 343.856 797.983 344.77 802.172 346.596C806.416 348.368 810.095 350.839 813.21 354.008C816.379 357.123 818.85 360.802 820.622 365.045C822.448 369.235 823.361 373.72 823.361 378.5V461ZM958.31 414.835V391.713C958.31 388.544 957.692 385.563 956.457 382.77C955.275 379.923 953.637 377.453 951.542 375.358C949.448 373.263 946.977 371.625 944.13 370.443C941.337 369.208 938.356 368.59 935.188 368.59C932.019 368.59 929.011 369.208 926.164 370.443C923.371 371.625 920.927 373.263 918.833 375.358C916.738 377.453 915.073 379.923 913.837 382.77C912.656 385.563 912.065 388.544 912.065 391.713V414.835H958.31ZM981.433 461H958.31V437.877H912.065V461H889.023V391.713C889.023 385.321 890.231 379.333 892.648 373.747C895.065 368.107 898.342 363.192 902.478 359.003C906.667 354.813 911.555 351.51 917.141 349.093C922.78 346.676 928.796 345.468 935.188 345.468C941.579 345.468 947.568 346.676 953.154 349.093C958.793 351.51 963.708 354.813 967.897 359.003C972.087 363.192 975.39 368.107 977.807 373.747C980.224 379.333 981.433 385.321 981.433 391.713V461ZM1070.86 368.59V414.835H1093.98C1097.15 414.835 1100.13 414.245 1102.93 413.063C1105.72 411.828 1108.16 410.163 1110.26 408.068C1112.35 405.973 1113.99 403.529 1115.17 400.736C1116.41 397.89 1117.03 394.882 1117.03 391.713C1117.03 388.544 1116.41 385.563 1115.17 382.77C1113.99 379.923 1112.35 377.453 1110.26 375.358C1108.16 373.263 1105.72 371.625 1102.93 370.443C1100.13 369.208 1097.15 368.59 1093.98 368.59H1070.86ZM1070.86 461H1047.74V345.468H1093.98C1098.23 345.468 1102.31 346.032 1106.23 347.16C1110.15 348.234 1113.8 349.792 1117.19 351.833C1120.62 353.82 1123.74 356.237 1126.53 359.083C1129.38 361.876 1131.8 364.992 1133.78 368.429C1135.82 371.867 1137.38 375.546 1138.46 379.467C1139.58 383.388 1140.15 387.47 1140.15 391.713C1140.15 398.051 1138.94 404.04 1136.52 409.679C1134.11 415.265 1130.8 420.153 1126.61 424.342C1122.42 428.532 1117.51 431.835 1111.87 434.252C1106.28 436.669 1100.32 437.877 1093.98 437.877H1070.86V461Z" fill="white"/>
<path d="M641.5 459C641.5 452.5 629.487 445.454 621 448C618.462 448.761 612 448.5 612 443C612 438 618.538 437.739 621 437C641.5 434 652 447 652 459C652 470 649.5 474 647 474C644 474 641.5 472 641.5 459Z" fill="white"/>
<path d="M559.5 327C499 350.5 488.5 441 559.5 474.5" stroke="#7B2CBF" stroke-width="6" stroke-linecap="round"/>
<path d="M13.0843 253.643C20.9675 250.194 37.1209 243.127 38.6689 242.45C40.6038 241.603 39.6028 239.608 38.7025 238.721C32.723 232.372 32.0714 225.613 34.0803 220.252C36.621 213.471 45.4617 205.283 57.2999 210.093C61.7013 211.882 67.3992 216.843 68.157 225.835C68.3966 226.968 69.3703 229.018 71.3483 228.153C73.3262 227.288 88.6554 220.581 96.0728 217.336" stroke="#C1C1C1" stroke-opacity="0.31" stroke-width="4" stroke-linecap="round"/>
<path d="M263.562 239.799H254.936V246.854H264.957V249H252.311V229.094H264.82V231.254H254.936V237.652H263.562V239.799ZM272.591 239.607L275.872 234.207H278.825L273.986 241.521L278.976 249H276.05L272.632 243.463L269.214 249H266.275L271.265 241.521L266.425 234.207H269.351L272.591 239.607ZM293.815 241.768C293.815 244.019 293.3 245.833 292.27 247.209C291.24 248.585 289.845 249.273 288.086 249.273C286.291 249.273 284.878 248.704 283.848 247.564V254.688H281.319V234.207H283.629L283.752 235.848C284.782 234.572 286.213 233.934 288.045 233.934C289.823 233.934 291.226 234.604 292.256 235.943C293.295 237.283 293.815 239.147 293.815 241.535V241.768ZM291.286 241.48C291.286 239.812 290.93 238.495 290.219 237.529C289.508 236.563 288.533 236.08 287.293 236.08C285.762 236.08 284.614 236.759 283.848 238.117V245.186C284.605 246.535 285.762 247.209 287.321 247.209C288.533 247.209 289.495 246.73 290.205 245.773C290.926 244.807 291.286 243.376 291.286 241.48ZM299.589 249H297.06V228H299.589V249ZM302.78 241.467C302.78 240.018 303.063 238.714 303.628 237.557C304.202 236.399 304.995 235.506 306.007 234.877C307.027 234.248 308.19 233.934 309.493 233.934C311.507 233.934 313.134 234.631 314.374 236.025C315.623 237.42 316.247 239.275 316.247 241.59V241.768C316.247 243.208 315.969 244.502 315.413 245.65C314.866 246.79 314.078 247.678 313.048 248.316C312.027 248.954 310.851 249.273 309.52 249.273C307.515 249.273 305.888 248.576 304.639 247.182C303.4 245.787 302.78 243.941 302.78 241.645V241.467ZM305.323 241.768C305.323 243.408 305.701 244.725 306.458 245.719C307.223 246.712 308.244 247.209 309.52 247.209C310.805 247.209 311.826 246.708 312.583 245.705C313.339 244.693 313.718 243.281 313.718 241.467C313.718 239.844 313.33 238.532 312.555 237.529C311.79 236.518 310.769 236.012 309.493 236.012C308.244 236.012 307.237 236.508 306.471 237.502C305.706 238.495 305.323 239.917 305.323 241.768ZM326.369 236.477C325.986 236.413 325.572 236.381 325.125 236.381C323.466 236.381 322.34 237.087 321.748 238.5V249H319.219V234.207H321.68L321.721 235.916C322.55 234.594 323.726 233.934 325.248 233.934C325.74 233.934 326.114 233.997 326.369 234.125V236.477ZM334.372 249.273C332.367 249.273 330.736 248.617 329.478 247.305C328.22 245.983 327.591 244.219 327.591 242.014V241.549C327.591 240.081 327.869 238.773 328.425 237.625C328.99 236.467 329.774 235.565 330.777 234.918C331.788 234.262 332.882 233.934 334.058 233.934C335.981 233.934 337.476 234.567 338.542 235.834C339.609 237.101 340.142 238.915 340.142 241.275V242.328H330.12C330.157 243.786 330.581 244.967 331.392 245.869C332.212 246.762 333.251 247.209 334.509 247.209C335.402 247.209 336.159 247.027 336.779 246.662C337.398 246.298 337.941 245.814 338.405 245.213L339.95 246.416C338.711 248.321 336.851 249.273 334.372 249.273ZM334.058 236.012C333.037 236.012 332.18 236.385 331.488 237.133C330.795 237.871 330.366 238.91 330.202 240.25H337.613V240.059C337.54 238.773 337.193 237.78 336.573 237.078C335.954 236.367 335.115 236.012 334.058 236.012ZM353.058 230.625V234.207H355.82V236.162H353.058V245.336C353.058 245.928 353.181 246.375 353.427 246.676C353.673 246.967 354.093 247.113 354.685 247.113C354.977 247.113 355.378 247.059 355.888 246.949V249C355.223 249.182 354.576 249.273 353.947 249.273C352.817 249.273 351.964 248.932 351.39 248.248C350.816 247.564 350.529 246.594 350.529 245.336V236.162H347.836V234.207H350.529V230.625H353.058ZM361.116 235.998C362.237 234.622 363.695 233.934 365.491 233.934C368.617 233.934 370.194 235.697 370.221 239.225V249H367.692V239.211C367.683 238.145 367.437 237.356 366.954 236.846C366.48 236.335 365.737 236.08 364.725 236.08C363.905 236.08 363.185 236.299 362.565 236.736C361.945 237.174 361.462 237.748 361.116 238.459V249H358.587V228H361.116V235.998ZM379.947 249.273C377.942 249.273 376.311 248.617 375.053 247.305C373.795 245.983 373.166 244.219 373.166 242.014V241.549C373.166 240.081 373.444 238.773 374 237.625C374.565 236.467 375.349 235.565 376.352 234.918C377.363 234.262 378.457 233.934 379.633 233.934C381.556 233.934 383.051 234.567 384.117 235.834C385.184 237.101 385.717 238.915 385.717 241.275V242.328H375.695C375.732 243.786 376.156 244.967 376.967 245.869C377.787 246.762 378.826 247.209 380.084 247.209C380.977 247.209 381.734 247.027 382.354 246.662C382.973 246.298 383.516 245.814 383.98 245.213L385.525 246.416C384.286 248.321 382.426 249.273 379.947 249.273ZM379.633 236.012C378.612 236.012 377.755 236.385 377.062 237.133C376.37 237.871 375.941 238.91 375.777 240.25H383.188V240.059C383.115 238.773 382.768 237.78 382.148 237.078C381.529 236.367 380.69 236.012 379.633 236.012ZM407.698 241.768C407.698 244.019 407.183 245.833 406.153 247.209C405.123 248.585 403.728 249.273 401.969 249.273C400.174 249.273 398.761 248.704 397.731 247.564V254.688H395.202V234.207H397.512L397.635 235.848C398.665 234.572 400.096 233.934 401.928 233.934C403.705 233.934 405.109 234.604 406.139 235.943C407.178 237.283 407.698 239.147 407.698 241.535V241.768ZM405.168 241.48C405.168 239.812 404.813 238.495 404.102 237.529C403.391 236.563 402.416 236.08 401.176 236.08C399.645 236.08 398.496 236.759 397.731 238.117V245.186C398.487 246.535 399.645 247.209 401.204 247.209C402.416 247.209 403.377 246.73 404.088 245.773C404.808 244.807 405.168 243.376 405.168 241.48ZM410.054 241.467C410.054 240.018 410.337 238.714 410.902 237.557C411.476 236.399 412.269 235.506 413.281 234.877C414.302 234.248 415.464 233.934 416.767 233.934C418.782 233.934 420.408 234.631 421.648 236.025C422.897 237.42 423.521 239.275 423.521 241.59V241.768C423.521 243.208 423.243 244.502 422.687 245.65C422.14 246.79 421.352 247.678 420.322 248.316C419.301 248.954 418.125 249.273 416.795 249.273C414.789 249.273 413.162 248.576 411.914 247.182C410.674 245.787 410.054 243.941 410.054 241.645V241.467ZM412.597 241.768C412.597 243.408 412.976 244.725 413.732 245.719C414.498 246.712 415.518 247.209 416.795 247.209C418.08 247.209 419.101 246.708 419.857 245.705C420.614 244.693 420.992 243.281 420.992 241.467C420.992 239.844 420.604 238.532 419.83 237.529C419.064 236.518 418.043 236.012 416.767 236.012C415.518 236.012 414.511 236.508 413.746 237.502C412.98 238.495 412.597 239.917 412.597 241.768ZM439.591 245.514L442.434 234.207H444.964L440.657 249H438.606L435.011 237.789L431.511 249H429.46L425.167 234.207H427.682L430.595 245.281L434.04 234.207H436.077L439.591 245.514ZM453.486 249.273C451.481 249.273 449.85 248.617 448.592 247.305C447.334 245.983 446.705 244.219 446.705 242.014V241.549C446.705 240.081 446.983 238.773 447.539 237.625C448.104 236.467 448.888 235.565 449.891 234.918C450.902 234.262 451.996 233.934 453.172 233.934C455.095 233.934 456.59 234.567 457.656 235.834C458.723 237.101 459.256 238.915 459.256 241.275V242.328H449.234C449.271 243.786 449.695 244.967 450.506 245.869C451.326 246.762 452.365 247.209 453.623 247.209C454.516 247.209 455.273 247.027 455.893 246.662C456.512 246.298 457.055 245.814 457.52 245.213L459.064 246.416C457.825 248.321 455.965 249.273 453.486 249.273ZM453.172 236.012C452.151 236.012 451.294 236.385 450.602 237.133C449.909 237.871 449.48 238.91 449.316 240.25H456.727V240.059C456.654 238.773 456.307 237.78 455.688 237.078C455.068 236.367 454.229 236.012 453.172 236.012ZM469.146 236.477C468.763 236.413 468.348 236.381 467.902 236.381C466.243 236.381 465.117 237.087 464.525 238.5V249H461.995V234.207H464.456L464.497 235.916C465.327 234.594 466.502 233.934 468.025 233.934C468.517 233.934 468.89 233.997 469.146 234.125V236.477ZM479.897 245.076C479.897 244.393 479.637 243.864 479.118 243.49C478.607 243.107 477.709 242.779 476.424 242.506C475.148 242.232 474.132 241.904 473.375 241.521C472.628 241.139 472.072 240.683 471.707 240.154C471.352 239.626 471.174 238.997 471.174 238.268C471.174 237.055 471.685 236.03 472.705 235.191C473.735 234.353 475.048 233.934 476.643 233.934C478.32 233.934 479.678 234.367 480.717 235.232C481.765 236.098 482.289 237.206 482.289 238.555H479.746C479.746 237.862 479.45 237.265 478.858 236.764C478.274 236.262 477.536 236.012 476.643 236.012C475.722 236.012 475.002 236.212 474.483 236.613C473.963 237.014 473.704 237.538 473.704 238.186C473.704 238.796 473.945 239.257 474.428 239.566C474.911 239.876 475.782 240.173 477.039 240.455C478.306 240.738 479.332 241.075 480.116 241.467C480.899 241.859 481.478 242.333 481.852 242.889C482.235 243.436 482.426 244.105 482.426 244.898C482.426 246.22 481.898 247.282 480.84 248.084C479.783 248.877 478.411 249.273 476.725 249.273C475.54 249.273 474.492 249.064 473.58 248.645C472.669 248.225 471.954 247.642 471.434 246.895C470.924 246.138 470.668 245.322 470.668 244.447H473.198C473.243 245.295 473.58 245.969 474.209 246.471C474.847 246.963 475.686 247.209 476.725 247.209C477.682 247.209 478.448 247.018 479.022 246.635C479.605 246.243 479.897 245.723 479.897 245.076ZM491.596 241.467C491.596 240.018 491.879 238.714 492.444 237.557C493.018 236.399 493.811 235.506 494.823 234.877C495.844 234.248 497.006 233.934 498.309 233.934C500.324 233.934 501.951 234.631 503.19 236.025C504.439 237.42 505.063 239.275 505.063 241.59V241.768C505.063 243.208 504.785 244.502 504.229 245.65C503.682 246.79 502.894 247.678 501.864 248.316C500.843 248.954 499.667 249.273 498.337 249.273C496.332 249.273 494.705 248.576 493.456 247.182C492.216 245.787 491.596 243.941 491.596 241.645V241.467ZM494.139 241.768C494.139 243.408 494.518 244.725 495.274 245.719C496.04 246.712 497.061 247.209 498.337 247.209C499.622 247.209 500.643 246.708 501.399 245.705C502.156 244.693 502.534 243.281 502.534 241.467C502.534 239.844 502.147 238.532 501.372 237.529C500.606 236.518 499.585 236.012 498.309 236.012C497.061 236.012 496.054 236.508 495.288 237.502C494.522 238.495 494.139 239.917 494.139 241.768ZM509.279 249V236.162H506.941V234.207H509.279V232.689C509.279 231.104 509.703 229.878 510.551 229.012C511.398 228.146 512.597 227.713 514.146 227.713C514.73 227.713 515.309 227.79 515.883 227.945L515.746 229.996C515.318 229.914 514.862 229.873 514.379 229.873C513.559 229.873 512.925 230.115 512.479 230.598C512.032 231.072 511.809 231.755 511.809 232.648V234.207H514.967V236.162H511.809V249H509.279Z" fill="#525252"/>
<path d="M223 220C223 223.61 223 231.006 223 231.715C223 232.601 223.967 232.552 224.477 232.355C228.04 231.124 230.841 232.01 232.623 233.684C234.876 235.801 236.594 240.575 232.623 244.316C231.146 245.707 228.183 247.063 224.477 245.842C223.984 245.744 223 245.773 223 246.679C223 247.584 223 254.604 223 258" stroke="#525252" stroke-width="2" stroke-linecap="round"/>
<path d="M531.281 747C526.98 748.153 518.166 750.514 517.322 750.74C516.266 751.023 516.623 752.122 517.015 752.646C519.581 756.359 519.39 759.868 517.946 762.455C516.119 765.727 510.96 769.23 505.276 765.85C503.163 764.593 500.633 761.612 500.944 756.952C500.909 756.354 500.57 755.229 499.491 755.518C498.411 755.807 490.047 758.049 486 759.133" stroke="#B3A7A7" stroke-width="2" stroke-linecap="round"/>
<path d="M2.00007 466.932C12.869 473.247 35.1403 486.185 37.2745 487.425C39.9424 488.975 41.4301 486.073 41.6983 484.246C44.0204 471.719 51.4239 465.117 59.4768 462.857C69.6613 459.999 86.9427 463.351 91.4906 481.456C93.1815 488.187 92.2526 499.185 82.3085 507.839C81.1797 509.1 79.6039 512.017 82.331 513.601C85.0581 515.185 106.193 527.464 116.42 533.405" stroke="#9D8A8A" stroke-width="3" stroke-linecap="round"/>
<path d="M540.914 68.0541C544.534 70.1511 551.952 74.4479 552.663 74.8596C553.551 75.3743 554.036 74.4241 554.119 73.8246C554.852 69.7143 557.286 67.5611 559.948 66.8356C563.314 65.918 569.05 67.0553 570.61 73.012C571.19 75.2267 570.915 78.8374 567.645 81.6595C567.274 82.0712 566.761 83.0262 567.669 83.5523C568.577 84.0785 575.617 88.1561 579.023 90.1291" stroke="#7B2CBF" stroke-opacity="0.45" stroke-width="2" stroke-linecap="round"/>
<circle cx="407.5" cy="312.5" r="12.5" stroke="#7B2CBF" stroke-width="4"/>
<defs>
<linearGradient id="paint0_linear" x1="1282" y1="99.7844" x2="721.644" y2="800.199" gradientUnits="userSpaceOnUse">
<stop stop-color="#582D7D"/>
<stop offset="0.696338" stop-color="#7B2CBF"/>
</linearGradient>
</defs>
</svg>
