<svg width="385" height="71" viewBox="0 0 385 71" fill="none" xmlns="http://www.w3.org/2000/svg">
<path d="M154.367 71V39.0698H164.981L166.57 26.6261H154.367V18.681C154.367 15.0782 155.358 12.623 160.474 12.623L167 12.6201V1.49053C165.871 1.33883 161.998 1 157.491 1C148.082 1 141.641 6.79908 141.641 17.449V26.6261H131V39.0698H141.641V71H154.367Z" fill="white"/>
<g clip-path="url(#clip0)">
<path d="M243.5 6.39666C252.979 6.39666 254.102 6.43271 257.845 6.60328C261.306 6.76136 263.186 7.33962 264.437 7.82581C266.094 8.4698 267.277 9.23915 268.519 10.4814C269.761 11.7236 270.53 12.9062 271.174 14.563C271.66 15.8141 272.239 17.694 272.397 21.1549C272.567 24.8985 272.603 26.0212 272.603 35.5C272.603 44.9791 272.567 46.1017 272.397 49.8451C272.239 53.3063 271.66 55.1859 271.174 56.437C270.53 58.0938 269.761 59.2767 268.519 60.5189C267.277 61.7611 266.094 62.5305 264.437 63.1742C263.186 63.6604 261.306 64.2389 257.845 64.3967C254.102 64.5676 252.979 64.6036 243.5 64.6036C234.021 64.6036 232.898 64.5676 229.155 64.3967C225.694 64.2386 223.814 63.6604 222.563 63.1742C220.906 62.5305 219.723 61.7611 218.481 60.5189C217.239 59.2764 216.47 58.0938 215.826 56.437C215.34 55.1861 214.761 53.3063 214.603 49.8451C214.433 46.1017 214.397 44.9791 214.397 35.5C214.397 26.0212 214.433 24.8985 214.603 21.1552C214.761 17.694 215.34 15.8141 215.826 14.563C216.47 12.9062 217.239 11.7236 218.481 10.4814C219.724 9.23888 220.906 8.4698 222.563 7.82581C223.814 7.33962 225.694 6.76136 229.155 6.60328C232.898 6.43271 234.021 6.39666 243.5 6.39666ZM243.5 0C233.859 0 232.65 0.0407695 228.864 0.213555C225.085 0.386063 222.504 0.986234 220.246 1.86375C217.912 2.77094 215.932 3.98487 213.958 5.95845C211.985 7.93203 210.771 9.91171 209.864 12.2461C208.986 14.5042 208.386 17.0849 208.214 20.8635C208.041 24.6498 208 25.8587 208 35.5C208 45.1413 208.041 46.3502 208.214 50.1365C208.386 53.9153 208.986 56.496 209.864 58.7539C210.771 61.0883 211.985 63.0682 213.958 65.0418C215.932 67.0154 217.912 68.2291 220.246 69.1363C222.504 70.014 225.085 70.6139 228.863 70.7864C232.65 70.9592 233.859 71 243.5 71C253.141 71 254.35 70.9592 258.137 70.7864C261.915 70.6139 264.496 70.014 266.754 69.1363C269.088 68.2293 271.068 67.0154 273.042 65.0418C275.015 63.0682 276.229 61.0886 277.136 58.7539C278.014 56.4958 278.614 53.9153 278.787 50.1368C278.959 46.3502 279 45.1413 279 35.5C279 25.8587 278.959 24.6498 278.787 20.8635C278.614 17.0849 278.014 14.5042 277.136 12.2464C276.229 9.91171 275.015 7.93203 273.042 5.95845C271.068 3.98487 269.088 2.77066 266.754 1.86375C264.496 0.986234 261.915 0.386063 258.137 0.213555C254.35 0.0407695 253.141 0 243.5 0ZM243.5 17.2702C233.432 17.2702 225.27 25.4324 225.27 35.5C225.27 45.5681 233.432 53.7298 243.5 53.7298C253.568 53.7298 261.73 45.5681 261.73 35.5C261.73 25.4321 253.568 17.2702 243.5 17.2702ZM243.5 47.3334C236.965 47.3334 231.667 42.0353 231.667 35.5C231.667 28.9647 236.965 23.6666 243.5 23.6666C250.035 23.6666 255.334 28.9647 255.334 35.5C255.334 42.0353 250.035 47.3334 243.5 47.3334ZM266.71 16.5499C266.71 18.9029 264.803 20.8099 262.45 20.8099C260.097 20.8099 258.19 18.9029 258.19 16.5499C258.19 14.1972 260.097 12.2899 262.45 12.2899C264.803 12.2899 266.71 14.1972 266.71 16.5499Z" fill="white"/>
</g>
<g clip-path="url(#clip1)">
<path d="M87.0001 8.64575C83.7988 10.0647 80.3589 11.0237 76.7484 11.4552C80.434 9.24704 83.2639 5.75037 84.5964 1.58413C81.0928 3.66245 77.2595 5.12675 73.2623 5.91378C70.0062 2.44633 65.3677 0.279297 60.2337 0.279297C50.3762 0.279297 42.3841 8.26799 42.3841 18.121C42.3841 19.5196 42.5421 20.8812 42.8463 22.1874C28.0121 21.4431 14.8601 14.34 6.05648 3.5453C4.52038 6.18045 3.64019 9.24568 3.64019 12.5151C3.64019 18.7053 6.79156 24.1662 11.5806 27.366C8.74617 27.2772 5.97406 26.512 3.49575 25.1341C3.49474 25.2088 3.49474 25.2835 3.49474 25.3586C3.49474 34.0033 9.64727 41.2147 17.8124 42.8538C15.184 43.5684 12.4269 43.6729 9.75194 43.1596C12.0231 50.248 18.6151 55.4062 26.4254 55.5506C20.3167 60.3358 12.6202 63.1884 4.25802 63.1884C2.81709 63.1884 1.39654 63.1038 0.00012207 62.939C7.89911 68.0014 17.2812 70.9552 27.3609 70.9552C60.1922 70.9552 78.1452 43.7676 78.1452 20.1902C78.1452 19.4163 78.1282 18.6469 78.0935 17.8819C81.5879 15.3567 84.6039 12.2291 87.0001 8.64575Z" fill="white"/>
</g>
<g clip-path="url(#clip2)">
<path d="M374.494 60.4956H363.975V44.0205C363.975 40.092 363.904 35.0346 358.503 35.0346C353.024 35.0346 352.185 39.3151 352.185 43.7346V60.4945H341.666V26.6153H351.765V31.2453H351.906C352.917 29.5171 354.377 28.0955 356.132 27.1317C357.887 26.168 359.87 25.6982 361.871 25.7724C372.533 25.7724 374.499 32.7859 374.499 41.91L374.494 60.4956ZM329.796 21.9845C326.424 21.985 323.69 19.2521 323.69 15.8804C323.689 12.5088 326.422 9.77498 329.793 9.77442C333.165 9.77359 335.899 12.5065 335.899 15.8782C335.9 17.4973 335.257 19.0503 334.112 20.1954C332.967 21.3406 331.415 21.9841 329.796 21.9845ZM335.056 60.4959H324.525V26.6153H335.055V60.4956L335.056 60.4959ZM379.739 0.00443502H319.238C316.379 -0.0277369 314.034 2.26285 313.999 5.12226V65.8752C314.033 68.736 316.378 71.0288 319.238 70.9989H379.739C382.606 71.0344 384.959 68.7416 384.999 65.8752V5.11754C384.958 2.25258 382.604 -0.0377212 379.739 -0.000279827" fill="white"/>
</g>
<defs>
<clipPath id="clip0">
<rect width="71" height="71" fill="white" transform="translate(208)"/>
</clipPath>
<clipPath id="clip1">
<rect width="87" height="71" fill="white" transform="translate(0.00012207)"/>
</clipPath>
<clipPath id="clip2">
<rect width="71" height="71" fill="white" transform="translate(314)"/>
</clipPath>
</defs>
</svg>
