<svg width="24" height="19" viewBox="0 0 24 19" fill="none" xmlns="http://www.w3.org/2000/svg">
<path d="M21.3293 0.234375H2.83162C1.55643 0.234375 0.519409 1.26559 0.519409 2.53363V16.3291C0.519409 17.5972 1.55643 18.6284 2.83162 18.6284H21.3293C22.6045 18.6284 23.6415 17.5972 23.6415 16.3291V2.53363C23.6415 1.26559 22.6045 0.234375 21.3293 0.234375ZM5.72187 3.68325C6.1818 3.68325 6.62289 3.86494 6.94811 4.18833C7.27332 4.51173 7.45603 4.95034 7.45603 5.40769C7.45603 5.86504 7.27332 6.30366 6.94811 6.62706C6.62289 6.95045 6.1818 7.13213 5.72187 7.13213C5.26195 7.13213 4.82086 6.95045 4.49564 6.62706C4.17042 6.30366 3.98772 5.86504 3.98772 5.40769C3.98772 4.95034 4.17042 4.51173 4.49564 4.18833C4.82086 3.86494 5.26195 3.68325 5.72187 3.68325ZM12.0804 15.1795H3.98772L8.61213 9.43139L10.3463 11.7306L13.8146 7.13213L20.1732 15.1795H12.0804Z" fill="white"/>
</svg>
