<svg width="101" height="22" viewBox="0 0 101 22" fill="none" xmlns="http://www.w3.org/2000/svg">
<path d="M10.436 12.8862C10.436 14.0096 10.2236 15.0669 9.79883 16.0581C9.37402 17.0399 8.79346 17.8989 8.05713 18.6353C7.33024 19.3621 6.47119 19.938 5.47998 20.3628C4.49821 20.7876 3.44564 21 2.32227 21C1.64258 21 0.962891 20.915 0.283203 20.7451V16.3838C0.585286 16.5632 0.91097 16.7 1.26025 16.7944C1.60954 16.8888 1.96354 16.936 2.32227 16.936C2.87923 16.936 3.40316 16.8322 3.89404 16.6245C4.39437 16.4074 4.82861 16.1147 5.19678 15.7466C5.56494 15.3784 5.85286 14.9489 6.06055 14.458C6.27767 13.9671 6.38623 13.4432 6.38623 12.8862V0.694336H10.436V12.8862ZM18.04 21H13.9761V0.694336H18.04V21ZM37.9775 18.9468C37.0335 19.7492 35.981 20.3675 34.8198 20.8018C33.6587 21.2266 32.4504 21.439 31.1948 21.439C30.2319 21.439 29.3021 21.3115 28.4053 21.0566C27.5179 20.8112 26.6872 20.4619 25.9131 20.0088C25.139 19.5462 24.431 18.9987 23.7891 18.3662C23.1471 17.7243 22.5996 17.0163 22.1465 16.2422C21.6934 15.4587 21.3394 14.6185 21.0845 13.7217C20.839 12.8249 20.7163 11.895 20.7163 10.9321C20.7163 9.96924 20.839 9.04411 21.0845 8.15674C21.3394 7.26937 21.6934 6.43864 22.1465 5.66455C22.5996 4.88102 23.1471 4.17301 23.7891 3.54053C24.431 2.8986 25.139 2.35107 25.9131 1.89795C26.6872 1.44482 27.5179 1.09554 28.4053 0.850098C29.3021 0.595215 30.2319 0.467773 31.1948 0.467773C32.4504 0.467773 33.6587 0.684896 34.8198 1.11914C35.981 1.54395 37.0335 2.15755 37.9775 2.95996L35.8535 6.5C35.2399 5.87695 34.5319 5.39079 33.7295 5.0415C32.9271 4.68278 32.0822 4.50342 31.1948 4.50342C30.3075 4.50342 29.472 4.67334 28.6885 5.01318C27.9144 5.35303 27.2347 5.81559 26.6494 6.40088C26.0641 6.97673 25.6016 7.65641 25.2617 8.43994C24.9219 9.21403 24.752 10.0448 24.752 10.9321C24.752 11.8289 24.9219 12.6691 25.2617 13.4526C25.6016 14.2362 26.0641 14.9206 26.6494 15.5059C27.2347 16.0911 27.9144 16.5537 28.6885 16.8936C29.472 17.2334 30.3075 17.4033 31.1948 17.4033C31.7046 17.4033 32.2002 17.342 32.6816 17.2192C33.1631 17.0965 33.6209 16.9266 34.0552 16.7095V10.9321H37.9775V18.9468ZM76.8472 12.8862V8.82227C76.8472 8.2653 76.7386 7.74137 76.5215 7.25049C76.3138 6.75016 76.0259 6.31592 75.6577 5.94775C75.2896 5.57959 74.8553 5.29167 74.355 5.08398C73.8641 4.86686 73.3402 4.7583 72.7832 4.7583C72.2262 4.7583 71.6976 4.86686 71.1973 5.08398C70.7064 5.29167 70.2769 5.57959 69.9087 5.94775C69.5405 6.31592 69.2479 6.75016 69.0308 7.25049C68.8231 7.74137 68.7192 8.2653 68.7192 8.82227V12.8862H76.8472ZM80.9111 21H76.8472V16.936H68.7192V21H64.6694V8.82227C64.6694 7.69889 64.8818 6.64632 65.3066 5.66455C65.7314 4.67334 66.3073 3.80957 67.0342 3.07324C67.7705 2.33691 68.6296 1.75635 69.6113 1.33154C70.6025 0.906738 71.6598 0.694336 72.7832 0.694336C73.9066 0.694336 74.9591 0.906738 75.9409 1.33154C76.9321 1.75635 77.7959 2.33691 78.5322 3.07324C79.2686 3.80957 79.8491 4.67334 80.2739 5.66455C80.6987 6.64632 80.9111 7.69889 80.9111 8.82227V21ZM88.501 4.7583V12.8862H92.5649C93.1219 12.8862 93.6458 12.7824 94.1367 12.5747C94.6276 12.3576 95.0571 12.0649 95.4253 11.6968C95.7935 11.3286 96.0814 10.8991 96.2891 10.4082C96.5062 9.90788 96.6147 9.37923 96.6147 8.82227C96.6147 8.2653 96.5062 7.74137 96.2891 7.25049C96.0814 6.75016 95.7935 6.31592 95.4253 5.94775C95.0571 5.57959 94.6276 5.29167 94.1367 5.08398C93.6458 4.86686 93.1219 4.7583 92.5649 4.7583H88.501ZM88.501 21H84.437V0.694336H92.5649C93.3107 0.694336 94.0282 0.793457 94.7173 0.991699C95.4064 1.1805 96.0483 1.45426 96.6431 1.81299C97.2472 2.16227 97.7948 2.58708 98.2856 3.0874C98.786 3.57829 99.2108 4.12581 99.5601 4.72998C99.9188 5.33415 100.193 5.98079 100.381 6.66992C100.58 7.35905 100.679 8.0765 100.679 8.82227C100.679 9.9362 100.466 10.9888 100.042 11.98C99.6167 12.9618 99.0361 13.8208 98.2998 14.5571C97.5635 15.2935 96.6997 15.874 95.7085 16.2988C94.7267 16.7236 93.6789 16.936 92.5649 16.936H88.501V21Z" fill="black"/>
<path d="M61.2568 21H57.207V6.5C57.207 6.2168 57.1504 5.95247 57.0371 5.70703C56.9333 5.46159 56.7869 5.24919 56.5981 5.06982C56.4188 4.88102 56.2064 4.7347 55.9609 4.63086C55.7155 4.52702 55.4512 4.4751 55.168 4.4751C54.8848 4.4751 54.6204 4.52702 54.375 4.63086C54.1296 4.7347 53.9124 4.88102 53.7236 5.06982C53.5443 5.24919 53.4027 5.46159 53.2988 5.70703C53.195 5.95247 53.1431 6.2168 53.1431 6.5V21H49.0791V6.5C49.0791 6.2168 49.0272 5.95247 48.9233 5.70703C48.8195 5.46159 48.6732 5.24919 48.4844 5.06982C48.305 4.88102 48.0926 4.7347 47.8472 4.63086C47.6017 4.52702 47.3374 4.4751 47.0542 4.4751C46.771 4.4751 46.5067 4.52702 46.2612 4.63086C46.0158 4.7347 45.7987 4.88102 45.6099 5.06982C45.4305 5.24919 45.2889 5.46159 45.1851 5.70703C45.0812 5.95247 45.0293 6.2168 45.0293 6.5V21H40.9653V6.5C40.9653 5.65983 41.1211 4.87158 41.4326 4.13525C41.7536 3.38949 42.1878 2.74284 42.7354 2.19531C43.2923 1.63835 43.939 1.2041 44.6753 0.892578C45.4211 0.571615 46.214 0.411133 47.0542 0.411133C47.8094 0.411133 48.5363 0.548014 49.2349 0.821777C49.9334 1.0861 50.5612 1.47314 51.1182 1.98291C51.6751 1.47314 52.2982 1.0861 52.9873 0.821777C53.6859 0.548014 54.4128 0.411133 55.168 0.411133C56.0081 0.411133 56.7964 0.571615 57.5327 0.892578C58.2785 1.2041 58.9251 1.63835 59.4727 2.19531C60.0296 2.74284 60.4639 3.38949 60.7754 4.13525C61.0964 4.87158 61.2568 5.65983 61.2568 6.5V21Z" fill="#7B2CBF"/>
</svg>
