<svg width="1008" height="106" viewBox="0 0 1008 106" fill="none" xmlns="http://www.w3.org/2000/svg">
<g filter="url(#filter0_d)">
<path fill-rule="evenodd" clip-rule="evenodd" d="M823.5 44C843.658 44 860 29.897 860 12.5C860 11.6586 859.962 10.8248 859.887 10H983C991.284 10 998 16.7157 998 25V81C998 89.2843 991.284 96 983 96H25C16.7157 96 10 89.2843 10 81V25C10 16.7157 16.7157 10 25 10H787.113C787.038 10.8248 787 11.6586 787 12.5C787 29.897 803.342 44 823.5 44Z" fill="white"/>
</g>
<defs>
<filter id="filter0_d" x="0" y="0" width="1008" height="106" filterUnits="userSpaceOnUse" color-interpolation-filters="sRGB">
<feFlood flood-opacity="0" result="BackgroundImageFix"/>
<feColorMatrix in="SourceAlpha" type="matrix" values="0 0 0 0 0 0 0 0 0 0 0 0 0 0 0 0 0 0 127 0"/>
<feOffset/>
<feGaussianBlur stdDeviation="5"/>
<feColorMatrix type="matrix" values="0 0 0 0 0 0 0 0 0 0 0 0 0 0 0 0 0 0 0.25 0"/>
<feBlend mode="normal" in2="BackgroundImageFix" result="effect1_dropShadow"/>
<feBlend mode="normal" in="SourceGraphic" in2="effect1_dropShadow" result="shape"/>
</filter>
</defs>
</svg>
