<svg width="21" height="9" viewBox="0 0 21 9" fill="none" xmlns="http://www.w3.org/2000/svg">
<path d="M8.24328 0.455872H4.97752C3.8737 0.455872 2.81509 0.891907 2.03457 1.66806C1.25404 2.4442 0.815552 3.49689 0.815552 4.59453C0.815552 5.69217 1.25404 6.74485 2.03457 7.521C2.81509 8.29715 3.8737 8.73318 4.97752 8.73318H9.1395C9.80551 8.73353 10.4619 8.57493 11.0535 8.27071C11.6451 7.96648 12.1546 7.52552 12.5393 6.98487C12.924 6.44421 13.1725 5.81965 13.2641 5.16366C13.3557 4.50766 13.2876 3.83939 13.0656 3.21497H11.9141C11.7948 3.21497 11.6783 3.22877 11.5673 3.25774C11.8013 3.67782 11.9209 4.15135 11.9145 4.63152C11.908 5.11168 11.7756 5.58185 11.5304 5.99555C11.2852 6.40924 10.9356 6.75213 10.5163 6.99031C10.097 7.2285 9.62241 7.35373 9.1395 7.35363H4.97752C4.24164 7.35363 3.5359 7.06294 3.01555 6.54551C2.4952 6.02807 2.20288 5.32629 2.20288 4.59453C2.20288 3.86277 2.4952 3.16098 3.01555 2.64355C3.5359 2.12611 4.24164 1.83542 4.97752 1.83542H7.10707C7.4095 1.31671 7.79379 0.850423 8.24467 0.455872H8.24328Z" fill="white"/>
<path d="M11.9142 0.455872C11.2481 0.455525 10.5918 0.614125 10.0002 0.918348C9.40857 1.22257 8.89904 1.66353 8.51437 2.20419C8.1297 2.74484 7.88113 3.3694 7.78954 4.0254C7.69795 4.68139 7.76602 5.34967 7.98803 5.97408H9.51131C9.26779 5.55465 9.13958 5.07886 9.13958 4.59454C9.13957 4.11023 9.26777 3.63444 9.51129 3.21501C9.75481 2.79557 10.1051 2.44727 10.5269 2.2051C10.9486 1.96293 11.4271 1.83544 11.9142 1.83542H16.0761C16.812 1.83542 17.5178 2.12611 18.0381 2.64355C18.5584 3.16098 18.8508 3.86277 18.8508 4.59453C18.8508 5.32629 18.5584 6.02808 18.0381 6.54551C17.5178 7.06294 16.812 7.35363 16.0761 7.35363H13.9466C13.6447 7.87152 13.2606 8.3374 12.809 8.73318H16.0761C16.6227 8.73318 17.1639 8.62613 17.6688 8.41815C18.1738 8.21016 18.6326 7.90531 19.0191 7.521C19.4056 7.13669 19.7121 6.68045 19.9213 6.17832C20.1304 5.6762 20.2381 5.13802 20.2381 4.59453C20.2381 4.05103 20.1304 3.51286 19.9213 3.01073C19.7121 2.50861 19.4056 2.05237 19.0191 1.66806C18.6326 1.28375 18.1738 0.978896 17.6688 0.770909C17.1639 0.562922 16.6227 0.455872 16.0761 0.455872H11.9142Z" fill="white"/>
</svg>
