<svg width="48" height="48" viewBox="0 0 48 48" fill="none" xmlns="http://www.w3.org/2000/svg">
<path d="M29.175 31.99L32.003 29.163L44.022 41.182L41.194 44.009L29.175 31.99Z" fill="#888888"/>
<path d="M20 36C28.8366 36 36 28.8366 36 20C36 11.1634 28.8366 4 20 4C11.1634 4 4 11.1634 4 20C4 28.8366 11.1634 36 20 36Z" fill="#888888"/>
<path d="M32.45 35.34L35.277 32.512L43.973 41.208L41.145 44.036L32.45 35.34Z" fill="#888888"/>
<path d="M20 33C27.1797 33 33 27.1797 33 20C33 12.8203 27.1797 7 20 7C12.8203 7 7 12.8203 7 20C7 27.1797 12.8203 33 20 33Z" fill="white"/>
<path d="M26.9 14.2C25.2 12.2 22.7 11 20 11C17.3 11 14.8 12.2 13.1 14.2C12.7 14.6 12.8 15.3 13.2 15.6C13.6 16 14.3 15.9 14.6 15.5C16 13.9 17.9 13 20 13C22.1 13 24 13.9 25.4 15.5C25.6 15.7 25.9 15.9 26.2 15.9C26.4 15.9 26.7 15.8 26.8 15.7C27.2 15.3 27.2 14.6 26.9 14.2Z" fill="#888888"/>
</svg>
