<svg width="1284" height="252" viewBox="0 0 1284 252" fill="none" xmlns="http://www.w3.org/2000/svg">
<path fill-rule="evenodd" clip-rule="evenodd" d="M50 202C22.3858 202 0 179.614 0 152V50C0 22.3858 22.3857 3.05176e-05 50 3.05176e-05L1147 0C1148.81 0.0897369 1150.86 1.15373 1152.74 3.73466C1160.05 39.5201 1189.63 66.2925 1225 66.2925C1248.1 66.2925 1268.72 54.8783 1282.29 36.9938C1283.41 41.141 1284 45.5011 1284 50V152C1284 179.614 1261.61 202 1234 202H50Z" fill="url(#paint0_linear)"/>
<path d="M1157.84 43.9997C1166.16 75.0141 1224.53 95.5507 1255 69.8638" stroke="#752CB4" stroke-width="3" stroke-linecap="round"/>
<path d="M107.953 87.6836C107.707 89.7891 106.928 91.416 105.615 92.5645C104.312 93.7038 102.576 94.2734 100.406 94.2734C98.0547 94.2734 96.168 93.4303 94.7461 91.7441C93.3333 90.0579 92.627 87.8021 92.627 84.9766V83.0625C92.627 81.2122 92.9551 79.5853 93.6113 78.1816C94.2767 76.778 95.2155 75.7025 96.4277 74.9551C97.64 74.1986 99.0436 73.8203 100.639 73.8203C102.753 73.8203 104.449 74.4128 105.725 75.5977C107.001 76.7734 107.743 78.4049 107.953 80.4922H105.314C105.087 78.9062 104.59 77.7578 103.824 77.0469C103.068 76.3359 102.006 75.9805 100.639 75.9805C98.9616 75.9805 97.6445 76.6003 96.6875 77.8398C95.7396 79.0794 95.2656 80.8431 95.2656 83.1309V85.0586C95.2656 87.2188 95.7168 88.9368 96.6191 90.2129C97.5215 91.4889 98.7839 92.127 100.406 92.127C101.865 92.127 102.981 91.7988 103.756 91.1426C104.54 90.4772 105.059 89.3242 105.314 87.6836H107.953ZM118.103 81.4766C117.72 81.4128 117.305 81.3809 116.859 81.3809C115.2 81.3809 114.074 82.0872 113.482 83.5V94H110.952V79.207H113.413L113.454 80.916C114.284 79.5944 115.46 78.9336 116.982 78.9336C117.474 78.9336 117.848 78.9974 118.103 79.125V81.4766ZM126.106 94.2734C124.101 94.2734 122.469 93.6172 121.211 92.3047C119.954 90.9831 119.325 89.2194 119.325 87.0137V86.5488C119.325 85.0814 119.603 83.7734 120.159 82.625C120.724 81.4674 121.508 80.5651 122.51 79.918C123.522 79.2617 124.616 78.9336 125.791 78.9336C127.715 78.9336 129.209 79.5671 130.276 80.834C131.342 82.1009 131.875 83.9147 131.875 86.2754V87.3281H121.854C121.89 88.7865 122.314 89.9668 123.125 90.8691C123.946 91.7624 124.985 92.209 126.243 92.209C127.136 92.209 127.892 92.0267 128.512 91.6621C129.132 91.2975 129.674 90.8145 130.139 90.2129L131.684 91.416C130.444 93.321 128.585 94.2734 126.106 94.2734ZM125.791 81.0117C124.771 81.0117 123.914 81.3854 123.221 82.1328C122.528 82.8711 122.1 83.9102 121.936 85.25H129.346V85.0586C129.273 83.7734 128.927 82.7799 128.307 82.0781C127.687 81.3672 126.849 81.0117 125.791 81.0117ZM143.748 94C143.602 93.7083 143.483 93.1888 143.392 92.4414C142.216 93.6628 140.813 94.2734 139.181 94.2734C137.723 94.2734 136.524 93.8633 135.586 93.043C134.656 92.2135 134.191 91.1654 134.191 89.8984C134.191 88.3581 134.774 87.1641 135.941 86.3164C137.117 85.4596 138.767 85.0312 140.89 85.0312H143.351V83.8691C143.351 82.985 143.087 82.2832 142.558 81.7637C142.03 81.235 141.25 80.9707 140.22 80.9707C139.318 80.9707 138.561 81.1986 137.951 81.6543C137.34 82.11 137.035 82.6615 137.035 83.3086H134.492C134.492 82.5703 134.752 81.8594 135.271 81.1758C135.8 80.4831 136.511 79.9362 137.404 79.5352C138.306 79.1341 139.295 78.9336 140.371 78.9336C142.075 78.9336 143.41 79.362 144.377 80.2188C145.343 81.0664 145.844 82.2376 145.88 83.7324V90.541C145.88 91.8991 146.054 92.9792 146.4 93.7812V94H143.748ZM139.55 92.0723C140.343 92.0723 141.095 91.8672 141.806 91.457C142.517 91.0469 143.032 90.5137 143.351 89.8574V86.8223H141.369C138.27 86.8223 136.72 87.7292 136.72 89.543C136.72 90.3359 136.985 90.9557 137.513 91.4023C138.042 91.849 138.721 92.0723 139.55 92.0723ZM153.077 75.625V79.207H155.839V81.1621H153.077V90.3359C153.077 90.9284 153.2 91.375 153.446 91.6758C153.692 91.9674 154.111 92.1133 154.704 92.1133C154.996 92.1133 155.397 92.0586 155.907 91.9492V94C155.242 94.1823 154.595 94.2734 153.966 94.2734C152.835 94.2734 151.983 93.9316 151.409 93.248C150.835 92.5645 150.548 91.5938 150.548 90.3359V81.1621H147.854V79.207H150.548V75.625H153.077ZM164.744 94.2734C162.739 94.2734 161.107 93.6172 159.85 92.3047C158.592 90.9831 157.963 89.2194 157.963 87.0137V86.5488C157.963 85.0814 158.241 83.7734 158.797 82.625C159.362 81.4674 160.146 80.5651 161.148 79.918C162.16 79.2617 163.254 78.9336 164.43 78.9336C166.353 78.9336 167.848 79.5671 168.914 80.834C169.98 82.1009 170.514 83.9147 170.514 86.2754V87.3281H160.492C160.529 88.7865 160.952 89.9668 161.764 90.8691C162.584 91.7624 163.623 92.209 164.881 92.209C165.774 92.209 166.531 92.0267 167.15 91.6621C167.77 91.2975 168.312 90.8145 168.777 90.2129L170.322 91.416C169.083 93.321 167.223 94.2734 164.744 94.2734ZM164.43 81.0117C163.409 81.0117 162.552 81.3854 161.859 82.1328C161.167 82.8711 160.738 83.9102 160.574 85.25H167.984V85.0586C167.911 83.7734 167.565 82.7799 166.945 82.0781C166.326 81.3672 165.487 81.0117 164.43 81.0117ZM189.131 94C188.985 93.7083 188.867 93.1888 188.776 92.4414C187.6 93.6628 186.196 94.2734 184.565 94.2734C183.107 94.2734 181.908 93.8633 180.969 93.043C180.039 92.2135 179.575 91.1654 179.575 89.8984C179.575 88.3581 180.158 87.1641 181.325 86.3164C182.5 85.4596 184.15 85.0312 186.274 85.0312H188.735V83.8691C188.735 82.985 188.47 82.2832 187.942 81.7637C187.413 81.235 186.634 80.9707 185.604 80.9707C184.702 80.9707 183.945 81.1986 183.334 81.6543C182.724 82.11 182.418 82.6615 182.418 83.3086H179.875C179.875 82.5703 180.135 81.8594 180.655 81.1758C181.183 80.4831 181.894 79.9362 182.787 79.5352C183.69 79.1341 184.679 78.9336 185.754 78.9336C187.459 78.9336 188.794 79.362 189.76 80.2188C190.726 81.0664 191.228 82.2376 191.264 83.7324V90.541C191.264 91.8991 191.437 92.9792 191.784 93.7812V94H189.131ZM184.934 92.0723C185.727 92.0723 186.479 91.8672 187.19 91.457C187.901 91.0469 188.416 90.5137 188.735 89.8574V86.8223H186.752C183.653 86.8223 182.104 87.7292 182.104 89.543C182.104 90.3359 182.368 90.9557 182.897 91.4023C183.426 91.849 184.105 92.0723 184.934 92.0723ZM197.421 79.207L197.504 81.0664C198.634 79.6445 200.11 78.9336 201.933 78.9336C205.06 78.9336 206.636 80.6973 206.664 84.2246V94H204.134V84.2109C204.125 83.1445 203.879 82.3561 203.396 81.8457C202.922 81.3353 202.179 81.0801 201.168 81.0801C200.347 81.0801 199.627 81.2988 199.007 81.7363C198.388 82.1738 197.905 82.748 197.558 83.459V94H195.029V79.207H197.421ZM209.663 86.4805C209.663 84.2109 210.201 82.388 211.276 81.0117C212.352 79.6263 213.76 78.9336 215.501 78.9336C217.233 78.9336 218.604 79.526 219.616 80.7109V73H222.145V94H219.821L219.698 92.4141C218.686 93.6536 217.278 94.2734 215.473 94.2734C213.76 94.2734 212.361 93.5716 211.276 92.168C210.201 90.7643 209.663 88.9323 209.663 86.6719V86.4805ZM212.192 86.7676C212.192 88.4447 212.539 89.7572 213.231 90.7051C213.924 91.653 214.881 92.127 216.102 92.127C217.707 92.127 218.878 91.4069 219.616 89.9668V83.1719C218.86 81.7773 217.697 81.0801 216.13 81.0801C214.89 81.0801 213.924 81.5586 213.231 82.5156C212.539 83.4727 212.192 84.89 212.192 86.7676ZM233.872 94V81.1621H231.534V79.207H233.872V77.6895C233.872 76.1035 234.296 74.8776 235.144 74.0117C235.991 73.1458 237.19 72.7129 238.739 72.7129C239.323 72.7129 239.902 72.7904 240.476 72.9453L240.339 74.9961C239.911 74.9141 239.455 74.873 238.972 74.873C238.152 74.873 237.518 75.1146 237.071 75.5977C236.625 76.0716 236.402 76.7552 236.402 77.6484V79.207H239.56V81.1621H236.402V94H233.872ZM241.493 86.4668C241.493 85.0176 241.775 83.7142 242.34 82.5566C242.914 81.3991 243.707 80.5059 244.719 79.877C245.74 79.248 246.902 78.9336 248.205 78.9336C250.22 78.9336 251.847 79.6309 253.086 81.0254C254.335 82.4199 254.959 84.2747 254.959 86.5898V86.7676C254.959 88.2077 254.681 89.502 254.125 90.6504C253.579 91.7897 252.79 92.6784 251.76 93.3164C250.739 93.9544 249.564 94.2734 248.233 94.2734C246.228 94.2734 244.601 93.5762 243.352 92.1816C242.112 90.7871 241.493 88.9414 241.493 86.6445V86.4668ZM244.036 86.7676C244.036 88.4082 244.414 89.7253 245.17 90.7188C245.936 91.7122 246.957 92.209 248.233 92.209C249.518 92.209 250.539 91.7077 251.295 90.7051C252.052 89.6934 252.43 88.2806 252.43 86.4668C252.43 84.8444 252.043 83.5319 251.268 82.5293C250.502 81.5176 249.482 81.0117 248.205 81.0117C246.957 81.0117 245.95 81.5085 245.184 82.502C244.418 83.4954 244.036 84.9173 244.036 86.7676ZM265.082 81.4766C264.699 81.4128 264.284 81.3809 263.837 81.3809C262.179 81.3809 261.053 82.0872 260.461 83.5V94H257.931V79.207H260.392L260.433 80.916C261.263 79.5944 262.438 78.9336 263.961 78.9336C264.453 78.9336 264.826 78.9974 265.082 79.125V81.4766ZM271.348 87.1504L269.762 88.8047V94H267.233V73H269.762V85.7012L271.116 84.0742L275.723 79.207H278.8L273.044 85.3867L279.47 94H276.503L271.348 87.1504ZM290.335 79.207L290.404 80.8477C291.488 79.5716 292.951 78.9336 294.792 78.9336C296.861 78.9336 298.269 79.7266 299.017 81.3125C299.509 80.6016 300.147 80.0273 300.931 79.5898C301.724 79.1523 302.658 78.9336 303.734 78.9336C306.978 78.9336 308.628 80.6517 308.683 84.0879V94H306.154V84.2383C306.154 83.181 305.912 82.3926 305.429 81.873C304.946 81.3444 304.135 81.0801 302.995 81.0801C302.057 81.0801 301.277 81.3626 300.657 81.9277C300.038 82.4837 299.678 83.2357 299.577 84.1836V94H297.034V84.3066C297.034 82.1556 295.982 81.0801 293.876 81.0801C292.217 81.0801 291.083 81.7865 290.472 83.1992V94H287.943V79.207H290.335ZM311.641 86.4668C311.641 85.0176 311.924 83.7142 312.489 82.5566C313.063 81.3991 313.856 80.5059 314.868 79.877C315.888 79.248 317.051 78.9336 318.354 78.9336C320.368 78.9336 321.995 79.6309 323.235 81.0254C324.483 82.4199 325.108 84.2747 325.108 86.5898V86.7676C325.108 88.2077 324.83 89.502 324.274 90.6504C323.727 91.7897 322.939 92.6784 321.909 93.3164C320.888 93.9544 319.712 94.2734 318.381 94.2734C316.376 94.2734 314.749 93.5762 313.5 92.1816C312.261 90.7871 311.641 88.9414 311.641 86.6445V86.4668ZM314.184 86.7676C314.184 88.4082 314.562 89.7253 315.319 90.7188C316.084 91.7122 317.105 92.209 318.381 92.209C319.666 92.209 320.687 91.7077 321.444 90.7051C322.2 89.6934 322.579 88.2806 322.579 86.4668C322.579 84.8444 322.191 83.5319 321.416 82.5293C320.651 81.5176 319.63 81.0117 318.354 81.0117C317.105 81.0117 316.098 81.5085 315.332 82.502C314.567 83.4954 314.184 84.9173 314.184 86.7676ZM335.23 81.4766C334.847 81.4128 334.433 81.3809 333.986 81.3809C332.327 81.3809 331.201 82.0872 330.609 83.5V94H328.08V79.207H330.541L330.582 80.916C331.411 79.5944 332.587 78.9336 334.109 78.9336C334.601 78.9336 334.975 78.9974 335.23 79.125V81.4766ZM343.233 94.2734C341.228 94.2734 339.596 93.6172 338.339 92.3047C337.081 90.9831 336.452 89.2194 336.452 87.0137V86.5488C336.452 85.0814 336.73 83.7734 337.286 82.625C337.851 81.4674 338.635 80.5651 339.637 79.918C340.649 79.2617 341.743 78.9336 342.919 78.9336C344.842 78.9336 346.337 79.5671 347.403 80.834C348.47 82.1009 349.003 83.9147 349.003 86.2754V87.3281H338.981C339.018 88.7865 339.442 89.9668 340.253 90.8691C341.073 91.7624 342.112 92.209 343.37 92.209C344.263 92.209 345.02 92.0267 345.639 91.6621C346.259 91.2975 346.802 90.8145 347.266 90.2129L348.811 91.416C347.572 93.321 345.712 94.2734 343.233 94.2734ZM342.919 81.0117C341.898 81.0117 341.041 81.3854 340.348 82.1328C339.656 82.8711 339.227 83.9102 339.063 85.25H346.473V85.0586C346.401 83.7734 346.054 82.7799 345.434 82.0781C344.815 81.3672 343.976 81.0117 342.919 81.0117ZM365.638 81.4766C365.255 81.4128 364.84 81.3809 364.394 81.3809C362.735 81.3809 361.609 82.0872 361.017 83.5V94H358.487V79.207H360.948L360.989 80.916C361.819 79.5944 362.995 78.9336 364.517 78.9336C365.009 78.9336 365.383 78.9974 365.638 79.125V81.4766ZM366.832 86.4668C366.832 85.0176 367.115 83.7142 367.68 82.5566C368.254 81.3991 369.047 80.5059 370.059 79.877C371.08 79.248 372.242 78.9336 373.545 78.9336C375.56 78.9336 377.187 79.6309 378.426 81.0254C379.675 82.4199 380.299 84.2747 380.299 86.5898V86.7676C380.299 88.2077 380.021 89.502 379.465 90.6504C378.918 91.7897 378.13 92.6784 377.1 93.3164C376.079 93.9544 374.903 94.2734 373.573 94.2734C371.567 94.2734 369.941 93.5762 368.692 92.1816C367.452 90.7871 366.832 88.9414 366.832 86.6445V86.4668ZM369.375 86.7676C369.375 88.4082 369.754 89.7253 370.51 90.7188C371.276 91.7122 372.297 92.209 373.573 92.209C374.858 92.209 375.879 91.7077 376.635 90.7051C377.392 89.6934 377.77 88.2806 377.77 86.4668C377.77 84.8444 377.383 83.5319 376.608 82.5293C375.842 81.5176 374.821 81.0117 373.545 81.0117C372.297 81.0117 371.289 81.5085 370.524 82.502C369.758 83.4954 369.375 84.9173 369.375 86.7676ZM392.404 94C392.258 93.7083 392.14 93.1888 392.048 92.4414C390.873 93.6628 389.469 94.2734 387.837 94.2734C386.379 94.2734 385.181 93.8633 384.242 93.043C383.312 92.2135 382.847 91.1654 382.847 89.8984C382.847 88.3581 383.431 87.1641 384.597 86.3164C385.773 85.4596 387.423 85.0312 389.546 85.0312H392.007V83.8691C392.007 82.985 391.743 82.2832 391.214 81.7637C390.686 81.235 389.907 80.9707 388.877 80.9707C387.974 80.9707 387.218 81.1986 386.607 81.6543C385.996 82.11 385.691 82.6615 385.691 83.3086H383.148C383.148 82.5703 383.408 81.8594 383.927 81.1758C384.456 80.4831 385.167 79.9362 386.06 79.5352C386.962 79.1341 387.951 78.9336 389.027 78.9336C390.731 78.9336 392.067 79.362 393.033 80.2188C393.999 81.0664 394.5 82.2376 394.537 83.7324V90.541C394.537 91.8991 394.71 92.9792 395.056 93.7812V94H392.404ZM388.207 92.0723C389 92.0723 389.752 91.8672 390.462 91.457C391.173 91.0469 391.688 90.5137 392.007 89.8574V86.8223H390.025C386.926 86.8223 385.377 87.7292 385.377 89.543C385.377 90.3359 385.641 90.9557 386.17 91.4023C386.698 91.849 387.377 92.0723 388.207 92.0723ZM397.686 86.4805C397.686 84.2109 398.224 82.388 399.3 81.0117C400.375 79.6263 401.783 78.9336 403.524 78.9336C405.256 78.9336 406.628 79.526 407.639 80.7109V73H410.169V94H407.845L407.721 92.4141C406.71 93.6536 405.302 94.2734 403.497 94.2734C401.783 94.2734 400.384 93.5716 399.3 92.168C398.224 90.7643 397.686 88.9323 397.686 86.6719V86.4805ZM400.216 86.7676C400.216 88.4447 400.562 89.7572 401.255 90.7051C401.947 91.653 402.904 92.127 404.126 92.127C405.73 92.127 406.901 91.4069 407.639 89.9668V83.1719C406.883 81.7773 405.721 81.0801 404.153 81.0801C402.914 81.0801 401.947 81.5586 401.255 82.5156C400.562 83.4727 400.216 84.89 400.216 86.7676ZM416.285 79.207L416.354 80.8477C417.438 79.5716 418.901 78.9336 420.742 78.9336C422.811 78.9336 424.219 79.7266 424.967 81.3125C425.459 80.6016 426.097 80.0273 426.881 79.5898C427.674 79.1523 428.608 78.9336 429.684 78.9336C432.928 78.9336 434.578 80.6517 434.633 84.0879V94H432.104V84.2383C432.104 83.181 431.862 82.3926 431.379 81.873C430.896 81.3444 430.085 81.0801 428.945 81.0801C428.007 81.0801 427.227 81.3626 426.607 81.9277C425.988 82.4837 425.628 83.2357 425.527 84.1836V94H422.984V84.3066C422.984 82.1556 421.932 81.0801 419.826 81.0801C418.167 81.0801 417.033 81.7865 416.422 83.1992V94H413.893V79.207H416.285ZM447.394 94C447.248 93.7083 447.129 93.1888 447.038 92.4414C445.862 93.6628 444.459 94.2734 442.827 94.2734C441.369 94.2734 440.17 93.8633 439.232 93.043C438.302 92.2135 437.837 91.1654 437.837 89.8984C437.837 88.3581 438.42 87.1641 439.587 86.3164C440.763 85.4596 442.413 85.0312 444.536 85.0312H446.997V83.8691C446.997 82.985 446.733 82.2832 446.204 81.7637C445.676 81.235 444.896 80.9707 443.866 80.9707C442.964 80.9707 442.208 81.1986 441.597 81.6543C440.986 82.11 440.681 82.6615 440.681 83.3086H438.138C438.138 82.5703 438.398 81.8594 438.917 81.1758C439.446 80.4831 440.157 79.9362 441.05 79.5352C441.952 79.1341 442.941 78.9336 444.017 78.9336C445.721 78.9336 447.056 79.362 448.023 80.2188C448.989 81.0664 449.49 82.2376 449.527 83.7324V90.541C449.527 91.8991 449.7 92.9792 450.046 93.7812V94H447.394ZM443.196 92.0723C443.989 92.0723 444.741 91.8672 445.452 91.457C446.163 91.0469 446.678 90.5137 446.997 89.8574V86.8223H445.015C441.916 86.8223 440.366 87.7292 440.366 89.543C440.366 90.3359 440.631 90.9557 441.159 91.4023C441.688 91.849 442.367 92.0723 443.196 92.0723ZM465.788 86.7676C465.788 89.0189 465.273 90.8327 464.243 92.209C463.213 93.5853 461.818 94.2734 460.059 94.2734C458.263 94.2734 456.851 93.7038 455.821 92.5645V99.6875H453.291V79.207H455.602L455.725 80.8477C456.755 79.5716 458.186 78.9336 460.018 78.9336C461.795 78.9336 463.199 79.6035 464.229 80.9434C465.268 82.2832 465.788 84.1471 465.788 86.5352V86.7676ZM463.258 86.4805C463.258 84.8125 462.903 83.4954 462.192 82.5293C461.481 81.5632 460.506 81.0801 459.266 81.0801C457.735 81.0801 456.586 81.7591 455.821 83.1172V90.1855C456.577 91.5345 457.735 92.209 459.293 92.209C460.506 92.209 461.467 91.7305 462.178 90.7734C462.898 89.8073 463.258 88.3763 463.258 86.4805ZM477.427 90.0762C477.427 89.3926 477.168 88.8639 476.648 88.4902C476.138 88.1074 475.24 87.7793 473.955 87.5059C472.679 87.2324 471.662 86.9043 470.906 86.5215C470.158 86.1387 469.602 85.6829 469.238 85.1543C468.882 84.6257 468.705 83.9967 468.705 83.2676C468.705 82.0553 469.215 81.0299 470.236 80.1914C471.266 79.3529 472.578 78.9336 474.173 78.9336C475.851 78.9336 477.209 79.3665 478.248 80.2324C479.296 81.0983 479.82 82.2057 479.82 83.5547H477.277C477.277 82.862 476.981 82.265 476.388 81.7637C475.805 81.2624 475.067 81.0117 474.173 81.0117C473.253 81.0117 472.533 81.2122 472.013 81.6133C471.494 82.0143 471.234 82.5384 471.234 83.1855C471.234 83.7962 471.476 84.2565 471.959 84.5664C472.442 84.8763 473.312 85.1725 474.57 85.4551C475.837 85.7376 476.862 86.0749 477.646 86.4668C478.43 86.8587 479.009 87.3327 479.382 87.8887C479.765 88.4355 479.957 89.1055 479.957 89.8984C479.957 91.2201 479.428 92.2819 478.371 93.084C477.313 93.877 475.942 94.2734 474.255 94.2734C473.071 94.2734 472.022 94.0638 471.111 93.6445C470.199 93.2253 469.484 92.6419 468.964 91.8945C468.454 91.138 468.199 90.3223 468.199 89.4473H470.728C470.774 90.2949 471.111 90.9694 471.74 91.4707C472.378 91.9629 473.216 92.209 474.255 92.209C475.212 92.209 475.978 92.0176 476.552 91.6348C477.136 91.2428 477.427 90.7233 477.427 90.0762ZM493.229 75.625V79.207H495.99V81.1621H493.229V90.3359C493.229 90.9284 493.352 91.375 493.598 91.6758C493.844 91.9674 494.263 92.1133 494.855 92.1133C495.147 92.1133 495.548 92.0586 496.059 91.9492V94C495.393 94.1823 494.746 94.2734 494.117 94.2734C492.987 94.2734 492.135 93.9316 491.561 93.248C490.986 92.5645 490.699 91.5938 490.699 90.3359V81.1621H488.006V79.207H490.699V75.625H493.229ZM497.814 86.4668C497.814 85.0176 498.096 83.7142 498.661 82.5566C499.236 81.3991 500.029 80.5059 501.04 79.877C502.061 79.248 503.223 78.9336 504.527 78.9336C506.541 78.9336 508.168 79.6309 509.407 81.0254C510.656 82.4199 511.28 84.2747 511.28 86.5898V86.7676C511.28 88.2077 511.002 89.502 510.446 90.6504C509.9 91.7897 509.111 92.6784 508.081 93.3164C507.06 93.9544 505.885 94.2734 504.554 94.2734C502.549 94.2734 500.922 93.5762 499.673 92.1816C498.433 90.7871 497.814 88.9414 497.814 86.6445V86.4668ZM500.357 86.7676C500.357 88.4082 500.735 89.7253 501.491 90.7188C502.257 91.7122 503.278 92.209 504.554 92.209C505.839 92.209 506.86 91.7077 507.616 90.7051C508.373 89.6934 508.751 88.2806 508.751 86.4668C508.751 84.8444 508.364 83.5319 507.589 82.5293C506.823 81.5176 505.803 81.0117 504.527 81.0117C503.278 81.0117 502.271 81.5085 501.505 82.502C500.739 83.4954 500.357 84.9173 500.357 86.7676ZM523.746 94H521.216V79.207H523.746V94ZM521.011 75.2832C521.011 74.873 521.134 74.5267 521.38 74.2441C521.636 73.9616 522.009 73.8203 522.502 73.8203C522.994 73.8203 523.367 73.9616 523.623 74.2441C523.878 74.5267 524.005 74.873 524.005 75.2832C524.005 75.6934 523.878 76.0352 523.623 76.3086C523.367 76.582 522.994 76.7188 522.502 76.7188C522.009 76.7188 521.636 76.582 521.38 76.3086C521.134 76.0352 521.011 75.6934 521.011 75.2832ZM529.999 79.207L530.081 81.0664C531.211 79.6445 532.688 78.9336 534.511 78.9336C537.637 78.9336 539.214 80.6973 539.241 84.2246V94H536.712V84.2109C536.703 83.1445 536.457 82.3561 535.973 81.8457C535.499 81.3353 534.757 81.0801 533.745 81.0801C532.925 81.0801 532.205 81.2988 531.585 81.7363C530.965 82.1738 530.482 82.748 530.136 83.459V94H527.606V79.207H529.999ZM548.789 92.209C549.691 92.209 550.48 91.9355 551.154 91.3887C551.829 90.8418 552.202 90.1582 552.275 89.3379H554.668C554.622 90.1855 554.331 90.9922 553.793 91.7578C553.255 92.5234 552.535 93.1341 551.633 93.5898C550.74 94.0456 549.792 94.2734 548.789 94.2734C546.775 94.2734 545.171 93.6035 543.977 92.2637C542.792 90.9147 542.199 89.0736 542.199 86.7402V86.3164C542.199 84.8763 542.464 83.5957 542.992 82.4746C543.521 81.3535 544.277 80.4831 545.262 79.8633C546.255 79.2435 547.426 78.9336 548.775 78.9336C550.434 78.9336 551.811 79.4303 552.904 80.4238C554.007 81.4173 554.595 82.707 554.668 84.293H552.275C552.202 83.3359 551.838 82.5521 551.182 81.9414C550.535 81.3216 549.732 81.0117 548.775 81.0117C547.49 81.0117 546.492 81.4766 545.781 82.4062C545.079 83.3268 544.729 84.6621 544.729 86.4121V86.8906C544.729 88.5951 545.079 89.9076 545.781 90.8281C546.483 91.7487 547.486 92.209 548.789 92.209ZM564.462 81.4766C564.079 81.4128 563.665 81.3809 563.218 81.3809C561.559 81.3809 560.433 82.0872 559.841 83.5V94H557.312V79.207H559.773L559.814 80.916C560.643 79.5944 561.819 78.9336 563.341 78.9336C563.833 78.9336 564.207 78.9974 564.462 79.125V81.4766ZM572.465 94.2734C570.46 94.2734 568.829 93.6172 567.571 92.3047C566.313 90.9831 565.684 89.2194 565.684 87.0137V86.5488C565.684 85.0814 565.962 83.7734 566.518 82.625C567.083 81.4674 567.867 80.5651 568.87 79.918C569.881 79.2617 570.975 78.9336 572.151 78.9336C574.074 78.9336 575.569 79.5671 576.635 80.834C577.702 82.1009 578.235 83.9147 578.235 86.2754V87.3281H568.213C568.25 88.7865 568.674 89.9668 569.485 90.8691C570.305 91.7624 571.344 92.209 572.602 92.209C573.495 92.209 574.252 92.0267 574.871 91.6621C575.491 91.2975 576.034 90.8145 576.498 90.2129L578.043 91.416C576.804 93.321 574.944 94.2734 572.465 94.2734ZM572.151 81.0117C571.13 81.0117 570.273 81.3854 569.58 82.1328C568.888 82.8711 568.459 83.9102 568.295 85.25H575.705V85.0586C575.633 83.7734 575.286 82.7799 574.666 82.0781C574.047 81.3672 573.208 81.0117 572.151 81.0117ZM590.107 94C589.961 93.7083 589.843 93.1888 589.752 92.4414C588.576 93.6628 587.172 94.2734 585.541 94.2734C584.082 94.2734 582.884 93.8633 581.945 93.043C581.015 92.2135 580.55 91.1654 580.55 89.8984C580.55 88.3581 581.134 87.1641 582.3 86.3164C583.476 85.4596 585.126 85.0312 587.25 85.0312H589.711V83.8691C589.711 82.985 589.446 82.2832 588.918 81.7637C588.389 81.235 587.61 80.9707 586.58 80.9707C585.677 80.9707 584.921 81.1986 584.31 81.6543C583.699 82.11 583.394 82.6615 583.394 83.3086H580.851C580.851 82.5703 581.111 81.8594 581.63 81.1758C582.159 80.4831 582.87 79.9362 583.763 79.5352C584.666 79.1341 585.655 78.9336 586.73 78.9336C588.434 78.9336 589.77 79.362 590.736 80.2188C591.702 81.0664 592.203 82.2376 592.24 83.7324V90.541C592.24 91.8991 592.413 92.9792 592.759 93.7812V94H590.107ZM585.91 92.0723C586.703 92.0723 587.455 91.8672 588.166 91.457C588.877 91.0469 589.392 90.5137 589.711 89.8574V86.8223H587.728C584.629 86.8223 583.08 87.7292 583.08 89.543C583.08 90.3359 583.344 90.9557 583.873 91.4023C584.401 91.849 585.08 92.0723 585.91 92.0723ZM604.618 90.0762C604.618 89.3926 604.358 88.8639 603.839 88.4902C603.328 88.1074 602.43 87.7793 601.145 87.5059C599.869 87.2324 598.853 86.9043 598.096 86.5215C597.349 86.1387 596.793 85.6829 596.429 85.1543C596.073 84.6257 595.895 83.9967 595.895 83.2676C595.895 82.0553 596.406 81.0299 597.427 80.1914C598.457 79.3529 599.769 78.9336 601.364 78.9336C603.041 78.9336 604.399 79.3665 605.438 80.2324C606.486 81.0983 607.011 82.2057 607.011 83.5547H604.468C604.468 82.862 604.171 82.265 603.579 81.7637C602.996 81.2624 602.257 81.0117 601.364 81.0117C600.444 81.0117 599.723 81.2122 599.204 81.6133C598.684 82.0143 598.425 82.5384 598.425 83.1855C598.425 83.7962 598.666 84.2565 599.149 84.5664C599.632 84.8763 600.503 85.1725 601.761 85.4551C603.027 85.7376 604.053 86.0749 604.837 86.4668C605.621 86.8587 606.199 87.3327 606.573 87.8887C606.956 88.4355 607.147 89.1055 607.147 89.8984C607.147 91.2201 606.619 92.2819 605.561 93.084C604.504 93.877 603.132 94.2734 601.446 94.2734C600.261 94.2734 599.213 94.0638 598.302 93.6445C597.39 93.2253 596.675 92.6419 596.155 91.8945C595.645 91.138 595.389 90.3223 595.389 89.4473H597.919C597.964 90.2949 598.302 90.9694 598.93 91.4707C599.569 91.9629 600.407 92.209 601.446 92.209C602.403 92.209 603.169 92.0176 603.743 91.6348C604.326 91.2428 604.618 90.7233 604.618 90.0762ZM616.381 94.2734C614.376 94.2734 612.744 93.6172 611.486 92.3047C610.229 90.9831 609.6 89.2194 609.6 87.0137V86.5488C609.6 85.0814 609.878 83.7734 610.434 82.625C610.999 81.4674 611.783 80.5651 612.785 79.918C613.797 79.2617 614.891 78.9336 616.066 78.9336C617.99 78.9336 619.484 79.5671 620.551 80.834C621.617 82.1009 622.15 83.9147 622.15 86.2754V87.3281H612.129C612.165 88.7865 612.589 89.9668 613.4 90.8691C614.221 91.7624 615.26 92.209 616.518 92.209C617.411 92.209 618.167 92.0267 618.787 91.6621C619.407 91.2975 619.949 90.8145 620.414 90.2129L621.959 91.416C620.719 93.321 618.86 94.2734 616.381 94.2734ZM616.066 81.0117C615.046 81.0117 614.189 81.3854 613.496 82.1328C612.803 82.8711 612.375 83.9102 612.211 85.25H619.621V85.0586C619.548 83.7734 619.202 82.7799 618.582 82.0781C617.962 81.3672 617.124 81.0117 616.066 81.0117ZM636.475 90.2949L639.92 79.207H642.627L636.68 96.2832C635.759 98.7441 634.297 99.9746 632.291 99.9746L631.813 99.9336L630.87 99.7559V97.7051L631.553 97.7598C632.41 97.7598 633.075 97.5866 633.549 97.2402C634.032 96.8939 634.429 96.2604 634.739 95.3398L635.299 93.8359L630.022 79.207H632.784L636.475 90.2949ZM643.808 86.4668C643.808 85.0176 644.091 83.7142 644.656 82.5566C645.23 81.3991 646.023 80.5059 647.035 79.877C648.056 79.248 649.218 78.9336 650.521 78.9336C652.535 78.9336 654.162 79.6309 655.402 81.0254C656.651 82.4199 657.275 84.2747 657.275 86.5898V86.7676C657.275 88.2077 656.997 89.502 656.441 90.6504C655.894 91.7897 655.106 92.6784 654.076 93.3164C653.055 93.9544 651.879 94.2734 650.548 94.2734C648.543 94.2734 646.916 93.5762 645.668 92.1816C644.428 90.7871 643.808 88.9414 643.808 86.6445V86.4668ZM646.351 86.7676C646.351 88.4082 646.729 89.7253 647.486 90.7188C648.252 91.7122 649.272 92.209 650.548 92.209C651.834 92.209 652.854 91.7077 653.611 90.7051C654.367 89.6934 654.746 88.2806 654.746 86.4668C654.746 84.8444 654.358 83.5319 653.584 82.5293C652.818 81.5176 651.797 81.0117 650.521 81.0117C649.272 81.0117 648.265 81.5085 647.5 82.502C646.734 83.4954 646.351 84.9173 646.351 86.7676ZM669.38 92.5371C668.395 93.6947 666.951 94.2734 665.046 94.2734C663.469 94.2734 662.266 93.8177 661.436 92.9062C660.616 91.9857 660.201 90.6276 660.192 88.832V79.207H662.721V88.7637C662.721 91.0059 663.633 92.127 665.456 92.127C667.388 92.127 668.673 91.4069 669.311 89.9668V79.207H671.841V94H669.434L669.38 92.5371ZM682.646 81.4766C682.264 81.4128 681.849 81.3809 681.402 81.3809C679.743 81.3809 678.618 82.0872 678.025 83.5V94H675.496V79.207H677.957L677.998 80.916C678.827 79.5944 680.003 78.9336 681.525 78.9336C682.018 78.9336 682.391 78.9974 682.646 79.125V81.4766ZM694.141 79.207V95.709C694.141 98.5527 692.851 99.9746 690.272 99.9746C689.716 99.9746 689.201 99.8926 688.727 99.7285V97.7051C689.019 97.778 689.401 97.8145 689.875 97.8145C690.44 97.8145 690.869 97.6595 691.161 97.3496C691.461 97.0488 691.612 96.5202 691.612 95.7637V79.207H694.141ZM691.352 75.2832C691.352 74.8822 691.475 74.5404 691.721 74.2578C691.976 73.9661 692.345 73.8203 692.828 73.8203C693.321 73.8203 693.694 73.9616 693.95 74.2441C694.205 74.5267 694.332 74.873 694.332 75.2832C694.332 75.6934 694.205 76.0352 693.95 76.3086C693.694 76.582 693.321 76.7188 692.828 76.7188C692.336 76.7188 691.967 76.582 691.721 76.3086C691.475 76.0352 691.352 75.6934 691.352 75.2832ZM700.777 94H698.248V79.207H700.777V94ZM698.043 75.2832C698.043 74.873 698.166 74.5267 698.412 74.2441C698.667 73.9616 699.041 73.8203 699.533 73.8203C700.025 73.8203 700.399 73.9616 700.654 74.2441C700.909 74.5267 701.037 74.873 701.037 75.2832C701.037 75.6934 700.909 76.0352 700.654 76.3086C700.399 76.582 700.025 76.7188 699.533 76.7188C699.041 76.7188 698.667 76.582 698.412 76.3086C698.166 76.0352 698.043 75.6934 698.043 75.2832ZM704.036 86.4805C704.036 84.1745 704.569 82.3424 705.636 80.9844C706.702 79.6172 708.115 78.9336 709.874 78.9336C711.679 78.9336 713.087 79.5716 714.098 80.8477L714.221 79.207H716.532V93.6445C716.532 95.5586 715.962 97.0671 714.823 98.1699C713.693 99.2728 712.171 99.8242 710.257 99.8242C709.19 99.8242 708.147 99.5964 707.126 99.1406C706.105 98.6849 705.326 98.0605 704.788 97.2676L706.1 95.75C707.185 97.0898 708.511 97.7598 710.079 97.7598C711.309 97.7598 712.266 97.4134 712.95 96.7207C713.643 96.028 713.989 95.0527 713.989 93.7949V92.5234C712.977 93.6901 711.596 94.2734 709.846 94.2734C708.115 94.2734 706.711 93.5762 705.636 92.1816C704.569 90.7871 704.036 88.8867 704.036 86.4805ZM706.579 86.7676C706.579 88.4355 706.921 89.748 707.604 90.7051C708.288 91.653 709.245 92.127 710.475 92.127C712.07 92.127 713.242 91.4023 713.989 89.9531V83.1992C713.214 81.7865 712.052 81.0801 710.503 81.0801C709.272 81.0801 708.311 81.5586 707.618 82.5156C706.925 83.4727 706.579 84.89 706.579 86.7676ZM728.773 90.0762C728.773 89.3926 728.514 88.8639 727.994 88.4902C727.484 88.1074 726.586 87.7793 725.301 87.5059C724.025 87.2324 723.008 86.9043 722.252 86.5215C721.505 86.1387 720.949 85.6829 720.584 85.1543C720.229 84.6257 720.051 83.9967 720.051 83.2676C720.051 82.0553 720.561 81.0299 721.582 80.1914C722.612 79.3529 723.924 78.9336 725.52 78.9336C727.197 78.9336 728.555 79.3665 729.594 80.2324C730.642 81.0983 731.166 82.2057 731.166 83.5547H728.623C728.623 82.862 728.327 82.265 727.734 81.7637C727.151 81.2624 726.413 81.0117 725.52 81.0117C724.599 81.0117 723.879 81.2122 723.359 81.6133C722.84 82.0143 722.58 82.5384 722.58 83.1855C722.58 83.7962 722.822 84.2565 723.305 84.5664C723.788 84.8763 724.658 85.1725 725.916 85.4551C727.183 85.7376 728.208 86.0749 728.992 86.4668C729.776 86.8587 730.355 87.3327 730.729 87.8887C731.111 88.4355 731.303 89.1055 731.303 89.8984C731.303 91.2201 730.774 92.2819 729.717 93.084C728.66 93.877 727.288 94.2734 725.602 94.2734C724.417 94.2734 723.368 94.0638 722.457 93.6445C721.546 93.2253 720.83 92.6419 720.311 91.8945C719.8 91.138 719.545 90.3223 719.545 89.4473H722.074C722.12 90.2949 722.457 90.9694 723.086 91.4707C723.724 91.9629 724.562 92.209 725.602 92.209C726.559 92.209 727.324 92.0176 727.898 91.6348C728.482 91.2428 728.773 90.7233 728.773 90.0762ZM743.53 94C743.385 93.7083 743.266 93.1888 743.175 92.4414C741.999 93.6628 740.596 94.2734 738.964 94.2734C737.506 94.2734 736.307 93.8633 735.368 93.043C734.439 92.2135 733.974 91.1654 733.974 89.8984C733.974 88.3581 734.557 87.1641 735.724 86.3164C736.9 85.4596 738.549 85.0312 740.673 85.0312H743.134V83.8691C743.134 82.985 742.87 82.2832 742.341 81.7637C741.812 81.235 741.033 80.9707 740.003 80.9707C739.101 80.9707 738.344 81.1986 737.734 81.6543C737.123 82.11 736.818 82.6615 736.818 83.3086H734.275C734.275 82.5703 734.534 81.8594 735.054 81.1758C735.583 80.4831 736.293 79.9362 737.187 79.5352C738.089 79.1341 739.078 78.9336 740.154 78.9336C741.858 78.9336 743.193 79.362 744.159 80.2188C745.126 81.0664 745.627 82.2376 745.663 83.7324V90.541C745.663 91.8991 745.836 92.9792 746.183 93.7812V94H743.53ZM739.333 92.0723C740.126 92.0723 740.878 91.8672 741.589 91.457C742.3 91.0469 742.815 90.5137 743.134 89.8574V86.8223H741.152C738.053 86.8223 736.503 87.7292 736.503 89.543C736.503 90.3359 736.767 90.9557 737.296 91.4023C737.825 91.849 738.504 92.0723 739.333 92.0723ZM762.526 90.5137L765.37 79.207H767.899L763.592 94H761.541L757.946 82.7891L754.446 94H752.395L748.102 79.207H750.618L753.53 90.2812L756.975 79.207H759.012L762.526 90.5137ZM785.641 90.0762C785.641 89.3926 785.382 88.8639 784.862 88.4902C784.352 88.1074 783.454 87.7793 782.169 87.5059C780.893 87.2324 779.876 86.9043 779.12 86.5215C778.373 86.1387 777.817 85.6829 777.452 85.1543C777.096 84.6257 776.919 83.9967 776.919 83.2676C776.919 82.0553 777.429 81.0299 778.45 80.1914C779.48 79.3529 780.792 78.9336 782.388 78.9336C784.065 78.9336 785.423 79.3665 786.462 80.2324C787.51 81.0983 788.034 82.2057 788.034 83.5547H785.491C785.491 82.862 785.195 82.265 784.602 81.7637C784.019 81.2624 783.281 81.0117 782.388 81.0117C781.467 81.0117 780.747 81.2122 780.227 81.6133C779.708 82.0143 779.448 82.5384 779.448 83.1855C779.448 83.7962 779.69 84.2565 780.173 84.5664C780.656 84.8763 781.526 85.1725 782.784 85.4551C784.051 85.7376 785.076 86.0749 785.86 86.4668C786.644 86.8587 787.223 87.3327 787.596 87.8887C787.979 88.4355 788.171 89.1055 788.171 89.8984C788.171 91.2201 787.642 92.2819 786.585 93.084C785.527 93.877 784.156 94.2734 782.47 94.2734C781.285 94.2734 780.236 94.0638 779.325 93.6445C778.414 93.2253 777.698 92.6419 777.179 91.8945C776.668 91.138 776.413 90.3223 776.413 89.4473H778.942C778.988 90.2949 779.325 90.9694 779.954 91.4707C780.592 91.9629 781.43 92.209 782.47 92.209C783.427 92.209 784.192 92.0176 784.766 91.6348C785.35 91.2428 785.641 90.7233 785.641 90.0762ZM797.199 92.209C798.102 92.209 798.89 91.9355 799.564 91.3887C800.239 90.8418 800.613 90.1582 800.686 89.3379H803.078C803.033 90.1855 802.741 90.9922 802.203 91.7578C801.665 92.5234 800.945 93.1341 800.043 93.5898C799.15 94.0456 798.202 94.2734 797.199 94.2734C795.185 94.2734 793.581 93.6035 792.387 92.2637C791.202 90.9147 790.609 89.0736 790.609 86.7402V86.3164C790.609 84.8763 790.874 83.5957 791.402 82.4746C791.931 81.3535 792.688 80.4831 793.672 79.8633C794.665 79.2435 795.837 78.9336 797.186 78.9336C798.844 78.9336 800.221 79.4303 801.314 80.4238C802.417 81.4173 803.005 82.707 803.078 84.293H800.686C800.613 83.3359 800.248 82.5521 799.592 81.9414C798.945 81.3216 798.143 81.0117 797.186 81.0117C795.9 81.0117 794.902 81.4766 794.191 82.4062C793.49 83.3268 793.139 84.6621 793.139 86.4121V86.8906C793.139 88.5951 793.49 89.9076 794.191 90.8281C794.893 91.7487 795.896 92.209 797.199 92.209ZM805.052 86.4668C805.052 85.0176 805.334 83.7142 805.9 82.5566C806.474 81.3991 807.267 80.5059 808.279 79.877C809.299 79.248 810.461 78.9336 811.765 78.9336C813.779 78.9336 815.406 79.6309 816.646 81.0254C817.894 82.4199 818.519 84.2747 818.519 86.5898V86.7676C818.519 88.2077 818.241 89.502 817.685 90.6504C817.138 91.7897 816.349 92.6784 815.32 93.3164C814.299 93.9544 813.123 94.2734 811.792 94.2734C809.787 94.2734 808.16 93.5762 806.911 92.1816C805.672 90.7871 805.052 88.9414 805.052 86.6445V86.4668ZM807.595 86.7676C807.595 88.4082 807.973 89.7253 808.73 90.7188C809.495 91.7122 810.516 92.209 811.792 92.209C813.077 92.209 814.098 91.7077 814.855 90.7051C815.611 89.6934 815.989 88.2806 815.989 86.4668C815.989 84.8444 815.602 83.5319 814.827 82.5293C814.062 81.5176 813.041 81.0117 811.765 81.0117C810.516 81.0117 809.509 81.5085 808.743 82.502C807.978 83.4954 807.595 84.9173 807.595 86.7676ZM828.641 81.4766C828.258 81.4128 827.843 81.3809 827.397 81.3809C825.738 81.3809 824.612 82.0872 824.02 83.5V94H821.491V79.207H823.952L823.993 80.916C824.822 79.5944 825.998 78.9336 827.52 78.9336C828.012 78.9336 828.386 78.9974 828.641 79.125V81.4766ZM836.644 94.2734C834.639 94.2734 833.007 93.6172 831.75 92.3047C830.492 90.9831 829.863 89.2194 829.863 87.0137V86.5488C829.863 85.0814 830.141 83.7734 830.697 82.625C831.262 81.4674 832.046 80.5651 833.048 79.918C834.06 79.2617 835.154 78.9336 836.33 78.9336C838.253 78.9336 839.748 79.5671 840.814 80.834C841.88 82.1009 842.414 83.9147 842.414 86.2754V87.3281H832.392C832.429 88.7865 832.852 89.9668 833.664 90.8691C834.484 91.7624 835.523 92.209 836.781 92.209C837.674 92.209 838.431 92.0267 839.05 91.6621C839.67 91.2975 840.213 90.8145 840.677 90.2129L842.222 91.416C840.983 93.321 839.123 94.2734 836.644 94.2734ZM836.33 81.0117C835.309 81.0117 834.452 81.3854 833.759 82.1328C833.067 82.8711 832.638 83.9102 832.474 85.25H839.884V85.0586C839.811 83.7734 839.465 82.7799 838.845 82.0781C838.226 81.3672 837.387 81.0117 836.33 81.0117ZM845.208 92.6738C845.208 92.2363 845.335 91.8717 845.591 91.5801C845.855 91.2884 846.247 91.1426 846.766 91.1426C847.286 91.1426 847.678 91.2884 847.942 91.5801C848.216 91.8717 848.352 92.2363 848.352 92.6738C848.352 93.0931 848.216 93.444 847.942 93.7266C847.678 94.0091 847.286 94.1504 846.766 94.1504C846.247 94.1504 845.855 94.0091 845.591 93.7266C845.335 93.444 845.208 93.0931 845.208 92.6738Z" fill="white"/>
<path d="M64 65C64 68.6097 64 76.0062 64 76.715C64 77.601 64.9674 77.5518 65.4765 77.3549C69.0405 76.1244 71.8408 77.0104 73.6228 78.6839C75.8764 80.8005 77.5941 85.5751 73.6228 89.3161C72.1462 90.7069 69.1831 92.0627 65.4765 90.842C64.9843 90.7435 64 90.7731 64 91.6788C64 92.5845 64 99.6036 64 103" stroke="white" stroke-width="2" stroke-linecap="round"/>
<g filter="url(#filter0_d)">
<rect x="169" y="151" width="921" height="86" rx="15" fill="white"/>
</g>
<path d="M231.175 201.99L234.003 199.163L246.022 211.182L243.194 214.009L231.175 201.99Z" fill="#888888"/>
<path d="M222 206C230.837 206 238 198.837 238 190C238 181.163 230.837 174 222 174C213.163 174 206 181.163 206 190C206 198.837 213.163 206 222 206Z" fill="#888888"/>
<path d="M234.45 205.34L237.277 202.512L245.973 211.208L243.145 214.036L234.45 205.34Z" fill="#888888"/>
<path d="M222 203C229.18 203 235 197.18 235 190C235 182.82 229.18 177 222 177C214.82 177 209 182.82 209 190C209 197.18 214.82 203 222 203Z" fill="white"/>
<path d="M228.9 184.2C227.2 182.2 224.7 181 222 181C219.3 181 216.8 182.2 215.1 184.2C214.7 184.6 214.8 185.3 215.2 185.6C215.6 186 216.3 185.9 216.6 185.5C218 183.9 219.9 183 222 183C224.1 183 226 183.9 227.4 185.5C227.6 185.7 227.9 185.9 228.2 185.9C228.4 185.9 228.7 185.8 228.8 185.7C229.2 185.3 229.2 184.6 228.9 184.2Z" fill="#888888"/>
<path d="M295.176 194.127C292.924 193.48 291.284 192.687 290.254 191.748C289.233 190.8 288.723 189.633 288.723 188.248C288.723 186.68 289.347 185.386 290.596 184.365C291.854 183.335 293.485 182.82 295.49 182.82C296.857 182.82 298.074 183.085 299.141 183.613C300.216 184.142 301.046 184.871 301.629 185.801C302.221 186.73 302.518 187.747 302.518 188.85H299.879C299.879 187.646 299.496 186.703 298.73 186.02C297.965 185.327 296.885 184.98 295.49 184.98C294.196 184.98 293.184 185.268 292.455 185.842C291.735 186.407 291.375 187.195 291.375 188.207C291.375 189.018 291.717 189.706 292.4 190.271C293.093 190.827 294.264 191.338 295.914 191.803C297.573 192.268 298.867 192.783 299.797 193.348C300.736 193.904 301.428 194.555 301.875 195.303C302.331 196.05 302.559 196.93 302.559 197.941C302.559 199.555 301.93 200.849 300.672 201.824C299.414 202.79 297.732 203.273 295.627 203.273C294.26 203.273 292.984 203.014 291.799 202.494C290.614 201.965 289.698 201.245 289.051 200.334C288.413 199.423 288.094 198.388 288.094 197.23H290.732C290.732 198.434 291.174 199.386 292.059 200.088C292.952 200.781 294.141 201.127 295.627 201.127C297.012 201.127 298.074 200.844 298.812 200.279C299.551 199.714 299.92 198.944 299.92 197.969C299.92 196.993 299.578 196.242 298.895 195.713C298.211 195.175 296.971 194.646 295.176 194.127ZM311.478 203.273C309.473 203.273 307.841 202.617 306.583 201.305C305.325 199.983 304.696 198.219 304.696 196.014V195.549C304.696 194.081 304.974 192.773 305.53 191.625C306.096 190.467 306.879 189.565 307.882 188.918C308.894 188.262 309.987 187.934 311.163 187.934C313.086 187.934 314.581 188.567 315.648 189.834C316.714 191.101 317.247 192.915 317.247 195.275V196.328H307.226C307.262 197.786 307.686 198.967 308.497 199.869C309.318 200.762 310.357 201.209 311.614 201.209C312.508 201.209 313.264 201.027 313.884 200.662C314.504 200.298 315.046 199.814 315.511 199.213L317.056 200.416C315.816 202.321 313.957 203.273 311.478 203.273ZM311.163 190.012C310.142 190.012 309.286 190.385 308.593 191.133C307.9 191.871 307.472 192.91 307.308 194.25H314.718V194.059C314.645 192.773 314.299 191.78 313.679 191.078C313.059 190.367 312.221 190.012 311.163 190.012ZM329.12 203C328.974 202.708 328.855 202.189 328.764 201.441C327.588 202.663 326.185 203.273 324.553 203.273C323.095 203.273 321.896 202.863 320.957 202.043C320.028 201.214 319.563 200.165 319.563 198.898C319.563 197.358 320.146 196.164 321.313 195.316C322.489 194.46 324.138 194.031 326.262 194.031H328.723V192.869C328.723 191.985 328.459 191.283 327.93 190.764C327.401 190.235 326.622 189.971 325.592 189.971C324.69 189.971 323.933 190.199 323.323 190.654C322.712 191.11 322.407 191.661 322.407 192.309H319.864C319.864 191.57 320.123 190.859 320.643 190.176C321.172 189.483 321.883 188.936 322.776 188.535C323.678 188.134 324.667 187.934 325.743 187.934C327.447 187.934 328.782 188.362 329.748 189.219C330.715 190.066 331.216 191.238 331.252 192.732V199.541C331.252 200.899 331.426 201.979 331.772 202.781V203H329.12ZM324.922 201.072C325.715 201.072 326.467 200.867 327.178 200.457C327.889 200.047 328.404 199.514 328.723 198.857V195.822H326.741C323.642 195.822 322.092 196.729 322.092 198.543C322.092 199.336 322.357 199.956 322.885 200.402C323.414 200.849 324.093 201.072 324.922 201.072ZM342.168 190.477C341.785 190.413 341.37 190.381 340.923 190.381C339.265 190.381 338.139 191.087 337.546 192.5V203H335.017V188.207H337.478L337.519 189.916C338.349 188.594 339.524 187.934 341.046 187.934C341.539 187.934 341.912 187.997 342.168 188.125V190.477ZM349.966 201.209C350.868 201.209 351.656 200.936 352.331 200.389C353.005 199.842 353.379 199.158 353.452 198.338H355.845C355.799 199.186 355.507 199.992 354.97 200.758C354.432 201.523 353.712 202.134 352.809 202.59C351.916 203.046 350.968 203.273 349.966 203.273C347.951 203.273 346.347 202.604 345.153 201.264C343.968 199.915 343.376 198.074 343.376 195.74V195.316C343.376 193.876 343.64 192.596 344.169 191.475C344.697 190.354 345.454 189.483 346.438 188.863C347.432 188.243 348.603 187.934 349.952 187.934C351.611 187.934 352.987 188.43 354.081 189.424C355.184 190.417 355.772 191.707 355.845 193.293H353.452C353.379 192.336 353.014 191.552 352.358 190.941C351.711 190.322 350.909 190.012 349.952 190.012C348.667 190.012 347.669 190.477 346.958 191.406C346.256 192.327 345.905 193.662 345.905 195.412V195.891C345.905 197.595 346.256 198.908 346.958 199.828C347.66 200.749 348.662 201.209 349.966 201.209ZM361.018 189.998C362.139 188.622 363.597 187.934 365.393 187.934C368.519 187.934 370.096 189.697 370.123 193.225V203H367.594V193.211C367.585 192.145 367.339 191.356 366.855 190.846C366.382 190.335 365.639 190.08 364.627 190.08C363.807 190.08 363.087 190.299 362.467 190.736C361.847 191.174 361.364 191.748 361.018 192.459V203H358.488V182H361.018V189.998ZM389.588 203C389.442 202.708 389.324 202.189 389.233 201.441C388.057 202.663 386.653 203.273 385.022 203.273C383.564 203.273 382.365 202.863 381.426 202.043C380.496 201.214 380.032 200.165 380.032 198.898C380.032 197.358 380.615 196.164 381.782 195.316C382.957 194.46 384.607 194.031 386.731 194.031H389.192V192.869C389.192 191.985 388.927 191.283 388.399 190.764C387.87 190.235 387.091 189.971 386.061 189.971C385.159 189.971 384.402 190.199 383.791 190.654C383.181 191.11 382.875 191.661 382.875 192.309H380.332C380.332 191.57 380.592 190.859 381.112 190.176C381.64 189.483 382.351 188.936 383.245 188.535C384.147 188.134 385.136 187.934 386.211 187.934C387.916 187.934 389.251 188.362 390.217 189.219C391.183 190.066 391.685 191.238 391.721 192.732V199.541C391.721 200.899 391.894 201.979 392.241 202.781V203H389.588ZM385.391 201.072C386.184 201.072 386.936 200.867 387.647 200.457C388.358 200.047 388.873 199.514 389.192 198.857V195.822H387.209C384.11 195.822 382.561 196.729 382.561 198.543C382.561 199.336 382.825 199.956 383.354 200.402C383.883 200.849 384.562 201.072 385.391 201.072ZM398.234 203H395.705V182H398.234V203ZM404.843 203H402.313V182H404.843V203ZM414.779 195.467C414.779 194.018 415.061 192.714 415.626 191.557C416.2 190.399 416.993 189.506 418.005 188.877C419.026 188.248 420.188 187.934 421.491 187.934C423.506 187.934 425.133 188.631 426.372 190.025C427.621 191.42 428.245 193.275 428.245 195.59V195.768C428.245 197.208 427.967 198.502 427.411 199.65C426.864 200.79 426.076 201.678 425.046 202.316C424.025 202.954 422.849 203.273 421.519 203.273C419.514 203.273 417.887 202.576 416.638 201.182C415.398 199.787 414.779 197.941 414.779 195.645V195.467ZM417.321 195.768C417.321 197.408 417.7 198.725 418.456 199.719C419.222 200.712 420.243 201.209 421.519 201.209C422.804 201.209 423.825 200.708 424.581 199.705C425.338 198.693 425.716 197.281 425.716 195.467C425.716 193.844 425.329 192.532 424.554 191.529C423.788 190.518 422.767 190.012 421.491 190.012C420.243 190.012 419.236 190.508 418.47 191.502C417.704 192.495 417.321 193.917 417.321 195.768ZM432.461 203V190.162H430.123V188.207H432.461V186.689C432.461 185.104 432.885 183.878 433.733 183.012C434.58 182.146 435.779 181.713 437.329 181.713C437.912 181.713 438.491 181.79 439.065 181.945L438.928 183.996C438.5 183.914 438.044 183.873 437.561 183.873C436.741 183.873 436.107 184.115 435.661 184.598C435.214 185.072 434.991 185.755 434.991 186.648V188.207H438.149V190.162H434.991V203H432.461ZM452.337 199.295L455.782 188.207H458.489L452.542 205.283C451.621 207.744 450.158 208.975 448.153 208.975L447.675 208.934L446.731 208.756V206.705L447.415 206.76C448.272 206.76 448.937 206.587 449.411 206.24C449.894 205.894 450.29 205.26 450.6 204.34L451.161 202.836L445.884 188.207H448.645L452.337 199.295ZM459.67 195.467C459.67 194.018 459.952 192.714 460.518 191.557C461.092 190.399 461.885 189.506 462.896 188.877C463.917 188.248 465.079 187.934 466.383 187.934C468.397 187.934 470.024 188.631 471.264 190.025C472.512 191.42 473.137 193.275 473.137 195.59V195.768C473.137 197.208 472.859 198.502 472.303 199.65C471.756 200.79 470.967 201.678 469.938 202.316C468.917 202.954 467.741 203.273 466.41 203.273C464.405 203.273 462.778 202.576 461.529 201.182C460.29 199.787 459.67 197.941 459.67 195.645V195.467ZM462.213 195.768C462.213 197.408 462.591 198.725 463.348 199.719C464.113 200.712 465.134 201.209 466.41 201.209C467.695 201.209 468.716 200.708 469.473 199.705C470.229 198.693 470.607 197.281 470.607 195.467C470.607 193.844 470.22 192.532 469.445 191.529C468.68 190.518 467.659 190.012 466.383 190.012C465.134 190.012 464.127 190.508 463.361 191.502C462.596 192.495 462.213 193.917 462.213 195.768ZM485.241 201.537C484.257 202.695 482.812 203.273 480.907 203.273C479.331 203.273 478.127 202.818 477.298 201.906C476.478 200.986 476.063 199.628 476.054 197.832V188.207H478.583V197.764C478.583 200.006 479.495 201.127 481.318 201.127C483.25 201.127 484.535 200.407 485.173 198.967V188.207H487.702V203H485.296L485.241 201.537ZM498.508 190.477C498.125 190.413 497.711 190.381 497.264 190.381C495.605 190.381 494.48 191.087 493.887 192.5V203H491.358V188.207H493.819L493.86 189.916C494.689 188.594 495.865 187.934 497.387 187.934C497.879 187.934 498.253 187.997 498.508 188.125V190.477ZM514.542 190.477C514.159 190.413 513.744 190.381 513.298 190.381C511.639 190.381 510.513 191.087 509.921 192.5V203H507.391V188.207H509.852L509.893 189.916C510.723 188.594 511.899 187.934 513.421 187.934C513.913 187.934 514.287 187.997 514.542 188.125V190.477ZM515.736 195.467C515.736 194.018 516.019 192.714 516.584 191.557C517.158 190.399 517.951 189.506 518.963 188.877C519.984 188.248 521.146 187.934 522.449 187.934C524.464 187.934 526.09 188.631 527.33 190.025C528.579 191.42 529.203 193.275 529.203 195.59V195.768C529.203 197.208 528.925 198.502 528.369 199.65C527.822 200.79 527.034 201.678 526.004 202.316C524.983 202.954 523.807 203.273 522.477 203.273C520.471 203.273 518.844 202.576 517.596 201.182C516.356 199.787 515.736 197.941 515.736 195.645V195.467ZM518.279 195.768C518.279 197.408 518.658 198.725 519.414 199.719C520.18 200.712 521.201 201.209 522.477 201.209C523.762 201.209 524.783 200.708 525.539 199.705C526.296 198.693 526.674 197.281 526.674 195.467C526.674 193.844 526.286 192.532 525.512 191.529C524.746 190.518 523.725 190.012 522.449 190.012C521.201 190.012 520.193 190.508 519.428 191.502C518.662 192.495 518.279 193.917 518.279 195.768ZM541.308 203C541.162 202.708 541.043 202.189 540.952 201.441C539.777 202.663 538.373 203.273 536.741 203.273C535.283 203.273 534.085 202.863 533.146 202.043C532.216 201.214 531.751 200.165 531.751 198.898C531.751 197.358 532.335 196.164 533.501 195.316C534.677 194.46 536.327 194.031 538.45 194.031H540.911V192.869C540.911 191.985 540.647 191.283 540.118 190.764C539.59 190.235 538.81 189.971 537.78 189.971C536.878 189.971 536.122 190.199 535.511 190.654C534.9 191.11 534.595 191.661 534.595 192.309H532.052C532.052 191.57 532.312 190.859 532.831 190.176C533.36 189.483 534.071 188.936 534.964 188.535C535.866 188.134 536.855 187.934 537.931 187.934C539.635 187.934 540.971 188.362 541.937 189.219C542.903 190.066 543.404 191.238 543.441 192.732V199.541C543.441 200.899 543.614 201.979 543.96 202.781V203H541.308ZM537.111 201.072C537.904 201.072 538.655 200.867 539.366 200.457C540.077 200.047 540.592 199.514 540.911 198.857V195.822H538.929C535.83 195.822 534.28 196.729 534.28 198.543C534.28 199.336 534.545 199.956 535.073 200.402C535.602 200.849 536.281 201.072 537.111 201.072ZM546.59 195.48C546.59 193.211 547.128 191.388 548.204 190.012C549.279 188.626 550.687 187.934 552.428 187.934C554.16 187.934 555.532 188.526 556.543 189.711V182H559.073V203H556.748L556.625 201.414C555.614 202.654 554.205 203.273 552.401 203.273C550.687 203.273 549.288 202.572 548.204 201.168C547.128 199.764 546.59 197.932 546.59 195.672V195.48ZM549.12 195.768C549.12 197.445 549.466 198.757 550.159 199.705C550.851 200.653 551.808 201.127 553.03 201.127C554.634 201.127 555.805 200.407 556.543 198.967V192.172C555.787 190.777 554.625 190.08 553.057 190.08C551.817 190.08 550.851 190.559 550.159 191.516C549.466 192.473 549.12 193.89 549.12 195.768ZM565.189 188.207L565.257 189.848C566.342 188.572 567.805 187.934 569.646 187.934C571.715 187.934 573.123 188.727 573.871 190.312C574.363 189.602 575.001 189.027 575.785 188.59C576.578 188.152 577.512 187.934 578.587 187.934C581.832 187.934 583.482 189.652 583.537 193.088V203H581.007V193.238C581.007 192.181 580.766 191.393 580.283 190.873C579.8 190.344 578.989 190.08 577.849 190.08C576.91 190.08 576.131 190.363 575.511 190.928C574.892 191.484 574.532 192.236 574.431 193.184V203H571.888V193.307C571.888 191.156 570.836 190.08 568.73 190.08C567.071 190.08 565.936 190.786 565.326 192.199V203H562.796V188.207H565.189ZM596.298 203C596.152 202.708 596.033 202.189 595.942 201.441C594.766 202.663 593.363 203.273 591.731 203.273C590.273 203.273 589.074 202.863 588.136 202.043C587.206 201.214 586.741 200.165 586.741 198.898C586.741 197.358 587.324 196.164 588.491 195.316C589.667 194.46 591.317 194.031 593.44 194.031H595.901V192.869C595.901 191.985 595.637 191.283 595.108 190.764C594.58 190.235 593.8 189.971 592.77 189.971C591.868 189.971 591.111 190.199 590.501 190.654C589.89 191.11 589.585 191.661 589.585 192.309H587.042C587.042 191.57 587.302 190.859 587.821 190.176C588.35 189.483 589.061 188.936 589.954 188.535C590.856 188.134 591.845 187.934 592.921 187.934C594.625 187.934 595.96 188.362 596.927 189.219C597.893 190.066 598.394 191.238 598.43 192.732V199.541C598.43 200.899 598.604 201.979 598.95 202.781V203H596.298ZM592.1 201.072C592.893 201.072 593.645 200.867 594.356 200.457C595.067 200.047 595.582 199.514 595.901 198.857V195.822H593.919C590.82 195.822 589.27 196.729 589.27 198.543C589.27 199.336 589.535 199.956 590.063 200.402C590.592 200.849 591.271 201.072 592.1 201.072ZM614.691 195.768C614.691 198.019 614.176 199.833 613.146 201.209C612.117 202.585 610.722 203.273 608.963 203.273C607.167 203.273 605.755 202.704 604.725 201.564V208.688H602.195V188.207H604.506L604.629 189.848C605.659 188.572 607.09 187.934 608.922 187.934C610.699 187.934 612.103 188.604 613.133 189.943C614.172 191.283 614.691 193.147 614.691 195.535V195.768ZM612.162 195.48C612.162 193.812 611.807 192.495 611.096 191.529C610.385 190.563 609.41 190.08 608.17 190.08C606.639 190.08 605.49 190.759 604.725 192.117V199.186C605.481 200.535 606.639 201.209 608.197 201.209C609.41 201.209 610.371 200.73 611.082 199.773C611.802 198.807 612.162 197.376 612.162 195.48ZM626.331 199.076C626.331 198.393 626.071 197.864 625.552 197.49C625.042 197.107 624.144 196.779 622.859 196.506C621.583 196.232 620.566 195.904 619.81 195.521C619.062 195.139 618.506 194.683 618.142 194.154C617.786 193.626 617.609 192.997 617.609 192.268C617.609 191.055 618.119 190.03 619.14 189.191C620.17 188.353 621.482 187.934 623.077 187.934C624.754 187.934 626.112 188.367 627.152 189.232C628.2 190.098 628.724 191.206 628.724 192.555H626.181C626.181 191.862 625.885 191.265 625.292 190.764C624.709 190.262 623.971 190.012 623.077 190.012C622.157 190.012 621.437 190.212 620.917 190.613C620.398 191.014 620.138 191.538 620.138 192.186C620.138 192.796 620.379 193.257 620.862 193.566C621.346 193.876 622.216 194.173 623.474 194.455C624.741 194.738 625.766 195.075 626.55 195.467C627.334 195.859 627.913 196.333 628.286 196.889C628.669 197.436 628.861 198.105 628.861 198.898C628.861 200.22 628.332 201.282 627.275 202.084C626.217 202.877 624.846 203.273 623.159 203.273C621.974 203.273 620.926 203.064 620.015 202.645C619.103 202.225 618.388 201.642 617.868 200.895C617.358 200.138 617.103 199.322 617.103 198.447H619.632C619.678 199.295 620.015 199.969 620.644 200.471C621.282 200.963 622.12 201.209 623.159 201.209C624.116 201.209 624.882 201.018 625.456 200.635C626.04 200.243 626.331 199.723 626.331 199.076ZM632.01 201.674C632.01 201.236 632.138 200.872 632.393 200.58C632.657 200.288 633.049 200.143 633.569 200.143C634.088 200.143 634.48 200.288 634.745 200.58C635.018 200.872 635.155 201.236 635.155 201.674C635.155 202.093 635.018 202.444 634.745 202.727C634.48 203.009 634.088 203.15 633.569 203.15C633.049 203.15 632.657 203.009 632.393 202.727C632.138 202.444 632.01 202.093 632.01 201.674ZM639.193 201.674C639.193 201.236 639.321 200.872 639.576 200.58C639.84 200.288 640.232 200.143 640.752 200.143C641.271 200.143 641.663 200.288 641.927 200.58C642.201 200.872 642.337 201.236 642.337 201.674C642.337 202.093 642.201 202.444 641.927 202.727C641.663 203.009 641.271 203.15 640.752 203.15C640.232 203.15 639.84 203.009 639.576 202.727C639.321 202.444 639.193 202.093 639.193 201.674ZM646.376 201.674C646.376 201.236 646.503 200.872 646.759 200.58C647.023 200.288 647.415 200.143 647.934 200.143C648.454 200.143 648.846 200.288 649.11 200.58C649.384 200.872 649.52 201.236 649.52 201.674C649.52 202.093 649.384 202.444 649.11 202.727C648.846 203.009 648.454 203.15 647.934 203.15C647.415 203.15 647.023 203.009 646.759 202.727C646.503 202.444 646.376 202.093 646.376 201.674Z" fill="#888888"/>
<defs>
<filter id="filter0_d" x="154" y="136" width="951" height="116" filterUnits="userSpaceOnUse" color-interpolation-filters="sRGB">
<feFlood flood-opacity="0" result="BackgroundImageFix"/>
<feColorMatrix in="SourceAlpha" type="matrix" values="0 0 0 0 0 0 0 0 0 0 0 0 0 0 0 0 0 0 127 0"/>
<feOffset/>
<feGaussianBlur stdDeviation="7.5"/>
<feColorMatrix type="matrix" values="0 0 0 0 0 0 0 0 0 0 0 0 0 0 0 0 0 0 0.25 0"/>
<feBlend mode="normal" in2="BackgroundImageFix" result="effect1_dropShadow"/>
<feBlend mode="normal" in="SourceGraphic" in2="effect1_dropShadow" result="shape"/>
</filter>
<linearGradient id="paint0_linear" x1="931" y1="554.567" x2="568.339" y2="-69.2918" gradientUnits="userSpaceOnUse">
<stop stop-color="#582D7D" stop-opacity="0.52"/>
<stop offset="0.696338" stop-color="#6700BF" stop-opacity="0.55"/>
</linearGradient>
</defs>
</svg>
