<svg width="1749" height="863" viewBox="0 0 1749 863" fill="none" xmlns="http://www.w3.org/2000/svg">
<ellipse cx="778.581" cy="400" rx="81.9732" ry="67" fill="#7B2CBF"/>
<path fill-rule="evenodd" clip-rule="evenodd" d="M1749 0H830.219V813C830.219 840.614 852.605 863 880.219 863H1140.65C1146.15 862.805 1157.43 860.843 1148.34 843.043L1148.39 843.106C1144.29 834.513 1142.05 825.226 1142.05 815.535C1142.05 771.448 1188.38 735.708 1245.54 735.708C1302.69 735.708 1349.03 771.448 1349.03 815.535C1349.03 824.83 1346.97 833.754 1343.18 842.05C1338.06 855.153 1345.05 862.803 1350.47 863H1749V0Z" fill="url(#paint0_linear)"/>
<path d="M831.191 449.03C829.356 448.387 819.105 458 813.45 460.5C828.744 456.5 830.964 461.952 831.191 465.887C831.191 458.553 833.122 449.706 831.191 449.03Z" fill="#7B2CBF"/>
<path d="M833.026 351.858C831.191 352.5 820.94 342.887 815.286 340.387C830.579 344.387 832.799 338.936 833.026 335C833.026 342.335 834.958 351.181 833.026 351.858Z" fill="#7B2CBF"/>
<path d="M461.377 414.835C461.377 421.227 460.169 427.243 457.752 432.882C455.335 438.468 452.032 443.356 447.842 447.545C443.707 451.681 438.819 454.958 433.179 457.375C427.593 459.792 421.604 461 415.213 461C411.346 461 407.479 460.517 403.611 459.55V434.735C405.33 435.756 407.183 436.535 409.17 437.072C411.158 437.609 413.172 437.877 415.213 437.877C418.382 437.877 421.363 437.287 424.156 436.105C427.002 434.87 429.473 433.205 431.568 431.11C433.663 429.015 435.301 426.571 436.482 423.778C437.718 420.985 438.335 418.004 438.335 414.835V345.468H461.377V414.835ZM597.132 461H574.009V345.468H597.132V461Z" fill="#7B2CBF"/>
<path d="M1051.4 461H1028.36V378.5C1028.36 376.889 1028.04 375.385 1027.39 373.988C1026.8 372.592 1025.97 371.383 1024.89 370.363C1023.87 369.289 1022.66 368.456 1021.27 367.865C1019.87 367.274 1018.37 366.979 1016.76 366.979C1015.15 366.979 1013.64 367.274 1012.24 367.865C1010.85 368.456 1009.61 369.289 1008.54 370.363C1007.52 371.383 1006.71 372.592 1006.12 373.988C1005.53 375.385 1005.24 376.889 1005.24 378.5V461H982.113V378.5C982.113 376.889 981.817 375.385 981.227 373.988C980.636 372.592 979.803 371.383 978.729 370.363C977.708 369.289 976.5 368.456 975.104 367.865C973.707 367.274 972.203 366.979 970.592 366.979C968.98 366.979 967.477 367.274 966.08 367.865C964.684 368.456 963.448 369.289 962.374 370.363C961.354 371.383 960.548 372.592 959.957 373.988C959.366 375.385 959.071 376.889 959.071 378.5V461H935.948V378.5C935.948 373.72 936.834 369.235 938.607 365.045C940.433 360.802 942.904 357.123 946.019 354.008C949.188 350.839 952.867 348.368 957.057 346.596C961.3 344.77 965.812 343.856 970.592 343.856C974.889 343.856 979.024 344.635 982.999 346.193C986.974 347.697 990.545 349.899 993.714 352.799C996.883 349.899 1000.43 347.697 1004.35 346.193C1008.32 344.635 1012.46 343.856 1016.76 343.856C1021.54 343.856 1026.02 344.77 1030.21 346.596C1034.45 348.368 1038.13 350.839 1041.25 354.008C1044.42 357.123 1046.89 360.802 1048.66 365.045C1050.49 369.235 1051.4 373.72 1051.4 378.5V461ZM1186.35 414.835V391.713C1186.35 388.544 1185.73 385.563 1184.5 382.77C1183.31 379.923 1181.68 377.453 1179.58 375.358C1177.49 373.263 1175.02 371.625 1172.17 370.443C1169.38 369.208 1166.4 368.59 1163.23 368.59C1160.06 368.59 1157.05 369.208 1154.2 370.443C1151.41 371.625 1148.97 373.263 1146.87 375.358C1144.78 377.453 1143.11 379.923 1141.88 382.77C1140.69 385.563 1140.1 388.544 1140.1 391.713V414.835H1186.35ZM1209.47 461H1186.35V437.877H1140.1V461H1117.06V391.713C1117.06 385.321 1118.27 379.333 1120.69 373.747C1123.1 368.107 1126.38 363.192 1130.52 359.003C1134.71 354.813 1139.59 351.51 1145.18 349.093C1150.82 346.676 1156.83 345.468 1163.23 345.468C1169.62 345.468 1175.61 346.676 1181.19 349.093C1186.83 351.51 1191.75 354.813 1195.94 359.003C1200.13 363.192 1203.43 368.107 1205.85 373.747C1208.26 379.333 1209.47 385.321 1209.47 391.713V461ZM1298.9 368.59V414.835H1322.02C1325.19 414.835 1328.17 414.245 1330.97 413.063C1333.76 411.828 1336.2 410.163 1338.3 408.068C1340.39 405.973 1342.03 403.529 1343.21 400.736C1344.45 397.89 1345.06 394.882 1345.06 391.713C1345.06 388.544 1344.45 385.563 1343.21 382.77C1342.03 379.923 1340.39 377.453 1338.3 375.358C1336.2 373.263 1333.76 371.625 1330.97 370.443C1328.17 369.208 1325.19 368.59 1322.02 368.59H1298.9ZM1298.9 461H1275.78V345.468H1322.02C1326.27 345.468 1330.35 346.032 1334.27 347.16C1338.19 348.234 1341.84 349.792 1345.23 351.833C1348.66 353.82 1351.78 356.237 1354.57 359.083C1357.42 361.876 1359.83 364.992 1361.82 368.429C1363.86 371.867 1365.42 375.546 1366.5 379.467C1367.62 383.388 1368.19 387.47 1368.19 391.713C1368.19 398.051 1366.98 404.04 1364.56 409.679C1362.14 415.265 1358.84 420.153 1354.65 424.342C1350.46 428.532 1345.55 431.835 1339.91 434.252C1334.32 436.669 1328.36 437.877 1322.02 437.877H1298.9V461Z" fill="white"/>
<path d="M844.918 446.175C844.918 439.751 832.327 432.787 823.433 435.304C820.773 436.056 814 435.798 814 430.362C814 425.42 820.852 425.162 823.433 424.432C844.918 421.467 855.923 434.315 855.923 446.175C855.923 457.047 853.303 461 850.683 461C847.538 461 844.918 459.023 844.918 446.175Z" fill="white"/>
<path d="M735.852 327C672.337 350.58 661.314 441.386 735.852 475" stroke="#7B2CBF" stroke-width="6" stroke-linecap="round"/>
<path d="M14.2287 253.643C22.9257 250.194 40.7467 243.127 42.4545 242.45C44.5892 241.603 43.4848 239.608 42.4916 238.721C35.8948 232.372 35.1759 225.613 37.3922 220.252C40.1952 213.471 49.9487 205.283 63.009 210.093C67.8647 211.882 74.1509 216.843 74.9869 225.835C75.2513 226.968 76.3255 229.018 78.5077 228.153C80.6899 227.288 97.6017 220.581 105.785 217.336" stroke="#C1C1C1" stroke-opacity="0.31" stroke-width="4" stroke-linecap="round"/>
<path d="M445.35 239.799H436.723V246.854H446.744V249H434.098V229.094H446.608V231.254H436.723V237.652H445.35V239.799ZM454.378 239.607L457.66 234.207H460.613L455.773 241.521L460.763 249H457.837L454.419 243.463L451.001 249H448.062L453.052 241.521L448.212 234.207H451.138L454.378 239.607ZM475.602 241.768C475.602 244.019 475.087 245.833 474.057 247.209C473.027 248.585 471.633 249.273 469.874 249.273C468.078 249.273 466.665 248.704 465.635 247.564V254.688H463.106V234.207H465.417L465.54 235.848C466.57 234.572 468.001 233.934 469.833 233.934C471.61 233.934 473.014 234.604 474.044 235.943C475.083 237.283 475.602 239.147 475.602 241.535V241.768ZM473.073 241.48C473.073 239.812 472.717 238.495 472.006 237.529C471.296 236.563 470.32 236.08 469.081 236.08C467.549 236.08 466.401 236.759 465.635 238.117V245.186C466.392 246.535 467.549 247.209 469.108 247.209C470.32 247.209 471.282 246.73 471.993 245.773C472.713 244.807 473.073 243.376 473.073 241.48ZM481.377 249H478.848V228H481.377V249ZM484.567 241.467C484.567 240.018 484.85 238.714 485.415 237.557C485.989 236.399 486.782 235.506 487.794 234.877C488.815 234.248 489.977 233.934 491.28 233.934C493.295 233.934 494.922 234.631 496.161 236.025C497.41 237.42 498.034 239.275 498.034 241.59V241.768C498.034 243.208 497.756 244.502 497.2 245.65C496.653 246.79 495.865 247.678 494.835 248.316C493.814 248.954 492.638 249.273 491.308 249.273C489.302 249.273 487.676 248.576 486.427 247.182C485.187 245.787 484.567 243.941 484.567 241.645V241.467ZM487.11 241.768C487.11 243.408 487.489 244.725 488.245 245.719C489.011 246.712 490.032 247.209 491.308 247.209C492.593 247.209 493.614 246.708 494.37 245.705C495.127 244.693 495.505 243.281 495.505 241.467C495.505 239.844 495.118 238.532 494.343 237.529C493.577 236.518 492.556 236.012 491.28 236.012C490.032 236.012 489.024 236.508 488.259 237.502C487.493 238.495 487.11 239.917 487.11 241.768ZM508.156 236.477C507.774 236.413 507.359 236.381 506.912 236.381C505.253 236.381 504.128 237.087 503.535 238.5V249H501.006V234.207H503.467L503.508 235.916C504.337 234.594 505.513 233.934 507.035 233.934C507.528 233.934 507.901 233.997 508.156 234.125V236.477ZM516.16 249.273C514.154 249.273 512.523 248.617 511.265 247.305C510.007 245.983 509.378 244.219 509.378 242.014V241.549C509.378 240.081 509.656 238.773 510.212 237.625C510.777 236.467 511.561 235.565 512.564 234.918C513.576 234.262 514.669 233.934 515.845 233.934C517.768 233.934 519.263 234.567 520.33 235.834C521.396 237.101 521.929 238.915 521.929 241.275V242.328H511.908C511.944 243.786 512.368 244.967 513.179 245.869C513.999 246.762 515.039 247.209 516.296 247.209C517.19 247.209 517.946 247.027 518.566 246.662C519.186 246.298 519.728 245.814 520.193 245.213L521.738 246.416C520.498 248.321 518.639 249.273 516.16 249.273ZM515.845 236.012C514.824 236.012 513.968 236.385 513.275 237.133C512.582 237.871 512.154 238.91 511.99 240.25H519.4V240.059C519.327 238.773 518.981 237.78 518.361 237.078C517.741 236.367 516.902 236.012 515.845 236.012ZM534.846 230.625V234.207H537.607V236.162H534.846V245.336C534.846 245.928 534.969 246.375 535.215 246.676C535.461 246.967 535.88 247.113 536.473 247.113C536.764 247.113 537.165 247.059 537.676 246.949V249C537.01 249.182 536.363 249.273 535.734 249.273C534.604 249.273 533.752 248.932 533.178 248.248C532.603 247.564 532.316 246.594 532.316 245.336V236.162H529.623V234.207H532.316V230.625H534.846ZM542.903 235.998C544.024 234.622 545.483 233.934 547.278 233.934C550.405 233.934 551.981 235.697 552.009 239.225V249H549.48V239.211C549.47 238.145 549.224 237.356 548.741 236.846C548.267 236.335 547.524 236.08 546.513 236.08C545.692 236.08 544.972 236.299 544.353 236.736C543.733 237.174 543.25 237.748 542.903 238.459V249H540.374V228H542.903V235.998ZM561.735 249.273C559.729 249.273 558.098 248.617 556.84 247.305C555.582 245.983 554.953 244.219 554.953 242.014V241.549C554.953 240.081 555.231 238.773 555.787 237.625C556.352 236.467 557.136 235.565 558.139 234.918C559.151 234.262 560.244 233.934 561.42 233.934C563.343 233.934 564.838 234.567 565.905 235.834C566.971 237.101 567.504 238.915 567.504 241.275V242.328H557.483C557.519 243.786 557.943 244.967 558.754 245.869C559.574 246.762 560.614 247.209 561.871 247.209C562.765 247.209 563.521 247.027 564.141 246.662C564.761 246.298 565.303 245.814 565.768 245.213L567.313 246.416C566.073 248.321 564.214 249.273 561.735 249.273ZM561.42 236.012C560.399 236.012 559.543 236.385 558.85 237.133C558.157 237.871 557.729 238.91 557.565 240.25H564.975V240.059C564.902 238.773 564.556 237.78 563.936 237.078C563.316 236.367 562.477 236.012 561.42 236.012ZM589.485 241.768C589.485 244.019 588.97 245.833 587.94 247.209C586.91 248.585 585.516 249.273 583.757 249.273C581.961 249.273 580.548 248.704 579.518 247.564V254.688H576.989V234.207H579.299L579.423 235.848C580.452 234.572 581.883 233.934 583.715 233.934C585.493 233.934 586.896 234.604 587.926 235.943C588.965 237.283 589.485 239.147 589.485 241.535V241.768ZM586.956 241.48C586.956 239.812 586.6 238.495 585.889 237.529C585.178 236.563 584.203 236.08 582.964 236.08C581.432 236.08 580.284 236.759 579.518 238.117V245.186C580.275 246.535 581.432 247.209 582.991 247.209C584.203 247.209 585.165 246.73 585.876 245.773C586.596 244.807 586.956 243.376 586.956 241.48ZM591.842 241.467C591.842 240.018 592.124 238.714 592.689 237.557C593.264 236.399 594.056 235.506 595.068 234.877C596.089 234.248 597.251 233.934 598.555 233.934C600.569 233.934 602.196 234.631 603.435 236.025C604.684 237.42 605.308 239.275 605.308 241.59V241.768C605.308 243.208 605.03 244.502 604.474 245.65C603.928 246.79 603.139 247.678 602.109 248.316C601.088 248.954 599.913 249.273 598.582 249.273C596.577 249.273 594.95 248.576 593.701 247.182C592.461 245.787 591.842 243.941 591.842 241.645V241.467ZM594.385 241.768C594.385 243.408 594.763 244.725 595.519 245.719C596.285 246.712 597.306 247.209 598.582 247.209C599.867 247.209 600.888 246.708 601.644 245.705C602.401 244.693 602.779 243.281 602.779 241.467C602.779 239.844 602.392 238.532 601.617 237.529C600.851 236.518 599.831 236.012 598.555 236.012C597.306 236.012 596.299 236.508 595.533 237.502C594.767 238.495 594.385 239.917 594.385 241.768ZM621.378 245.514L624.222 234.207H626.751L622.444 249H620.394L616.798 237.789L613.298 249H611.247L606.954 234.207H609.47L612.382 245.281L615.827 234.207H617.864L621.378 245.514ZM635.274 249.273C633.268 249.273 631.637 248.617 630.379 247.305C629.121 245.983 628.492 244.219 628.492 242.014V241.549C628.492 240.081 628.77 238.773 629.326 237.625C629.892 236.467 630.675 235.565 631.678 234.918C632.69 234.262 633.783 233.934 634.959 233.934C636.882 233.934 638.377 234.567 639.444 235.834C640.51 237.101 641.043 238.915 641.043 241.275V242.328H631.022C631.058 243.786 631.482 244.967 632.293 245.869C633.114 246.762 634.153 247.209 635.41 247.209C636.304 247.209 637.06 247.027 637.68 246.662C638.3 246.298 638.842 245.814 639.307 245.213L640.852 246.416C639.612 248.321 637.753 249.273 635.274 249.273ZM634.959 236.012C633.938 236.012 633.082 236.385 632.389 237.133C631.696 237.871 631.268 238.91 631.104 240.25H638.514V240.059C638.441 238.773 638.095 237.78 637.475 237.078C636.855 236.367 636.017 236.012 634.959 236.012ZM650.933 236.477C650.55 236.413 650.136 236.381 649.689 236.381C648.03 236.381 646.904 237.087 646.312 238.5V249H643.783V234.207H646.244L646.285 235.916C647.114 234.594 648.29 233.934 649.812 233.934C650.304 233.934 650.678 233.997 650.933 234.125V236.477ZM661.684 245.076C661.684 244.393 661.424 243.864 660.905 243.49C660.395 243.107 659.497 242.779 658.212 242.506C656.936 242.232 655.919 241.904 655.163 241.521C654.415 241.139 653.859 240.683 653.495 240.154C653.139 239.626 652.962 238.997 652.962 238.268C652.962 237.055 653.472 236.03 654.493 235.191C655.523 234.353 656.835 233.934 658.43 233.934C660.107 233.934 661.465 234.367 662.505 235.232C663.553 236.098 664.077 237.206 664.077 238.555H661.534C661.534 237.862 661.238 237.265 660.645 236.764C660.062 236.262 659.324 236.012 658.43 236.012C657.51 236.012 656.79 236.212 656.27 236.613C655.751 237.014 655.491 237.538 655.491 238.186C655.491 238.796 655.732 239.257 656.215 239.566C656.699 239.876 657.569 240.173 658.827 240.455C660.094 240.738 661.119 241.075 661.903 241.467C662.687 241.859 663.266 242.333 663.639 242.889C664.022 243.436 664.214 244.105 664.214 244.898C664.214 246.22 663.685 247.282 662.628 248.084C661.57 248.877 660.199 249.273 658.512 249.273C657.327 249.273 656.279 249.064 655.368 248.645C654.456 248.225 653.741 247.642 653.221 246.895C652.711 246.138 652.456 245.322 652.456 244.447H654.985C655.031 245.295 655.368 245.969 655.997 246.471C656.635 246.963 657.473 247.209 658.512 247.209C659.469 247.209 660.235 247.018 660.809 246.635C661.393 246.243 661.684 245.723 661.684 245.076ZM673.384 241.467C673.384 240.018 673.666 238.714 674.231 237.557C674.806 236.399 675.599 235.506 676.61 234.877C677.631 234.248 678.793 233.934 680.097 233.934C682.111 233.934 683.738 234.631 684.978 236.025C686.226 237.42 686.851 239.275 686.851 241.59V241.768C686.851 243.208 686.573 244.502 686.017 245.65C685.47 246.79 684.681 247.678 683.651 248.316C682.631 248.954 681.455 249.273 680.124 249.273C678.119 249.273 676.492 248.576 675.243 247.182C674.004 245.787 673.384 243.941 673.384 241.645V241.467ZM675.927 241.768C675.927 243.408 676.305 244.725 677.062 245.719C677.827 246.712 678.848 247.209 680.124 247.209C681.409 247.209 682.43 246.708 683.187 245.705C683.943 244.693 684.321 243.281 684.321 241.467C684.321 239.844 683.934 238.532 683.159 237.529C682.394 236.518 681.373 236.012 680.097 236.012C678.848 236.012 677.841 236.508 677.075 237.502C676.31 238.495 675.927 239.917 675.927 241.768ZM691.067 249V236.162H688.729V234.207H691.067V232.689C691.067 231.104 691.49 229.878 692.338 229.012C693.186 228.146 694.384 227.713 695.934 227.713C696.517 227.713 697.096 227.79 697.67 227.945L697.533 229.996C697.105 229.914 696.649 229.873 696.166 229.873C695.346 229.873 694.712 230.115 694.266 230.598C693.819 231.072 693.596 231.755 693.596 232.648V234.207H696.754V236.162H693.596V249H691.067Z" fill="#525252"/>
<path d="M402 220C402 223.61 402 231.006 402 231.715C402 232.601 403.067 232.552 403.629 232.355C407.561 231.124 410.65 232.01 412.616 233.684C415.102 235.801 416.997 240.575 412.616 244.316C410.987 245.707 407.718 247.063 403.629 245.842C403.086 245.744 402 245.773 402 246.679C402 247.584 402 254.604 402 258" stroke="#525252" stroke-width="2" stroke-linecap="round"/>
<path d="M585.924 747C581.178 748.153 571.455 750.514 570.523 750.74C569.358 751.023 569.752 752.122 570.184 752.646C573.016 756.359 572.805 759.868 571.212 762.455C569.197 765.727 563.505 769.23 557.234 765.85C554.903 764.593 552.111 761.612 552.454 756.952C552.416 756.354 552.042 755.229 550.851 755.518C549.66 755.807 540.433 758.049 535.968 759.133" stroke="#B3A7A7" stroke-width="2" stroke-linecap="round"/>
<path d="M2.00015 466.932C13.9911 473.247 38.5617 486.185 40.9163 487.425C43.8596 488.975 45.5009 486.073 45.7968 484.246C48.3586 471.719 56.5265 465.117 65.4107 462.857C76.6467 459.999 95.7121 463.351 100.73 481.456C102.595 488.187 101.57 499.185 90.5995 507.839C89.3542 509.1 87.6157 512.017 90.6244 513.601C93.633 515.185 116.95 527.464 128.232 533.405" stroke="#9D8A8A" stroke-width="3" stroke-linecap="round"/>
<path d="M596.551 68.0541C600.545 70.1511 608.728 74.4479 609.512 74.8596C610.493 75.3743 611.027 74.4241 611.119 73.8246C611.928 69.7143 614.613 67.5611 617.549 66.8356C621.263 65.918 627.592 67.0553 629.313 73.012C629.953 75.2267 629.649 78.8374 626.041 81.6595C625.633 82.0712 625.066 83.0262 626.068 83.5523C627.07 84.0785 634.836 88.1561 638.594 90.1291" stroke="#7B2CBF" stroke-opacity="0.45" stroke-width="2" stroke-linecap="round"/>
<path d="M463.36 312.5C463.36 319.223 457.283 325 449.363 325C441.444 325 435.366 319.223 435.366 312.5C435.366 305.777 441.444 300 449.363 300C457.283 300 463.36 305.777 463.36 312.5Z" stroke="#7B2CBF" stroke-width="4"/>
<defs>
<linearGradient id="paint0_linear" x1="1651.1" y1="99.7844" x2="1155.99" y2="965.268" gradientUnits="userSpaceOnUse">
<stop stop-color="#582D7D"/>
<stop offset="0.696338" stop-color="#7B2CBF"/>
</linearGradient>
</defs>
</svg>
