<svg width="23" height="23" viewBox="0 0 23 23" fill="none" xmlns="http://www.w3.org/2000/svg">
<g clip-path="url(#clip0)">
<path fill-rule="evenodd" clip-rule="evenodd" d="M0.428162 3.54914C0.428162 2.81738 0.72049 2.11559 1.24084 1.59816C1.76118 1.08073 2.46693 0.790039 3.20281 0.790039L19.8507 0.790039C20.5866 0.790039 21.2923 1.08073 21.8127 1.59816C22.333 2.11559 22.6253 2.81738 22.6253 3.54914V14.5856C22.6253 15.3173 22.333 16.0191 21.8127 16.5365C21.2923 17.054 20.5866 17.3447 19.8507 17.3447H6.55181C6.1839 17.3447 5.83108 17.4901 5.57097 17.7489L1.61294 21.6847C1.516 21.7814 1.39242 21.8472 1.25783 21.874C1.12324 21.9008 0.98369 21.8872 0.856844 21.8351C0.729998 21.7829 0.621557 21.6945 0.545248 21.5811C0.468939 21.4676 0.428191 21.3342 0.428162 21.1977L0.428162 3.54914ZM5.2838 4.92869C5.09982 4.92869 4.92339 5.00137 4.7933 5.13073C4.66322 5.26008 4.59013 5.43553 4.59013 5.61847C4.59013 5.80141 4.66322 5.97686 4.7933 6.10622C4.92339 6.23557 5.09982 6.30825 5.2838 6.30825H17.7697C17.9537 6.30825 18.1301 6.23557 18.2602 6.10622C18.3903 5.97686 18.4634 5.80141 18.4634 5.61847C18.4634 5.43553 18.3903 5.26008 18.2602 5.13073C18.1301 5.00137 17.9537 4.92869 17.7697 4.92869H5.2838ZM5.2838 8.37757C5.09982 8.37757 4.92339 8.45025 4.7933 8.5796C4.66322 8.70896 4.59013 8.88441 4.59013 9.06735C4.59013 9.25029 4.66322 9.42574 4.7933 9.55509C4.92339 9.68445 5.09982 9.75713 5.2838 9.75713H17.7697C17.9537 9.75713 18.1301 9.68445 18.2602 9.55509C18.3903 9.42574 18.4634 9.25029 18.4634 9.06735C18.4634 8.88441 18.3903 8.70896 18.2602 8.5796C18.1301 8.45025 17.9537 8.37757 17.7697 8.37757H5.2838ZM5.2838 11.8265C5.09982 11.8265 4.92339 11.8991 4.7933 12.0285C4.66322 12.1578 4.59013 12.3333 4.59013 12.5162C4.59013 12.6992 4.66322 12.8746 4.7933 13.004C4.92339 13.1333 5.09982 13.206 5.2838 13.206H12.2204C12.4044 13.206 12.5808 13.1333 12.7109 13.004C12.841 12.8746 12.9141 12.6992 12.9141 12.5162C12.9141 12.3333 12.841 12.1578 12.7109 12.0285C12.5808 11.8991 12.4044 11.8265 12.2204 11.8265H5.2838Z" fill="white"/>
</g>
<defs>
<clipPath id="clip0">
<rect width="22.1972" height="22.0728" fill="white" transform="translate(0.428162 0.790039)"/>
</clipPath>
</defs>
</svg>
