<svg width="1284" height="252" viewBox="0 0 1284 252" fill="none" xmlns="http://www.w3.org/2000/svg">
<path fill-rule="evenodd" clip-rule="evenodd" d="M50 202C22.3858 202 0 179.614 0 152V50C0 22.3858 22.3857 3.05176e-05 50 3.05176e-05L1147 0C1148.81 0.0897369 1150.86 1.15373 1152.74 3.73466C1160.05 39.5201 1189.63 66.2925 1225 66.2925C1248.1 66.2925 1268.72 54.8783 1282.29 36.9938C1283.41 41.141 1284 45.5011 1284 50V152C1284 179.614 1261.61 202 1234 202H50Z" fill="url(#paint0_linear)"/>
<path d="M1157.84 44C1166.16 75.0143 1224.53 95.5509 1255 69.864" stroke="#752CB4" stroke-width="3" stroke-linecap="round"/>
<g filter="url(#filter0_d)">
<rect x="169" y="151" width="921" height="86" rx="15" fill="white"/>
</g>
<path d="M231.175 201.99L234.003 199.163L246.022 211.182L243.194 214.009L231.175 201.99Z" fill="#888888"/>
<path d="M222 206C230.837 206 238 198.837 238 190C238 181.163 230.837 174 222 174C213.163 174 206 181.163 206 190C206 198.837 213.163 206 222 206Z" fill="#888888"/>
<path d="M234.45 205.34L237.277 202.512L245.973 211.208L243.145 214.036L234.45 205.34Z" fill="#888888"/>
<path d="M222 203C229.18 203 235 197.18 235 190C235 182.82 229.18 177 222 177C214.82 177 209 182.82 209 190C209 197.18 214.82 203 222 203Z" fill="white"/>
<path d="M228.9 184.2C227.2 182.2 224.7 181 222 181C219.3 181 216.8 182.2 215.1 184.2C214.7 184.6 214.8 185.3 215.2 185.6C215.6 186 216.3 185.9 216.6 185.5C218 183.9 219.9 183 222 183C224.1 183 226 183.9 227.4 185.5C227.6 185.7 227.9 185.9 228.2 185.9C228.4 185.9 228.7 185.8 228.8 185.7C229.2 185.3 229.2 184.6 228.9 184.2Z" fill="#888888"/>
<path d="M295.176 194.127C292.924 193.48 291.284 192.687 290.254 191.748C289.233 190.8 288.723 189.633 288.723 188.248C288.723 186.68 289.347 185.386 290.596 184.365C291.854 183.335 293.485 182.82 295.49 182.82C296.857 182.82 298.074 183.085 299.141 183.613C300.216 184.142 301.046 184.871 301.629 185.801C302.221 186.73 302.518 187.747 302.518 188.85H299.879C299.879 187.646 299.496 186.703 298.73 186.02C297.965 185.327 296.885 184.98 295.49 184.98C294.196 184.98 293.184 185.268 292.455 185.842C291.735 186.407 291.375 187.195 291.375 188.207C291.375 189.018 291.717 189.706 292.4 190.271C293.093 190.827 294.264 191.338 295.914 191.803C297.573 192.268 298.867 192.783 299.797 193.348C300.736 193.904 301.428 194.555 301.875 195.303C302.331 196.05 302.559 196.93 302.559 197.941C302.559 199.555 301.93 200.849 300.672 201.824C299.414 202.79 297.732 203.273 295.627 203.273C294.26 203.273 292.984 203.014 291.799 202.494C290.614 201.965 289.698 201.245 289.051 200.334C288.413 199.423 288.094 198.388 288.094 197.23H290.732C290.732 198.434 291.174 199.386 292.059 200.088C292.952 200.781 294.141 201.127 295.627 201.127C297.012 201.127 298.074 200.844 298.812 200.279C299.551 199.714 299.92 198.944 299.92 197.969C299.92 196.993 299.578 196.242 298.895 195.713C298.211 195.175 296.971 194.646 295.176 194.127ZM311.478 203.273C309.473 203.273 307.841 202.617 306.583 201.305C305.325 199.983 304.696 198.219 304.696 196.014V195.549C304.696 194.081 304.974 192.773 305.53 191.625C306.096 190.467 306.879 189.565 307.882 188.918C308.894 188.262 309.987 187.934 311.163 187.934C313.086 187.934 314.581 188.567 315.648 189.834C316.714 191.101 317.247 192.915 317.247 195.275V196.328H307.226C307.262 197.786 307.686 198.967 308.497 199.869C309.318 200.762 310.357 201.209 311.614 201.209C312.508 201.209 313.264 201.027 313.884 200.662C314.504 200.298 315.046 199.814 315.511 199.213L317.056 200.416C315.816 202.321 313.957 203.273 311.478 203.273ZM311.163 190.012C310.142 190.012 309.286 190.385 308.593 191.133C307.9 191.871 307.472 192.91 307.308 194.25H314.718V194.059C314.645 192.773 314.299 191.78 313.679 191.078C313.059 190.367 312.221 190.012 311.163 190.012ZM329.12 203C328.974 202.708 328.855 202.189 328.764 201.441C327.588 202.663 326.185 203.273 324.553 203.273C323.095 203.273 321.896 202.863 320.957 202.043C320.028 201.214 319.563 200.165 319.563 198.898C319.563 197.358 320.146 196.164 321.313 195.316C322.489 194.46 324.138 194.031 326.262 194.031H328.723V192.869C328.723 191.985 328.459 191.283 327.93 190.764C327.401 190.235 326.622 189.971 325.592 189.971C324.69 189.971 323.933 190.199 323.323 190.654C322.712 191.11 322.407 191.661 322.407 192.309H319.864C319.864 191.57 320.123 190.859 320.643 190.176C321.172 189.483 321.883 188.936 322.776 188.535C323.678 188.134 324.667 187.934 325.743 187.934C327.447 187.934 328.782 188.362 329.748 189.219C330.715 190.066 331.216 191.238 331.252 192.732V199.541C331.252 200.899 331.426 201.979 331.772 202.781V203H329.12ZM324.922 201.072C325.715 201.072 326.467 200.867 327.178 200.457C327.889 200.047 328.404 199.514 328.723 198.857V195.822H326.741C323.642 195.822 322.092 196.729 322.092 198.543C322.092 199.336 322.357 199.956 322.885 200.402C323.414 200.849 324.093 201.072 324.922 201.072ZM342.168 190.477C341.785 190.413 341.37 190.381 340.923 190.381C339.265 190.381 338.139 191.087 337.546 192.5V203H335.017V188.207H337.478L337.519 189.916C338.349 188.594 339.524 187.934 341.046 187.934C341.539 187.934 341.912 187.997 342.168 188.125V190.477ZM349.966 201.209C350.868 201.209 351.656 200.936 352.331 200.389C353.005 199.842 353.379 199.158 353.452 198.338H355.845C355.799 199.186 355.507 199.992 354.97 200.758C354.432 201.523 353.712 202.134 352.809 202.59C351.916 203.046 350.968 203.273 349.966 203.273C347.951 203.273 346.347 202.604 345.153 201.264C343.968 199.915 343.376 198.074 343.376 195.74V195.316C343.376 193.876 343.64 192.596 344.169 191.475C344.697 190.354 345.454 189.483 346.438 188.863C347.432 188.243 348.603 187.934 349.952 187.934C351.611 187.934 352.987 188.43 354.081 189.424C355.184 190.417 355.772 191.707 355.845 193.293H353.452C353.379 192.336 353.014 191.552 352.358 190.941C351.711 190.322 350.909 190.012 349.952 190.012C348.667 190.012 347.669 190.477 346.958 191.406C346.256 192.327 345.905 193.662 345.905 195.412V195.891C345.905 197.595 346.256 198.908 346.958 199.828C347.66 200.749 348.662 201.209 349.966 201.209ZM361.018 189.998C362.139 188.622 363.597 187.934 365.393 187.934C368.519 187.934 370.096 189.697 370.123 193.225V203H367.594V193.211C367.585 192.145 367.339 191.356 366.855 190.846C366.382 190.335 365.639 190.08 364.627 190.08C363.807 190.08 363.087 190.299 362.467 190.736C361.847 191.174 361.364 191.748 361.018 192.459V203H358.488V182H361.018V189.998ZM381.7 203V190.162H379.362V188.207H381.7V186.689C381.7 185.104 382.123 183.878 382.971 183.012C383.819 182.146 385.017 181.713 386.567 181.713C387.15 181.713 387.729 181.79 388.303 181.945L388.166 183.996C387.738 183.914 387.282 183.873 386.799 183.873C385.979 183.873 385.345 184.115 384.899 184.598C384.452 185.072 384.229 185.755 384.229 186.648V188.207H387.387V190.162H384.229V203H381.7ZM389.32 195.467C389.32 194.018 389.602 192.714 390.168 191.557C390.742 190.399 391.535 189.506 392.546 188.877C393.567 188.248 394.729 187.934 396.033 187.934C398.047 187.934 399.674 188.631 400.914 190.025C402.162 191.42 402.787 193.275 402.787 195.59V195.768C402.787 197.208 402.509 198.502 401.953 199.65C401.406 200.79 400.617 201.678 399.588 202.316C398.567 202.954 397.391 203.273 396.06 203.273C394.055 203.273 392.428 202.576 391.179 201.182C389.94 199.787 389.32 197.941 389.32 195.645V195.467ZM391.863 195.768C391.863 197.408 392.241 198.725 392.998 199.719C393.763 200.712 394.784 201.209 396.06 201.209C397.345 201.209 398.366 200.708 399.123 199.705C399.879 198.693 400.257 197.281 400.257 195.467C400.257 193.844 399.87 192.532 399.095 191.529C398.33 190.518 397.309 190.012 396.033 190.012C394.784 190.012 393.777 190.508 393.011 191.502C392.246 192.495 391.863 193.917 391.863 195.768ZM412.909 190.477C412.526 190.413 412.111 190.381 411.665 190.381C410.006 190.381 408.88 191.087 408.288 192.5V203H405.759V188.207H408.22L408.261 189.916C409.09 188.594 410.266 187.934 411.788 187.934C412.28 187.934 412.654 187.997 412.909 188.125V190.477ZM426.632 199.295L430.077 188.207H432.784L426.837 205.283C425.917 207.744 424.454 208.975 422.448 208.975L421.97 208.934L421.027 208.756V206.705L421.71 206.76C422.567 206.76 423.232 206.587 423.706 206.24C424.189 205.894 424.586 205.26 424.896 204.34L425.456 202.836L420.179 188.207H422.941L426.632 199.295ZM433.965 195.467C433.965 194.018 434.248 192.714 434.813 191.557C435.387 190.399 436.18 189.506 437.192 188.877C438.213 188.248 439.375 187.934 440.678 187.934C442.692 187.934 444.319 188.631 445.559 190.025C446.808 191.42 447.432 193.275 447.432 195.59V195.768C447.432 197.208 447.154 198.502 446.598 199.65C446.051 200.79 445.263 201.678 444.233 202.316C443.212 202.954 442.036 203.273 440.705 203.273C438.7 203.273 437.073 202.576 435.825 201.182C434.585 199.787 433.965 197.941 433.965 195.645V195.467ZM436.508 195.768C436.508 197.408 436.886 198.725 437.643 199.719C438.409 200.712 439.429 201.209 440.705 201.209C441.991 201.209 443.011 200.708 443.768 199.705C444.524 198.693 444.903 197.281 444.903 195.467C444.903 193.844 444.515 192.532 443.741 191.529C442.975 190.518 441.954 190.012 440.678 190.012C439.429 190.012 438.422 190.508 437.657 191.502C436.891 192.495 436.508 193.917 436.508 195.768ZM459.537 201.537C458.552 202.695 457.108 203.273 455.203 203.273C453.626 203.273 452.423 202.818 451.593 201.906C450.773 200.986 450.358 199.628 450.349 197.832V188.207H452.879V197.764C452.879 200.006 453.79 201.127 455.613 201.127C457.545 201.127 458.83 200.407 459.468 198.967V188.207H461.998V203H459.591L459.537 201.537ZM472.804 190.477C472.421 190.413 472.006 190.381 471.559 190.381C469.901 190.381 468.775 191.087 468.182 192.5V203H465.653V188.207H468.114L468.155 189.916C468.985 188.594 470.16 187.934 471.682 187.934C472.175 187.934 472.548 187.997 472.804 188.125V190.477ZM490.3 199.076C490.3 198.393 490.04 197.864 489.521 197.49C489.01 197.107 488.113 196.779 486.827 196.506C485.551 196.232 484.535 195.904 483.779 195.521C483.031 195.139 482.475 194.683 482.111 194.154C481.755 193.626 481.577 192.997 481.577 192.268C481.577 191.055 482.088 190.03 483.109 189.191C484.139 188.353 485.451 187.934 487.046 187.934C488.723 187.934 490.081 188.367 491.12 189.232C492.168 190.098 492.693 191.206 492.693 192.555H490.15C490.15 191.862 489.853 191.265 489.261 190.764C488.678 190.262 487.939 190.012 487.046 190.012C486.126 190.012 485.405 190.212 484.886 190.613C484.366 191.014 484.107 191.538 484.107 192.186C484.107 192.796 484.348 193.257 484.831 193.566C485.314 193.876 486.185 194.173 487.443 194.455C488.71 194.738 489.735 195.075 490.519 195.467C491.303 195.859 491.881 196.333 492.255 196.889C492.638 197.436 492.829 198.105 492.829 198.898C492.829 200.22 492.301 201.282 491.243 202.084C490.186 202.877 488.814 203.273 487.128 203.273C485.943 203.273 484.895 203.064 483.984 202.645C483.072 202.225 482.357 201.642 481.837 200.895C481.327 200.138 481.071 199.322 481.071 198.447H483.601C483.646 199.295 483.984 199.969 484.613 200.471C485.251 200.963 486.089 201.209 487.128 201.209C488.085 201.209 488.851 201.018 489.425 200.635C490.008 200.243 490.3 199.723 490.3 199.076ZM505.057 201.537C504.073 202.695 502.628 203.273 500.723 203.273C499.146 203.273 497.943 202.818 497.114 201.906C496.293 200.986 495.879 199.628 495.87 197.832V188.207H498.399V197.764C498.399 200.006 499.31 201.127 501.133 201.127C503.066 201.127 504.351 200.407 504.989 198.967V188.207H507.518V203H505.112L505.057 201.537ZM523.697 195.768C523.697 198.028 523.177 199.846 522.138 201.223C521.099 202.59 519.705 203.273 517.955 203.273C516.086 203.273 514.642 202.613 513.621 201.291L513.498 203H511.173V182H513.703V189.834C514.724 188.567 516.132 187.934 517.927 187.934C519.723 187.934 521.131 188.613 522.152 189.971C523.182 191.329 523.697 193.188 523.697 195.549V195.768ZM521.168 195.48C521.168 193.758 520.835 192.427 520.17 191.488C519.504 190.549 518.547 190.08 517.298 190.08C515.63 190.08 514.432 190.855 513.703 192.404V198.803C514.477 200.352 515.685 201.127 517.326 201.127C518.538 201.127 519.481 200.658 520.156 199.719C520.83 198.78 521.168 197.367 521.168 195.48ZM535.309 199.076C535.309 198.393 535.05 197.864 534.53 197.49C534.02 197.107 533.122 196.779 531.837 196.506C530.561 196.232 529.544 195.904 528.788 195.521C528.04 195.139 527.485 194.683 527.12 194.154C526.764 193.626 526.587 192.997 526.587 192.268C526.587 191.055 527.097 190.03 528.118 189.191C529.148 188.353 530.46 187.934 532.055 187.934C533.733 187.934 535.091 188.367 536.13 189.232C537.178 190.098 537.702 191.206 537.702 192.555H535.159C535.159 191.862 534.863 191.265 534.27 190.764C533.687 190.262 532.949 190.012 532.055 190.012C531.135 190.012 530.415 190.212 529.895 190.613C529.376 191.014 529.116 191.538 529.116 192.186C529.116 192.796 529.358 193.257 529.841 193.566C530.324 193.876 531.194 194.173 532.452 194.455C533.719 194.738 534.744 195.075 535.528 195.467C536.312 195.859 536.891 196.333 537.264 196.889C537.647 197.436 537.839 198.105 537.839 198.898C537.839 200.22 537.31 201.282 536.253 202.084C535.195 202.877 533.824 203.273 532.137 203.273C530.953 203.273 529.904 203.064 528.993 202.645C528.082 202.225 527.366 201.642 526.846 200.895C526.336 200.138 526.081 199.322 526.081 198.447H528.61C528.656 199.295 528.993 199.969 529.622 200.471C530.26 200.963 531.098 201.209 532.137 201.209C533.095 201.209 533.86 201.018 534.434 200.635C535.018 200.243 535.309 199.723 535.309 199.076ZM546.867 201.209C547.77 201.209 548.558 200.936 549.232 200.389C549.907 199.842 550.281 199.158 550.354 198.338H552.746C552.701 199.186 552.409 199.992 551.871 200.758C551.333 201.523 550.613 202.134 549.711 202.59C548.818 203.046 547.87 203.273 546.867 203.273C544.853 203.273 543.249 202.604 542.055 201.264C540.87 199.915 540.277 198.074 540.277 195.74V195.316C540.277 193.876 540.542 192.596 541.07 191.475C541.599 190.354 542.355 189.483 543.34 188.863C544.333 188.243 545.505 187.934 546.854 187.934C548.512 187.934 549.889 188.43 550.982 189.424C552.085 190.417 552.673 191.707 552.746 193.293H550.354C550.281 192.336 549.916 191.552 549.26 190.941C548.613 190.322 547.811 190.012 546.854 190.012C545.568 190.012 544.57 190.477 543.859 191.406C543.158 192.327 542.807 193.662 542.807 195.412V195.891C542.807 197.595 543.158 198.908 543.859 199.828C544.561 200.749 545.564 201.209 546.867 201.209ZM562.54 190.477C562.157 190.413 561.743 190.381 561.296 190.381C559.637 190.381 558.512 191.087 557.919 192.5V203H555.39V188.207H557.851L557.892 189.916C558.721 188.594 559.897 187.934 561.419 187.934C561.911 187.934 562.285 187.997 562.54 188.125V190.477ZM567.426 203H564.897V188.207H567.426V203ZM564.692 184.283C564.692 183.873 564.815 183.527 565.061 183.244C565.316 182.962 565.69 182.82 566.182 182.82C566.674 182.82 567.048 182.962 567.303 183.244C567.558 183.527 567.686 183.873 567.686 184.283C567.686 184.693 567.558 185.035 567.303 185.309C567.048 185.582 566.674 185.719 566.182 185.719C565.69 185.719 565.316 185.582 565.061 185.309C564.815 185.035 564.692 184.693 564.692 184.283ZM583.81 195.768C583.81 198.028 583.291 199.846 582.252 201.223C581.212 202.59 579.818 203.273 578.068 203.273C576.199 203.273 574.755 202.613 573.734 201.291L573.611 203H571.287V182H573.816V189.834C574.837 188.567 576.245 187.934 578.041 187.934C579.836 187.934 581.244 188.613 582.265 189.971C583.295 191.329 583.81 193.188 583.81 195.549V195.768ZM581.281 195.48C581.281 193.758 580.948 192.427 580.283 191.488C579.617 190.549 578.66 190.08 577.412 190.08C575.744 190.08 574.545 190.855 573.816 192.404V198.803C574.591 200.352 575.798 201.127 577.439 201.127C578.651 201.127 579.595 200.658 580.269 199.719C580.944 198.78 581.281 197.367 581.281 195.48ZM592.948 203.273C590.943 203.273 589.311 202.617 588.054 201.305C586.796 199.983 586.167 198.219 586.167 196.014V195.549C586.167 194.081 586.445 192.773 587.001 191.625C587.566 190.467 588.35 189.565 589.352 188.918C590.364 188.262 591.458 187.934 592.634 187.934C594.557 187.934 596.052 188.567 597.118 189.834C598.184 191.101 598.718 192.915 598.718 195.275V196.328H588.696C588.733 197.786 589.156 198.967 589.968 199.869C590.788 200.762 591.827 201.209 593.085 201.209C593.978 201.209 594.735 201.027 595.354 200.662C595.974 200.298 596.516 199.814 596.981 199.213L598.526 200.416C597.287 202.321 595.427 203.273 592.948 203.273ZM592.634 190.012C591.613 190.012 590.756 190.385 590.063 191.133C589.371 191.871 588.942 192.91 588.778 194.25H596.188V194.059C596.115 192.773 595.769 191.78 595.149 191.078C594.529 190.367 593.691 190.012 592.634 190.012ZM600.842 195.48C600.842 193.211 601.38 191.388 602.455 190.012C603.531 188.626 604.939 187.934 606.68 187.934C608.411 187.934 609.783 188.526 610.795 189.711V182H613.324V203H611L610.877 201.414C609.865 202.654 608.457 203.273 606.652 203.273C604.939 203.273 603.54 202.572 602.455 201.168C601.38 199.764 600.842 197.932 600.842 195.672V195.48ZM603.371 195.768C603.371 197.445 603.717 198.757 604.41 199.705C605.103 200.653 606.06 201.127 607.281 201.127C608.885 201.127 610.057 200.407 610.795 198.967V192.172C610.038 190.777 608.876 190.08 607.309 190.08C606.069 190.08 605.103 190.559 604.41 191.516C603.717 192.473 603.371 193.89 603.371 195.768ZM630.957 190.477C630.575 190.413 630.16 190.381 629.713 190.381C628.054 190.381 626.929 191.087 626.336 192.5V203H623.807V188.207H626.268L626.309 189.916C627.138 188.594 628.314 187.934 629.836 187.934C630.329 187.934 630.702 187.997 630.957 188.125V190.477ZM632.152 195.467C632.152 194.018 632.434 192.714 633 191.557C633.574 190.399 634.367 189.506 635.379 188.877C636.399 188.248 637.561 187.934 638.865 187.934C640.879 187.934 642.506 188.631 643.746 190.025C644.994 191.42 645.619 193.275 645.619 195.59V195.768C645.619 197.208 645.341 198.502 644.785 199.65C644.238 200.79 643.449 201.678 642.42 202.316C641.399 202.954 640.223 203.273 638.892 203.273C636.887 203.273 635.26 202.576 634.011 201.182C632.772 199.787 632.152 197.941 632.152 195.645V195.467ZM634.695 195.768C634.695 197.408 635.073 198.725 635.83 199.719C636.595 200.712 637.616 201.209 638.892 201.209C640.177 201.209 641.198 200.708 641.955 199.705C642.711 198.693 643.089 197.281 643.089 195.467C643.089 193.844 642.702 192.532 641.927 191.529C641.162 190.518 640.141 190.012 638.865 190.012C637.616 190.012 636.609 190.508 635.843 191.502C635.078 192.495 634.695 193.917 634.695 195.768ZM657.723 203C657.578 202.708 657.459 202.189 657.368 201.441C656.192 202.663 654.789 203.273 653.157 203.273C651.699 203.273 650.5 202.863 649.561 202.043C648.632 201.214 648.167 200.165 648.167 198.898C648.167 197.358 648.75 196.164 649.917 195.316C651.093 194.46 652.742 194.031 654.866 194.031H657.327V192.869C657.327 191.985 657.063 191.283 656.534 190.764C656.005 190.235 655.226 189.971 654.196 189.971C653.294 189.971 652.537 190.199 651.927 190.654C651.316 191.11 651.011 191.661 651.011 192.309H648.468C648.468 191.57 648.727 190.859 649.247 190.176C649.776 189.483 650.486 188.936 651.38 188.535C652.282 188.134 653.271 187.934 654.346 187.934C656.051 187.934 657.386 188.362 658.352 189.219C659.319 190.066 659.82 191.238 659.856 192.732V199.541C659.856 200.899 660.029 201.979 660.376 202.781V203H657.723ZM653.526 201.072C654.319 201.072 655.071 200.867 655.782 200.457C656.493 200.047 657.008 199.514 657.327 198.857V195.822H655.345C652.246 195.822 650.696 196.729 650.696 198.543C650.696 199.336 650.96 199.956 651.489 200.402C652.018 200.849 652.697 201.072 653.526 201.072ZM663.006 195.48C663.006 193.211 663.544 191.388 664.619 190.012C665.695 188.626 667.103 187.934 668.844 187.934C670.576 187.934 671.947 188.526 672.959 189.711V182H675.488V203H673.164L673.041 201.414C672.029 202.654 670.621 203.273 668.816 203.273C667.103 203.273 665.704 202.572 664.619 201.168C663.544 199.764 663.006 197.932 663.006 195.672V195.48ZM665.535 195.768C665.535 197.445 665.882 198.757 666.574 199.705C667.267 200.653 668.224 201.127 669.445 201.127C671.049 201.127 672.221 200.407 672.959 198.967V192.172C672.202 190.777 671.04 190.08 669.473 190.08C668.233 190.08 667.267 190.559 666.574 191.516C665.882 192.473 665.535 193.89 665.535 195.768ZM681.605 188.207L681.673 189.848C682.758 188.572 684.221 187.934 686.062 187.934C688.131 187.934 689.539 188.727 690.286 190.312C690.779 189.602 691.417 189.027 692.2 188.59C692.993 188.152 693.928 187.934 695.003 187.934C698.248 187.934 699.898 189.652 699.952 193.088V203H697.423V193.238C697.423 192.181 697.181 191.393 696.698 190.873C696.215 190.344 695.404 190.08 694.265 190.08C693.326 190.08 692.547 190.363 691.927 190.928C691.307 191.484 690.947 192.236 690.847 193.184V203H688.304V193.307C688.304 191.156 687.251 190.08 685.146 190.08C683.487 190.08 682.352 190.786 681.741 192.199V203H679.212V188.207H681.605ZM712.713 203C712.567 202.708 712.449 202.189 712.358 201.441C711.182 202.663 709.778 203.273 708.147 203.273C706.689 203.273 705.49 202.863 704.551 202.043C703.621 201.214 703.157 200.165 703.157 198.898C703.157 197.358 703.74 196.164 704.907 195.316C706.082 194.46 707.732 194.031 709.856 194.031H712.317V192.869C712.317 191.985 712.052 191.283 711.524 190.764C710.995 190.235 710.216 189.971 709.186 189.971C708.284 189.971 707.527 190.199 706.916 190.654C706.306 191.11 706 191.661 706 192.309H703.457C703.457 191.57 703.717 190.859 704.237 190.176C704.765 189.483 705.476 188.936 706.37 188.535C707.272 188.134 708.261 187.934 709.336 187.934C711.041 187.934 712.376 188.362 713.342 189.219C714.308 190.066 714.81 191.238 714.846 192.732V199.541C714.846 200.899 715.019 201.979 715.366 202.781V203H712.713ZM708.516 201.072C709.309 201.072 710.061 200.867 710.772 200.457C711.483 200.047 711.998 199.514 712.317 198.857V195.822H710.334C707.235 195.822 705.686 196.729 705.686 198.543C705.686 199.336 705.95 199.956 706.479 200.402C707.008 200.849 707.687 201.072 708.516 201.072ZM731.107 195.768C731.107 198.019 730.592 199.833 729.562 201.209C728.532 202.585 727.138 203.273 725.379 203.273C723.583 203.273 722.17 202.704 721.14 201.564V208.688H718.611V188.207H720.921L721.045 189.848C722.074 188.572 723.505 187.934 725.337 187.934C727.115 187.934 728.518 188.604 729.548 189.943C730.587 191.283 731.107 193.147 731.107 195.535V195.768ZM728.578 195.48C728.578 193.812 728.222 192.495 727.511 191.529C726.8 190.563 725.825 190.08 724.586 190.08C723.054 190.08 721.906 190.759 721.14 192.117V199.186C721.897 200.535 723.054 201.209 724.613 201.209C725.825 201.209 726.787 200.73 727.498 199.773C728.218 198.807 728.578 197.376 728.578 195.48ZM742.747 199.076C742.747 198.393 742.487 197.864 741.968 197.49C741.457 197.107 740.559 196.779 739.274 196.506C737.998 196.232 736.982 195.904 736.225 195.521C735.478 195.139 734.922 194.683 734.557 194.154C734.202 193.626 734.024 192.997 734.024 192.268C734.024 191.055 734.535 190.03 735.555 189.191C736.585 188.353 737.898 187.934 739.493 187.934C741.17 187.934 742.528 188.367 743.567 189.232C744.615 190.098 745.139 191.206 745.139 192.555H742.596C742.596 191.862 742.3 191.265 741.708 190.764C741.124 190.262 740.386 190.012 739.493 190.012C738.572 190.012 737.852 190.212 737.333 190.613C736.813 191.014 736.554 191.538 736.554 192.186C736.554 192.796 736.795 193.257 737.278 193.566C737.761 193.876 738.632 194.173 739.889 194.455C741.156 194.738 742.182 195.075 742.966 195.467C743.749 195.859 744.328 196.333 744.702 196.889C745.085 197.436 745.276 198.105 745.276 198.898C745.276 200.22 744.748 201.282 743.69 202.084C742.633 202.877 741.261 203.273 739.575 203.273C738.39 203.273 737.342 203.064 736.43 202.645C735.519 202.225 734.804 201.642 734.284 200.895C733.774 200.138 733.518 199.322 733.518 198.447H736.048C736.093 199.295 736.43 199.969 737.059 200.471C737.697 200.963 738.536 201.209 739.575 201.209C740.532 201.209 741.298 201.018 741.872 200.635C742.455 200.243 742.747 199.723 742.747 199.076ZM748.426 201.674C748.426 201.236 748.553 200.872 748.809 200.58C749.073 200.288 749.465 200.143 749.984 200.143C750.504 200.143 750.896 200.288 751.16 200.58C751.434 200.872 751.57 201.236 751.57 201.674C751.57 202.093 751.434 202.444 751.16 202.727C750.896 203.009 750.504 203.15 749.984 203.15C749.465 203.15 749.073 203.009 748.809 202.727C748.553 202.444 748.426 202.093 748.426 201.674ZM755.609 201.674C755.609 201.236 755.736 200.872 755.991 200.58C756.256 200.288 756.648 200.143 757.167 200.143C757.687 200.143 758.079 200.288 758.343 200.58C758.616 200.872 758.753 201.236 758.753 201.674C758.753 202.093 758.616 202.444 758.343 202.727C758.079 203.009 757.687 203.15 757.167 203.15C756.648 203.15 756.256 203.009 755.991 202.727C755.736 202.444 755.609 202.093 755.609 201.674ZM762.791 201.674C762.791 201.236 762.919 200.872 763.174 200.58C763.439 200.288 763.83 200.143 764.35 200.143C764.87 200.143 765.261 200.288 765.526 200.58C765.799 200.872 765.936 201.236 765.936 201.674C765.936 202.093 765.799 202.444 765.526 202.727C765.261 203.009 764.87 203.15 764.35 203.15C763.83 203.15 763.439 203.009 763.174 202.727C762.919 202.444 762.791 202.093 762.791 201.674Z" fill="#888888"/>
<path d="M95.9355 86.207V94H93.3105V74.0938H100.652C102.831 74.0938 104.535 74.6497 105.766 75.7617C107.005 76.8737 107.625 78.3457 107.625 80.1777C107.625 82.11 107.019 83.6003 105.807 84.6484C104.604 85.6875 102.876 86.207 100.625 86.207H95.9355ZM95.9355 84.0605H100.652C102.056 84.0605 103.132 83.7324 103.879 83.0762C104.626 82.4108 105 81.4538 105 80.2051C105 79.0202 104.626 78.0723 103.879 77.3613C103.132 76.6504 102.106 76.2812 100.803 76.2539H95.9355V84.0605ZM113.126 94H110.597V73H113.126V94ZM126.12 94C125.974 93.7083 125.855 93.1888 125.764 92.4414C124.588 93.6628 123.185 94.2734 121.553 94.2734C120.095 94.2734 118.896 93.8633 117.957 93.043C117.028 92.2135 116.563 91.1654 116.563 89.8984C116.563 88.3581 117.146 87.1641 118.313 86.3164C119.489 85.4596 121.138 85.0312 123.262 85.0312H125.723V83.8691C125.723 82.985 125.459 82.2832 124.93 81.7637C124.401 81.235 123.622 80.9707 122.592 80.9707C121.69 80.9707 120.933 81.1986 120.323 81.6543C119.712 82.11 119.407 82.6615 119.407 83.3086H116.864C116.864 82.5703 117.123 81.8594 117.643 81.1758C118.172 80.4831 118.883 79.9362 119.776 79.5352C120.678 79.1341 121.667 78.9336 122.743 78.9336C124.447 78.9336 125.782 79.362 126.748 80.2188C127.715 81.0664 128.216 82.2376 128.252 83.7324V90.541C128.252 91.8991 128.426 92.9792 128.772 93.7812V94H126.12ZM121.922 92.0723C122.715 92.0723 123.467 91.8672 124.178 91.457C124.889 91.0469 125.404 90.5137 125.723 89.8574V86.8223H123.741C120.642 86.8223 119.092 87.7292 119.092 89.543C119.092 90.3359 119.357 90.9557 119.885 91.4023C120.414 91.849 121.093 92.0723 121.922 92.0723ZM136.638 90.2949L140.084 79.207H142.791L136.843 96.2832C135.923 98.7441 134.46 99.9746 132.455 99.9746L131.976 99.9336L131.033 99.7559V97.7051L131.716 97.7598C132.573 97.7598 133.239 97.5866 133.713 97.2402C134.196 96.8939 134.592 96.2604 134.902 95.3398L135.463 93.8359L130.185 79.207H132.947L136.638 90.2949ZM164.703 90.5137L167.547 79.207H170.076L165.77 94H163.719L160.123 82.7891L156.623 94H154.572L150.279 79.207H152.795L155.707 90.2812L159.152 79.207H161.189L164.703 90.5137ZM175.208 94H172.679V79.207H175.208V94ZM172.474 75.2832C172.474 74.873 172.597 74.5267 172.843 74.2441C173.098 73.9616 173.472 73.8203 173.964 73.8203C174.456 73.8203 174.83 73.9616 175.085 74.2441C175.34 74.5267 175.468 74.873 175.468 75.2832C175.468 75.6934 175.34 76.0352 175.085 76.3086C174.83 76.582 174.456 76.7188 173.964 76.7188C173.472 76.7188 173.098 76.582 172.843 76.3086C172.597 76.0352 172.474 75.6934 172.474 75.2832ZM182.5 75.625V79.207H185.262V81.1621H182.5V90.3359C182.5 90.9284 182.623 91.375 182.87 91.6758C183.116 91.9674 183.535 92.1133 184.127 92.1133C184.419 92.1133 184.82 92.0586 185.33 91.9492V94C184.665 94.1823 184.018 94.2734 183.389 94.2734C182.259 94.2734 181.407 93.9316 180.832 93.248C180.258 92.5645 179.971 91.5938 179.971 90.3359V81.1621H177.278V79.207H179.971V75.625H182.5ZM190.558 80.998C191.679 79.6217 193.138 78.9336 194.933 78.9336C198.06 78.9336 199.636 80.6973 199.664 84.2246V94H197.134V84.2109C197.125 83.1445 196.879 82.3561 196.396 81.8457C195.922 81.3353 195.179 81.0801 194.168 81.0801C193.347 81.0801 192.627 81.2988 192.007 81.7363C191.388 82.1738 190.905 82.748 190.558 83.459V94H188.029V73H190.558V80.998ZM219.129 94C218.983 93.7083 218.865 93.1888 218.773 92.4414C217.598 93.6628 216.194 94.2734 214.562 94.2734C213.104 94.2734 211.906 93.8633 210.967 93.043C210.037 92.2135 209.572 91.1654 209.572 89.8984C209.572 88.3581 210.156 87.1641 211.322 86.3164C212.498 85.4596 214.148 85.0312 216.271 85.0312H218.732V83.8691C218.732 82.985 218.468 82.2832 217.939 81.7637C217.411 81.235 216.632 80.9707 215.602 80.9707C214.699 80.9707 213.943 81.1986 213.332 81.6543C212.721 82.11 212.416 82.6615 212.416 83.3086H209.873C209.873 82.5703 210.133 81.8594 210.652 81.1758C211.181 80.4831 211.892 79.9362 212.785 79.5352C213.688 79.1341 214.676 78.9336 215.752 78.9336C217.456 78.9336 218.792 79.362 219.758 80.2188C220.724 81.0664 221.225 82.2376 221.262 83.7324V90.541C221.262 91.8991 221.435 92.9792 221.781 93.7812V94H219.129ZM214.932 92.0723C215.725 92.0723 216.477 91.8672 217.188 91.457C217.898 91.0469 218.413 90.5137 218.732 89.8574V86.8223H216.75C213.651 86.8223 212.102 87.7292 212.102 89.543C212.102 90.3359 212.366 90.9557 212.895 91.4023C213.423 91.849 214.102 92.0723 214.932 92.0723ZM227.775 94H225.245V73H227.775V94ZM234.383 94H231.854V73H234.383V94ZM248.421 75.625V79.207H251.182V81.1621H248.421V90.3359C248.421 90.9284 248.544 91.375 248.79 91.6758C249.036 91.9674 249.455 92.1133 250.048 92.1133C250.339 92.1133 250.74 92.0586 251.251 91.9492V94C250.585 94.1823 249.938 94.2734 249.309 94.2734C248.179 94.2734 247.327 93.9316 246.753 93.248C246.179 92.5645 245.891 91.5938 245.891 90.3359V81.1621H243.198V79.207H245.891V75.625H248.421ZM256.479 80.998C257.6 79.6217 259.058 78.9336 260.854 78.9336C263.98 78.9336 265.557 80.6973 265.584 84.2246V94H263.055V84.2109C263.046 83.1445 262.799 82.3561 262.316 81.8457C261.842 81.3353 261.1 81.0801 260.088 81.0801C259.268 81.0801 258.548 81.2988 257.928 81.7363C257.308 82.1738 256.825 82.748 256.479 83.459V94H253.949V73H256.479V80.998ZM275.31 94.2734C273.305 94.2734 271.673 93.6172 270.415 92.3047C269.157 90.9831 268.529 89.2194 268.529 87.0137V86.5488C268.529 85.0814 268.807 83.7734 269.363 82.625C269.928 81.4674 270.711 80.5651 271.714 79.918C272.726 79.2617 273.82 78.9336 274.995 78.9336C276.918 78.9336 278.413 79.5671 279.48 80.834C280.546 82.1009 281.079 83.9147 281.079 86.2754V87.3281H271.058C271.094 88.7865 271.518 89.9668 272.329 90.8691C273.15 91.7624 274.189 92.209 275.446 92.209C276.34 92.209 277.096 92.0267 277.716 91.6621C278.336 91.2975 278.878 90.8145 279.343 90.2129L280.888 91.416C279.648 93.321 277.789 94.2734 275.31 94.2734ZM274.995 81.0117C273.974 81.0117 273.118 81.3854 272.425 82.1328C271.732 82.8711 271.304 83.9102 271.14 85.25H278.55V85.0586C278.477 83.7734 278.131 82.7799 277.511 82.0781C276.891 81.3672 276.053 81.0117 274.995 81.0117ZM297.714 81.4766C297.332 81.4128 296.917 81.3809 296.47 81.3809C294.811 81.3809 293.686 82.0872 293.093 83.5V94H290.564V79.207H293.025L293.066 80.916C293.895 79.5944 295.071 78.9336 296.593 78.9336C297.086 78.9336 297.459 78.9974 297.714 79.125V81.4766ZM298.909 86.4668C298.909 85.0176 299.192 83.7142 299.757 82.5566C300.331 81.3991 301.124 80.5059 302.136 79.877C303.156 79.248 304.318 78.9336 305.622 78.9336C307.636 78.9336 309.263 79.6309 310.503 81.0254C311.751 82.4199 312.376 84.2747 312.376 86.5898V86.7676C312.376 88.2077 312.098 89.502 311.542 90.6504C310.995 91.7897 310.207 92.6784 309.177 93.3164C308.156 93.9544 306.98 94.2734 305.649 94.2734C303.644 94.2734 302.017 93.5762 300.768 92.1816C299.529 90.7871 298.909 88.9414 298.909 86.6445V86.4668ZM301.452 86.7676C301.452 88.4082 301.83 89.7253 302.587 90.7188C303.352 91.7122 304.373 92.209 305.649 92.209C306.934 92.209 307.955 91.7077 308.712 90.7051C309.468 89.6934 309.846 88.2806 309.846 86.4668C309.846 84.8444 309.459 83.5319 308.684 82.5293C307.919 81.5176 306.898 81.0117 305.622 81.0117C304.373 81.0117 303.366 81.5085 302.6 82.502C301.835 83.4954 301.452 84.9173 301.452 86.7676ZM324.48 94C324.335 93.7083 324.216 93.1888 324.125 92.4414C322.949 93.6628 321.546 94.2734 319.914 94.2734C318.456 94.2734 317.257 93.8633 316.318 93.043C315.389 92.2135 314.924 91.1654 314.924 89.8984C314.924 88.3581 315.507 87.1641 316.674 86.3164C317.85 85.4596 319.499 85.0312 321.623 85.0312H324.084V83.8691C324.084 82.985 323.82 82.2832 323.291 81.7637C322.762 81.235 321.983 80.9707 320.953 80.9707C320.051 80.9707 319.294 81.1986 318.684 81.6543C318.073 82.11 317.768 82.6615 317.768 83.3086H315.225C315.225 82.5703 315.484 81.8594 316.004 81.1758C316.533 80.4831 317.243 79.9362 318.137 79.5352C319.039 79.1341 320.028 78.9336 321.104 78.9336C322.808 78.9336 324.143 79.362 325.109 80.2188C326.076 81.0664 326.577 82.2376 326.613 83.7324V90.541C326.613 91.8991 326.786 92.9792 327.133 93.7812V94H324.48ZM320.283 92.0723C321.076 92.0723 321.828 91.8672 322.539 91.457C323.25 91.0469 323.765 90.5137 324.084 89.8574V86.8223H322.102C319.003 86.8223 317.453 87.7292 317.453 89.543C317.453 90.3359 317.717 90.9557 318.246 91.4023C318.775 91.849 319.454 92.0723 320.283 92.0723ZM329.763 86.4805C329.763 84.2109 330.301 82.388 331.376 81.0117C332.452 79.6263 333.86 78.9336 335.601 78.9336C337.333 78.9336 338.704 79.526 339.716 80.7109V73H342.245V94H339.921L339.798 92.4141C338.786 93.6536 337.378 94.2734 335.573 94.2734C333.86 94.2734 332.461 93.5716 331.376 92.168C330.301 90.7643 329.763 88.9323 329.763 86.6719V86.4805ZM332.292 86.7676C332.292 88.4447 332.639 89.7572 333.331 90.7051C334.024 91.653 334.981 92.127 336.202 92.127C337.807 92.127 338.978 91.4069 339.716 89.9668V83.1719C338.96 81.7773 337.797 81.0801 336.23 81.0801C334.99 81.0801 334.024 81.5586 333.331 82.5156C332.639 83.4727 332.292 84.89 332.292 86.7676ZM348.362 79.207L348.43 80.8477C349.515 79.5716 350.978 78.9336 352.819 78.9336C354.888 78.9336 356.296 79.7266 357.043 81.3125C357.536 80.6016 358.174 80.0273 358.957 79.5898C359.75 79.1523 360.685 78.9336 361.76 78.9336C365.005 78.9336 366.655 80.6517 366.709 84.0879V94H364.18V84.2383C364.18 83.181 363.939 82.3926 363.455 81.873C362.972 81.3444 362.161 81.0801 361.022 81.0801C360.083 81.0801 359.304 81.3626 358.684 81.9277C358.064 82.4837 357.704 83.2357 357.604 84.1836V94H355.061V84.3066C355.061 82.1556 354.008 81.0801 351.903 81.0801C350.244 81.0801 349.109 81.7865 348.498 83.1992V94H345.969V79.207H348.362ZM379.47 94C379.324 93.7083 379.206 93.1888 379.115 92.4414C377.939 93.6628 376.535 94.2734 374.904 94.2734C373.446 94.2734 372.247 93.8633 371.308 93.043C370.379 92.2135 369.914 91.1654 369.914 89.8984C369.914 88.3581 370.497 87.1641 371.664 86.3164C372.839 85.4596 374.489 85.0312 376.613 85.0312H379.074V83.8691C379.074 82.985 378.809 82.2832 378.281 81.7637C377.752 81.235 376.973 80.9707 375.943 80.9707C375.041 80.9707 374.284 81.1986 373.673 81.6543C373.063 82.11 372.757 82.6615 372.757 83.3086H370.214C370.214 82.5703 370.474 81.8594 370.994 81.1758C371.522 80.4831 372.233 79.9362 373.127 79.5352C374.029 79.1341 375.018 78.9336 376.093 78.9336C377.798 78.9336 379.133 79.362 380.099 80.2188C381.065 81.0664 381.567 82.2376 381.603 83.7324V90.541C381.603 91.8991 381.776 92.9792 382.123 93.7812V94H379.47ZM375.273 92.0723C376.066 92.0723 376.818 91.8672 377.529 91.457C378.24 91.0469 378.755 90.5137 379.074 89.8574V86.8223H377.091C373.992 86.8223 372.443 87.7292 372.443 89.543C372.443 90.3359 372.707 90.9557 373.236 91.4023C373.765 91.849 374.444 92.0723 375.273 92.0723ZM397.864 86.7676C397.864 89.0189 397.349 90.8327 396.319 92.209C395.289 93.5853 393.895 94.2734 392.136 94.2734C390.34 94.2734 388.927 93.7038 387.897 92.5645V99.6875H385.368V79.207H387.679L387.802 80.8477C388.832 79.5716 390.263 78.9336 392.095 78.9336C393.872 78.9336 395.276 79.6035 396.305 80.9434C397.345 82.2832 397.864 84.1471 397.864 86.5352V86.7676ZM395.335 86.4805C395.335 84.8125 394.979 83.4954 394.268 82.5293C393.557 81.5632 392.582 81.0801 391.343 81.0801C389.811 81.0801 388.663 81.7591 387.897 83.1172V90.1855C388.654 91.5345 389.811 92.209 391.37 92.209C392.582 92.209 393.544 91.7305 394.255 90.7734C394.975 89.8073 395.335 88.3763 395.335 86.4805ZM409.504 90.0762C409.504 89.3926 409.244 88.8639 408.725 88.4902C408.214 88.1074 407.316 87.7793 406.031 87.5059C404.755 87.2324 403.739 86.9043 402.982 86.5215C402.235 86.1387 401.679 85.6829 401.314 85.1543C400.959 84.6257 400.781 83.9967 400.781 83.2676C400.781 82.0553 401.292 81.0299 402.312 80.1914C403.342 79.3529 404.655 78.9336 406.25 78.9336C407.927 78.9336 409.285 79.3665 410.324 80.2324C411.372 81.0983 411.896 82.2057 411.896 83.5547H409.354C409.354 82.862 409.057 82.265 408.465 81.7637C407.882 81.2624 407.143 81.0117 406.25 81.0117C405.329 81.0117 404.609 81.2122 404.09 81.6133C403.57 82.0143 403.311 82.5384 403.311 83.1855C403.311 83.7962 403.552 84.2565 404.035 84.5664C404.518 84.8763 405.389 85.1725 406.646 85.4551C407.913 85.7376 408.939 86.0749 409.723 86.4668C410.507 86.8587 411.085 87.3327 411.459 87.8887C411.842 88.4355 412.033 89.1055 412.033 89.8984C412.033 91.2201 411.505 92.2819 410.447 93.084C409.39 93.877 408.018 94.2734 406.332 94.2734C405.147 94.2734 404.099 94.0638 403.188 93.6445C402.276 93.2253 401.561 92.6419 401.041 91.8945C400.531 91.138 400.275 90.3223 400.275 89.4473H402.805C402.85 90.2949 403.188 90.9694 403.816 91.4707C404.454 91.9629 405.293 92.209 406.332 92.209C407.289 92.209 408.055 92.0176 408.629 91.6348C409.212 91.2428 409.504 90.7233 409.504 90.0762ZM426.713 90.2949L430.159 79.207H432.866L426.918 96.2832C425.998 98.7441 424.535 99.9746 422.53 99.9746L422.051 99.9336L421.108 99.7559V97.7051L421.791 97.7598C422.648 97.7598 423.314 97.5866 423.788 97.2402C424.271 96.8939 424.667 96.2604 424.977 95.3398L425.538 93.8359L420.26 79.207H423.022L426.713 90.2949ZM434.046 86.4668C434.046 85.0176 434.329 83.7142 434.894 82.5566C435.468 81.3991 436.261 80.5059 437.273 79.877C438.294 79.248 439.456 78.9336 440.759 78.9336C442.774 78.9336 444.401 79.6309 445.64 81.0254C446.889 82.4199 447.513 84.2747 447.513 86.5898V86.7676C447.513 88.2077 447.235 89.502 446.679 90.6504C446.132 91.7897 445.344 92.6784 444.314 93.3164C443.293 93.9544 442.117 94.2734 440.787 94.2734C438.782 94.2734 437.155 93.5762 435.906 92.1816C434.666 90.7871 434.046 88.9414 434.046 86.6445V86.4668ZM436.589 86.7676C436.589 88.4082 436.968 89.7253 437.724 90.7188C438.49 91.7122 439.511 92.209 440.787 92.209C442.072 92.209 443.093 91.7077 443.849 90.7051C444.606 89.6934 444.984 88.2806 444.984 86.4668C444.984 84.8444 444.597 83.5319 443.822 82.5293C443.056 81.5176 442.035 81.0117 440.759 81.0117C439.511 81.0117 438.504 81.5085 437.738 82.502C436.972 83.4954 436.589 84.9173 436.589 86.7676ZM459.618 92.5371C458.634 93.6947 457.189 94.2734 455.284 94.2734C453.707 94.2734 452.504 93.8177 451.675 92.9062C450.854 91.9857 450.44 90.6276 450.43 88.832V79.207H452.96V88.7637C452.96 91.0059 453.871 92.127 455.694 92.127C457.626 92.127 458.912 91.4069 459.55 89.9668V79.207H462.079V94H459.673L459.618 92.5371ZM481.093 90.0762C481.093 89.3926 480.833 88.8639 480.314 88.4902C479.803 88.1074 478.905 87.7793 477.62 87.5059C476.344 87.2324 475.328 86.9043 474.571 86.5215C473.824 86.1387 473.268 85.6829 472.904 85.1543C472.548 84.6257 472.37 83.9967 472.37 83.2676C472.37 82.0553 472.881 81.0299 473.902 80.1914C474.931 79.3529 476.244 78.9336 477.839 78.9336C479.516 78.9336 480.874 79.3665 481.913 80.2324C482.961 81.0983 483.486 82.2057 483.486 83.5547H480.943C480.943 82.862 480.646 82.265 480.054 81.7637C479.471 81.2624 478.732 81.0117 477.839 81.0117C476.918 81.0117 476.198 81.2122 475.679 81.6133C475.159 82.0143 474.9 82.5384 474.9 83.1855C474.9 83.7962 475.141 84.2565 475.624 84.5664C476.107 84.8763 476.978 85.1725 478.236 85.4551C479.502 85.7376 480.528 86.0749 481.312 86.4668C482.096 86.8587 482.674 87.3327 483.048 87.8887C483.431 88.4355 483.622 89.1055 483.622 89.8984C483.622 91.2201 483.094 92.2819 482.036 93.084C480.979 93.877 479.607 94.2734 477.921 94.2734C476.736 94.2734 475.688 94.0638 474.777 93.6445C473.865 93.2253 473.15 92.6419 472.63 91.8945C472.12 91.138 471.864 90.3223 471.864 89.4473H474.394C474.439 90.2949 474.777 90.9694 475.405 91.4707C476.043 91.9629 476.882 92.209 477.921 92.209C478.878 92.209 479.644 92.0176 480.218 91.6348C480.801 91.2428 481.093 90.7233 481.093 90.0762ZM495.85 92.5371C494.866 93.6947 493.421 94.2734 491.516 94.2734C489.939 94.2734 488.736 93.8177 487.907 92.9062C487.086 91.9857 486.672 90.6276 486.663 88.832V79.207H489.192V88.7637C489.192 91.0059 490.103 92.127 491.926 92.127C493.858 92.127 495.144 91.4069 495.782 89.9668V79.207H498.311V94H495.905L495.85 92.5371ZM514.49 86.7676C514.49 89.028 513.97 90.8464 512.931 92.2227C511.892 93.5898 510.498 94.2734 508.748 94.2734C506.879 94.2734 505.434 93.6126 504.414 92.291L504.291 94H501.966V73H504.496V80.834C505.517 79.5671 506.925 78.9336 508.72 78.9336C510.516 78.9336 511.924 79.6126 512.945 80.9707C513.975 82.3288 514.49 84.1882 514.49 86.5488V86.7676ZM511.961 86.4805C511.961 84.7578 511.628 83.4271 510.962 82.4883C510.297 81.5495 509.34 81.0801 508.091 81.0801C506.423 81.0801 505.225 81.8548 504.496 83.4043V89.8027C505.27 91.3522 506.478 92.127 508.119 92.127C509.331 92.127 510.274 91.6576 510.949 90.7188C511.623 89.7799 511.961 88.3672 511.961 86.4805ZM526.102 90.0762C526.102 89.3926 525.843 88.8639 525.323 88.4902C524.813 88.1074 523.915 87.7793 522.63 87.5059C521.354 87.2324 520.337 86.9043 519.581 86.5215C518.833 86.1387 518.277 85.6829 517.913 85.1543C517.557 84.6257 517.38 83.9967 517.38 83.2676C517.38 82.0553 517.89 81.0299 518.911 80.1914C519.941 79.3529 521.253 78.9336 522.848 78.9336C524.526 78.9336 525.884 79.3665 526.923 80.2324C527.971 81.0983 528.495 82.2057 528.495 83.5547H525.952C525.952 82.862 525.656 82.265 525.063 81.7637C524.48 81.2624 523.742 81.0117 522.848 81.0117C521.928 81.0117 521.208 81.2122 520.688 81.6133C520.169 82.0143 519.909 82.5384 519.909 83.1855C519.909 83.7962 520.151 84.2565 520.634 84.5664C521.117 84.8763 521.987 85.1725 523.245 85.4551C524.512 85.7376 525.537 86.0749 526.321 86.4668C527.105 86.8587 527.684 87.3327 528.057 87.8887C528.44 88.4355 528.632 89.1055 528.632 89.8984C528.632 91.2201 528.103 92.2819 527.046 93.084C525.988 93.877 524.617 94.2734 522.93 94.2734C521.746 94.2734 520.697 94.0638 519.786 93.6445C518.874 93.2253 518.159 92.6419 517.639 91.8945C517.129 91.138 516.874 90.3223 516.874 89.4473H519.403C519.449 90.2949 519.786 90.9694 520.415 91.4707C521.053 91.9629 521.891 92.209 522.93 92.209C523.888 92.209 524.653 92.0176 525.227 91.6348C525.811 91.2428 526.102 90.7233 526.102 90.0762ZM537.66 92.209C538.562 92.209 539.351 91.9355 540.025 91.3887C540.7 90.8418 541.074 90.1582 541.146 89.3379H543.539C543.493 90.1855 543.202 90.9922 542.664 91.7578C542.126 92.5234 541.406 93.1341 540.504 93.5898C539.611 94.0456 538.663 94.2734 537.66 94.2734C535.646 94.2734 534.042 93.6035 532.848 92.2637C531.663 90.9147 531.07 89.0736 531.07 86.7402V86.3164C531.07 84.8763 531.335 83.5957 531.863 82.4746C532.392 81.3535 533.148 80.4831 534.133 79.8633C535.126 79.2435 536.298 78.9336 537.646 78.9336C539.305 78.9336 540.682 79.4303 541.775 80.4238C542.878 81.4173 543.466 82.707 543.539 84.293H541.146C541.074 83.3359 540.709 82.5521 540.053 81.9414C539.406 81.3216 538.604 81.0117 537.646 81.0117C536.361 81.0117 535.363 81.4766 534.652 82.4062C533.951 83.3268 533.6 84.6621 533.6 86.4121V86.8906C533.6 88.5951 533.951 89.9076 534.652 90.8281C535.354 91.7487 536.357 92.209 537.66 92.209ZM553.333 81.4766C552.95 81.4128 552.536 81.3809 552.089 81.3809C550.43 81.3809 549.305 82.0872 548.712 83.5V94H546.183V79.207H548.644L548.685 80.916C549.514 79.5944 550.69 78.9336 552.212 78.9336C552.704 78.9336 553.078 78.9974 553.333 79.125V81.4766ZM558.219 94H555.69V79.207H558.219V94ZM555.485 75.2832C555.485 74.873 555.608 74.5267 555.854 74.2441C556.109 73.9616 556.483 73.8203 556.975 73.8203C557.467 73.8203 557.841 73.9616 558.096 74.2441C558.351 74.5267 558.479 74.873 558.479 75.2832C558.479 75.6934 558.351 76.0352 558.096 76.3086C557.841 76.582 557.467 76.7188 556.975 76.7188C556.483 76.7188 556.109 76.582 555.854 76.3086C555.608 76.0352 555.485 75.6934 555.485 75.2832ZM574.603 86.7676C574.603 89.028 574.084 90.8464 573.045 92.2227C572.005 93.5898 570.611 94.2734 568.861 94.2734C566.992 94.2734 565.548 93.6126 564.527 92.291L564.404 94H562.08V73H564.609V80.834C565.63 79.5671 567.038 78.9336 568.834 78.9336C570.629 78.9336 572.037 79.6126 573.058 80.9707C574.088 82.3288 574.603 84.1882 574.603 86.5488V86.7676ZM572.074 86.4805C572.074 84.7578 571.741 83.4271 571.076 82.4883C570.41 81.5495 569.453 81.0801 568.205 81.0801C566.537 81.0801 565.338 81.8548 564.609 83.4043V89.8027C565.384 91.3522 566.591 92.127 568.232 92.127C569.444 92.127 570.388 91.6576 571.062 90.7188C571.737 89.7799 572.074 88.3672 572.074 86.4805ZM583.741 94.2734C581.736 94.2734 580.104 93.6172 578.846 92.3047C577.589 90.9831 576.96 89.2194 576.96 87.0137V86.5488C576.96 85.0814 577.238 83.7734 577.794 82.625C578.359 81.4674 579.143 80.5651 580.145 79.918C581.157 79.2617 582.251 78.9336 583.427 78.9336C585.35 78.9336 586.845 79.5671 587.911 80.834C588.977 82.1009 589.511 83.9147 589.511 86.2754V87.3281H579.489C579.526 88.7865 579.949 89.9668 580.761 90.8691C581.581 91.7624 582.62 92.209 583.878 92.209C584.771 92.209 585.527 92.0267 586.147 91.6621C586.767 91.2975 587.309 90.8145 587.774 90.2129L589.319 91.416C588.08 93.321 586.22 94.2734 583.741 94.2734ZM583.427 81.0117C582.406 81.0117 581.549 81.3854 580.856 82.1328C580.164 82.8711 579.735 83.9102 579.571 85.25H586.981V85.0586C586.908 83.7734 586.562 82.7799 585.942 82.0781C585.322 81.3672 584.484 81.0117 583.427 81.0117ZM591.635 86.4805C591.635 84.2109 592.173 82.388 593.248 81.0117C594.324 79.6263 595.732 78.9336 597.473 78.9336C599.204 78.9336 600.576 79.526 601.588 80.7109V73H604.117V94H601.793L601.67 92.4141C600.658 93.6536 599.25 94.2734 597.445 94.2734C595.732 94.2734 594.333 93.5716 593.248 92.168C592.173 90.7643 591.635 88.9323 591.635 86.6719V86.4805ZM594.164 86.7676C594.164 88.4447 594.51 89.7572 595.203 90.7051C595.896 91.653 596.853 92.127 598.074 92.127C599.678 92.127 600.85 91.4069 601.588 89.9668V83.1719C600.831 81.7773 599.669 81.0801 598.102 81.0801C596.862 81.0801 595.896 81.5586 595.203 82.5156C594.51 83.4727 594.164 84.89 594.164 86.7676ZM607.909 92.6738C607.909 92.2363 608.037 91.8717 608.292 91.5801C608.556 91.2884 608.948 91.1426 609.468 91.1426C609.987 91.1426 610.379 91.2884 610.644 91.5801C610.917 91.8717 611.054 92.2363 611.054 92.6738C611.054 93.0931 610.917 93.444 610.644 93.7266C610.379 94.0091 609.987 94.1504 609.468 94.1504C608.948 94.1504 608.556 94.0091 608.292 93.7266C608.037 93.444 607.909 93.0931 607.909 92.6738Z" fill="white"/>
<path d="M64 65C64 68.6097 64 76.0062 64 76.715C64 77.601 64.9674 77.5518 65.4765 77.3549C69.0405 76.1244 71.8408 77.0104 73.6228 78.6839C75.8764 80.8005 77.5941 85.5751 73.6228 89.3161C72.1462 90.7069 69.1831 92.0627 65.4765 90.842C64.9843 90.7435 64 90.7731 64 91.6788C64 92.5845 64 99.6036 64 103" stroke="white" stroke-width="2" stroke-linecap="round"/>
<defs>
<filter id="filter0_d" x="154" y="136" width="951" height="116" filterUnits="userSpaceOnUse" color-interpolation-filters="sRGB">
<feFlood flood-opacity="0" result="BackgroundImageFix"/>
<feColorMatrix in="SourceAlpha" type="matrix" values="0 0 0 0 0 0 0 0 0 0 0 0 0 0 0 0 0 0 127 0"/>
<feOffset/>
<feGaussianBlur stdDeviation="7.5"/>
<feColorMatrix type="matrix" values="0 0 0 0 0 0 0 0 0 0 0 0 0 0 0 0 0 0 0.25 0"/>
<feBlend mode="normal" in2="BackgroundImageFix" result="effect1_dropShadow"/>
<feBlend mode="normal" in="SourceGraphic" in2="effect1_dropShadow" result="shape"/>
</filter>
<linearGradient id="paint0_linear" x1="931" y1="554.567" x2="568.339" y2="-69.2918" gradientUnits="userSpaceOnUse">
<stop stop-color="#582D7D" stop-opacity="0.52"/>
<stop offset="0.696338" stop-color="#6700BF" stop-opacity="0.55"/>
</linearGradient>
</defs>
</svg>
