<svg width="241" height="57" viewBox="0 0 241 57" fill="none" xmlns="http://www.w3.org/2000/svg">
<path d="M174.649 18.032L174.648 18.0321C171.832 18.5133 169.688 20.2339 168.091 22.2754C166.427 24.4025 165.68 27.0599 166.015 29.7028C166.351 32.3449 167.741 34.7522 169.88 36.44C170.927 37.2653 172.264 38.0538 173.679 38.6204C175.086 39.1839 176.637 39.5544 178.096 39.4721L178.098 39.472C178.96 39.4215 179.85 39.6998 180.511 40.1995C181.164 40.6934 181.538 41.3534 181.538 42.0816V48.7389C181.538 52.329 178.627 55.2393 175.037 55.2393H28.1196C13.1419 55.2393 1 43.0974 1 28.1197C1 13.1419 13.1419 1 28.1196 1H175.673C178.912 1 181.538 3.62565 181.538 6.86455V16.0563C181.538 16.3987 181.314 16.8405 180.807 17.2205C180.306 17.5969 179.704 17.7724 179.249 17.7228C177.551 17.5378 176.006 17.8008 174.755 18.0139L174.715 18.0208L174.649 18.032Z" stroke="#7B2CBF" stroke-opacity="0.74" stroke-width="2"/>
<path d="M184.613 16.9891V7.20207C184.613 3.50062 187.613 0.5 191.315 0.5H212.274C227.527 0.5 239.893 12.8657 239.893 28.1197C239.893 43.3736 227.527 55.7393 212.274 55.7393H191.071C187.504 55.7393 184.613 52.848 184.613 49.2814V41.4266C184.613 40.0831 183.803 39.0101 182.757 38.3127C181.713 37.6156 180.368 37.2442 179.135 37.3184L179.165 37.8175L179.136 37.3184C176.799 37.4538 174.5 36.7185 172.708 35.2664C170.916 33.8145 169.766 31.7567 169.489 29.5155L168.993 29.5768L169.489 29.5155C169.212 27.2744 169.828 25.0135 171.213 23.1945C172.599 21.3749 174.652 20.1336 176.954 19.7295C178.144 19.5217 179.364 19.5438 180.544 19.7946C181.468 19.9907 182.466 19.7846 183.237 19.3007C184.012 18.8147 184.613 18.0092 184.613 16.9891Z" stroke="#C1C1C1"/>
<path fill-rule="evenodd" clip-rule="evenodd" d="M208.888 24.0269V29.2394H212.859C213.913 29.2394 214.923 28.8443 215.667 28.141C216.412 27.4378 216.831 26.4839 216.831 25.4894V24.0269C215.947 23.732 215.202 23.1516 214.728 22.3884C214.254 21.6251 214.081 20.7281 214.239 19.8559C214.397 18.9837 214.877 18.1924 215.594 17.622C216.31 17.0516 217.217 16.7388 218.154 16.7388C219.091 16.7388 219.998 17.0516 220.715 17.622C221.431 18.1924 221.911 18.9837 222.07 19.8559C222.228 20.7281 222.055 21.6251 221.581 22.3884C221.106 23.1516 220.362 23.732 219.478 24.0269V25.4894C219.478 26.3101 219.307 27.1229 218.974 27.8811C218.642 28.6394 218.154 29.3284 217.54 29.9088C216.925 30.4892 216.195 30.9495 215.392 31.2636C214.589 31.5777 213.729 31.7394 212.859 31.7394H208.888V34.4519C209.772 34.7468 210.516 35.3271 210.991 36.0904C211.465 36.8536 211.638 37.7507 211.48 38.6229C211.321 39.4951 210.841 40.2863 210.125 40.8567C209.408 41.4271 208.502 41.74 207.564 41.74C206.627 41.74 205.72 41.4271 205.004 40.8567C204.287 40.2863 203.807 39.4951 203.649 38.6229C203.491 37.7507 203.664 36.8536 204.138 36.0904C204.612 35.3271 205.357 34.7468 206.241 34.4519V24.0269C205.357 23.732 204.612 23.1516 204.138 22.3884C203.664 21.6251 203.491 20.7281 203.649 19.8559C203.807 18.9837 204.287 18.1924 205.004 17.622C205.72 17.0516 206.627 16.7388 207.564 16.7388C208.502 16.7388 209.408 17.0516 210.125 17.622C210.841 18.1924 211.321 18.9837 211.48 19.8559C211.638 20.7281 211.465 21.6251 210.991 22.3884C210.516 23.1516 209.772 23.732 208.888 24.0269ZM207.564 39.2394C207.915 39.2394 208.252 39.1077 208.5 38.8733C208.749 38.6388 208.888 38.3209 208.888 37.9894C208.888 37.6579 208.749 37.3399 208.5 37.1055C208.252 36.8711 207.915 36.7394 207.564 36.7394C207.213 36.7394 206.877 36.8711 206.628 37.1055C206.38 37.3399 206.241 37.6579 206.241 37.9894C206.241 38.3209 206.38 38.6388 206.628 38.8733C206.877 39.1077 207.213 39.2394 207.564 39.2394ZM218.154 21.7394C218.505 21.7394 218.842 21.6077 219.09 21.3733C219.339 21.1388 219.478 20.8209 219.478 20.4894C219.478 20.1579 219.339 19.8399 219.09 19.6055C218.842 19.3711 218.505 19.2394 218.154 19.2394C217.803 19.2394 217.467 19.3711 217.218 19.6055C216.97 19.8399 216.831 20.1579 216.831 20.4894C216.831 20.8209 216.97 21.1388 217.218 21.3733C217.467 21.6077 217.803 21.7394 218.154 21.7394ZM207.564 21.7394C207.915 21.7394 208.252 21.6077 208.5 21.3733C208.749 21.1388 208.888 20.8209 208.888 20.4894C208.888 20.1579 208.749 19.8399 208.5 19.6055C208.252 19.3711 207.915 19.2394 207.564 19.2394C207.213 19.2394 206.877 19.3711 206.628 19.6055C206.38 19.8399 206.241 20.1579 206.241 20.4894C206.241 20.8209 206.38 21.1388 206.628 21.3733C206.877 21.6077 207.213 21.7394 207.564 21.7394Z" fill="#4D4D4D"/>
<path d="M30.9371 19.1768V30.7783C30.9293 32.3877 30.4215 33.7041 29.4137 34.7275C28.4137 35.751 27.0543 36.3252 25.3356 36.4502L24.7379 36.4736C22.8707 36.4736 21.3824 35.9697 20.2731 34.9619C19.1637 33.9541 18.6012 32.5674 18.5856 30.8018V19.1768H20.8121V30.7314C20.8121 31.9658 21.152 32.9268 21.8317 33.6143C22.5114 34.2939 23.4801 34.6338 24.7379 34.6338C26.0114 34.6338 26.984 34.2939 27.6559 33.6143C28.3356 32.9346 28.6754 31.9775 28.6754 30.7432V19.1768H30.9371ZM35.9989 23.5596L36.0692 25.1533C37.0379 23.9346 38.3035 23.3252 39.866 23.3252C42.5457 23.3252 43.8973 24.8369 43.9207 27.8604V36.2393H41.7528V27.8486C41.7449 26.9346 41.534 26.2588 41.1199 25.8213C40.7137 25.3838 40.077 25.165 39.2098 25.165C38.5067 25.165 37.8895 25.3525 37.3582 25.7275C36.827 26.1025 36.4129 26.5947 36.116 27.2041V36.2393H33.9481V23.5596H35.9989ZM54.3731 32.876C54.3731 32.29 54.1504 31.8369 53.7051 31.5166C53.2676 31.1885 52.4981 30.9072 51.3965 30.6729C50.3028 30.4385 49.4317 30.1572 48.7832 29.8291C48.1426 29.501 47.666 29.1104 47.3535 28.6572C47.0489 28.2041 46.8965 27.665 46.8965 27.04C46.8965 26.001 47.334 25.1221 48.209 24.4033C49.0918 23.6846 50.2168 23.3252 51.584 23.3252C53.0215 23.3252 54.1856 23.6963 55.0762 24.4385C55.9746 25.1807 56.4239 26.1299 56.4239 27.2861H54.2442C54.2442 26.6924 53.9903 26.1807 53.4824 25.751C52.9824 25.3213 52.3496 25.1064 51.584 25.1064C50.7949 25.1064 50.1778 25.2783 49.7324 25.6221C49.2871 25.9658 49.0645 26.415 49.0645 26.9697C49.0645 27.4932 49.2715 27.8877 49.6856 28.1533C50.0996 28.4189 50.8457 28.6729 51.9239 28.915C53.0098 29.1572 53.8887 29.4463 54.5606 29.7822C55.2324 30.1182 55.7285 30.5244 56.0489 31.001C56.377 31.4697 56.541 32.0439 56.541 32.7236C56.541 33.8564 56.0879 34.7666 55.1817 35.4541C54.2754 36.1338 53.0996 36.4736 51.6543 36.4736C50.6387 36.4736 49.7403 36.2939 48.959 35.9346C48.1778 35.5752 47.5645 35.0752 47.1192 34.4346C46.6817 33.7861 46.4629 33.0869 46.4629 32.3369H48.6309C48.6699 33.0635 48.959 33.6416 49.4981 34.0713C50.0449 34.4932 50.7637 34.7041 51.6543 34.7041C52.4746 34.7041 53.1309 34.54 53.6231 34.2119C54.1231 33.876 54.3731 33.4307 54.3731 32.876ZM66.9934 34.9854C66.1496 35.9775 64.9114 36.4736 63.2785 36.4736C61.927 36.4736 60.8957 36.083 60.1848 35.3018C59.4817 34.5127 59.1262 33.3486 59.1184 31.8096V23.5596H61.2864V31.751C61.2864 33.6729 62.0676 34.6338 63.6301 34.6338C65.2864 34.6338 66.3879 34.0166 66.9348 32.7822V23.5596H69.1028V36.2393H67.0403L66.9934 34.9854ZM82.9418 30.04C82.9418 31.9775 82.4965 33.5361 81.6059 34.7158C80.7153 35.8877 79.5199 36.4736 78.0199 36.4736C76.4184 36.4736 75.1801 35.9072 74.3051 34.7744L74.1996 36.2393H72.2074V18.2393H74.3754V24.9541C75.2504 23.8682 76.4574 23.3252 77.9965 23.3252C79.5356 23.3252 80.7426 23.9072 81.6176 25.0713C82.5004 26.2354 82.9418 27.8291 82.9418 29.8525V30.04ZM80.7739 29.7939C80.7739 28.3174 80.4887 27.1768 79.9184 26.3721C79.3481 25.5674 78.5278 25.165 77.4574 25.165C76.0278 25.165 75.0004 25.8291 74.3754 27.1572V32.6416C75.0395 33.9697 76.0746 34.6338 77.4809 34.6338C78.5199 34.6338 79.3285 34.2314 79.9067 33.4268C80.4848 32.6221 80.7739 31.4111 80.7739 29.7939ZM92.8668 32.876C92.8668 32.29 92.6442 31.8369 92.1989 31.5166C91.7614 31.1885 90.9918 30.9072 89.8903 30.6729C88.7965 30.4385 87.9254 30.1572 87.277 29.8291C86.6364 29.501 86.1598 29.1104 85.8473 28.6572C85.5426 28.2041 85.3903 27.665 85.3903 27.04C85.3903 26.001 85.8278 25.1221 86.7028 24.4033C87.5856 23.6846 88.7106 23.3252 90.0778 23.3252C91.5153 23.3252 92.6793 23.6963 93.5699 24.4385C94.4684 25.1807 94.9176 26.1299 94.9176 27.2861H92.7379C92.7379 26.6924 92.484 26.1807 91.9762 25.751C91.4762 25.3213 90.8434 25.1064 90.0778 25.1064C89.2887 25.1064 88.6715 25.2783 88.2262 25.6221C87.7809 25.9658 87.5582 26.415 87.5582 26.9697C87.5582 27.4932 87.7653 27.8877 88.1793 28.1533C88.5934 28.4189 89.3395 28.6729 90.4176 28.915C91.5035 29.1572 92.3824 29.4463 93.0543 29.7822C93.7262 30.1182 94.2223 30.5244 94.5426 31.001C94.8707 31.4697 95.0348 32.0439 95.0348 32.7236C95.0348 33.8564 94.5817 34.7666 93.6754 35.4541C92.7692 36.1338 91.5934 36.4736 90.1481 36.4736C89.1324 36.4736 88.234 36.2939 87.4528 35.9346C86.6715 35.5752 86.0582 35.0752 85.6129 34.4346C85.1754 33.7861 84.9567 33.0869 84.9567 32.3369H87.1246C87.1637 33.0635 87.4528 33.6416 87.9918 34.0713C88.5387 34.4932 89.2574 34.7041 90.1481 34.7041C90.9684 34.7041 91.6246 34.54 92.1168 34.2119C92.6168 33.876 92.8668 33.4307 92.8668 32.876ZM102.745 34.7041C103.518 34.7041 104.194 34.4697 104.772 34.001C105.35 33.5322 105.671 32.9463 105.733 32.2432H107.784C107.745 32.9697 107.495 33.6611 107.034 34.3174C106.573 34.9736 105.956 35.4971 105.182 35.8877C104.417 36.2783 103.604 36.4736 102.745 36.4736C101.018 36.4736 99.6434 35.8994 98.6199 34.751C97.6043 33.5947 97.0965 32.0166 97.0965 30.0166V29.6533C97.0965 28.4189 97.3231 27.3213 97.7762 26.3604C98.2293 25.3994 98.8778 24.6533 99.7215 24.1221C100.573 23.5908 101.577 23.3252 102.733 23.3252C104.155 23.3252 105.335 23.751 106.272 24.6025C107.218 25.4541 107.722 26.5596 107.784 27.9189H105.733C105.671 27.0986 105.358 26.4268 104.796 25.9033C104.241 25.3721 103.554 25.1064 102.733 25.1064C101.632 25.1064 100.776 25.5049 100.167 26.3018C99.5653 27.0908 99.2645 28.2354 99.2645 29.7354V30.1455C99.2645 31.6064 99.5653 32.7314 100.167 33.5205C100.768 34.3096 101.628 34.7041 102.745 34.7041ZM116.15 25.5049C115.822 25.4502 115.467 25.4229 115.084 25.4229C113.662 25.4229 112.697 26.0283 112.189 27.2393V36.2393H110.022V23.5596H112.131L112.166 25.0244C112.877 23.8916 113.885 23.3252 115.189 23.3252C115.611 23.3252 115.932 23.3799 116.15 23.4893V25.5049ZM120.31 36.2393H118.142V23.5596H120.31V36.2393ZM117.966 20.1963C117.966 19.8447 118.072 19.5479 118.282 19.3057C118.501 19.0635 118.822 18.9424 119.243 18.9424C119.665 18.9424 119.986 19.0635 120.204 19.3057C120.423 19.5479 120.532 19.8447 120.532 20.1963C120.532 20.5479 120.423 20.8408 120.204 21.0752C119.986 21.3096 119.665 21.4268 119.243 21.4268C118.822 21.4268 118.501 21.3096 118.282 21.0752C118.072 20.8408 117.966 20.5479 117.966 20.1963ZM134.325 30.04C134.325 31.9775 133.879 33.5361 132.989 34.7158C132.098 35.8877 130.903 36.4736 129.403 36.4736C127.801 36.4736 126.563 35.9072 125.688 34.7744L125.582 36.2393H123.59V18.2393H125.758V24.9541C126.633 23.8682 127.84 23.3252 129.379 23.3252C130.918 23.3252 132.125 23.9072 133 25.0713C133.883 26.2354 134.325 27.8291 134.325 29.8525V30.04ZM132.157 29.7939C132.157 28.3174 131.872 27.1768 131.301 26.3721C130.731 25.5674 129.911 25.165 128.84 25.165C127.411 25.165 126.383 25.8291 125.758 27.1572V32.6416C126.422 33.9697 127.457 34.6338 128.864 34.6338C129.903 34.6338 130.711 34.2314 131.289 33.4268C131.868 32.6221 132.157 31.4111 132.157 29.7939ZM142.129 36.4736C140.41 36.4736 139.011 35.9111 137.933 34.7861C136.855 33.6533 136.316 32.1416 136.316 30.251V29.8525C136.316 28.5947 136.554 27.4736 137.031 26.4893C137.515 25.4971 138.187 24.7236 139.047 24.1689C139.914 23.6064 140.851 23.3252 141.859 23.3252C143.507 23.3252 144.789 23.8682 145.703 24.9541C146.617 26.04 147.074 27.5947 147.074 29.6182V30.5205H138.484C138.515 31.7705 138.879 32.7822 139.574 33.5557C140.277 34.3213 141.168 34.7041 142.246 34.7041C143.011 34.7041 143.66 34.5479 144.191 34.2354C144.722 33.9229 145.187 33.5088 145.586 32.9932L146.91 34.0244C145.847 35.6572 144.254 36.4736 142.129 36.4736ZM141.859 25.1064C140.984 25.1064 140.25 25.4268 139.656 26.0674C139.062 26.7002 138.695 27.5908 138.554 28.7393H144.906V28.5752C144.843 27.4736 144.547 26.6221 144.015 26.0205C143.484 25.4111 142.765 25.1064 141.859 25.1064Z" fill="#7B2CBF"/>
</svg>
