<svg width="27" height="36" viewBox="0 0 27 36" fill="none" xmlns="http://www.w3.org/2000/svg">
<path d="M1.9 0.399902C1.46239 0.399902 1.04271 0.573741 0.733274 0.883176C0.423839 1.19261 0.25 1.6123 0.25 2.0499C0.25 2.48751 0.423839 2.90719 0.733274 3.21663C1.04271 3.52606 1.46239 3.6999 1.9 3.6999H25C25.4376 3.6999 25.8573 3.52606 26.1667 3.21663C26.4762 2.90719 26.65 2.48751 26.65 2.0499C26.65 1.6123 26.4762 1.19261 26.1667 0.883176C25.8573 0.573741 25.4376 0.399902 25 0.399902H1.9Z" fill="#888888"/>
<path d="M15.0912 34.1697C15.0342 34.5838 14.8221 34.9609 14.4978 35.2247C14.1735 35.4885 13.7612 35.6194 13.3441 35.5909C12.927 35.5624 12.5363 35.3767 12.2509 35.0712C11.9655 34.7657 11.8067 34.3633 11.8066 33.9453V11.5273L5.26596 18.0591L5.08116 18.2197C4.74631 18.4686 4.32961 18.5814 3.91494 18.5354C3.50026 18.4894 3.11841 18.288 2.84625 17.9718C2.57408 17.6556 2.43182 17.248 2.4481 16.8311C2.46437 16.4142 2.63797 16.0189 2.93396 15.7249L12.372 6.29567C12.5367 6.15137 12.7291 6.04209 12.9374 5.97447L13.1134 5.92387C13.2226 5.90062 13.3339 5.88883 13.4456 5.88867L13.5776 5.89307L13.7316 5.91067L13.9956 5.97667L14.1958 6.06027L14.2772 6.10427L14.4752 6.23627L14.6336 6.37267L23.966 15.7227L24.1266 15.9097C24.361 16.2278 24.4736 16.6194 24.4437 17.0135C24.4138 17.4075 24.2435 17.7778 23.9638 18.0569L23.779 18.2175C23.4609 18.452 23.0692 18.5645 22.6751 18.5346C22.2811 18.5048 21.9109 18.3344 21.6318 18.0547L15.1066 11.5207V33.9453L15.0912 34.1675V34.1697Z" fill="#888888"/>
</svg>
