<svg width="361" height="625" viewBox="0 0 361 625" fill="none" xmlns="http://www.w3.org/2000/svg">
<g filter="url(#filter0_d)">
<mask id="path-1-inside-1" fill="white">
<path fill-rule="evenodd" clip-rule="evenodd" d="M70 605C42.3858 605 20 582.614 20 555V312.5V70C20 42.3858 42.3858 20 70 20L204 20.0001C205.809 20.0898 207.857 21.1538 209.736 23.7347C217.052 59.5201 246.628 86.2925 282 86.2925C305.096 86.2925 325.721 74.8783 339.292 56.9938C340.406 61.1409 341 65.5011 341 70V555C341 582.614 318.614 605 291 605H70Z"/>
</mask>
<path fill-rule="evenodd" clip-rule="evenodd" d="M70 605C42.3858 605 20 582.614 20 555V312.5V70C20 42.3858 42.3858 20 70 20L204 20.0001C205.809 20.0898 207.857 21.1538 209.736 23.7347C217.052 59.5201 246.628 86.2925 282 86.2925C305.096 86.2925 325.721 74.8783 339.292 56.9938C340.406 61.1409 341 65.5011 341 70V555C341 582.614 318.614 605 291 605H70Z" fill="white"/>
<path d="M70 20V19V20ZM204 20.0001L204.05 19.0013L204.025 19.0001H204V20.0001ZM209.736 23.7347L210.716 23.5344L210.673 23.3217L210.545 23.1462L209.736 23.7347ZM339.292 56.9938L340.257 56.7343L339.728 54.7642L338.495 56.3893L339.292 56.9938ZM19 555C19 583.167 41.8335 606 70 606V604C42.938 604 21 582.062 21 555H19ZM19 312.5V555H21V312.5H19ZM19 70V312.5H21V70H19ZM70 19C41.8335 19 19 41.8335 19 70H21C21 42.9381 42.9381 21 70 21V19ZM204 19.0001L70 19V21L204 21.0001V19.0001ZM210.545 23.1462C208.54 20.3928 206.24 19.1099 204.05 19.0013L203.95 20.9988C205.379 21.0697 207.174 21.9148 208.928 24.3233L210.545 23.1462ZM282 85.2925C247.163 85.2925 217.949 58.9155 210.716 23.5344L208.757 23.935C216.155 60.1247 246.093 87.2925 282 87.2925V85.2925ZM338.495 56.3893C325.095 74.0497 304.753 85.2925 282 85.2925V87.2925C305.439 87.2925 326.348 75.7069 340.088 57.5982L338.495 56.3893ZM342 70C342 65.4127 341.394 60.9653 340.257 56.7343L338.326 57.2532C339.418 61.3165 340 65.5895 340 70H342ZM342 555V70H340V555H342ZM291 606C319.167 606 342 583.167 342 555H340C340 582.062 318.062 604 291 604V606ZM70 606H291V604H70V606Z" fill="#CFCFCF" mask="url(#path-1-inside-1)"/>
<path d="M214.845 64C223.164 95.0143 281.532 115.551 312 89.8641" stroke="#CFCFCF" stroke-linecap="round"/>
</g>
<path d="M69 214.5H292" stroke="black"/>
<path d="M73.3472 162.603V171H71.6055V150.383H78.6289C80.7718 150.383 82.4616 150.93 83.6982 152.025C84.9443 153.121 85.5674 154.626 85.5674 156.543C85.5674 158.478 84.9679 159.974 83.769 161.031C82.5796 162.079 80.8521 162.603 78.5864 162.603H73.3472ZM73.3472 161.13H78.6289C80.3187 161.13 81.6073 160.729 82.4946 159.927C83.382 159.124 83.8257 158.006 83.8257 156.571C83.8257 155.145 83.382 154.013 82.4946 153.172C81.6167 152.323 80.3659 151.889 78.7422 151.87H73.3472V161.13ZM95.9592 157.123C95.6005 157.057 95.2181 157.024 94.8122 157.024C93.7549 157.024 92.8581 157.321 92.1218 157.916C91.3949 158.501 90.8757 159.356 90.5642 160.479V171H88.8791V155.679H90.5358L90.5642 158.114C91.461 156.302 92.9006 155.396 94.883 155.396C95.355 155.396 95.7279 155.457 96.0017 155.58L95.9592 157.123ZM97.2318 163.113C97.2318 161.64 97.515 160.314 98.0814 159.134C98.6573 157.954 99.4644 157.038 100.503 156.387C101.551 155.726 102.735 155.396 104.057 155.396C106.096 155.396 107.748 156.113 109.013 157.548C110.278 158.973 110.911 160.866 110.911 163.226V163.58C110.911 165.062 110.623 166.398 110.047 167.587C109.48 168.767 108.678 169.678 107.64 170.32C106.601 170.962 105.416 171.283 104.085 171.283C102.056 171.283 100.404 170.571 99.1293 169.145C97.8643 167.71 97.2318 165.813 97.2318 163.453V163.113ZM98.9311 163.58C98.9311 165.412 99.4031 166.917 100.347 168.097C101.301 169.268 102.547 169.853 104.085 169.853C105.615 169.853 106.851 169.268 107.795 168.097C108.749 166.917 109.225 165.364 109.225 163.439V163.113C109.225 161.942 109.008 160.871 108.574 159.898C108.14 158.926 107.531 158.176 106.747 157.647C105.964 157.109 105.067 156.84 104.057 156.84C102.547 156.84 101.315 157.435 100.361 158.624C99.4078 159.804 98.9311 161.352 98.9311 163.269V163.58ZM115.242 171V157.066H112.693V155.679H115.242V154.107C115.242 152.474 115.685 151.209 116.573 150.312C117.46 149.406 118.711 148.953 120.325 148.953C121.59 148.953 122.893 149.231 124.233 149.788L123.95 151.247C122.799 150.746 121.628 150.496 120.439 150.496C118.107 150.496 116.941 151.709 116.941 154.135V155.679H120.524V157.066H116.941V171H115.242ZM125.154 171H123.455V155.679H125.154V171ZM131.496 171H129.797V149.25H131.496V171ZM141.845 171.283C140.542 171.283 139.362 170.962 138.305 170.32C137.257 169.678 136.441 168.786 135.855 167.644C135.27 166.492 134.978 165.204 134.978 163.778V163.169C134.978 161.697 135.261 160.371 135.827 159.19C136.403 158.01 137.201 157.085 138.22 156.415C139.24 155.735 140.344 155.396 141.534 155.396C143.393 155.396 144.866 156.033 145.952 157.307C147.047 158.572 147.594 160.304 147.594 162.504V163.453H136.663V163.778C136.663 165.515 137.158 166.964 138.149 168.126C139.15 169.277 140.406 169.853 141.916 169.853C142.822 169.853 143.62 169.688 144.309 169.357C145.008 169.027 145.64 168.498 146.207 167.772L147.269 168.579C146.022 170.382 144.215 171.283 141.845 171.283ZM141.534 156.84C140.259 156.84 139.183 157.307 138.305 158.242C137.437 159.176 136.908 160.432 136.719 162.008H145.909V161.824C145.862 160.352 145.442 159.153 144.649 158.228C143.856 157.302 142.818 156.84 141.534 156.84Z" fill="#686868"/>
<path d="M69 440H292" stroke="black"/>
<path d="M77.9136 258.383L85.5176 276.579L93.1499 258.383H95.4722V279H93.7305V270.023L93.8721 260.818L86.1973 279H84.8521L77.2056 260.889L77.3472 269.966V279H75.6055V258.383H77.9136ZM104.958 276.565L109.432 263.679H111.259L104.717 281.606L104.377 282.398C103.537 284.258 102.239 285.188 100.483 285.188C100.077 285.188 99.6429 285.122 99.1804 284.99L99.1662 283.588L100.044 283.673C100.875 283.673 101.545 283.465 102.055 283.05C102.574 282.644 103.013 281.941 103.372 280.94L104.122 278.873L98.3449 263.679H100.2L104.958 276.565ZM128.644 270.419H122.654V279H120.899V258.383H127.596C129.796 258.383 131.514 258.916 132.751 259.983C133.987 261.05 134.606 262.541 134.606 264.458C134.606 265.779 134.219 266.945 133.444 267.955C132.67 268.965 131.632 269.664 130.329 270.051L135.483 278.816V279H133.629L128.644 270.419ZM122.654 268.932H127.993C129.456 268.932 130.631 268.517 131.519 267.686C132.406 266.855 132.85 265.779 132.85 264.458C132.85 263.004 132.387 261.876 131.462 261.073C130.537 260.271 129.239 259.87 127.568 259.87H122.654V268.932ZM137.818 271.113C137.818 269.64 138.101 268.314 138.668 267.134C139.244 265.954 140.051 265.038 141.089 264.387C142.137 263.726 143.322 263.396 144.643 263.396C146.682 263.396 148.334 264.113 149.599 265.548C150.864 266.973 151.497 268.866 151.497 271.226V271.58C151.497 273.062 151.209 274.398 150.633 275.587C150.067 276.767 149.264 277.678 148.226 278.32C147.187 278.962 146.003 279.283 144.672 279.283C142.642 279.283 140.99 278.571 139.716 277.145C138.451 275.71 137.818 273.813 137.818 271.453V271.113ZM139.517 271.58C139.517 273.412 139.989 274.917 140.933 276.097C141.887 277.268 143.133 277.853 144.672 277.853C146.201 277.853 147.438 277.268 148.382 276.097C149.335 274.917 149.812 273.364 149.812 271.439V271.113C149.812 269.942 149.595 268.871 149.16 267.898C148.726 266.926 148.117 266.176 147.334 265.647C146.55 265.109 145.653 264.84 144.643 264.84C143.133 264.84 141.901 265.435 140.948 266.624C139.994 267.804 139.517 269.352 139.517 271.269V271.58ZM164.48 279C164.31 278.519 164.201 277.806 164.154 276.862C163.56 277.636 162.8 278.235 161.875 278.66C160.959 279.076 159.986 279.283 158.958 279.283C157.485 279.283 156.291 278.873 155.375 278.051C154.469 277.23 154.016 276.192 154.016 274.936C154.016 273.445 154.634 272.265 155.871 271.396C157.117 270.528 158.849 270.093 161.067 270.093H164.14V268.352C164.14 267.257 163.8 266.398 163.121 265.774C162.45 265.142 161.469 264.826 160.175 264.826C158.995 264.826 158.018 265.128 157.244 265.732C156.47 266.336 156.083 267.063 156.083 267.913L154.384 267.898C154.384 266.681 154.95 265.628 156.083 264.741C157.216 263.844 158.608 263.396 160.26 263.396C161.969 263.396 163.314 263.825 164.296 264.684C165.287 265.534 165.797 266.723 165.825 268.253V275.503C165.825 276.985 165.981 278.094 166.292 278.83V279H164.48ZM159.156 277.782C160.289 277.782 161.299 277.509 162.186 276.961C163.083 276.413 163.734 275.682 164.14 274.766V271.396H161.11C159.42 271.415 158.098 271.726 157.145 272.331C156.192 272.925 155.715 273.747 155.715 274.794C155.715 275.654 156.031 276.366 156.664 276.933C157.306 277.499 158.136 277.782 159.156 277.782ZM169.477 271.198C169.477 268.819 170.005 266.926 171.063 265.52C172.129 264.104 173.574 263.396 175.396 263.396C177.463 263.396 179.04 264.212 180.125 265.845V257.25H181.81V279H180.224L180.154 276.961C179.068 278.509 177.473 279.283 175.367 279.283C173.602 279.283 172.177 278.575 171.091 277.159C170.015 275.734 169.477 273.813 169.477 271.396V271.198ZM171.19 271.495C171.19 273.449 171.582 274.993 172.365 276.126C173.149 277.249 174.253 277.811 175.679 277.811C177.765 277.811 179.247 276.89 180.125 275.049V267.856C179.247 265.864 177.775 264.868 175.707 264.868C174.282 264.868 173.173 265.43 172.38 266.553C171.587 267.667 171.19 269.315 171.19 271.495ZM187.614 263.679L187.671 266.171C188.237 265.246 188.945 264.552 189.795 264.089C190.644 263.627 191.588 263.396 192.627 263.396C195.044 263.396 196.578 264.387 197.229 266.369C197.776 265.416 198.508 264.684 199.424 264.174C200.339 263.655 201.35 263.396 202.454 263.396C205.739 263.396 207.415 265.189 207.481 268.776V279H205.782V268.904C205.772 267.535 205.475 266.52 204.89 265.859C204.314 265.199 203.37 264.868 202.058 264.868C200.84 264.887 199.811 265.284 198.971 266.058C198.13 266.822 197.663 267.757 197.569 268.861V279H195.87V268.776C195.86 267.464 195.549 266.487 194.935 265.845C194.331 265.194 193.396 264.868 192.131 264.868C191.065 264.868 190.149 265.175 189.384 265.789C188.62 266.393 188.053 267.294 187.685 268.493V279H185.986V263.679H187.614ZM221.257 279C221.087 278.519 220.978 277.806 220.931 276.862C220.337 277.636 219.577 278.235 218.651 278.66C217.736 279.076 216.763 279.283 215.734 279.283C214.262 279.283 213.068 278.873 212.152 278.051C211.246 277.23 210.793 276.192 210.793 274.936C210.793 273.445 211.411 272.265 212.648 271.396C213.894 270.528 215.626 270.093 217.844 270.093H220.917V268.352C220.917 267.257 220.577 266.398 219.898 265.774C219.227 265.142 218.246 264.826 216.952 264.826C215.772 264.826 214.795 265.128 214.021 265.732C213.247 266.336 212.86 267.063 212.86 267.913L211.161 267.898C211.161 266.681 211.727 265.628 212.86 264.741C213.993 263.844 215.385 263.396 217.037 263.396C218.746 263.396 220.091 263.825 221.073 264.684C222.064 265.534 222.574 266.723 222.602 268.253V275.503C222.602 276.985 222.758 278.094 223.069 278.83V279H221.257ZM215.933 277.782C217.066 277.782 218.076 277.509 218.963 276.961C219.86 276.413 220.511 275.682 220.917 274.766V271.396H217.887C216.197 271.415 214.875 271.726 213.922 272.331C212.969 272.925 212.492 273.747 212.492 274.794C212.492 275.654 212.808 276.366 213.441 276.933C214.082 277.499 214.913 277.782 215.933 277.782ZM239.253 271.495C239.253 273.884 238.724 275.781 237.667 277.188C236.61 278.585 235.193 279.283 233.419 279.283C231.323 279.283 229.718 278.547 228.604 277.074V284.891H226.919V263.679H228.491L228.576 265.845C229.68 264.212 231.281 263.396 233.376 263.396C235.208 263.396 236.643 264.089 237.681 265.477C238.729 266.865 239.253 268.791 239.253 271.254V271.495ZM237.554 271.198C237.554 269.244 237.152 267.7 236.35 266.567C235.547 265.435 234.429 264.868 232.994 264.868C231.956 264.868 231.063 265.118 230.318 265.619C229.572 266.119 229.001 266.846 228.604 267.799V275.148C229.01 276.026 229.591 276.697 230.346 277.159C231.101 277.622 231.993 277.853 233.022 277.853C234.448 277.853 235.557 277.287 236.35 276.154C237.152 275.012 237.554 273.36 237.554 271.198ZM251.995 275.106C251.995 274.266 251.655 273.591 250.976 273.081C250.305 272.571 249.291 272.175 247.931 271.892C246.572 271.599 245.514 271.269 244.759 270.9C244.014 270.523 243.457 270.065 243.088 269.527C242.73 268.989 242.55 268.337 242.55 267.573C242.55 266.364 243.055 265.369 244.065 264.585C245.076 263.792 246.369 263.396 247.945 263.396C249.654 263.396 251.023 263.82 252.052 264.67C253.09 265.51 253.609 266.61 253.609 267.969H251.91C251.91 267.072 251.533 266.327 250.777 265.732C250.032 265.137 249.088 264.84 247.945 264.84C246.831 264.84 245.935 265.09 245.255 265.59C244.585 266.081 244.25 266.723 244.25 267.516C244.25 268.281 244.528 268.876 245.085 269.3C245.651 269.716 246.676 270.098 248.158 270.447C249.649 270.797 250.763 271.169 251.5 271.566C252.245 271.962 252.798 272.439 253.156 272.996C253.515 273.553 253.694 274.228 253.694 275.021C253.694 276.314 253.17 277.348 252.123 278.122C251.084 278.896 249.725 279.283 248.044 279.283C246.26 279.283 244.811 278.854 243.697 277.995C242.593 277.126 242.041 276.031 242.041 274.71H243.74C243.806 275.701 244.221 276.475 244.986 277.032C245.76 277.579 246.779 277.853 248.044 277.853C249.224 277.853 250.178 277.593 250.905 277.074C251.632 276.555 251.995 275.899 251.995 275.106Z" fill="#686868"/>
<path d="M89.5957 318.87H82.5298V338H80.7881V318.87H73.7363V317.383H89.5957V318.87ZM94.2385 338H92.5393V322.679H94.2385V338ZM92.2419 318.247C92.2419 317.926 92.3457 317.657 92.5534 317.44C92.7611 317.213 93.0443 317.1 93.403 317.1C93.7618 317.1 94.045 317.213 94.2526 317.44C94.4698 317.657 94.5783 317.926 94.5783 318.247C94.5783 318.568 94.4698 318.837 94.2526 319.054C94.045 319.271 93.7618 319.379 93.403 319.379C93.0443 319.379 92.7611 319.271 92.5534 319.054C92.3457 318.837 92.2419 318.568 92.2419 318.247ZM100.198 322.679L100.255 325.171C100.821 324.246 101.529 323.552 102.379 323.089C103.228 322.627 104.172 322.396 105.211 322.396C107.628 322.396 109.162 323.387 109.813 325.369C110.36 324.416 111.092 323.684 112.008 323.174C112.923 322.655 113.933 322.396 115.038 322.396C118.323 322.396 119.999 324.189 120.065 327.776V338H118.366V327.904C118.356 326.535 118.059 325.52 117.474 324.859C116.898 324.199 115.954 323.868 114.642 323.868C113.424 323.887 112.395 324.284 111.555 325.058C110.714 325.822 110.247 326.757 110.153 327.861V338H108.454V327.776C108.444 326.464 108.133 325.487 107.519 324.845C106.915 324.194 105.98 323.868 104.715 323.868C103.649 323.868 102.733 324.175 101.968 324.789C101.204 325.393 100.637 326.294 100.269 327.493V338H98.5697V322.679H100.198ZM130.103 338.283C128.8 338.283 127.62 337.962 126.563 337.32C125.515 336.678 124.698 335.786 124.113 334.644C123.528 333.492 123.235 332.204 123.235 330.778V330.169C123.235 328.697 123.518 327.371 124.085 326.19C124.66 325.01 125.458 324.085 126.478 323.415C127.497 322.735 128.602 322.396 129.791 322.396C131.651 322.396 133.123 323.033 134.209 324.307C135.304 325.572 135.852 327.304 135.852 329.504V330.453H124.92V330.778C124.92 332.515 125.416 333.964 126.407 335.126C127.407 336.277 128.663 336.853 130.173 336.853C131.08 336.853 131.877 336.688 132.567 336.357C133.265 336.027 133.898 335.498 134.464 334.772L135.526 335.579C134.28 337.382 132.472 338.283 130.103 338.283ZM129.791 323.84C128.517 323.84 127.441 324.307 126.563 325.242C125.694 326.176 125.165 327.432 124.977 329.008H134.167V328.824C134.119 327.352 133.699 326.153 132.906 325.228C132.113 324.302 131.075 323.84 129.791 323.84ZM140.848 338H139.149V316.25H140.848V338ZM147.162 338H145.463V322.679H147.162V338ZM145.166 318.247C145.166 317.926 145.269 317.657 145.477 317.44C145.685 317.213 145.968 317.1 146.327 317.1C146.685 317.1 146.969 317.213 147.176 317.44C147.393 317.657 147.502 317.926 147.502 318.247C147.502 318.568 147.393 318.837 147.176 319.054C146.969 319.271 146.685 319.379 146.327 319.379C145.968 319.379 145.685 319.271 145.477 319.054C145.269 318.837 145.166 318.568 145.166 318.247ZM153.193 322.679L153.249 325.298C153.825 324.354 154.543 323.637 155.402 323.146C156.261 322.646 157.209 322.396 158.248 322.396C159.89 322.396 161.113 322.858 161.915 323.783C162.718 324.708 163.124 326.096 163.133 327.946V338H161.448V327.932C161.439 326.563 161.146 325.544 160.57 324.874C160.004 324.203 159.093 323.868 157.837 323.868C156.789 323.868 155.859 324.199 155.048 324.859C154.245 325.511 153.65 326.393 153.263 327.507V338H151.578V322.679H153.193ZM173.256 338.283C171.953 338.283 170.773 337.962 169.716 337.32C168.668 336.678 167.851 335.786 167.266 334.644C166.681 333.492 166.388 332.204 166.388 330.778V330.169C166.388 328.697 166.671 327.371 167.238 326.19C167.814 325.01 168.611 324.085 169.631 323.415C170.65 322.735 171.755 322.396 172.944 322.396C174.804 322.396 176.277 323.033 177.362 324.307C178.457 325.572 179.005 327.304 179.005 329.504V330.453H168.073V330.778C168.073 332.515 168.569 333.964 169.56 335.126C170.561 336.277 171.816 336.853 173.327 336.853C174.233 336.853 175.03 336.688 175.72 336.357C176.418 336.027 177.051 335.498 177.617 334.772L178.679 335.579C177.433 337.382 175.625 338.283 173.256 338.283ZM172.944 323.84C171.67 323.84 170.594 324.307 169.716 325.242C168.847 326.176 168.319 327.432 168.13 329.008H177.32V328.824C177.273 327.352 176.852 326.153 176.059 325.228C175.267 324.302 174.228 323.84 172.944 323.84Z" fill="#686868"/>
<path d="M77.9136 376.383L85.5176 394.579L93.1499 376.383H95.4722V397H93.7305V388.023L93.8721 378.818L86.1973 397H84.8521L77.2056 378.889L77.3472 387.966V397H75.6055V376.383H77.9136ZM104.958 394.565L109.432 381.679H111.259L104.717 399.606L104.377 400.398C103.537 402.258 102.239 403.188 100.483 403.188C100.077 403.188 99.6429 403.122 99.1804 402.99L99.1662 401.588L100.044 401.673C100.875 401.673 101.545 401.465 102.055 401.05C102.574 400.644 103.013 399.941 103.372 398.94L104.122 396.873L98.3449 381.679H100.2L104.958 394.565ZM122.697 395.527H132.878V397H120.941V376.383H122.697V395.527ZM137.535 397H135.836V381.679H137.535V397ZM135.538 377.247C135.538 376.926 135.642 376.657 135.85 376.44C136.058 376.213 136.341 376.1 136.7 376.1C137.058 376.1 137.341 376.213 137.549 376.44C137.766 376.657 137.875 376.926 137.875 377.247C137.875 377.568 137.766 377.837 137.549 378.054C137.341 378.271 137.058 378.379 136.7 378.379C136.341 378.379 136.058 378.271 135.85 378.054C135.642 377.837 135.538 377.568 135.538 377.247ZM145.59 389.283L143.65 391.152V397H141.951V375.25H143.65V389.169L145.25 387.442L151.113 381.679H153.251L146.751 388.136L153.817 397H151.792L145.59 389.283ZM161.618 397.283C160.315 397.283 159.135 396.962 158.078 396.32C157.03 395.678 156.213 394.786 155.628 393.644C155.043 392.492 154.75 391.204 154.75 389.778V389.169C154.75 387.697 155.033 386.371 155.6 385.19C156.176 384.01 156.973 383.085 157.993 382.415C159.012 381.735 160.117 381.396 161.306 381.396C163.166 381.396 164.639 382.033 165.724 383.307C166.819 384.572 167.367 386.304 167.367 388.504V389.453H156.435V389.778C156.435 391.515 156.931 392.964 157.922 394.126C158.923 395.277 160.178 395.853 161.689 395.853C162.595 395.853 163.393 395.688 164.082 395.357C164.78 395.027 165.413 394.498 165.979 393.772L167.041 394.579C165.795 396.382 163.987 397.283 161.618 397.283ZM161.306 382.84C160.032 382.84 158.956 383.307 158.078 384.242C157.209 385.176 156.681 386.432 156.492 388.008H165.682V387.824C165.635 386.352 165.215 385.153 164.422 384.228C163.629 383.302 162.59 382.84 161.306 382.84ZM179.642 393.106C179.642 392.266 179.302 391.591 178.622 391.081C177.952 390.571 176.937 390.175 175.578 389.892C174.219 389.599 173.161 389.269 172.406 388.9C171.66 388.523 171.103 388.065 170.735 387.527C170.377 386.989 170.197 386.337 170.197 385.573C170.197 384.364 170.702 383.369 171.712 382.585C172.722 381.792 174.016 381.396 175.592 381.396C177.301 381.396 178.67 381.82 179.699 382.67C180.737 383.51 181.256 384.61 181.256 385.969H179.557C179.557 385.072 179.179 384.327 178.424 383.732C177.678 383.137 176.734 382.84 175.592 382.84C174.478 382.84 173.581 383.09 172.902 383.59C172.232 384.081 171.896 384.723 171.896 385.516C171.896 386.281 172.175 386.876 172.732 387.3C173.298 387.716 174.322 388.098 175.805 388.447C177.296 388.797 178.41 389.169 179.146 389.566C179.892 389.962 180.444 390.439 180.803 390.996C181.162 391.553 181.341 392.228 181.341 393.021C181.341 394.314 180.817 395.348 179.769 396.122C178.731 396.896 177.372 397.283 175.691 397.283C173.907 397.283 172.458 396.854 171.344 395.995C170.24 395.126 169.687 394.031 169.687 392.71H171.387C171.453 393.701 171.868 394.475 172.633 395.032C173.407 395.579 174.426 395.853 175.691 395.853C176.871 395.853 177.825 395.593 178.552 395.074C179.279 394.555 179.642 393.899 179.642 393.106Z" fill="#686868"/>
<path d="M87.2734 490.931C87.2734 489.788 86.8722 488.887 86.0698 488.226C85.2674 487.556 83.7995 486.923 81.666 486.329C79.5326 485.725 77.9749 485.068 76.9932 484.36C75.596 483.36 74.8975 482.048 74.8975 480.424C74.8975 478.847 75.5441 477.568 76.8374 476.586C78.1401 475.595 79.8016 475.1 81.8218 475.1C83.1906 475.1 84.4131 475.364 85.4893 475.893C86.5749 476.421 87.415 477.158 88.0098 478.102C88.6045 479.046 88.9019 480.098 88.9019 481.259H87.146C87.146 479.853 86.6646 478.725 85.7017 477.875C84.7388 477.016 83.4455 476.586 81.8218 476.586C80.2453 476.586 78.9897 476.94 78.0552 477.648C77.1206 478.347 76.6533 479.263 76.6533 480.396C76.6533 481.443 77.0734 482.298 77.9136 482.959C78.7537 483.619 80.099 484.205 81.9492 484.714C83.7995 485.215 85.2013 485.739 86.1548 486.286C87.1082 486.824 87.8257 487.471 88.3071 488.226C88.7886 488.981 89.0293 489.873 89.0293 490.902C89.0293 492.526 88.3779 493.829 87.0752 494.811C85.7819 495.792 84.0732 496.283 81.9492 496.283C80.4954 496.283 79.1597 496.024 77.9419 495.504C76.7336 494.985 75.8132 494.258 75.1807 493.324C74.5576 492.389 74.2461 491.318 74.2461 490.109H75.9878C75.9878 491.563 76.5306 492.71 77.6162 493.55C78.7018 494.391 80.1462 494.811 81.9492 494.811C83.554 494.811 84.8426 494.457 85.8149 493.749C86.7873 493.041 87.2734 492.101 87.2734 490.931ZM98.1325 496.283C96.8298 496.283 95.6498 495.962 94.5925 495.32C93.5446 494.678 92.7281 493.786 92.1428 492.644C91.5575 491.492 91.2648 490.204 91.2648 488.778V488.169C91.2648 486.697 91.548 485.371 92.1145 484.19C92.6903 483.01 93.488 482.085 94.5075 481.415C95.5271 480.735 96.6315 480.396 97.821 480.396C99.6807 480.396 101.153 481.033 102.239 482.307C103.334 483.572 103.882 485.304 103.882 487.504V488.453H92.9499V488.778C92.9499 490.515 93.4455 491.964 94.4367 493.126C95.4374 494.277 96.6929 494.853 98.2033 494.853C99.1096 494.853 99.9073 494.688 100.596 494.357C101.295 494.027 101.927 493.498 102.494 492.772L103.556 493.579C102.31 495.382 100.502 496.283 98.1325 496.283ZM97.821 481.84C96.5466 481.84 95.4704 482.307 94.5925 483.242C93.724 484.176 93.1953 485.432 93.0065 487.008H102.196V486.824C102.149 485.352 101.729 484.153 100.936 483.228C100.143 482.302 99.1048 481.84 97.821 481.84ZM109.615 476.756V480.679H112.787V482.066H109.615V492.276C109.615 493.126 109.766 493.758 110.068 494.173C110.379 494.589 110.894 494.796 111.611 494.796C111.894 494.796 112.352 494.749 112.985 494.655L113.056 496.043C112.612 496.203 112.008 496.283 111.243 496.283C110.082 496.283 109.237 495.948 108.708 495.278C108.18 494.598 107.915 493.602 107.915 492.29V482.066H105.098V480.679H107.915V476.756H109.615ZM118.732 476.756V480.679H121.904V482.066H118.732V492.276C118.732 493.126 118.883 493.758 119.185 494.173C119.497 494.589 120.011 494.796 120.729 494.796C121.012 494.796 121.47 494.749 122.102 494.655L122.173 496.043C121.729 496.203 121.125 496.283 120.36 496.283C119.199 496.283 118.354 495.948 117.826 495.278C117.297 494.598 117.033 493.602 117.033 492.29V482.066H114.215V480.679H117.033V476.756H118.732ZM127.113 496H125.414V480.679H127.113V496ZM125.117 476.247C125.117 475.926 125.22 475.657 125.428 475.44C125.636 475.213 125.919 475.1 126.278 475.1C126.636 475.1 126.92 475.213 127.127 475.44C127.344 475.657 127.453 475.926 127.453 476.247C127.453 476.568 127.344 476.837 127.127 477.054C126.92 477.271 126.636 477.379 126.278 477.379C125.919 477.379 125.636 477.271 125.428 477.054C125.22 476.837 125.117 476.568 125.117 476.247ZM133.144 480.679L133.2 483.298C133.776 482.354 134.493 481.637 135.353 481.146C136.212 480.646 137.16 480.396 138.199 480.396C139.841 480.396 141.064 480.858 141.866 481.783C142.669 482.708 143.075 484.096 143.084 485.946V496H141.399V485.932C141.389 484.563 141.097 483.544 140.521 482.874C139.955 482.203 139.044 481.868 137.788 481.868C136.74 481.868 135.81 482.199 134.999 482.859C134.196 483.511 133.601 484.393 133.214 485.507V496H131.529V480.679H133.144ZM146.594 488.198C146.594 485.8 147.123 483.903 148.18 482.505C149.247 481.099 150.691 480.396 152.513 480.396C154.599 480.396 156.185 481.226 157.271 482.888L157.356 480.679H158.942V495.689C158.942 497.662 158.389 499.224 157.285 500.376C156.18 501.527 154.684 502.103 152.796 502.103C151.729 502.103 150.71 501.862 149.738 501.381C148.775 500.909 148.015 500.276 147.458 499.483L148.406 498.464C149.605 499.937 151.031 500.673 152.683 500.673C154.099 500.673 155.203 500.253 155.996 499.413C156.789 498.582 157.2 497.426 157.228 495.943V494.018C156.143 495.528 154.561 496.283 152.485 496.283C150.71 496.283 149.284 495.575 148.208 494.159C147.132 492.743 146.594 490.832 146.594 488.424V488.198ZM148.307 488.495C148.307 490.449 148.699 491.993 149.483 493.126C150.266 494.249 151.371 494.811 152.796 494.811C154.882 494.811 156.36 493.876 157.228 492.007V484.884C156.832 483.903 156.261 483.157 155.515 482.647C154.769 482.128 153.872 481.868 152.824 481.868C151.399 481.868 150.29 482.43 149.497 483.553C148.704 484.667 148.307 486.315 148.307 488.495ZM172.335 492.106C172.335 491.266 171.996 490.591 171.316 490.081C170.646 489.571 169.631 489.175 168.271 488.892C166.912 488.599 165.855 488.269 165.1 487.9C164.354 487.523 163.797 487.065 163.429 486.527C163.07 485.989 162.891 485.337 162.891 484.573C162.891 483.364 163.396 482.369 164.406 481.585C165.416 480.792 166.709 480.396 168.286 480.396C169.994 480.396 171.363 480.82 172.392 481.67C173.43 482.51 173.95 483.61 173.95 484.969H172.25C172.25 484.072 171.873 483.327 171.118 482.732C170.372 482.137 169.428 481.84 168.286 481.84C167.172 481.84 166.275 482.09 165.595 482.59C164.925 483.081 164.59 483.723 164.59 484.516C164.59 485.281 164.868 485.876 165.425 486.3C165.992 486.716 167.016 487.098 168.498 487.447C169.989 487.797 171.103 488.169 171.84 488.566C172.586 488.962 173.138 489.439 173.496 489.996C173.855 490.553 174.035 491.228 174.035 492.021C174.035 493.314 173.511 494.348 172.463 495.122C171.424 495.896 170.065 496.283 168.385 496.283C166.6 496.283 165.151 495.854 164.037 494.995C162.933 494.126 162.381 493.031 162.381 491.71H164.08C164.146 492.701 164.561 493.475 165.326 494.032C166.1 494.579 167.12 494.853 168.385 494.853C169.565 494.853 170.518 494.593 171.245 494.074C171.972 493.555 172.335 492.899 172.335 492.106Z" fill="#686868"/>
<path d="M87.2734 549.931C87.2734 548.788 86.8722 547.887 86.0698 547.226C85.2674 546.556 83.7995 545.923 81.666 545.329C79.5326 544.725 77.9749 544.068 76.9932 543.36C75.596 542.36 74.8975 541.048 74.8975 539.424C74.8975 537.847 75.5441 536.568 76.8374 535.586C78.1401 534.595 79.8016 534.1 81.8218 534.1C83.1906 534.1 84.4131 534.364 85.4893 534.893C86.5749 535.421 87.415 536.158 88.0098 537.102C88.6045 538.046 88.9019 539.098 88.9019 540.259H87.146C87.146 538.853 86.6646 537.725 85.7017 536.875C84.7388 536.016 83.4455 535.586 81.8218 535.586C80.2453 535.586 78.9897 535.94 78.0552 536.648C77.1206 537.347 76.6533 538.263 76.6533 539.396C76.6533 540.443 77.0734 541.298 77.9136 541.959C78.7537 542.619 80.099 543.205 81.9492 543.714C83.7995 544.215 85.2013 544.739 86.1548 545.286C87.1082 545.824 87.8257 546.471 88.3071 547.226C88.7886 547.981 89.0293 548.873 89.0293 549.902C89.0293 551.526 88.3779 552.829 87.0752 553.811C85.7819 554.792 84.0732 555.283 81.9492 555.283C80.4954 555.283 79.1597 555.024 77.9419 554.504C76.7336 553.985 75.8132 553.258 75.1807 552.324C74.5576 551.389 74.2461 550.318 74.2461 549.109H75.9878C75.9878 550.563 76.5306 551.71 77.6162 552.55C78.7018 553.391 80.1462 553.811 81.9492 553.811C83.554 553.811 84.8426 553.457 85.8149 552.749C86.7873 552.041 87.2734 551.101 87.2734 549.931ZM94.0969 555H92.3977V539.679H94.0969V555ZM92.1003 535.247C92.1003 534.926 92.2041 534.657 92.4118 534.44C92.6195 534.213 92.9027 534.1 93.2614 534.1C93.6201 534.1 93.9034 534.213 94.111 534.44C94.3282 534.657 94.4367 534.926 94.4367 535.247C94.4367 535.568 94.3282 535.837 94.111 536.054C93.9034 536.271 93.6201 536.379 93.2614 536.379C92.9027 536.379 92.6195 536.271 92.4118 536.054C92.2041 535.837 92.1003 535.568 92.1003 535.247ZM97.8334 547.198C97.8334 544.8 98.362 542.903 99.4193 541.505C100.486 540.099 101.93 539.396 103.752 539.396C105.839 539.396 107.425 540.226 108.51 541.888L108.595 539.679H110.181V554.689C110.181 556.662 109.629 558.224 108.524 559.376C107.42 560.527 105.924 561.103 104.036 561.103C102.969 561.103 101.949 560.862 100.977 560.381C100.014 559.909 99.2541 559.276 98.6972 558.483L99.6459 557.464C100.845 558.937 102.27 559.673 103.922 559.673C105.338 559.673 106.443 559.253 107.236 558.413C108.029 557.582 108.439 556.426 108.468 554.943V553.018C107.382 554.528 105.801 555.283 103.724 555.283C101.949 555.283 100.524 554.575 99.4477 553.159C98.3715 551.743 97.8334 549.832 97.8334 547.424V547.198ZM99.5468 547.495C99.5468 549.449 99.9385 550.993 100.722 552.126C101.506 553.249 102.61 553.811 104.036 553.811C106.122 553.811 107.599 552.876 108.468 551.007V543.884C108.071 542.903 107.5 542.157 106.754 541.647C106.009 541.128 105.112 540.868 104.064 540.868C102.638 540.868 101.529 541.43 100.736 542.553C99.9433 543.667 99.5468 545.315 99.5468 547.495ZM116.013 539.679L116.07 542.298C116.646 541.354 117.363 540.637 118.222 540.146C119.081 539.646 120.03 539.396 121.068 539.396C122.711 539.396 123.934 539.858 124.736 540.783C125.538 541.708 125.944 543.096 125.954 544.946V555H124.269V544.932C124.259 543.563 123.967 542.544 123.391 541.874C122.824 541.203 121.913 540.868 120.658 540.868C119.61 540.868 118.68 541.199 117.868 541.859C117.066 542.511 116.471 543.393 116.084 544.507V555H114.399V539.679H116.013ZM152.628 545.81C152.628 547.708 152.298 549.374 151.637 550.809C150.985 552.244 150.051 553.348 148.833 554.122C147.615 554.896 146.209 555.283 144.613 555.283C142.206 555.283 140.261 554.424 138.779 552.706C137.297 550.979 136.556 548.652 136.556 545.725V543.601C136.556 541.723 136.887 540.061 137.547 538.617C138.218 537.163 139.162 536.049 140.379 535.275C141.597 534.491 142.999 534.1 144.585 534.1C146.171 534.1 147.568 534.482 148.776 535.247C149.994 536.011 150.933 537.092 151.594 538.489C152.255 539.886 152.6 541.505 152.628 543.346V545.81ZM150.886 543.573C150.886 541.09 150.325 539.145 149.201 537.739C148.078 536.332 146.539 535.629 144.585 535.629C142.669 535.629 141.139 536.337 139.997 537.753C138.864 539.16 138.298 541.128 138.298 543.658V545.81C138.298 548.255 138.864 550.195 139.997 551.63C141.13 553.055 142.669 553.768 144.613 553.768C146.586 553.768 148.125 553.065 149.229 551.658C150.334 550.242 150.886 548.274 150.886 545.753V543.573ZM166.277 553.06C165.257 554.542 163.629 555.283 161.391 555.283C159.758 555.283 158.517 554.811 157.667 553.867C156.818 552.914 156.383 551.507 156.364 549.648V539.679H158.05V549.435C158.05 552.352 159.23 553.811 161.59 553.811C164.044 553.811 165.597 552.796 166.248 550.766V539.679H167.947V555H166.305L166.277 553.06ZM174.799 535.756V539.679H177.971V541.066H174.799V551.276C174.799 552.126 174.95 552.758 175.252 553.173C175.564 553.589 176.078 553.796 176.796 553.796C177.079 553.796 177.537 553.749 178.169 553.655L178.24 555.043C177.796 555.203 177.192 555.283 176.428 555.283C175.267 555.283 174.422 554.948 173.893 554.278C173.364 553.598 173.1 552.602 173.1 551.29V541.066H170.282V539.679H173.1V535.756H174.799Z" fill="#686868"/>
<defs>
<filter id="filter0_d" x="0" y="0" width="361" height="625" filterUnits="userSpaceOnUse" color-interpolation-filters="sRGB">
<feFlood flood-opacity="0" result="BackgroundImageFix"/>
<feColorMatrix in="SourceAlpha" type="matrix" values="0 0 0 0 0 0 0 0 0 0 0 0 0 0 0 0 0 0 127 0"/>
<feOffset/>
<feGaussianBlur stdDeviation="10"/>
<feColorMatrix type="matrix" values="0 0 0 0 0 0 0 0 0 0 0 0 0 0 0 0 0 0 0.2 0"/>
<feBlend mode="normal" in2="BackgroundImageFix" result="effect1_dropShadow"/>
<feBlend mode="normal" in="SourceGraphic" in2="effect1_dropShadow" result="shape"/>
</filter>
</defs>
</svg>
