<svg width="951" height="584" viewBox="0 0 951 584" fill="none" xmlns="http://www.w3.org/2000/svg">
<g filter="url(#filter0_d)">
<rect x="15" y="15" width="921" height="554" rx="15" fill="#525252"/>
</g>
<path d="M60 501H891" stroke="#F9F9F9" stroke-width="2"/>
<path d="M438 341.5V257V243.5L513.5 292.5L438 341.5Z" fill="white" stroke="white"/>
<path d="M119.697 67H106.654V65.1816L113.545 57.5254C114.566 56.3678 115.268 55.429 115.65 54.709C116.042 53.9798 116.238 53.2279 116.238 52.4531C116.238 51.4141 115.924 50.5618 115.295 49.8965C114.666 49.2311 113.827 48.8984 112.779 48.8984C111.521 48.8984 110.542 49.2585 109.84 49.9785C109.147 50.6895 108.801 51.6829 108.801 52.959H106.271C106.271 51.127 106.859 49.6458 108.035 48.5156C109.22 47.3854 110.801 46.8203 112.779 46.8203C114.63 46.8203 116.092 47.3079 117.168 48.2832C118.243 49.2493 118.781 50.5391 118.781 52.1523C118.781 54.112 117.533 56.4453 115.035 59.1523L109.703 64.9355H119.697V67ZM131.561 52.207L131.629 53.8477C132.714 52.5716 134.177 51.9336 136.018 51.9336C138.087 51.9336 139.495 52.7266 140.243 54.3125C140.735 53.6016 141.373 53.0273 142.157 52.5898C142.95 52.1523 143.884 51.9336 144.959 51.9336C148.204 51.9336 149.854 53.6517 149.909 57.0879V67H147.379V57.2383C147.379 56.181 147.138 55.3926 146.655 54.873C146.172 54.3444 145.36 54.0801 144.221 54.0801C143.282 54.0801 142.503 54.3626 141.883 54.9277C141.263 55.4837 140.903 56.2357 140.803 57.1836V67H138.26V57.3066C138.26 55.1556 137.207 54.0801 135.102 54.0801C133.443 54.0801 132.308 54.7865 131.698 56.1992V67H129.168V52.207H131.561ZM156.285 67H153.755V52.207H156.285V67ZM153.55 48.2832C153.55 47.873 153.673 47.5267 153.92 47.2441C154.175 46.9616 154.548 46.8203 155.041 46.8203C155.533 46.8203 155.907 46.9616 156.162 47.2441C156.417 47.5267 156.545 47.873 156.545 48.2832C156.545 48.6934 156.417 49.0352 156.162 49.3086C155.907 49.582 155.533 49.7188 155.041 49.7188C154.548 49.7188 154.175 49.582 153.92 49.3086C153.673 49.0352 153.55 48.6934 153.55 48.2832ZM162.538 52.207L162.62 54.0664C163.75 52.6445 165.227 51.9336 167.05 51.9336C170.176 51.9336 171.753 53.6973 171.78 57.2246V67H169.251V57.2109C169.242 56.1445 168.996 55.3561 168.513 54.8457C168.039 54.3353 167.296 54.0801 166.284 54.0801C165.464 54.0801 164.744 54.2988 164.124 54.7363C163.504 55.1738 163.021 55.748 162.675 56.459V67H160.145V52.207H162.538ZM184.527 65.5371C183.543 66.6947 182.098 67.2734 180.193 67.2734C178.617 67.2734 177.413 66.8177 176.584 65.9062C175.764 64.9857 175.349 63.6276 175.34 61.832V52.207H177.869V61.7637C177.869 64.0059 178.781 65.127 180.604 65.127C182.536 65.127 183.821 64.4069 184.459 62.9668V52.207H186.988V67H184.582L184.527 65.5371ZM194.075 48.625V52.207H196.837V54.1621H194.075V63.3359C194.075 63.9284 194.198 64.375 194.445 64.6758C194.691 64.9674 195.11 65.1133 195.702 65.1133C195.994 65.1133 196.395 65.0586 196.905 64.9492V67C196.24 67.1823 195.593 67.2734 194.964 67.2734C193.834 67.2734 192.982 66.9316 192.407 66.248C191.833 65.5645 191.546 64.5938 191.546 63.3359V54.1621H188.853V52.207H191.546V48.625H194.075ZM205.743 67.2734C203.737 67.2734 202.106 66.6172 200.848 65.3047C199.59 63.9831 198.961 62.2194 198.961 60.0137V59.5488C198.961 58.0814 199.239 56.7734 199.795 55.625C200.36 54.4674 201.144 53.5651 202.147 52.918C203.159 52.2617 204.252 51.9336 205.428 51.9336C207.351 51.9336 208.846 52.5671 209.912 53.834C210.979 55.1009 211.512 56.9147 211.512 59.2754V60.3281H201.491C201.527 61.7865 201.951 62.9668 202.762 63.8691C203.582 64.7624 204.621 65.209 205.879 65.209C206.773 65.209 207.529 65.0267 208.149 64.6621C208.769 64.2975 209.311 63.8145 209.776 63.2129L211.321 64.416C210.081 66.321 208.222 67.2734 205.743 67.2734ZM205.428 54.0117C204.407 54.0117 203.551 54.3854 202.858 55.1328C202.165 55.8711 201.737 56.9102 201.573 58.25H208.983V58.0586C208.91 56.7734 208.564 55.7799 207.944 55.0781C207.324 54.3672 206.485 54.0117 205.428 54.0117ZM222.865 63.0762C222.865 62.3926 222.605 61.8639 222.086 61.4902C221.575 61.1074 220.677 60.7793 219.392 60.5059C218.116 60.2324 217.1 59.9043 216.343 59.5215C215.596 59.1387 215.04 58.6829 214.675 58.1543C214.32 57.6257 214.142 56.9967 214.142 56.2676C214.142 55.0553 214.653 54.0299 215.673 53.1914C216.703 52.3529 218.016 51.9336 219.611 51.9336C221.288 51.9336 222.646 52.3665 223.685 53.2324C224.733 54.0983 225.257 55.2057 225.257 56.5547H222.714C222.714 55.862 222.418 55.265 221.826 54.7637C221.242 54.2624 220.504 54.0117 219.611 54.0117C218.69 54.0117 217.97 54.2122 217.451 54.6133C216.931 55.0143 216.671 55.5384 216.671 56.1855C216.671 56.7962 216.913 57.2565 217.396 57.5664C217.879 57.8763 218.75 58.1725 220.007 58.4551C221.274 58.7376 222.3 59.0749 223.084 59.4668C223.867 59.8587 224.446 60.3327 224.82 60.8887C225.203 61.4355 225.394 62.1055 225.394 62.8984C225.394 64.2201 224.865 65.2819 223.808 66.084C222.751 66.877 221.379 67.2734 219.693 67.2734C218.508 67.2734 217.46 67.0638 216.548 66.6445C215.637 66.2253 214.921 65.6419 214.402 64.8945C213.892 64.138 213.636 63.3223 213.636 62.4473H216.166C216.211 63.2949 216.548 63.9694 217.177 64.4707C217.815 64.9629 218.654 65.209 219.693 65.209C220.65 65.209 221.416 65.0176 221.99 64.6348C222.573 64.2428 222.865 63.7233 222.865 63.0762ZM242.385 54.4766C242.002 54.4128 241.587 54.3809 241.141 54.3809C239.482 54.3809 238.356 55.0872 237.764 56.5V67H235.234V52.207H237.695L237.736 53.916C238.566 52.5944 239.742 51.9336 241.264 51.9336C241.756 51.9336 242.13 51.9974 242.385 52.125V54.4766ZM243.579 59.4668C243.579 58.0176 243.862 56.7142 244.427 55.5566C245.001 54.3991 245.794 53.5059 246.806 52.877C247.827 52.248 248.989 51.9336 250.292 51.9336C252.307 51.9336 253.933 52.6309 255.173 54.0254C256.422 55.4199 257.046 57.2747 257.046 59.5898V59.7676C257.046 61.2077 256.768 62.502 256.212 63.6504C255.665 64.7897 254.877 65.6784 253.847 66.3164C252.826 66.9544 251.65 67.2734 250.32 67.2734C248.314 67.2734 246.687 66.5762 245.439 65.1816C244.199 63.7871 243.579 61.9414 243.579 59.6445V59.4668ZM246.122 59.7676C246.122 61.4082 246.501 62.7253 247.257 63.7188C248.023 64.7122 249.043 65.209 250.32 65.209C251.605 65.209 252.626 64.7077 253.382 63.7051C254.139 62.6934 254.517 61.2806 254.517 59.4668C254.517 57.8444 254.129 56.5319 253.355 55.5293C252.589 54.5176 251.568 54.0117 250.292 54.0117C249.043 54.0117 248.036 54.5085 247.271 55.502C246.505 56.4954 246.122 57.9173 246.122 59.7676ZM269.151 67C269.005 66.7083 268.886 66.1888 268.795 65.4414C267.62 66.6628 266.216 67.2734 264.584 67.2734C263.126 67.2734 261.927 66.8633 260.989 66.043C260.059 65.2135 259.594 64.1654 259.594 62.8984C259.594 61.3581 260.177 60.1641 261.344 59.3164C262.52 58.4596 264.17 58.0312 266.293 58.0312H268.754V56.8691C268.754 55.985 268.49 55.2832 267.961 54.7637C267.433 54.235 266.653 53.9707 265.623 53.9707C264.721 53.9707 263.965 54.1986 263.354 54.6543C262.743 55.11 262.438 55.6615 262.438 56.3086H259.895C259.895 55.5703 260.155 54.8594 260.674 54.1758C261.203 53.4831 261.914 52.9362 262.807 52.5352C263.709 52.1341 264.698 51.9336 265.774 51.9336C267.478 51.9336 268.814 52.362 269.78 53.2188C270.746 54.0664 271.247 55.2376 271.284 56.7324V63.541C271.284 64.8991 271.457 65.9792 271.803 66.7812V67H269.151ZM264.954 65.0723C265.746 65.0723 266.498 64.8672 267.209 64.457C267.92 64.0469 268.435 63.5137 268.754 62.8574V59.8223H266.772C263.673 59.8223 262.123 60.7292 262.123 62.543C262.123 63.3359 262.388 63.9557 262.916 64.4023C263.445 64.849 264.124 65.0723 264.954 65.0723ZM274.433 59.4805C274.433 57.2109 274.971 55.388 276.046 54.0117C277.122 52.6263 278.53 51.9336 280.271 51.9336C282.003 51.9336 283.375 52.526 284.386 53.7109V46H286.916V67H284.591L284.468 65.4141C283.457 66.6536 282.048 67.2734 280.244 67.2734C278.53 67.2734 277.131 66.5716 276.046 65.168C274.971 63.7643 274.433 61.9323 274.433 59.6719V59.4805ZM276.962 59.7676C276.962 61.4447 277.309 62.7572 278.002 63.7051C278.694 64.653 279.651 65.127 280.873 65.127C282.477 65.127 283.648 64.4069 284.386 62.9668V56.1719C283.63 54.7773 282.468 54.0801 280.9 54.0801C279.66 54.0801 278.694 54.5586 278.002 55.5156C277.309 56.4727 276.962 57.89 276.962 59.7676ZM293.032 52.207L293.1 53.8477C294.185 52.5716 295.648 51.9336 297.489 51.9336C299.558 51.9336 300.966 52.7266 301.714 54.3125C302.206 53.6016 302.844 53.0273 303.628 52.5898C304.421 52.1523 305.355 51.9336 306.43 51.9336C309.675 51.9336 311.325 53.6517 311.38 57.0879V67H308.85V57.2383C308.85 56.181 308.609 55.3926 308.126 54.873C307.643 54.3444 306.832 54.0801 305.692 54.0801C304.753 54.0801 303.974 54.3626 303.354 54.9277C302.735 55.4837 302.374 56.2357 302.274 57.1836V67H299.731V57.3066C299.731 55.1556 298.679 54.0801 296.573 54.0801C294.914 54.0801 293.779 54.7865 293.169 56.1992V67H290.639V52.207H293.032ZM324.141 67C323.995 66.7083 323.876 66.1888 323.785 65.4414C322.609 66.6628 321.206 67.2734 319.574 67.2734C318.116 67.2734 316.917 66.8633 315.979 66.043C315.049 65.2135 314.584 64.1654 314.584 62.8984C314.584 61.3581 315.167 60.1641 316.334 59.3164C317.51 58.4596 319.16 58.0312 321.283 58.0312H323.744V56.8691C323.744 55.985 323.48 55.2832 322.951 54.7637C322.423 54.235 321.643 53.9707 320.613 53.9707C319.711 53.9707 318.954 54.1986 318.344 54.6543C317.733 55.11 317.428 55.6615 317.428 56.3086H314.885C314.885 55.5703 315.145 54.8594 315.664 54.1758C316.193 53.4831 316.904 52.9362 317.797 52.5352C318.699 52.1341 319.688 51.9336 320.764 51.9336C322.468 51.9336 323.803 52.362 324.77 53.2188C325.736 54.0664 326.237 55.2376 326.273 56.7324V63.541C326.273 64.8991 326.447 65.9792 326.793 66.7812V67H324.141ZM319.943 65.0723C320.736 65.0723 321.488 64.8672 322.199 64.457C322.91 64.0469 323.425 63.5137 323.744 62.8574V59.8223H321.762C318.663 59.8223 317.113 60.7292 317.113 62.543C317.113 63.3359 317.378 63.9557 317.906 64.4023C318.435 64.849 319.114 65.0723 319.943 65.0723ZM342.534 59.7676C342.534 62.0189 342.019 63.8327 340.989 65.209C339.96 66.5853 338.565 67.2734 336.806 67.2734C335.01 67.2734 333.598 66.7038 332.568 65.5645V72.6875H330.038V52.207H332.349L332.472 53.8477C333.502 52.5716 334.933 51.9336 336.765 51.9336C338.542 51.9336 339.946 52.6035 340.976 53.9434C342.015 55.2832 342.534 57.1471 342.534 59.5352V59.7676ZM340.005 59.4805C340.005 57.8125 339.65 56.4954 338.939 55.5293C338.228 54.5632 337.252 54.0801 336.013 54.0801C334.482 54.0801 333.333 54.7591 332.568 56.1172V63.1855C333.324 64.5345 334.482 65.209 336.04 65.209C337.252 65.209 338.214 64.7305 338.925 63.7734C339.645 62.8073 340.005 61.3763 340.005 59.4805ZM354.685 52.207L354.754 53.8477C355.838 52.5716 357.301 51.9336 359.142 51.9336C361.211 51.9336 362.619 52.7266 363.367 54.3125C363.859 53.6016 364.497 53.0273 365.281 52.5898C366.074 52.1523 367.008 51.9336 368.084 51.9336C371.328 51.9336 372.978 53.6517 373.033 57.0879V67H370.504V57.2383C370.504 56.181 370.262 55.3926 369.779 54.873C369.296 54.3444 368.485 54.0801 367.345 54.0801C366.407 54.0801 365.627 54.3626 365.007 54.9277C364.388 55.4837 364.028 56.2357 363.927 57.1836V67H361.384V57.3066C361.384 55.1556 360.332 54.0801 358.226 54.0801C356.567 54.0801 355.433 54.7865 354.822 56.1992V67H352.293V52.207H354.685ZM385.794 67C385.648 66.7083 385.529 66.1888 385.438 65.4414C384.263 66.6628 382.859 67.2734 381.227 67.2734C379.769 67.2734 378.57 66.8633 377.632 66.043C376.702 65.2135 376.237 64.1654 376.237 62.8984C376.237 61.3581 376.82 60.1641 377.987 59.3164C379.163 58.4596 380.813 58.0312 382.936 58.0312H385.397V56.8691C385.397 55.985 385.133 55.2832 384.604 54.7637C384.076 54.235 383.296 53.9707 382.266 53.9707C381.364 53.9707 380.608 54.1986 379.997 54.6543C379.386 55.11 379.081 55.6615 379.081 56.3086H376.538C376.538 55.5703 376.798 54.8594 377.317 54.1758C377.846 53.4831 378.557 52.9362 379.45 52.5352C380.352 52.1341 381.341 51.9336 382.417 51.9336C384.121 51.9336 385.457 52.362 386.423 53.2188C387.389 54.0664 387.89 55.2376 387.927 56.7324V63.541C387.927 64.8991 388.1 65.9792 388.446 66.7812V67H385.794ZM381.596 65.0723C382.389 65.0723 383.141 64.8672 383.852 64.457C384.563 64.0469 385.078 63.5137 385.397 62.8574V59.8223H383.415C380.316 59.8223 378.766 60.7292 378.766 62.543C378.766 63.3359 379.031 63.9557 379.559 64.4023C380.088 64.849 380.767 65.0723 381.596 65.0723ZM395.82 60.1504L394.234 61.8047V67H391.705V46H394.234V58.7012L395.588 57.0742L400.195 52.207H403.271L397.516 58.3867L403.941 67H400.975L395.82 60.1504ZM408.431 67H405.902V52.207H408.431V67ZM405.696 48.2832C405.696 47.873 405.82 47.5267 406.066 47.2441C406.321 46.9616 406.695 46.8203 407.187 46.8203C407.679 46.8203 408.053 46.9616 408.308 47.2441C408.563 47.5267 408.691 47.873 408.691 48.2832C408.691 48.6934 408.563 49.0352 408.308 49.3086C408.053 49.582 407.679 49.7188 407.187 49.7188C406.695 49.7188 406.321 49.582 406.066 49.3086C405.82 49.0352 405.696 48.6934 405.696 48.2832ZM414.684 52.207L414.766 54.0664C415.896 52.6445 417.373 51.9336 419.196 51.9336C422.322 51.9336 423.899 53.6973 423.926 57.2246V67H421.397V57.2109C421.388 56.1445 421.142 55.3561 420.659 54.8457C420.185 54.3353 419.442 54.0801 418.43 54.0801C417.61 54.0801 416.89 54.2988 416.27 54.7363C415.65 55.1738 415.167 55.748 414.821 56.459V67H412.291V52.207H414.684ZM426.939 59.4805C426.939 57.1745 427.472 55.3424 428.539 53.9844C429.605 52.6172 431.018 51.9336 432.777 51.9336C434.582 51.9336 435.99 52.5716 437.002 53.8477L437.125 52.207H439.435V66.6445C439.435 68.5586 438.865 70.0671 437.726 71.1699C436.596 72.2728 435.074 72.8242 433.16 72.8242C432.093 72.8242 431.05 72.5964 430.029 72.1406C429.008 71.6849 428.229 71.0605 427.691 70.2676L429.004 68.75C430.088 70.0898 431.414 70.7598 432.982 70.7598C434.212 70.7598 435.17 70.4134 435.853 69.7207C436.546 69.028 436.892 68.0527 436.892 66.7949V65.5234C435.88 66.6901 434.5 67.2734 432.75 67.2734C431.018 67.2734 429.614 66.5762 428.539 65.1816C427.472 63.7871 426.939 61.8867 426.939 59.4805ZM429.482 59.7676C429.482 61.4355 429.824 62.748 430.507 63.7051C431.191 64.653 432.148 65.127 433.379 65.127C434.974 65.127 436.145 64.4023 436.892 62.9531V56.1992C436.117 54.7865 434.955 54.0801 433.406 54.0801C432.175 54.0801 431.214 54.5586 430.521 55.5156C429.828 56.4727 429.482 57.89 429.482 59.7676ZM455.742 65.209C456.645 65.209 457.433 64.9355 458.107 64.3887C458.782 63.8418 459.156 63.1582 459.229 62.3379H461.621C461.576 63.1855 461.284 63.9922 460.746 64.7578C460.208 65.5234 459.488 66.1341 458.586 66.5898C457.693 67.0456 456.745 67.2734 455.742 67.2734C453.728 67.2734 452.124 66.6035 450.93 65.2637C449.745 63.9147 449.152 62.0736 449.152 59.7402V59.3164C449.152 57.8763 449.417 56.5957 449.945 55.4746C450.474 54.3535 451.23 53.4831 452.215 52.8633C453.208 52.2435 454.38 51.9336 455.729 51.9336C457.387 51.9336 458.764 52.4303 459.857 53.4238C460.96 54.4173 461.548 55.707 461.621 57.293H459.229C459.156 56.3359 458.791 55.5521 458.135 54.9414C457.488 54.3216 456.686 54.0117 455.729 54.0117C454.443 54.0117 453.445 54.4766 452.734 55.4062C452.033 56.3268 451.682 57.6621 451.682 59.4121V59.8906C451.682 61.5951 452.033 62.9076 452.734 63.8281C453.436 64.7487 454.439 65.209 455.742 65.209ZM466.794 53.998C467.915 52.6217 469.374 51.9336 471.169 51.9336C474.295 51.9336 475.872 53.6973 475.9 57.2246V67H473.37V57.2109C473.361 56.1445 473.115 55.3561 472.632 54.8457C472.158 54.3353 471.415 54.0801 470.404 54.0801C469.583 54.0801 468.863 54.2988 468.243 54.7363C467.624 55.1738 467.14 55.748 466.794 56.459V67H464.265V46H466.794V53.998ZM488.62 67C488.474 66.7083 488.355 66.1888 488.264 65.4414C487.088 66.6628 485.685 67.2734 484.053 67.2734C482.595 67.2734 481.396 66.8633 480.457 66.043C479.528 65.2135 479.063 64.1654 479.063 62.8984C479.063 61.3581 479.646 60.1641 480.813 59.3164C481.989 58.4596 483.638 58.0312 485.762 58.0312H488.223V56.8691C488.223 55.985 487.959 55.2832 487.43 54.7637C486.901 54.235 486.122 53.9707 485.092 53.9707C484.19 53.9707 483.433 54.1986 482.823 54.6543C482.212 55.11 481.907 55.6615 481.907 56.3086H479.364C479.364 55.5703 479.623 54.8594 480.143 54.1758C480.672 53.4831 481.383 52.9362 482.276 52.5352C483.178 52.1341 484.167 51.9336 485.243 51.9336C486.947 51.9336 488.282 52.362 489.248 53.2188C490.215 54.0664 490.716 55.2376 490.752 56.7324V63.541C490.752 64.8991 490.926 65.9792 491.272 66.7812V67H488.62ZM484.422 65.0723C485.215 65.0723 485.967 64.8672 486.678 64.457C487.389 64.0469 487.904 63.5137 488.223 62.8574V59.8223H486.241C483.142 59.8223 481.592 60.7292 481.592 62.543C481.592 63.3359 481.857 63.9557 482.385 64.4023C482.914 64.849 483.593 65.0723 484.422 65.0723ZM497.265 67H494.736V46H497.265V67ZM503.874 67H501.345V46H503.874V67ZM513.873 67.2734C511.868 67.2734 510.236 66.6172 508.979 65.3047C507.721 63.9831 507.092 62.2194 507.092 60.0137V59.5488C507.092 58.0814 507.37 56.7734 507.926 55.625C508.491 54.4674 509.275 53.5651 510.277 52.918C511.289 52.2617 512.383 51.9336 513.559 51.9336C515.482 51.9336 516.977 52.5671 518.043 53.834C519.109 55.1009 519.643 56.9147 519.643 59.2754V60.3281H509.621C509.658 61.7865 510.081 62.9668 510.893 63.8691C511.713 64.7624 512.752 65.209 514.01 65.209C514.903 65.209 515.66 65.0267 516.279 64.6621C516.899 64.2975 517.441 63.8145 517.906 63.2129L519.451 64.416C518.212 66.321 516.352 67.2734 513.873 67.2734ZM513.559 54.0117C512.538 54.0117 511.681 54.3854 510.988 55.1328C510.296 55.8711 509.867 56.9102 509.703 58.25H517.113V58.0586C517.04 56.7734 516.694 55.7799 516.074 55.0781C515.454 54.3672 514.616 54.0117 513.559 54.0117ZM524.775 52.207L524.857 54.0664C525.987 52.6445 527.463 51.9336 529.286 51.9336C532.413 51.9336 533.989 53.6973 534.017 57.2246V67H531.487V57.2109C531.478 56.1445 531.232 55.3561 530.749 54.8457C530.275 54.3353 529.532 54.0801 528.521 54.0801C527.7 54.0801 526.98 54.2988 526.361 54.7363C525.741 55.1738 525.258 55.748 524.911 56.459V67H522.382V52.207H524.775ZM537.03 59.4805C537.03 57.1745 537.563 55.3424 538.629 53.9844C539.696 52.6172 541.108 51.9336 542.868 51.9336C544.672 51.9336 546.08 52.5716 547.092 53.8477L547.215 52.207H549.526V66.6445C549.526 68.5586 548.956 70.0671 547.817 71.1699C546.687 72.2728 545.164 72.8242 543.25 72.8242C542.184 72.8242 541.14 72.5964 540.12 72.1406C539.099 71.6849 538.319 71.0605 537.782 70.2676L539.094 68.75C540.179 70.0898 541.505 70.7598 543.073 70.7598C544.303 70.7598 545.26 70.4134 545.944 69.7207C546.636 69.028 546.983 68.0527 546.983 66.7949V65.5234C545.971 66.6901 544.59 67.2734 542.84 67.2734C541.108 67.2734 539.705 66.5762 538.629 65.1816C537.563 63.7871 537.03 61.8867 537.03 59.4805ZM539.573 59.7676C539.573 61.4355 539.914 62.748 540.598 63.7051C541.282 64.653 542.239 65.127 543.469 65.127C545.064 65.127 546.235 64.4023 546.983 62.9531V56.1992C546.208 54.7865 545.046 54.0801 543.496 54.0801C542.266 54.0801 541.304 54.5586 540.612 55.5156C539.919 56.4727 539.573 57.89 539.573 59.7676ZM559.293 67.2734C557.287 67.2734 555.656 66.6172 554.398 65.3047C553.14 63.9831 552.511 62.2194 552.511 60.0137V59.5488C552.511 58.0814 552.789 56.7734 553.345 55.625C553.91 54.4674 554.694 53.5651 555.697 52.918C556.709 52.2617 557.802 51.9336 558.978 51.9336C560.901 51.9336 562.396 52.5671 563.462 53.834C564.529 55.1009 565.062 56.9147 565.062 59.2754V60.3281H555.041C555.077 61.7865 555.501 62.9668 556.312 63.8691C557.132 64.7624 558.171 65.209 559.429 65.209C560.323 65.209 561.079 65.0267 561.699 64.6621C562.319 64.2975 562.861 63.8145 563.326 63.2129L564.871 64.416C563.631 66.321 561.772 67.2734 559.293 67.2734ZM558.978 54.0117C557.957 54.0117 557.101 54.3854 556.408 55.1328C555.715 55.8711 555.287 56.9102 555.123 58.25H562.533V58.0586C562.46 56.7734 562.114 55.7799 561.494 55.0781C560.874 54.3672 560.035 54.0117 558.978 54.0117ZM587.07 59.7676C587.07 62.028 586.551 63.8464 585.512 65.2227C584.473 66.5898 583.078 67.2734 581.328 67.2734C579.46 67.2734 578.015 66.6126 576.994 65.291L576.871 67H574.547V46H577.076V53.834C578.097 52.5671 579.505 51.9336 581.301 51.9336C583.096 51.9336 584.505 52.6126 585.525 53.9707C586.555 55.3288 587.07 57.1882 587.07 59.5488V59.7676ZM584.541 59.4805C584.541 57.7578 584.208 56.4271 583.543 55.4883C582.878 54.5495 581.921 54.0801 580.672 54.0801C579.004 54.0801 577.805 54.8548 577.076 56.4043V62.8027C577.851 64.3522 579.059 65.127 580.699 65.127C581.911 65.127 582.855 64.6576 583.529 63.7188C584.204 62.7799 584.541 61.3672 584.541 59.4805ZM594.745 63.2949L598.191 52.207H600.898L594.95 69.2832C594.03 71.7441 592.567 72.9746 590.562 72.9746L590.083 72.9336L589.14 72.7559V70.7051L589.823 70.7598C590.68 70.7598 591.346 70.5866 591.82 70.2402C592.303 69.8939 592.699 69.2604 593.009 68.3398L593.57 66.8359L588.292 52.207H591.054L594.745 63.2949ZM618.449 47.0938H621.087V61.1895C621.087 63.0944 620.513 64.5846 619.365 65.6602C618.226 66.7357 616.703 67.2734 614.798 67.2734C612.821 67.2734 611.28 66.7676 610.177 65.7559C609.074 64.7441 608.523 63.3268 608.523 61.5039H611.148C611.148 62.6432 611.458 63.5319 612.078 64.1699C612.707 64.8079 613.614 65.127 614.798 65.127C615.883 65.127 616.758 64.7852 617.423 64.1016C618.098 63.418 618.44 62.4609 618.449 61.2305V47.0938ZM627.71 67H625.18V52.207H627.71V67ZM624.975 48.2832C624.975 47.873 625.098 47.5267 625.345 47.2441C625.6 46.9616 625.973 46.8203 626.466 46.8203C626.958 46.8203 627.332 46.9616 627.587 47.2441C627.842 47.5267 627.97 47.873 627.97 48.2832C627.97 48.6934 627.842 49.0352 627.587 49.3086C627.332 49.582 626.958 49.7188 626.466 49.7188C625.973 49.7188 625.6 49.582 625.345 49.3086C625.098 49.0352 624.975 48.6934 624.975 48.2832ZM630.969 59.4805C630.969 57.1745 631.502 55.3424 632.568 53.9844C633.635 52.6172 635.048 51.9336 636.807 51.9336C638.611 51.9336 640.02 52.5716 641.031 53.8477L641.154 52.207H643.465V66.6445C643.465 68.5586 642.895 70.0671 641.756 71.1699C640.626 72.2728 639.104 72.8242 637.189 72.8242C636.123 72.8242 635.079 72.5964 634.059 72.1406C633.038 71.6849 632.258 71.0605 631.721 70.2676L633.033 68.75C634.118 70.0898 635.444 70.7598 637.012 70.7598C638.242 70.7598 639.199 70.4134 639.883 69.7207C640.576 69.028 640.922 68.0527 640.922 66.7949V65.5234C639.91 66.6901 638.529 67.2734 636.779 67.2734C635.048 67.2734 633.644 66.5762 632.568 65.1816C631.502 63.7871 630.969 61.8867 630.969 59.4805ZM633.512 59.7676C633.512 61.4355 633.854 62.748 634.537 63.7051C635.221 64.653 636.178 65.127 637.408 65.127C639.003 65.127 640.174 64.4023 640.922 62.9531V56.1992C640.147 54.7865 638.985 54.0801 637.436 54.0801C636.205 54.0801 635.243 54.5586 634.551 55.5156C633.858 56.4727 633.512 57.89 633.512 59.7676ZM650.88 47.0938L657.388 63.3359L663.896 47.0938H667.3V67H664.675V59.248L664.921 50.8809L658.386 67H656.376L649.855 50.9219L650.114 59.248V67H647.489V47.0938H650.88ZM680.471 67C680.325 66.7083 680.207 66.1888 680.116 65.4414C678.94 66.6628 677.536 67.2734 675.905 67.2734C674.446 67.2734 673.248 66.8633 672.309 66.043C671.379 65.2135 670.914 64.1654 670.914 62.8984C670.914 61.3581 671.498 60.1641 672.664 59.3164C673.84 58.4596 675.49 58.0312 677.614 58.0312H680.075V56.8691C680.075 55.985 679.81 55.2832 679.282 54.7637C678.753 54.235 677.974 53.9707 676.944 53.9707C676.041 53.9707 675.285 54.1986 674.674 54.6543C674.064 55.11 673.758 55.6615 673.758 56.3086H671.215C671.215 55.5703 671.475 54.8594 671.995 54.1758C672.523 53.4831 673.234 52.9362 674.127 52.5352C675.03 52.1341 676.019 51.9336 677.094 51.9336C678.799 51.9336 680.134 52.362 681.1 53.2188C682.066 54.0664 682.567 55.2376 682.604 56.7324V63.541C682.604 64.8991 682.777 65.9792 683.123 66.7812V67H680.471ZM676.274 65.0723C677.067 65.0723 677.819 64.8672 678.53 64.457C679.241 64.0469 679.756 63.5137 680.075 62.8574V59.8223H678.092C674.993 59.8223 673.444 60.7292 673.444 62.543C673.444 63.3359 673.708 63.9557 674.237 64.4023C674.765 64.849 675.444 65.0723 676.274 65.0723ZM698.865 59.7676C698.865 62.0189 698.35 63.8327 697.32 65.209C696.29 66.5853 694.895 67.2734 693.136 67.2734C691.341 67.2734 689.928 66.7038 688.898 65.5645V72.6875H686.369V52.207H688.679L688.802 53.8477C689.832 52.5716 691.263 51.9336 693.095 51.9336C694.873 51.9336 696.276 52.6035 697.306 53.9434C698.345 55.2832 698.865 57.1471 698.865 59.5352V59.7676ZM696.336 59.4805C696.336 57.8125 695.98 56.4954 695.269 55.5293C694.558 54.5632 693.583 54.0801 692.343 54.0801C690.812 54.0801 689.664 54.7591 688.898 56.1172V63.1855C689.655 64.5345 690.812 65.209 692.371 65.209C693.583 65.209 694.545 64.7305 695.255 63.7734C695.976 62.8073 696.336 61.3763 696.336 59.4805Z" fill="white"/>
<defs>
<filter id="filter0_d" x="0" y="0" width="951" height="584" filterUnits="userSpaceOnUse" color-interpolation-filters="sRGB">
<feFlood flood-opacity="0" result="BackgroundImageFix"/>
<feColorMatrix in="SourceAlpha" type="matrix" values="0 0 0 0 0 0 0 0 0 0 0 0 0 0 0 0 0 0 127 0"/>
<feOffset/>
<feGaussianBlur stdDeviation="7.5"/>
<feColorMatrix type="matrix" values="0 0 0 0 0 0 0 0 0 0 0 0 0 0 0 0 0 0 0.25 0"/>
<feBlend mode="normal" in2="BackgroundImageFix" result="effect1_dropShadow"/>
<feBlend mode="normal" in="SourceGraphic" in2="effect1_dropShadow" result="shape"/>
</filter>
</defs>
</svg>
